<?xml version="1.0" encoding="UTF-8" standalone="no"?>
<!-- Created with Inkscape (http://www.inkscape.org/) -->

<svg
   xmlns:dc="http://purl.org/dc/elements/1.1/"
   xmlns:cc="http://creativecommons.org/ns#"
   xmlns:rdf="http://www.w3.org/1999/02/22-rdf-syntax-ns#"
   xmlns:svg="http://www.w3.org/2000/svg"
   xmlns="http://www.w3.org/2000/svg"
   version="1.1"
   width="747.83984"
   height="764.21686"
   id="svg3119">
  <defs
     id="defs3121" />
  <metadata
     id="metadata3124">
    <rdf:RDF>
      <cc:Work
         rdf:about="">
        <dc:format>image/svg+xml</dc:format>
        <dc:type
           rdf:resource="http://purl.org/dc/dcmitype/StillImage" />
        <dc:title></dc:title>
      </cc:Work>
    </rdf:RDF>
  </metadata>
  <g
     transform="translate(-3.0221884,9.7462614)"
     id="layer1">
    <path
       d="M 173.28645,-87.793102 A 631.42859,677.14282 0 0 1 437.77282,-110.26423"
       transform="matrix(0.42152028,0,0,0.3947525,197.55428,217.50425)"
       id="path3024"
       style="fill:none;stroke:#ffde17;stroke-width:138.42228699;stroke-miterlimit:4;stroke-opacity:1;stroke-dasharray:none;display:inline" />
    <path
       d="M 349.72842,-116.19159 A 631.42859,677.14282 0 1 1 175.88774,-88.621247"
       transform="matrix(0.42152028,0,0,0.3947525,197.55428,217.50425)"
       id="path3812"
       style="fill:none;stroke:#f8951d;stroke-width:138.42256165;stroke-miterlimit:4;stroke-opacity:1;stroke-dasharray:none;display:inline" />
    <path
       d="m -177.95106,437.42458 a 500,500 0 1 1 51.96921,209.12824"
       transform="matrix(0.39968187,0,0,0.39968187,217.64241,269.57628)"
       id="path3831"
       style="fill:none;stroke:#94b6d2;stroke-width:160.96861267;stroke-miterlimit:4;stroke-opacity:1;stroke-dasharray:none;display:inline" />
    <path
       d="M -160.5819,292.95375 A 500,500 0 0 1 181.20171,-55.565929"
       transform="matrix(0.39968187,0,0,0.39968187,217.64241,269.57628)"
       id="path3835"
       style="fill:none;stroke:#7aa77f;stroke-width:160.96861267;stroke-linecap:round;stroke-miterlimit:4;stroke-opacity:1;stroke-dasharray:none;display:inline" />
    <path
       d="M 450.58865,907.38602 A 500,500 0 0 1 -159.86102,290.33273"
       transform="matrix(0.39968187,0,0,0.39968187,217.64241,269.57628)"
       id="path3839"
       style="fill:none;stroke:#dc4040;stroke-width:160.96861267;stroke-miterlimit:4;stroke-opacity:1;stroke-dasharray:none;display:inline" />
    <path
       d="M 183.21495,-56.151608 A 500,500 0 0 1 321.74761,-75.762801"
       transform="matrix(0.39968187,0,0,0.39968187,217.64241,269.57628)"
       id="path3843"
       style="fill:none;stroke:#a67ba7;stroke-width:160.96861267;stroke-miterlimit:4;stroke-opacity:1;stroke-dasharray:none;display:inline" />
    <g
       transform="matrix(0.36763563,0,0,0.36763563,212.44765,240.08914)"
       id="text3878"
       style="font-size:130px;font-style:normal;font-variant:normal;font-weight:600;font-stretch:normal;text-align:start;line-height:125%;letter-spacing:0px;word-spacing:0px;writing-mode:lr-tb;text-anchor:start;fill:#000000;fill-opacity:1;stroke:none;display:inline;font-family:Lucida Sans;-inkscape-font-specification:Lucida Sans Semi-Bold">
      <path
         d="m -6.1615677,185.95499 c -8.3789843,2.1582 -14.4833083,3.45947 -18.3129883,3.90381 -3.829817,0.44433 -7.881734,0.6665 -12.155762,0.6665 -17.604205,0 -30.405299,-4.66553 -38.40332,-13.99658 -7.998057,-9.33104 -11.997076,-21.14824 -11.99707,-35.45166 -6e-6,-9.35216 1.756177,-17.7628 5.268554,-25.23194 3.512355,-7.46899 8.833802,-13.32999 15.964356,-17.583005 7.130499,-4.252835 16.789507,-6.379298 28.977051,-6.379394 10.283136,9.6e-5 20.481694,1.20615 30.5957027,3.618164 l 0,15.297855 c -8.5059377,-2.91985 -14.6208407,-4.65487 -18.3447267,-5.20508 -3.724023,-0.55005 -7.278707,-0.82511 -10.664062,-0.8252 -11.002651,9e-5 -18.926634,3.55477 -23.771973,10.66407 -4.845407,7.10944 -7.268093,15.72108 -7.268066,25.83496 -2.7e-5,11.04495 2.856415,19.82587 8.569336,26.34277 5.712849,6.51694 13.753206,9.7754 24.121093,9.77539 2.242777,1e-5 4.866473,-0.31737 7.871094,-0.95215 l 0,-30.91308 19.5507813,0 z"
         id="path3040" />
    </g>
    <g
       transform="matrix(0.36763563,0,0,0.36763563,212.44765,240.08914)"
       id="text3878-8"
       style="font-size:130px;font-style:normal;font-variant:normal;font-weight:600;font-stretch:normal;text-align:start;line-height:125%;letter-spacing:0px;word-spacing:0px;writing-mode:lr-tb;text-anchor:start;fill:#000000;fill-opacity:1;stroke:none;display:inline;font-family:Lucida Sans;-inkscape-font-specification:Lucida Sans Semi-Bold">
      <path
         d="m 915.87128,478.45541 c -8.37899,2.15821 -14.48331,3.45948 -18.31299,3.90381 -3.82982,0.44434 -7.88174,0.6665 -12.15576,0.66651 -17.60421,-1e-5 -30.4053,-4.66553 -38.40332,-13.99659 -7.99806,-9.33103 -11.99708,-21.14824 -11.99707,-35.45166 -1e-5,-9.35215 1.75617,-17.76279 5.26855,-25.23193 3.51236,-7.469 8.8338,-13.32999 15.96436,-17.58301 7.1305,-4.25283 16.7895,-6.3793 28.97705,-6.37939 10.28313,9e-5 20.48169,1.20615 30.5957,3.61816 l 0,15.29785 c -8.50594,-2.91984 -14.62084,-4.65486 -18.34473,-5.20507 -3.72402,-0.55005 -7.2787,-0.82512 -10.66406,-0.8252 -11.00265,8e-5 -18.92663,3.55477 -23.77197,10.66406 -4.84541,7.10944 -7.26809,15.72109 -7.26807,25.83496 -2e-5,11.04496 2.85642,19.82588 8.56934,26.34278 5.71285,6.51694 13.7532,9.7754 24.12109,9.77539 2.24278,1e-5 4.86647,-0.31737 7.8711,-0.95215 l 0,-30.91309 19.55078,0 z"
         id="path3043" />
    </g>
    <g
       transform="matrix(0.36763563,0,0,0.36763563,212.44765,240.08914)"
       id="text3878-2"
       style="font-size:130px;font-style:normal;font-variant:normal;font-weight:600;font-stretch:normal;text-align:start;line-height:125%;letter-spacing:0px;word-spacing:0px;writing-mode:lr-tb;text-anchor:start;fill:#000000;fill-opacity:1;stroke:none;display:inline;font-family:Lucida Sans;-inkscape-font-specification:Lucida Sans Semi-Bold">
      <path
         d="m 1360.3385,555.22705 c -8.379,2.1582 -14.4833,3.45947 -18.313,3.90381 -3.8298,0.44433 -7.8817,0.6665 -12.1557,0.6665 -17.6043,0 -30.4053,-4.66552 -38.4034,-13.99658 -7.998,-9.33103 -11.997,-21.14824 -11.997,-35.45166 0,-9.35216 1.7561,-17.76279 5.2685,-25.23193 3.5124,-7.469 8.8338,-13.32999 15.9644,-17.58301 7.1305,-4.25284 16.7895,-6.3793 28.977,-6.37939 10.2832,9e-5 20.4817,1.20614 30.5957,3.61816 l 0,15.29785 c -8.5059,-2.91984 -14.6208,-4.65487 -18.3447,-5.20508 -3.724,-0.55004 -7.2787,-0.82511 -10.6641,-0.82519 -11.0026,8e-5 -18.9266,3.55476 -23.7719,10.66406 -4.8454,7.10944 -7.2681,15.72109 -7.2681,25.83496 0,11.04496 2.8564,19.82587 8.5693,26.34277 5.7129,6.51695 13.7532,9.77541 24.1211,9.77539 2.2428,2e-5 4.8665,-0.31737 7.8711,-0.95214 l 0,-30.91309 19.5508,0 z"
         id="path3046" />
    </g>
    <g
       transform="matrix(0.36763563,0,0,0.36763563,207.57345,240.08914)"
       id="text3912"
       style="font-size:130px;font-style:normal;font-variant:normal;font-weight:600;font-stretch:normal;text-align:start;line-height:125%;letter-spacing:0px;word-spacing:0px;writing-mode:lr-tb;text-anchor:start;fill:#000000;fill-opacity:1;stroke:none;display:inline;font-family:Lucida Sans;-inkscape-font-specification:Lucida Sans Semi-Bold">
      <path
         d="m 225.89551,-135.57719 0,-93.94532 25.89844,0 22.59765,66.0791 23.2959,-66.0791 22.72461,0 0,93.94532 -18.02734,0 0,-70.90332 -22.91504,64.61914 -15.74219,0 -22.4707,-65.57129 0,71.85547 z"
         id="path3049" />
    </g>
    <g
       transform="matrix(0.36763563,0,0,0.36763563,210.01055,239.27677)"
       id="text3912-0"
       style="font-size:130px;font-style:normal;font-variant:normal;font-weight:600;font-stretch:normal;text-align:start;line-height:125%;letter-spacing:0px;word-spacing:0px;writing-mode:lr-tb;text-anchor:start;fill:#000000;fill-opacity:1;stroke:none;display:inline;font-family:Lucida Sans;-inkscape-font-specification:Lucida Sans Semi-Bold">
      <path
         d="m 248.52159,46.311577 0,-93.945313 25.89844,0 22.59765,66.079102 23.2959,-66.079102 22.72461,0 0,93.945313 -18.02734,0 0,-70.90332 -22.91504,64.61914 -15.74219,0 -22.4707,-65.571289 0,71.855469 z"
         id="path3052" />
    </g>
    <g
       transform="matrix(0.36763563,0,0,0.36763563,212.44765,240.08914)"
       id="text3937"
       style="font-size:130px;font-style:normal;font-variant:normal;font-weight:600;font-stretch:normal;text-align:start;line-height:125%;letter-spacing:0px;word-spacing:0px;writing-mode:lr-tb;text-anchor:start;fill:#000000;fill-opacity:1;stroke:none;display:inline;font-family:Lucida Sans;-inkscape-font-specification:Lucida Sans Semi-Bold">
      <path
         d="m -37.972103,984.86688 0,-16.12304 c 7.236314,3.04688 12.642396,4.86654 16.218262,5.45898 3.57582,0.59246 6.866018,0.88868 9.870605,0.88867 5.4166288,10e-6 9.4579659,-1.2272 12.12402351,-3.68164 2.66596829,-2.45441 3.99897479,-5.39549 3.99902339,-8.82324 -4.86e-5,-2.62367 -0.719449,-4.99346 -2.1582031,-7.10938 -1.43884715,-2.07353 -5.0781664,-4.7607 -10.9179687,-8.06152 l -6.2841801,-3.49121 c -8.971374,-5.03576 -15.043959,-9.6907 -18.217773,-13.96484 -3.216154,-4.27403 -4.824225,-9.2252 -4.824219,-14.85352 -6e-6,-7.06698 2.676586,-13.11841 8.029785,-18.1543 5.353171,-5.03571 13.044407,-7.55361 23.0737308,-7.55371 7.49018952,10e-5 15.9325639,1.0792 25.3271482,3.23731 l 0,15.04394 c -9.563855,-3.59692 -17.159876,-5.39542 -22.7880857,-5.39551 -4.6549832,9e-5 -8.1990873,1.02629 -10.6323243,3.07862 -2.433295,2.05248 -3.649928,4.51749 -3.649902,7.39502 -2.6e-5,2.20059 0.719374,4.253 2.158203,6.15722 1.396455,1.90437 5.014616,4.5069 10.8544921,7.80762 l 6.72851559,3.74512 c 10.28314731,5.79757 16.84238531,10.83338 19.67773431,15.10742 2.792901,4.31644 4.189384,9.16181 4.189453,14.53613 -6.9e-5,7.70184 -2.909409,14.28224 -8.728027,19.74121 -5.81874,5.45899 -15.0757292,8.18848 -27.770996,8.18848 -7.532578,0 -16.292334,-1.05794 -26.279297,-3.17383 z"
         id="path3055" />
    </g>
    <g
       transform="matrix(0.36763563,0,0,0.36763563,212.44765,240.08914)"
       id="text3941"
       style="font-size:130px;font-style:normal;font-variant:normal;font-weight:600;font-stretch:normal;text-align:start;line-height:125%;letter-spacing:0px;word-spacing:0px;writing-mode:lr-tb;text-anchor:start;fill:#000000;fill-opacity:1;stroke:none;display:inline;font-family:Lucida Sans;-inkscape-font-specification:Lucida Sans Semi-Bold">
      <path
         d="m 530.96155,1290.7582 0,-93.9453 19.55078,0 0,93.9453 z"
         id="path3058" />
    </g>
    <g
       transform="matrix(0.36763563,0,0,0.36763563,212.44765,240.08914)"
       id="text3945"
       style="font-size:64px;font-style:normal;font-variant:normal;font-weight:600;font-stretch:normal;text-align:start;line-height:125%;letter-spacing:0px;word-spacing:0px;writing-mode:lr-tb;text-anchor:start;fill:#000000;fill-opacity:1;stroke:none;display:inline;font-family:Lucida Sans;-inkscape-font-specification:Lucida Sans Semi-Bold">
      <path
         d="m 5.4527282,207.87465 0,-7.3125 c 2.7916599,-3.74999 5.4999908,-6.77082 8.1249998,-9.0625 l 3.78125,-3.34375 c 2.708315,-2.39581 4.942688,-4.7656 6.703125,-7.10938 1.760393,-2.34372 2.6406,-4.79684 2.640625,-7.35937 -2.5e-5,-2.31246 -0.744816,-4.09892 -2.234375,-5.35938 -1.489605,-1.26037 -3.505228,-1.89058 -6.046875,-1.89062 -3.375013,4e-5 -7.302093,1.14587 -11.7812498,3.4375 l 0,-6.78125 c 4.7083238,-1.74995 9.2604018,-2.62495 13.6562498,-2.625 4.854143,5e-5 8.776014,1.1615 11.765625,3.48437 2.98955,2.32296 4.48434,5.43233 4.484375,9.32813 -3.5e-5,2.45836 -0.630243,4.77607 -1.890625,6.95312 -1.260448,2.17711 -3.880237,4.86982 -7.859375,8.07813 l -3.125,2.5 c -1.375021,1.10418 -2.880227,2.52085 -4.515625,4.25 -1.635433,1.72918 -2.713556,3.56251 -3.234375,5.5 l 20.4375,0 0,7.3125 z"
         id="path3061" />
    </g>
    <g
       transform="matrix(0.36763563,0,0,0.36763563,212.44765,240.08914)"
       id="text3949"
       style="font-size:64px;font-style:normal;font-variant:normal;font-weight:600;font-stretch:normal;text-align:start;line-height:125%;letter-spacing:0px;word-spacing:0px;writing-mode:lr-tb;text-anchor:start;fill:#000000;fill-opacity:1;stroke:none;display:inline;font-family:Lucida Sans;-inkscape-font-specification:Lucida Sans Semi-Bold">
      <path
         d="m 938.77435,499.80875 0,-40.875 -6.1875,0 -0.1875,-4.625 15.625,-1.34375 0,46.84375 z"
         id="path3064" />
    </g>
    <g
       transform="matrix(0.36763563,0,0,0.36763563,212.44765,240.08914)"
       id="text3953"
       style="font-size:64px;font-style:normal;font-variant:normal;font-weight:600;font-stretch:normal;text-align:start;line-height:125%;letter-spacing:0px;word-spacing:0px;writing-mode:lr-tb;text-anchor:start;fill:#000000;fill-opacity:1;stroke:none;display:inline;font-family:Lucida Sans;-inkscape-font-specification:Lucida Sans Semi-Bold">
      <path
         d="m 1392.2246,576.72644 c -3.7083,0 -6.9063,-1.03125 -9.5937,-3.09375 -2.6875,-2.0625 -4.75,-5.02083 -6.1875,-8.875 -1.4375,-3.85415 -2.1563,-7.95831 -2.1563,-12.3125 0,-4.33331 0.7135,-8.43226 2.1406,-12.29687 1.4271,-3.86455 3.4948,-6.82809 6.2032,-8.89063 2.7083,-2.06245 5.9062,-3.0937 9.5937,-3.09375 3.6458,5e-5 6.8229,1.02088 9.5313,3.0625 2.7083,2.04171 4.7812,4.99483 6.2187,8.85938 1.4375,3.86461 2.1562,7.9844 2.1563,12.35937 -1e-4,4.22919 -0.6876,8.25522 -2.0625,12.07813 -1.3751,3.82292 -3.4063,6.8125 -6.0938,8.96875 -2.6875,2.15625 -5.9375,3.23437 -9.75,3.23437 z m 0,-5.78125 c 2.7708,10e-6 4.8125,-1.53124 6.125,-4.59375 1.3125,-3.06249 1.9687,-7.90623 1.9688,-14.53125 -1e-4,-5.9583 -0.6719,-10.42705 -2.0157,-13.40625 -1.3437,-2.97913 -3.3698,-4.46871 -6.0781,-4.46875 -2.7708,4e-5 -4.8177,1.52608 -6.1406,4.57813 -1.3229,3.05211 -1.9844,7.89065 -1.9844,14.51562 0,5.95835 0.6771,10.4323 2.0313,13.42188 1.3541,2.98958 3.3854,4.48438 6.0937,4.48437 z"
         id="path3067" />
    </g>
    <path
       d="m 527.00811,324.83061 c 114.45824,-50.36716 171.32184,56.62894 170.90358,77.61593"
       id="path3967"
       style="fill:none;stroke:#484848;stroke-width:4.04399204;stroke-linecap:butt;stroke-linejoin:miter;stroke-miterlimit:4;stroke-opacity:1;stroke-dasharray:none;display:inline" />
    <path
       d="M 701.14045,456.0244 C 674.65837,579.60878 556.79049,566.8383 529.40208,548.7211"
       id="path4421"
       style="fill:none;stroke:#484848;stroke-width:4.04399204;stroke-linecap:butt;stroke-linejoin:miter;stroke-miterlimit:4;stroke-opacity:1;stroke-dasharray:none;display:inline" />
    <path
       d="M 119.90273,667.00842 C -64.879544,471.70082 69.406246,254.50895 114.18366,218.32155"
       id="path5206"
       style="fill:none;stroke:#484848;stroke-width:4.04399204;stroke-linecap:butt;stroke-linejoin:miter;stroke-miterlimit:4;stroke-opacity:1;stroke-dasharray:none;display:inline" />
    <path
       d="M 365.84856,116.10476 C 399.40663,105.43344 422.41482,91.491984 441.7562,77.111114"
       id="path5208"
       style="fill:none;stroke:#484848;stroke-width:4.04399204;stroke-linecap:butt;stroke-linejoin:miter;stroke-miterlimit:4;stroke-opacity:1;stroke-dasharray:none;marker-start:none;display:inline" />
    <path
       d="m 432.08702,69.617868 c 7.40877,0.74492 14.81755,-0.77403 22.22636,-2.85953 -3.09869,6.33575 -7.57094,11.831886 -8.83854,20.796606 -4.53119,-14.165976 -9.32773,-14.153756 -13.38782,-17.937076 z"
       id="path5940"
       style="fill:#484848;fill-opacity:1;stroke:#484848;stroke-width:0.36763564px;stroke-linecap:butt;stroke-linejoin:miter;stroke-opacity:1;display:inline" />
    <path
       d="m 100.45666,218.39392 c 5.84453,2.87162 10.3035,7.22792 13.83228,13.18893 0.002,-7.60966 2.82443,-13.13277 4.91713,-18.88728 -5.66025,2.31692 -11.31556,5.14535 -18.74941,5.69835 z"
       id="path5942"
       style="fill:#484848;fill-opacity:1;stroke:#484848;stroke-width:0.36763564px;stroke-linecap:butt;stroke-linejoin:miter;stroke-opacity:1;display:inline" />
    <path
       d="m 685.44061,392.98059 c 7.08945,-0.14294 12.95783,-1.69786 18.3595,-5.29664 -2.74039,5.96739 -4.49515,12.74284 -4.61423,19.1719 -3.35034,-4.775 -7.43186,-9.72708 -13.74527,-13.87526 z"
       id="path5948"
       style="fill:#484848;fill-opacity:1;stroke:#484848;stroke-width:0.36763564px;stroke-linecap:butt;stroke-linejoin:miter;stroke-opacity:1;display:inline" />
    <path
       d="m 537.26474,562.57045 c -2.1399,-3.46452 -6.16944,-10.4099 -12.283,-15.53246 7.25602,0.39073 14.71138,-0.007 20.08173,-1.75472 -3.23273,4.51901 -7.36224,9.5933 -7.79873,17.28718 z"
       id="path5950"
       style="fill:#484848;fill-opacity:1;stroke:#484848;stroke-width:0.36763564px;stroke-linecap:butt;stroke-linejoin:miter;stroke-opacity:1;display:inline" />
    <path
       d="m 477.77479,120.69062 c -0.72833,4.86999 -2.78216,10.91511 -6.89365,16.01176 5.23061,-1.42712 11.29373,-0.96495 19.62917,-0.90082 -5.67247,-4.06691 -10.50706,-11.05337 -12.73552,-15.11094 z"
       id="path5942-8"
       style="fill:#484848;fill-opacity:1;stroke:#484848;stroke-width:0.40924132px;stroke-linecap:butt;stroke-linejoin:miter;stroke-opacity:1;display:inline" />
    <path
       d="m -443.15301,-755.63637 a 240,232 0 1 1 -0.007,-3e-5"
       transform="matrix(0.16515015,0,0,0.16609106,572.20314,136.8981)"
       id="path5975"
       style="fill:#f4eed3;fill-opacity:1;stroke:#bababa;stroke-width:13.76247692;stroke-linecap:butt;stroke-miterlimit:4;stroke-opacity:1;stroke-dasharray:none;display:inline" />
    <path
       d="m -288.03737,-448.63751 a 60.25,49.75 0 1 1 -0.005,-10e-6 l -0.20718,49.7497 z"
       transform="matrix(0.36763563,0,0,0.36763563,607.89173,187.0073)"
       id="path5979"
       style="fill:#a67ba7;fill-opacity:1;stroke:#a67ba7;stroke-width:0;stroke-linecap:butt;stroke-miterlimit:4;stroke-opacity:1;stroke-dasharray:none;display:inline" />
    <path
       d="m 347.52213,147.00507 c -5.90934,-57.970836 92.70905,-27.37542 131.38211,-15.98055"
       id="path6154"
       style="fill:none;stroke:#484848;stroke-width:4.04399204;stroke-linecap:butt;stroke-linejoin:miter;stroke-miterlimit:4;stroke-opacity:1;stroke-dasharray:none;display:inline" />
    <path
       d="m -443.15301,-755.63637 a 240,232 0 1 1 -0.007,-3e-5"
       transform="matrix(0.16515015,0,0,0.16609106,607.91868,239.59089)"
       id="path5983"
       style="fill:#f4eed3;fill-opacity:1;stroke:#bababa;stroke-width:13.76247692;stroke-linecap:butt;stroke-miterlimit:4;stroke-opacity:1;stroke-dasharray:none;display:inline" />
    <path
       d="m -288.03737,-448.63751 a 60.25,49.75 0 1 1 -0.005,-10e-6 l -0.20718,49.7497 z"
       transform="matrix(0.36763563,0,0,0.36763563,645.11469,303.84375)"
       id="path5985"
       style="fill:#a67ba7;fill-opacity:1;stroke:#a67ba7;stroke-width:0;stroke-linecap:butt;stroke-miterlimit:4;stroke-opacity:1;stroke-dasharray:none;display:inline" />
  </g>
</svg>
