<?xml version="1.0" encoding="UTF-8" standalone="no"?>
<!DOCTYPE svg PUBLIC "-//W3C//DTD SVG 1.1//EN"
 "http://www.w3.org/Graphics/SVG/1.1/DTD/svg11.dtd">
<!-- Generated by graphviz version 2.38.0 (20140413.2041)
 -->
<!-- Title: center Pages: 1 -->
<svg width="390pt" height="81pt"
 viewBox="0.00 0.00 390.00 80.66" xmlns="http://www.w3.org/2000/svg" xmlns:xlink="http://www.w3.org/1999/xlink">
<g id="graph0" class="graph" transform="scale(1 1) rotate(0) translate(4 76.6639)">
<title>center</title>
<polygon fill="white" stroke="none" points="-4,4 -4,-76.6639 386,-76.6639 386,4 -4,4"/>
<!-- DNA -->
<g id="node1" class="node"><title>DNA</title>
<text text-anchor="middle" x="43" y="-17.9639" font-family="Times,serif" font-size="14.00">DNA(基因)</text>
</g>
<!-- DNA&#45;&gt;DNA -->
<g id="edge1" class="edge"><title>DNA&#45;&gt;DNA</title>
<path fill="none" stroke="black" d="M28.1655,-39.8166C25.8833,-49.2029 30.8281,-57.6639 43,-57.6639 50.4172,-57.6639 55.1508,-54.522 57.2007,-49.9434"/>
<polygon fill="black" stroke="black" points="60.7029,-50.0157 57.8345,-39.8166 53.7166,-49.5784 60.7029,-50.0157"/>
<text text-anchor="middle" x="43" y="-61.4639" font-family="Times,serif" font-size="14.00">复制</text>
</g>
<!-- RNA -->
<g id="node2" class="node"><title>RNA</title>
<text text-anchor="middle" x="192" y="-17.9639" font-family="Times,serif" font-size="14.00">RNA</text>
</g>
<!-- DNA&#45;&gt;RNA -->
<g id="edge2" class="edge"><title>DNA&#45;&gt;RNA</title>
<path fill="none" stroke="black" d="M86.1243,-21.6639C107.753,-21.6639 133.843,-21.6639 154.59,-21.6639"/>
<polygon fill="black" stroke="black" points="154.601,-25.164 164.601,-21.6639 154.601,-18.164 154.601,-25.164"/>
<text text-anchor="middle" x="125.5" y="-25.4639" font-family="Times,serif" font-size="14.00">转录</text>
</g>
<!-- RNA&#45;&gt;DNA -->
<g id="edge3" class="edge"><title>RNA&#45;&gt;DNA</title>
<path fill="none" stroke="black" stroke-dasharray="5,2" d="M164.576,-8.20655C158.914,-5.90991 152.867,-3.87646 147,-2.66386 128.284,1.20437 122.887,0.255127 104,-2.66386 101.358,-3.07222 98.6725,-3.57609 95.9766,-4.15349"/>
<polygon fill="black" stroke="black" points="95.1143,-0.761111 86.2256,-6.52672 96.7697,-7.56257 95.1143,-0.761111"/>
<text text-anchor="middle" x="125.5" y="-6.46386" font-family="Times,serif" font-size="14.00">逆转录</text>
</g>
<!-- RNA&#45;&gt;RNA -->
<g id="edge4" class="edge"><title>RNA&#45;&gt;RNA</title>
<path fill="none" stroke="black" stroke-dasharray="5,2" d="M181.507,-39.8166C179.893,-49.2029 183.391,-57.6639 192,-57.6639 197.246,-57.6639 200.594,-54.522 202.044,-49.9434"/>
<polygon fill="black" stroke="black" points="205.547,-49.9616 202.493,-39.8166 198.554,-49.652 205.547,-49.9616"/>
<text text-anchor="middle" x="192" y="-61.4639" font-family="Times,serif" font-size="14.00">复制</text>
</g>
<!-- 蛋白质 -->
<g id="node3" class="node"><title>蛋白质</title>
<text text-anchor="middle" x="333" y="-17.9639" font-family="Times,serif" font-size="14.00">蛋白质(性状)</text>
</g>
<!-- RNA&#45;&gt;蛋白质 -->
<g id="edge5" class="edge"><title>RNA&#45;&gt;蛋白质</title>
<path fill="none" stroke="black" d="M219.145,-21.6639C234.544,-21.6639 254.67,-21.6639 273.657,-21.6639"/>
<polygon fill="black" stroke="black" points="273.749,-25.164 283.749,-21.6639 273.749,-18.164 273.749,-25.164"/>
<text text-anchor="middle" x="251.5" y="-25.4639" font-family="Times,serif" font-size="14.00">翻译</text>
</g>
</g>
</svg>
