<?xml version="1.0" standalone="no"?><!DOCTYPE svg PUBLIC "-//W3C//DTD SVG 1.1//EN" "http://www.w3.org/Graphics/SVG/1.1/DTD/svg11.dtd"><svg class="icon" width="200px" height="200.00px" viewBox="0 0 1024 1024" version="1.1" xmlns="http://www.w3.org/2000/svg"><path d="M119.6 935l30.9-16.4c75-39.9 157.9-41.2 218.8-3.4 21.1-94.7 78.2-184.4 158.5-249.4l15.7-12.7-131.3-10.7L401.5 511l-12.7 15.7c-64.9 80.4-154.7 137.4-249.4 158.5C177.2 746.1 175.9 829 136 904l-16.4 31z" fill="#C3FC68" /><path d="M119.6 955.6c-5.3 0-10.6-2.1-14.5-6-6.4-6.4-7.9-16.2-3.6-24.2l16.5-30.9c36.2-68.1 37.8-144.1 4.1-198.4-3.5-5.7-4.1-12.7-1.5-18.8s8-10.6 14.5-12.1c89.6-20 176.3-75.1 237.9-151.4l12.7-15.7c5.3-6.5 14-9.2 22-6.7 8 2.5 13.7 9.6 14.4 18l9.3 114 114 9.3c8.4 0.7 15.5 6.4 18 14.4s-0.2 16.8-6.7 22L541 681.8c-76.3 61.6-131.4 148.3-151.4 237.9-1.4 6.5-6 11.9-12.1 14.5-6.1 2.6-13.1 2-18.8-1.5-54.3-33.7-130.3-32.1-198.4 4.1l-30.9 16.4c-3.2 1.6-6.5 2.4-9.8 2.4z m50.1-256.9c12.1 27.7 18.2 58.7 17.7 91-0.5 32.8-7.8 66.5-21.3 98.8 32.3-13.5 66-20.8 98.8-21.3 32.4-0.5 63.3 5.6 91 17.7 11.7-40.3 29.5-79.5 53.2-116.6 23.2-36.4 51-69.6 83-98.8l-81.5-6.7c-10-0.8-18-8.8-18.8-18.8l-6.7-81.5c-29.2 32-62.3 59.8-98.8 83-37.2 23.7-76.3 41.5-116.6 53.2z"  /><path d="M119.6 955.6c-5.3 0-10.5-2-14.5-6-8-8-8-21 0-29.1l292.7-292.7c8-8 21-8 29.1 0s8 21 0 29.1L134.1 949.6c-4 4-9.3 6-14.5 6z"  /><path d="M936.4 955.6l-30.9-16.5c-75-39.9-157.9-41.2-218.8-3.4C665.5 841 608.4 751.3 528 686.3l-15.7-12.7 131.3-10.7 10.7-131.3 12.7 15.7c64.9 80.4 154.7 137.4 249.4 158.5-37.8 60.9-36.5 143.8 3.4 218.8l16.6 31z" fill="#C3FC68" /><path d="M936.4 976.1c-3.3 0-6.6-0.8-9.6-2.4l-30.9-16.4c-68.1-36.2-144.1-37.8-198.4-4.1-5.7 3.5-12.7 4.1-18.8 1.5-6.1-2.6-10.6-8-12.1-14.5-20-89.6-75.1-176.3-151.4-237.9l-15.7-12.7c-6.5-5.3-9.2-14-6.7-22 2.5-8 9.6-13.7 18-14.4l114-9.3 9.3-114c0.7-8.4 6.4-15.5 14.4-18s16.8 0.2 22 6.7l12.7 15.7c61.6 76.3 148.3 131.4 237.9 151.4 6.5 1.4 11.9 6 14.5 12.1s2 13.1-1.5 18.8c-33.7 54.3-32.1 130.3 4.1 198.4l16.5 30.9c4.2 8 2.8 17.8-3.6 24.2-4.2 4-9.4 6-14.7 6z m-149.1-88.4h3.7c32.8 0.5 66.5 7.8 98.8 21.3-13.5-32.3-20.8-66-21.3-98.8-0.5-32.3 5.6-63.3 17.7-91-40.3-11.7-79.5-29.5-116.6-53.2-36.4-23.2-69.6-51-98.8-83l-6.7 81.5c-0.8 10-8.8 18-18.8 18.8l-81.5 6.7c32 29.2 59.8 62.3 83 98.8 23.6 37.2 41.5 76.3 53.2 116.6 26.6-11.6 56.3-17.7 87.3-17.7z"  /><path d="M936.4 955.6L643.7 662.9" fill="#C3FC68" /><path d="M936.4 976.1c-5.3 0-10.5-2-14.5-6L629.1 677.4c-8-8-8-21 0-29.1s21-8 29.1 0L950.9 941c8 8 8 21 0 29.1-4 4-9.3 6-14.5 6z"  /><path d="M503.8 68.4l10.2 33.5c24.8 81.2 82.6 140.8 152.3 157.2-52 81.9-75.1 185.7-64.2 288.5l2.1 20.1-100.5-85.3-100.5 85.3 2.1-20.1c10.9-102.8-12.2-206.6-64.2-288.5 69.8-16.4 127.5-75.9 152.3-157.2l10.4-33.5z" fill="#C3FC68" /><path d="M403.3 588.2c-3.3 0-6.6-0.8-9.6-2.4-7.4-3.9-11.7-12-10.8-20.3l2.1-20.1c10.4-97.5-11.9-197.8-61.1-275.3-3.6-5.6-4.2-12.6-1.7-18.8 2.5-6.2 7.9-10.7 14.3-12.3 62.2-14.6 114.8-69.4 137.4-143.2l10.2-33.5c2.6-8.6 10.6-14.5 19.7-14.5s17 5.9 19.7 14.5l10.2 33.5c22.5 73.7 75.2 128.6 137.4 143.2 6.5 1.5 11.8 6.1 14.3 12.3 2.5 6.2 1.9 13.2-1.7 18.8-49.2 77.4-71.5 177.8-61.1 275.3l2.1 20.1c0.9 8.4-3.4 16.4-10.8 20.3-7.4 3.9-16.5 2.9-22.9-2.5l-87.2-74-87.2 74c-3.8 3.2-8.5 4.9-13.3 4.9z m-31.2-317.3C392.4 307.7 407.4 348 417 391c9.4 42.2 13.1 85.3 11.2 128.5l62.3-52.9c7.7-6.5 18.9-6.5 26.6 0l62.3 52.9c-2-43.3 1.8-86.4 11.2-128.5 9.6-43 24.6-83.3 44.9-120.1-28.2-11-54.4-28.6-76.9-51.8-22.8-23.6-41.5-52.5-54.8-84.9-13.3 32.3-32 61.3-54.8 84.9-22.5 23.3-48.7 40.9-76.9 51.8z"  /><path d="M503.8 502.9c-11.4 0-20.6-9.2-20.6-20.6V68.4c0-11.4 9.2-20.6 20.6-20.6 11.4 0 20.6 9.2 20.6 20.6v413.9c-0.1 11.4-9.3 20.6-20.6 20.6z"  /><path d="M515.2 688m-123 0a123 123 0 1 0 246 0 123 123 0 1 0-246 0Z" fill="#FFFFFF" /><path d="M515.2 831.6c-79.2 0-143.6-64.4-143.6-143.6 0-79.2 64.4-143.6 143.6-143.6 79.2 0 143.6 64.4 143.6 143.6 0 79.2-64.4 143.6-143.6 143.6z m0-246.1c-56.5 0-102.5 46-102.5 102.5s46 102.5 102.5 102.5 102.5-46 102.5-102.5-46-102.5-102.5-102.5z"  /><path d="M615.4 549.5m-123 0a123 123 0 1 0 246 0 123 123 0 1 0-246 0Z" fill="#FFFFFF" /><path d="M615.4 693.1c-79.2 0-143.6-64.4-143.6-143.6 0-79.2 64.4-143.6 143.6-143.6 79.2 0 143.6 64.4 143.6 143.6 0 79.2-64.4 143.6-143.6 143.6z m0-246.1c-56.5 0-102.5 46-102.5 102.5S558.9 652 615.4 652s102.5-46 102.5-102.5S671.9 447 615.4 447z"  /><path d="M392.2 551.9m-123 0a123 123 0 1 0 246 0 123 123 0 1 0-246 0Z" fill="#FFFFFF" /><path d="M392.2 695.5c-79.2 0-143.6-64.4-143.6-143.6 0-79.2 64.4-143.6 143.6-143.6 79.2 0 143.6 64.4 143.6 143.6 0 79.2-64.5 143.6-143.6 143.6z m0-246.1c-56.5 0-102.5 46-102.5 102.5s46 102.5 102.5 102.5 102.5-46 102.5-102.5-46-102.5-102.5-102.5z"  /></svg>