<?xml version="1.0" encoding="UTF-8" standalone="no"?>
<!-- Created with Inkscape (http://www.inkscape.org/) -->
<svg
   xmlns:svg="http://www.w3.org/2000/svg"
   xmlns="http://www.w3.org/2000/svg"
   version="1.0"
   width="620"
   height="352.39001"
   id="svg2">
  <defs
     id="defs4" />
  <g
     transform="translate(-131.88302,-374.9019)"
     id="layer1">
    <path
       d="M 215.52957,713.26697 C 216.32785,711.05452 218.68547,704.58955 220.76871,698.90039 L 224.55644,688.55644 L 227.58376,688.4205 C 229.24878,688.34574 230.61107,688.36086 230.61107,688.4541 C 230.61107,688.54735 232.28483,693.15985 234.33054,698.70412 C 236.37624,704.24838 238.74641,710.69823 239.59759,713.03711 L 241.14518,717.28962 L 238.24863,717.28962 L 235.35209,717.28962 L 234.25649,714.0715 L 233.16088,710.85339 L 227.60903,710.85339 L 222.05717,710.85339 L 221.02071,714.0715 L 219.98424,717.28962 L 217.0312,717.28962 L 214.07816,717.28962 L 215.52957,713.26697 z M 231.07645,705.45155 C 231.07954,705.26191 230.30934,702.8981 229.36487,700.19864 L 227.64766,695.29053 L 225.91125,700.16238 C 224.95623,702.84189 224.17485,705.2057 224.17485,705.41529 C 224.17485,705.62487 225.72644,705.79635 227.62282,705.79635 C 229.51921,705.79635 231.07334,705.64119 231.07645,705.45155 z M 666.20607,701.58044 C 665.70037,701.29988 664.93055,700.76232 664.49537,700.38586 C 663.75447,699.74494 663.7764,699.64457 664.83989,698.80803 C 665.88835,697.98331 666.03303,697.97208 666.72281,698.66185 C 667.6271,699.56615 669.15198,699.41473 669.81639,698.35466 C 670.16334,697.80103 670.13659,696.93197 669.72292,695.31796 C 669.01255,692.54623 669.33551,691.10245 671.02865,689.48031 C 673.20975,687.39066 676.38456,687.88615 678.73843,690.68356 C 680.74125,693.06378 683.3841,692.05215 682.78314,689.13532 C 681.75987,684.16875 682.16494,682.6392 684.85225,681.32153 C 686.98367,680.27644 688.99615,680.8277 691.31475,683.09176 C 692.69555,684.44006 693.25891,684.70861 694.20724,684.47059 C 695.61107,684.11825 696.11108,682.61389 695.42452,680.80808 C 694.55893,678.53149 694.83215,676.50347 696.20353,675.0259 C 696.89887,674.2767 697.88155,673.62898 698.38725,673.58651 C 701.04923,673.36299 701.98161,673.68788 703.80357,675.47386 C 705.91884,677.54734 707.24171,677.70174 708.0992,675.97522 C 708.52772,675.11241 708.49862,674.54999 707.95853,673.25744 C 706.5837,669.96698 708.79326,666.16755 712.08171,666.16755 C 714.2716,666.16755 716.51306,667.41922 716.53959,668.65691 C 716.55844,669.53663 714.74682,669.90311 713.52155,669.26744 C 711.38669,668.15985 709.42088,670.08867 710.54465,672.18841 C 711.16474,673.34708 711.17172,676.62869 710.55651,677.77823 C 709.92457,678.959 707.72783,680.05142 705.98536,680.05142 C 704.97253,680.05142 703.99863,679.52194 702.54207,678.1793 C 700.98937,676.74808 700.20687,676.34207 699.21927,676.45531 C 698.06264,676.58794 697.93432,676.77176 697.99262,678.2125 C 698.02843,679.09748 698.20143,680.64907 698.377,681.66048 C 698.6384,683.16607 698.50007,683.78838 697.61398,685.09364 C 695.66256,687.96812 692.22934,688.10009 689.67701,685.39874 C 687.80075,683.41291 686.9257,683.1402 685.67632,684.15188 C 684.72297,684.92385 684.68592,685.12938 685.19411,686.82562 C 686.14598,690.00276 685.91322,691.46804 684.18155,693.19972 C 681.81306,695.56821 678.83483,695.25632 676.59971,692.40574 C 675.30442,690.75379 673.94366,690.4732 672.79553,691.62131 C 672.16538,692.25146 671.96278,692.86741 672.16405,693.54105 C 672.75108,695.50604 672.98002,697.94826 672.68676,699.11674 C 672.1206,701.37259 668.38869,702.79131 666.20607,701.58044 z M 562.67156,696.883 C 559.74432,695.92602 557.23382,693.68119 555.78008,690.72081 C 554.643,688.40528 554.49147,687.58314 554.49147,683.72927 C 554.49147,679.87149 554.64242,679.05444 555.78495,676.72775 C 558.55141,671.09409 564.29119,668.72751 570.61354,670.61373 C 575.48519,672.06715 578.48604,676.32602 578.94867,682.44313 C 579.59005,690.92363 575.00929,696.88388 567.49997,697.33961 C 565.80152,697.44268 563.80643,697.25402 562.67156,696.883 z M 571.60939,692.63566 C 573.83313,690.86302 574.97703,688.5247 575.2857,685.12073 C 575.75891,679.90203 573.81663,675.68839 570.17569,674.03498 C 565.42298,671.87668 560.1052,674.30462 558.61824,679.31176 C 556.16886,687.55973 560.26596,694.62486 567.24195,694.18267 C 569.33001,694.05032 570.23837,693.72856 571.60939,692.63566 z M 677.69934,666.6561 C 673.90656,660.06054 670.12703,653.47229 669.30034,652.01554 L 667.79725,649.36691 L 668.88047,648.65717 L 669.96368,647.94743 L 677.94365,661.8157 C 682.3326,669.44325 686.14193,676.05862 686.40881,676.5165 C 686.78994,677.17055 686.70267,677.49087 686.00158,678.01063 C 685.51072,678.37451 684.99353,678.66678 684.85225,678.66013 C 684.71093,678.65347 681.49212,673.25166 677.69934,666.6561 z M 578.59565,671.18698 C 577.96599,670.69808 579.29151,668.17429 589.03094,651.31824 L 600.18753,632.00954 L 598.4319,631.8711 C 596.97282,631.75603 596.53465,631.4696 595.83758,630.17523 C 595.37628,629.31864 594.86238,628.70215 594.69559,628.80523 C 594.52879,628.90831 589.44877,637.57996 583.40665,648.07554 C 577.36453,658.57112 572.20192,667.16304 571.93418,667.16869 C 571.66644,667.17434 571.11332,666.92036 570.70501,666.60429 C 570.04755,666.09537 571.29716,663.72092 581.62924,645.84674 L 593.29585,625.66386 L 592.19491,623.77966 C 577.72924,599.02233 576.42057,596.60884 577.15118,596.0356 C 577.55402,595.71954 578.10267,595.46174 578.37041,595.46272 C 578.63815,595.46369 583.20166,603.01053 588.51156,612.23347 L 598.1659,629.00246 L 621.03752,629.01187 L 643.90913,629.02129 L 643.90913,630.40049 L 643.90913,631.77968 L 623.56603,631.79769 L 603.22294,631.81569 L 591.72967,651.79356 C 585.40837,662.78139 580.02952,671.76594 579.77667,671.75923 C 579.52382,671.75251 578.99236,671.495 578.59565,671.18698 z M 647.58697,631.31995 L 647.58697,617.98775 L 649.54083,617.99945 L 651.49468,618.01115 L 658.27447,628.22846 L 665.05422,638.44578 L 665.0555,628.21676 L 665.05675,617.98775 L 666.89567,617.98775 L 668.73459,617.98775 L 668.73459,631.31995 L 668.73459,644.65214 L 666.78074,644.64045 L 664.82688,644.62875 L 658.04709,634.41144 L 651.26735,624.19412 L 651.26606,634.42313 L 651.26482,644.65214 L 649.4259,644.65214 L 647.58697,644.65214 L 647.58697,631.31995 z M 294.9734,630.86022 L 294.9734,617.52802 L 296.92725,617.53972 L 298.88111,617.55142 L 305.66088,627.76873 L 312.44065,637.98605 L 312.44191,627.75703 L 312.44317,617.52802 L 314.28209,617.52802 L 316.12102,617.52802 L 316.12102,630.86022 L 316.12102,644.19241 L 314.16716,644.18072 L 312.2133,644.16902 L 305.43353,633.9517 L 298.65376,623.73439 L 298.6525,633.9634 L 298.65124,644.19241 L 296.81232,644.19241 L 294.9734,644.19241 L 294.9734,630.86022 z M 319.79886,629.94076 L 319.79886,628.56156 L 342.90802,628.56156 L 366.01718,628.56156 L 375.20411,612.63808 C 380.25693,603.88017 384.59793,596.43883 384.85078,596.10177 C 385.22732,595.59984 385.48656,595.63199 386.28336,596.27947 C 387.25359,597.06787 387.22952,597.11605 377.33181,614.19497 L 367.40742,631.31995 L 343.60314,631.31995 L 319.79886,631.31995 L 319.79886,629.94076 z M 185.60231,628.72513 C 184.8538,628.20085 184.70084,627.85509 185.05898,627.49695 C 185.72208,626.83385 185.69297,625.20313 185.00578,624.51593 C 184.17875,623.6889 183.07956,623.84099 180.68613,625.11358 C 178.16624,626.45342 177.28351,626.52488 175.38433,625.54278 C 172.73563,624.17308 172.16914,620.72563 174.13122,617.91678 C 175.34528,616.17879 175.24023,614.4071 173.88655,613.79033 C 172.97629,613.37558 172.44097,613.49469 170.74298,614.48978 C 167.90844,616.15093 165.79452,616.0836 163.98546,614.27454 C 162.127,612.41607 162.05819,610.00791 163.78885,607.39272 C 164.82613,605.82529 164.92988,605.38348 164.4883,604.41432 C 163.85257,603.01904 162.10431,602.8986 160.34322,604.12878 C 157.53438,606.09087 154.08693,605.52438 152.71723,602.87568 C 151.71791,600.94321 151.81743,599.66802 153.13443,597.52973 C 154.38442,595.50026 154.5848,594.09496 153.74408,593.25423 C 152.93382,592.44398 151.62198,592.5797 150.1529,593.62577 C 146.30027,596.36909 141.88302,594.45819 141.88302,590.04821 C 141.88302,587.70318 142.7977,586.42032 143.99266,587.0894 C 144.64004,587.45188 144.87127,588.08936 144.87127,589.51163 C 144.87127,592.37559 145.87438,592.81602 148.73491,591.20804 C 149.97152,590.51291 151.51197,589.94417 152.15816,589.94417 C 156.37828,589.94417 158.31662,594.09313 155.91681,597.98946 C 154.48147,600.31987 154.47293,601.23111 155.87783,602.15163 C 156.9354,602.84458 157.11682,602.81866 159.0214,601.7025 C 161.74452,600.10665 164.33222,600.10602 165.92704,601.70084 C 167.7611,603.53489 167.92509,605.25389 166.5237,607.95502 C 165.20506,610.49665 165.05201,611.55008 165.88097,612.37904 C 166.67593,613.174 167.9938,613.05872 169.3959,612.07157 C 172.03675,610.21228 174.52945,610.30325 176.55918,612.33297 C 178.15242,613.92621 178.14709,616.44325 176.54468,619.17755 C 175.40872,621.1159 175.3857,621.27923 176.09554,622.3626 C 177.03766,623.80045 177.81725,623.79895 179.94193,622.3552 C 184.0514,619.56274 188.98847,622.30346 188.12641,626.89865 C 187.71941,629.0681 186.91895,629.64734 185.60231,628.72513 z M 319.79886,620.74614 L 319.79886,619.36695 L 340.48675,619.36695 L 361.17464,619.36695 L 361.17464,620.74614 L 361.17464,622.12533 L 340.48675,622.12533 L 319.79886,622.12533 L 319.79886,620.74614 z M 667.66388,613.64337 C 666.64236,612.86918 665.50282,615.10415 677.55701,594.24014 L 687.16026,577.61836 L 672.31571,551.84331 L 657.47119,526.06826 L 627.82259,526.16985 L 598.17404,526.27145 L 587.90028,544.08042 C 578.11146,561.0488 577.57963,561.86503 576.63281,561.37299 C 576.08627,561.08896 575.56957,560.79784 575.48459,560.72604 C 575.39961,560.65424 579.31193,553.70011 584.17863,545.2724 C 589.04533,536.84469 593.02707,529.74241 593.02693,529.48956 C 593.0268,529.23671 588.12891,520.5478 582.14273,510.18086 C 572.26341,493.07172 571.33192,491.27829 572.05115,490.75104 C 572.48696,490.43157 573.04754,490.23819 573.2969,490.32131 C 573.54626,490.40442 578.41628,498.57385 584.11917,508.47558 C 589.82206,518.37731 594.6379,526.4838 594.82105,526.49002 C 595.0042,526.49623 595.47498,525.88067 595.86725,525.12212 C 596.48296,523.93147 596.83696,523.74293 598.45678,523.74293 C 599.77496,523.74293 600.26412,523.572 600.10119,523.16826 C 599.97366,522.8522 595.2065,514.53556 589.5075,504.68685 C 579.49455,487.38297 579.17697,486.75819 580.07459,486.12947 C 580.72578,485.67337 581.1484,485.62377 581.4882,485.96358 C 581.7548,486.23017 586.78953,494.78787 592.6765,504.98068 L 603.38008,523.51306 L 630.42563,523.62514 L 657.47119,523.73722 L 667.50978,506.30422 C 673.03101,496.71606 677.78922,488.55193 678.08359,488.1617 C 678.56309,487.52607 678.71944,487.5345 679.58498,488.24271 C 680.54687,489.02974 680.50563,489.11173 670.2826,506.73288 C 664.6349,516.46768 660.01079,524.64889 660.00688,524.91334 C 660.00292,525.17779 666.72327,537.03527 674.94096,551.26329 C 683.15865,565.49131 689.88223,577.35693 689.88223,577.63135 C 689.88223,578.23665 669.07967,614.316 668.74259,614.29529 C 668.6118,614.28724 668.12632,613.99388 667.66388,613.64337 z M 294.14751,612.35605 C 293.65203,611.53428 289.18843,603.82804 284.2284,595.23108 C 279.26836,586.63411 275.04651,579.34955 274.84651,579.04316 C 274.6465,578.73678 264.67606,576.40478 252.68997,573.86094 C 240.70387,571.31711 230.87138,569.18868 230.83998,569.1311 C 230.80858,569.07352 230.89939,568.49062 231.04178,567.83576 L 231.30067,566.64511 L 252.44829,571.15474 C 264.07948,573.63502 273.90623,575.66692 274.28551,575.67005 C 274.71575,575.6736 280.4215,566.22975 289.45663,550.55963 C 297.42146,536.74577 303.99759,525.29632 304.07024,525.11641 C 304.14289,524.93651 298.41509,518.36772 291.34181,510.51911 C 278.81572,496.62 278.50444,496.22795 279.37165,495.44314 C 280.19429,494.69866 280.3247,494.69411 281.08634,495.38339 C 281.53972,495.79369 287.38405,502.23328 294.07374,509.69358 L 306.2368,523.25776 L 336.11931,523.26791 L 366.00181,523.27806 L 373.34608,510.52309 C 386.58501,487.53072 385.18181,489.67828 386.37686,490.57971 L 387.41444,491.36236 L 378.12941,507.43771 C 373.02265,516.27915 368.75032,523.87232 368.63536,524.31141 C 368.51082,524.78707 372.44256,532.07444 378.36254,542.3405 C 383.82747,551.81741 388.29876,559.76289 388.29876,559.99714 C 388.29876,560.40586 387.23729,560.98113 386.48312,560.98113 C 386.28443,560.98113 381.59486,553.12355 376.06184,543.51984 L 366.00181,526.05855 L 336.28246,526.05007 L 306.56311,526.04158 L 292.18887,550.98198 C 284.28303,564.6992 277.61886,576.24051 277.37961,576.62933 C 277.05147,577.1626 279.44842,581.67705 287.13593,595.00455 C 296.45494,611.16049 297.25836,612.7232 296.5222,613.26149 C 295.36864,614.10499 295.15229,614.02251 294.14751,612.35605 z M 171.6466,604.31076 C 170.97484,603.56135 171.901,602.62878 185.1651,590.69871 C 198.42562,578.77186 199.44928,577.94995 200.05205,578.74571 C 200.40806,579.21569 200.70591,579.73496 200.71395,579.89965 C 200.7328,580.28563 173.15298,605.11529 172.70539,605.11529 C 172.51969,605.11529 172.04324,604.75325 171.6466,604.31076 z M 386.45984,578.4509 L 386.45984,565.1187 L 388.41369,565.1304 L 390.36755,565.1421 L 397.14732,575.35941 L 403.92709,585.57673 L 403.92835,575.34772 L 403.92961,565.1187 L 405.76853,565.1187 L 407.60746,565.1187 L 407.60746,578.4509 L 407.60746,591.78309 L 405.6536,591.7714 L 403.69975,591.7597 L 396.91998,581.54239 L 390.1402,571.32507 L 390.13894,581.55408 L 390.13769,591.78309 L 388.29876,591.78309 L 386.45984,591.78309 L 386.45984,578.4509 z M 495.41606,578.4509 L 495.41606,565.1187 L 497.25498,565.1187 L 499.0939,565.1187 L 499.0939,570.63547 L 499.0939,576.15224 L 505.98987,576.15224 L 512.88583,576.15224 L 512.88583,570.63547 L 512.88583,565.1187 L 514.72475,565.1187 L 516.56368,565.1187 L 516.56368,578.4509 L 516.56368,591.78309 L 514.72475,591.78309 L 512.88583,591.78309 L 512.88583,585.57673 L 512.88583,579.37036 L 505.98987,579.37036 L 499.0939,579.37036 L 499.0939,585.57673 L 499.0939,591.78309 L 497.25498,591.78309 L 495.41606,591.78309 L 495.41606,578.4509 z M 556.10053,578.4509 L 556.10053,565.1187 L 558.05439,565.1304 L 560.00824,565.1421 L 566.78801,575.35941 L 573.56778,585.57673 L 573.56904,575.34772 L 573.5703,565.1187 L 575.40923,565.1187 L 577.24815,565.1187 L 577.24815,578.4509 L 577.24815,591.78309 L 575.29429,591.7714 L 573.34044,591.7597 L 566.56067,581.54239 L 559.7809,571.32507 L 559.77964,581.55408 L 559.77838,591.78309 L 557.93945,591.78309 L 556.10053,591.78309 L 556.10053,578.4509 z M 205.32588,565.57843 L 205.32588,552.24624 L 207.27974,552.25793 L 209.23359,552.26963 L 216.01336,562.48695 L 222.79313,572.70426 L 222.79439,562.47525 L 222.79565,552.24624 L 224.63458,552.24624 L 226.4735,552.24624 L 226.4735,565.57843 L 226.4735,578.91063 L 224.51964,578.89893 L 222.56579,578.88723 L 215.78602,568.66992 L 209.00625,558.45261 L 209.00499,568.68162 L 209.00373,578.91063 L 207.1648,578.91063 L 205.32588,578.91063 L 205.32588,565.57843 z M 423.69804,577.53144 L 423.69804,576.15224 L 426.91615,576.15224 L 430.13427,576.15224 L 430.13427,577.53144 L 430.13427,578.91063 L 426.91615,578.91063 L 423.69804,578.91063 L 423.69804,577.53144 z M 436.11077,577.53144 L 436.11077,576.15224 L 439.32889,576.15224 L 442.54701,576.15224 L 442.54701,577.53144 L 442.54701,578.91063 L 439.32889,578.91063 L 436.11077,578.91063 L 436.11077,577.53144 z M 448.52351,577.53144 L 448.52351,576.15224 L 451.74162,576.15224 L 454.95974,576.15224 L 454.95974,577.53144 L 454.95974,578.91063 L 451.74162,578.91063 L 448.52351,578.91063 L 448.52351,577.53144 z M 460.93624,577.53144 L 460.93624,576.15224 L 464.15436,576.15224 L 467.37247,576.15224 L 467.37247,577.53144 L 467.37247,578.91063 L 464.15436,578.91063 L 460.93624,578.91063 L 460.93624,577.53144 z M 473.34897,577.53144 L 473.34897,576.15224 L 476.56709,576.15224 L 479.78521,576.15224 L 479.78521,577.53144 L 479.78521,578.91063 L 476.56709,578.91063 L 473.34897,578.91063 L 473.34897,577.53144 z M 485.76171,577.53144 L 485.76171,576.15224 L 488.97982,576.15224 L 492.19794,576.15224 L 492.19794,577.53144 L 492.19794,578.91063 L 488.97982,578.91063 L 485.76171,578.91063 L 485.76171,577.53144 z M 519.78179,577.53144 L 519.78179,576.15224 L 536.3321,576.15224 L 552.88241,576.15224 L 552.88241,577.53144 L 552.88241,578.91063 L 536.3321,578.91063 L 519.78179,578.91063 L 519.78179,577.53144 z M 411.2853,577.30157 C 411.2853,576.18508 411.37725,576.15224 414.50342,576.15224 C 417.62959,576.15224 417.72154,576.18508 417.72154,577.30157 C 417.72154,578.41806 417.62959,578.4509 414.50342,578.4509 C 411.37725,578.4509 411.2853,578.41806 411.2853,577.30157 z M 285.90268,577.20499 C 284.96602,576.38743 285.04044,576.24313 297.41189,554.88969 C 304.26047,543.06886 309.9909,533.39727 310.14618,533.39727 C 310.30146,533.39727 310.81209,533.67776 311.28091,534.02056 C 312.07987,534.60478 311.36236,535.98117 299.83729,555.97271 C 293.07447,567.70359 287.3847,577.46499 287.19335,577.66472 C 287.00199,577.86445 286.42119,577.65757 285.90268,577.20499 z M 664.48208,556.65129 C 657.71829,544.9252 652.18428,535.15266 652.18428,534.93452 C 652.18428,534.71638 652.58843,534.2855 653.08241,533.97701 C 653.78989,533.53518 654.05828,533.53583 654.34667,533.98005 C 654.54803,534.29021 660.22953,544.061 666.97217,555.69291 C 677.80917,574.38813 679.14575,576.90852 678.49247,577.4165 C 678.08602,577.73257 677.53439,577.98673 677.26669,577.98131 C 676.99894,577.97588 671.24587,568.37737 664.48208,556.65129 z M 369.35838,550.25815 C 361.28633,536.25393 360.38415,534.48416 361.05616,533.97194 C 361.47084,533.65587 362.02917,533.40543 362.2969,533.41541 C 362.78127,533.43345 380.25347,563.53225 380.25347,564.34861 C 380.25347,564.58405 379.83971,565.04511 379.33401,565.3732 C 378.4643,565.93742 377.92456,565.11962 369.35838,550.25815 z M 214.08871,545.69507 C 213.79899,543.60905 212.35178,533.31682 210.87268,522.82346 C 209.39358,512.33011 208.31626,503.61025 208.47864,503.44601 C 208.80186,503.11907 246.94633,486.06855 248.10801,485.73174 C 248.547,485.60447 249.02319,485.95939 249.33675,486.64759 C 249.84801,487.76968 249.82167,487.78326 230.42144,496.39537 C 212.99844,504.12975 211.01077,505.11973 211.15522,505.99112 C 211.24381,506.52552 212.55418,515.85854 214.06715,526.73118 C 215.58012,537.60381 216.93107,547.17196 217.06927,547.99373 C 217.30539,549.39777 217.239,549.48785 215.96801,549.48785 C 214.62297,549.48785 214.61254,549.46681 214.08871,545.69507 z M 219.25135,509.83064 C 218.75437,508.73988 218.90791,508.65888 235.51608,501.25039 C 244.73763,497.13688 252.34352,493.84306 252.41807,493.93078 C 252.49262,494.01851 252.78285,494.53158 253.06302,495.07094 C 253.55153,496.01133 252.90766,496.34868 237.37952,503.28814 C 228.47341,507.26825 220.86405,510.6163 220.46983,510.72825 C 220.03565,510.85155 219.55527,510.49767 219.25135,509.83064 z M 732.28647,493.40212 C 731.46144,492.89909 730.43463,491.7498 730.00464,490.84815 C 729.32512,489.42317 729.31086,489.15312 729.89564,488.78325 C 731.0378,488.06085 731.58359,488.28906 732.18473,489.74041 C 732.86697,491.38746 733.88463,492.0215 735.84598,492.0215 C 738.55481,492.0215 740.36955,488.92657 739.07697,486.51132 C 738.52759,485.48478 735.84971,484.52039 734.73569,484.94788 C 734.10075,485.19153 733.96757,485.04224 734.09087,484.22509 C 734.20038,483.49933 734.77569,483.0141 736.03921,482.58179 C 738.765,481.64919 739.41212,479.94744 737.69424,478.22957 C 735.9834,476.51873 732.47381,477.57043 731.65039,480.04068 C 731.51523,480.44621 731.10138,480.54047 730.41394,480.32228 C 729.10849,479.90795 729.41973,478.5683 731.26196,476.67206 C 733.08889,474.79158 736.36553,474.49278 738.57826,476.00488 C 741.11634,477.73933 741.58779,480.94446 739.5602,482.68054 C 738.72133,483.39881 738.74427,483.4715 740.26239,484.90326 C 745.10699,489.47231 738.09526,496.94377 732.28647,493.40212 z M 254.51708,480.52822 L 254.51708,467.19603 L 256.47094,467.20772 L 258.42479,467.21942 L 265.20456,477.43674 L 271.98433,487.65405 L 271.98559,477.42504 L 271.98685,467.19603 L 273.82578,467.19603 L 275.6647,467.19603 L 275.6647,480.52822 L 275.6647,493.86042 L 273.71084,493.84872 L 271.75699,493.83702 L 264.97722,483.61971 L 258.19745,473.4024 L 258.19619,483.63141 L 258.19493,493.86042 L 256.356,493.86042 L 254.51708,493.86042 L 254.51708,480.52822 z M 562.67156,486.32627 C 559.74432,485.36928 557.23382,483.12445 555.78008,480.16408 C 554.643,477.84854 554.49147,477.0264 554.49147,473.17253 C 554.49147,469.31475 554.64242,468.4977 555.78495,466.17102 C 558.55141,460.53736 564.29119,458.17077 570.61354,460.057 C 575.48519,461.51041 578.48604,465.76928 578.94867,471.8864 C 579.59005,480.3669 575.00929,486.32715 567.49997,486.78287 C 565.80152,486.88595 563.80643,486.69728 562.67156,486.32627 z M 571.60939,482.07892 C 573.83313,480.30628 574.97703,477.96796 575.2857,474.56399 C 575.75891,469.34529 573.81663,465.13165 570.17569,463.47824 C 565.42298,461.31995 560.1052,463.74789 558.61824,468.75503 C 556.16886,477.00299 560.26596,484.06812 567.24195,483.62594 C 569.33001,483.49358 570.23837,483.17182 571.60939,482.07892 z M 684.67981,486.29839 C 681.78382,485.26556 680.27085,483.74406 678.48489,480.06849 C 677.41964,477.8763 677.25511,476.95904 677.24793,473.17253 C 677.23874,468.34465 678.18464,465.44402 680.5973,462.90142 C 683.34056,460.01045 688.43523,458.70041 692.5774,459.82086 C 694.97862,460.47038 697.8684,463.06916 698.83811,465.45114 L 699.53143,467.15423 L 697.81001,467.63005 C 696.86324,467.89176 696.03605,467.95288 695.97183,467.76589 C 695.5052,466.40702 693.7819,464.27905 692.52987,463.5157 C 689.20422,461.48802 684.11167,463.05554 682.06679,466.7363 C 681.06669,468.53651 680.91746,469.37209 680.91746,473.17253 C 680.91746,476.97297 681.06669,477.80855 682.06679,479.60876 C 683.60201,482.37218 686.44251,483.88686 689.57168,483.61072 C 692.33591,483.36679 693.9229,482.23055 695.399,479.43841 C 696.50544,477.34556 696.60837,477.27539 698.15739,477.55814 C 699.04237,477.71967 699.83255,477.91674 699.91337,477.99607 C 700.39991,478.47369 697.74731,483.10625 696.25672,484.38212 C 693.31587,486.8994 688.56841,487.68523 684.67981,486.29839 z M 386.45984,473.17253 L 386.45984,459.84034 L 388.41369,459.85203 L 390.36755,459.86373 L 397.14732,470.08104 L 403.92709,480.29836 L 403.92835,470.06935 L 403.92961,459.84034 L 405.76853,459.84034 L 407.60746,459.84034 L 407.60746,473.17253 L 407.60746,486.50473 L 405.6536,486.49303 L 403.69975,486.48133 L 396.91998,476.26402 L 390.1402,466.0467 L 390.13894,476.27571 L 390.13769,486.50473 L 388.29876,486.50473 L 386.45984,486.50473 L 386.45984,473.17253 z M 447.14432,473.17253 L 447.14432,459.84034 L 448.98324,459.84034 L 450.82216,459.84034 L 450.82216,465.35711 L 450.82216,470.87388 L 457.71812,470.87388 L 464.61409,470.87388 L 464.61409,465.35711 L 464.61409,459.84034 L 466.45301,459.84034 L 468.29193,459.84034 L 468.29193,473.17253 L 468.29193,486.50473 L 466.45301,486.50473 L 464.61409,486.50473 L 464.61409,480.29836 L 464.61409,474.09199 L 457.71812,474.09199 L 450.82216,474.09199 L 450.82216,480.29836 L 450.82216,486.50473 L 448.98324,486.50473 L 447.14432,486.50473 L 447.14432,473.17253 z M 704.59362,473.17253 L 704.59362,459.84034 L 706.43254,459.84034 L 708.27147,459.84034 L 708.27147,465.35711 L 708.27147,470.87388 L 715.16743,470.87388 L 722.06339,470.87388 L 722.06339,465.35711 L 722.06339,459.84034 L 723.90231,459.84034 L 725.74124,459.84034 L 725.74124,473.17253 L 725.74124,486.50473 L 723.90231,486.50473 L 722.06339,486.50473 L 722.06339,480.29836 L 722.06339,474.09199 L 715.16743,474.09199 L 708.27147,474.09199 L 708.27147,480.29836 L 708.27147,486.50473 L 706.43254,486.50473 L 704.59362,486.50473 L 704.59362,473.17253 z M 483.92278,472.25307 L 483.92278,470.87388 L 487.1409,470.87388 L 490.35902,470.87388 L 490.35902,472.25307 L 490.35902,473.63226 L 487.1409,473.63226 L 483.92278,473.63226 L 483.92278,472.25307 z M 495.87579,472.25307 L 495.87579,470.87388 L 499.0939,470.87388 L 502.31202,470.87388 L 502.31202,472.25307 L 502.31202,473.63226 L 499.0939,473.63226 L 495.87579,473.63226 L 495.87579,472.25307 z M 507.82879,472.25307 L 507.82879,470.87388 L 511.27677,470.87388 L 514.72475,470.87388 L 514.72475,472.25307 L 514.72475,473.63226 L 511.27677,473.63226 L 507.82879,473.63226 L 507.82879,472.25307 z M 520.24152,472.25307 L 520.24152,470.87388 L 523.45964,470.87388 L 526.67775,470.87388 L 526.67775,472.25307 L 526.67775,473.63226 L 523.45964,473.63226 L 520.24152,473.63226 L 520.24152,472.25307 z M 532.19453,472.25307 L 532.19453,470.87388 L 535.41264,470.87388 L 538.63076,470.87388 L 538.63076,472.25307 L 538.63076,473.63226 L 535.41264,473.63226 L 532.19453,473.63226 L 532.19453,472.25307 z M 544.14753,472.25307 L 544.14753,470.87388 L 547.36564,470.87388 L 550.58376,470.87388 L 550.58376,472.25307 L 550.58376,473.63226 L 547.36564,473.63226 L 544.14753,473.63226 L 544.14753,472.25307 z M 411.2853,472.0232 L 411.2853,470.87388 L 427.37589,470.87388 L 443.46647,470.87388 L 443.46647,472.0232 L 443.46647,473.17253 L 427.37589,473.17253 L 411.2853,473.17253 L 411.2853,472.0232 z M 471.96978,472.0232 C 471.96978,470.90671 472.06173,470.87388 475.1879,470.87388 C 478.31407,470.87388 478.40601,470.90671 478.40601,472.0232 C 478.40601,473.13969 478.31407,473.17253 475.1879,473.17253 C 472.06173,473.17253 471.96978,473.13969 471.96978,472.0232 z M 381.46218,447.69293 C 378.914,443.28752 376.77209,439.44362 376.70238,439.15093 C 376.63266,438.85825 377.00789,438.32191 377.53621,437.95908 C 378.46311,437.32252 378.66866,437.59774 383.39778,445.80767 C 386.09332,450.48722 388.29876,454.5024 388.29876,454.7303 C 388.29876,455.13285 387.22691,455.70276 386.4698,455.70276 C 386.26379,455.70276 384.01036,452.09833 381.46218,447.69293 z M 356.1176,420.30348 L 356.1176,406.97129 L 357.95652,406.97129 L 359.79545,406.97129 L 359.79545,412.48806 L 359.79545,418.00483 L 366.69141,418.00483 L 373.58737,418.00483 L 373.58737,412.48806 L 373.58737,406.97129 L 375.4263,406.97129 L 377.26522,406.97129 L 377.26522,420.30348 L 377.26522,433.63568 L 375.4263,433.63568 L 373.58737,433.63568 L 373.58737,427.42931 L 373.58737,421.22294 L 366.69141,421.22294 L 359.79545,421.22294 L 359.79545,427.42931 L 359.79545,433.63568 L 357.95652,433.63568 L 356.1176,433.63568 L 356.1176,420.30348 z M 718.38554,401.91425 L 718.38554,389.96124 L 714.24797,389.96124 L 710.11039,389.96124 L 710.11039,387.43272 L 710.11039,384.9042 L 721.14393,384.9042 L 732.17747,384.9042 L 732.17747,387.43272 L 732.17747,389.96124 L 728.03989,389.96124 L 723.90231,389.96124 L 723.90231,401.91425 L 723.90231,413.86725 L 721.14393,413.86725 L 718.38554,413.86725 L 718.38554,401.91425 z"
       id="path2542"
       style="fill:#000000" />
  </g>
</svg>
