<?xml version="1.0" encoding="iso-8859-1"?>
<!-- Generator: Adobe Illustrator 19.0.0, SVG Export Plug-In . SVG Version: 6.00 Build 0)  -->
<svg version="1.1" id="Layer_1" xmlns="http://www.w3.org/2000/svg" xmlns:xlink="http://www.w3.org/1999/xlink" x="0px" y="0px"
	 viewBox="0 0 431.281 431.281" style="enable-background:new 0 0 431.281 431.281;" xml:space="preserve">
<g>
	<circle style="fill:#F9DEA0;" cx="215.64" cy="215.641" r="209.193"/>
	<circle style="fill:#FCBC1D;" cx="215.64" cy="215.641" r="191.312"/>
	<circle style="fill:#F24125;" cx="215.64" cy="215.641" r="170.64"/>
	<path style="fill:#FFFFFF;" d="M322.158,327.159c-1.28,0-2.559-0.488-3.536-1.464c-1.953-1.953-1.953-5.119,0-7.071
		c48.68-48.68,56.517-125.701,18.634-183.14c-1.521-2.305-0.884-5.406,1.421-6.927c2.307-1.521,5.408-0.883,6.927,1.421
		c40.485,61.385,32.111,143.695-19.911,195.717C324.717,326.671,323.438,327.159,322.158,327.159z"/>
	<path style="fill:#FFFFFF;" d="M329.83,122.381c-1.405,0-2.801-0.588-3.79-1.736c-2.359-2.738-4.854-5.425-7.417-7.987
		c-1.953-1.952-1.953-5.118,0-7.071c1.952-1.953,5.119-1.953,7.071,0c2.737,2.736,5.402,5.606,7.921,8.53
		c1.803,2.092,1.568,5.249-0.523,7.052C332.147,121.983,330.986,122.381,329.83,122.381z"/>
	<path style="fill:#FFFFFF;" d="M92.239,307.06c-1.576,0-3.125-0.742-4.099-2.13c-20.736-29.579-30.519-65.843-27.546-102.11
		c3.007-36.696,18.985-71.227,44.991-97.233c1.953-1.953,5.118-1.953,7.071,0s1.953,5.119,0,7.071
		c-24.332,24.331-39.281,56.641-42.096,90.978c-2.782,33.946,6.369,67.881,25.768,95.553c1.585,2.261,1.037,5.379-1.224,6.964
		C94.232,306.766,93.23,307.06,92.239,307.06z"/>
	<path style="fill:#FFFFFF;" d="M109.122,327.159c-1.28,0-2.559-0.488-3.535-1.464c-1.89-1.889-3.757-3.854-5.549-5.839
		c-1.851-2.05-1.689-5.211,0.361-7.062c2.05-1.85,5.211-1.689,7.062,0.361c1.679,1.859,3.427,3.699,5.196,5.469
		c1.953,1.953,1.953,5.118,0,7.071C111.681,326.671,110.401,327.159,109.122,327.159z"/>
	<path style="fill:#333333;" d="M388.532,100.435c-1.58,0-3.134-0.747-4.105-2.14C345.87,43.008,282.772,10.001,215.64,10.001
		c-9.013,0-18.085,0.592-26.963,1.76c-2.736,0.36-5.25-1.567-5.609-4.305c-0.36-2.738,1.568-5.249,4.306-5.609
		c9.307-1.225,18.818-1.846,28.266-1.846c70.399,0,136.564,34.607,176.989,92.573c1.58,2.265,1.024,5.382-1.241,6.961
		C390.517,100.143,389.52,100.435,388.532,100.435z"/>
	<path style="fill:#333333;" d="M154.146,19.156c-2.141,0-4.121-1.385-4.779-3.539c-0.808-2.641,0.678-5.436,3.319-6.244
		c4.986-1.525,10.093-2.883,15.179-4.038c2.691-0.61,5.371,1.076,5.983,3.769c0.611,2.693-1.076,5.372-3.769,5.983
		c-4.847,1.101-9.715,2.396-14.468,3.849C155.123,19.085,154.63,19.156,154.146,19.156z"/>
	<path style="fill:#333333;" d="M60.226,362.677c-1.354,0-2.705-0.547-3.691-1.625C20.078,321.195,0,269.554,0,215.641
		c0-43.346,12.865-85.176,37.204-120.966c23.751-34.926,56.826-61.95,95.648-78.15c2.548-1.063,5.477,0.141,6.54,2.689
		c1.063,2.549-0.14,5.477-2.688,6.54c-37.027,15.45-68.574,41.227-91.23,74.544C22.267,134.424,10,174.308,10,215.641
		c0,51.408,19.147,100.653,53.914,138.663c1.864,2.038,1.723,5.2-0.315,7.064C62.64,362.245,61.431,362.677,60.226,362.677z"/>
	<path style="fill:#333333;" d="M215.64,431.281c-51.806,0-101.921-18.718-141.113-52.707c-2.086-1.809-2.311-4.967-0.501-7.053
		c1.809-2.086,4.968-2.31,7.053-0.501c37.374,32.412,85.162,50.261,134.562,50.261c113.39,0,205.64-92.25,205.64-205.64
		c0-31.757-7.077-62.225-21.034-90.559c-1.22-2.477-0.201-5.475,2.276-6.695c2.478-1.22,5.475-0.201,6.695,2.276
		c14.64,29.72,22.063,61.675,22.063,94.978C431.28,334.544,334.544,431.281,215.64,431.281z"/>
	<path style="fill:#333333;" d="M308.63,387.029c-1.75,0-3.448-0.92-4.365-2.554c-1.352-2.408-0.495-5.456,1.914-6.807
		c58.66-32.912,95.101-94.997,95.101-162.026c0-9.158-0.676-18.363-2.01-27.358c-0.405-2.731,1.481-5.274,4.212-5.679
		c2.725-0.405,5.274,1.48,5.679,4.212c1.406,9.479,2.119,19.177,2.119,28.825c0,70.641-38.397,136.067-100.207,170.747
		C310.299,386.822,309.459,387.029,308.63,387.029z"/>
	<path style="fill:#333333;" d="M400.286,173.139c-2.227,0-4.258-1.499-4.839-3.755c-10.073-39.132-33.241-74.545-65.238-99.714
		c-32.991-25.952-72.608-39.669-114.569-39.669c-37.136,0-73,10.977-103.714,31.745c-2.287,1.547-5.396,0.946-6.943-1.341
		c-1.547-2.288-0.946-5.396,1.341-6.943c32.375-21.89,70.175-33.461,109.316-33.461c44.226,0,85.981,14.458,120.752,41.809
		c33.711,26.518,58.123,63.836,68.74,105.081c0.688,2.674-0.921,5.4-3.596,6.088C401.118,173.087,400.698,173.139,400.286,173.139z"
		/>
	<path style="fill:#333333;" d="M80.553,86.25c-1.275,0-2.551-0.485-3.526-1.456c-1.958-1.948-1.966-5.114-0.018-7.071
		c3.332-3.349,6.827-6.617,10.388-9.714c2.083-1.812,5.242-1.592,7.054,0.491c1.813,2.083,1.592,5.242-0.491,7.054
		c-3.38,2.94-6.698,6.042-9.861,9.222C83.12,85.758,81.836,86.25,80.553,86.25z"/>
	<path style="fill:#333333;" d="M215.64,411.281C107.764,411.281,20,323.516,20,215.641c0-44.769,15.574-88.559,43.853-123.306
		c1.743-2.142,4.892-2.465,7.034-0.722s2.465,4.892,0.722,7.034C44.777,131.616,30,173.165,30,215.641
		c0,102.362,83.277,185.64,185.64,185.64c25.918,0,51.009-5.263,74.576-15.642c2.525-1.112,5.478,0.033,6.591,2.561
		c1.113,2.527-0.033,5.478-2.561,6.591C269.402,405.732,242.955,411.281,215.64,411.281z"/>
	<path style="fill:#333333;" d="M45,220.641c-2.761,0-5-2.239-5-5c0-48.362,19.243-93.422,54.185-126.879
		c1.995-1.91,5.16-1.841,7.069,0.153c1.91,1.995,1.841,5.16-0.153,7.069C68.148,127.538,50,170.032,50,215.641
		C50,218.402,47.761,220.641,45,220.641z"/>
	<path style="fill:#333333;" d="M215.64,391.281c-42.704,0-83.867-15.509-115.906-43.671
		c-31.745-27.903-52.376-66.213-58.094-107.874c-0.375-2.736,1.538-5.258,4.274-5.633c2.731-0.374,5.258,1.538,5.633,4.274
		c5.391,39.28,24.848,75.406,54.789,101.722c30.213,26.557,69.032,41.182,109.304,41.182c25.079,0,49.169-5.461,71.601-16.231
		c2.489-1.196,5.477-0.146,6.671,2.343c1.195,2.489,0.146,5.476-2.343,6.671C267.775,385.489,242.229,391.281,215.64,391.281z"/>
	<path style="fill:#333333;" d="M304.479,366.364c-1.685,0-3.329-0.851-4.271-2.394c-1.44-2.356-0.696-5.434,1.66-6.873
		c4.417-2.698,8.761-5.641,12.91-8.746c2.21-1.655,5.345-1.203,6.999,1.008s1.203,5.344-1.008,6.999
		c-4.399,3.292-9.004,6.412-13.688,9.273C306.267,366.127,305.367,366.364,304.479,366.364z"/>
	<path style="fill:#333333;" d="M333.127,344.395c-1.323,0-2.644-0.522-3.626-1.557c-1.902-2.002-1.82-5.167,0.183-7.069
		c33.272-31.598,51.596-74.26,51.596-120.128c0-91.334-74.306-165.64-165.64-165.64c-34.333,0-67.266,10.408-95.238,30.1
		c-2.258,1.59-5.377,1.048-6.967-1.21c-1.59-2.258-1.048-5.377,1.21-6.967c29.667-20.884,64.59-31.923,100.995-31.923
		c96.848,0,175.64,78.792,175.64,175.64c0,48.637-19.43,93.875-54.71,127.38C335.603,343.938,334.364,344.395,333.127,344.395z"/>
</g>
<g>
</g>
<g>
</g>
<g>
</g>
<g>
</g>
<g>
</g>
<g>
</g>
<g>
</g>
<g>
</g>
<g>
</g>
<g>
</g>
<g>
</g>
<g>
</g>
<g>
</g>
<g>
</g>
<g>
</g>
</svg>
