<?xml version="1.0" encoding="iso-8859-1"?>
<!-- Generator: Adobe Illustrator 19.0.0, SVG Export Plug-In . SVG Version: 6.00 Build 0)  -->
<svg version="1.1" id="Layer_1" xmlns="http://www.w3.org/2000/svg" xmlns:xlink="http://www.w3.org/1999/xlink" x="0px" y="0px"
	 viewBox="0 0 504.052 504.052" style="enable-background:new 0 0 504.052 504.052;" xml:space="preserve">
<g>
	<path style="fill:#EEC319;" d="M58.478,468.017c7.324,0.937,13.381,6.994,14.319,14.319c0.703,5.519,3.176,10.847,7.411,15.082
		c0.876,0.876,1.796,1.675,2.76,2.404c13.772,10.388,33.749,0.434,35.649-16.714l4.547-40.917L61.802,380.83l-40.682,4.521
		c-18.519,2.057-27.804,24.741-14.848,38.131c0.104,0.104,0.2,0.2,0.304,0.304c4.235,4.235,9.572,6.708,15.082,7.411
		c7.324,0.937,13.381,7.003,14.319,14.319c0.712,5.519,3.185,10.856,7.42,15.091S52.959,467.314,58.478,468.017"/>
	<g>
		<path style="fill:#BE3A2B;" d="M67.749,444.482c-2.222,0-4.443-0.85-6.135-2.543c-3.393-3.393-3.393-8.878,0-12.271l24.541-24.541
			c3.393-3.393,8.886-3.393,12.271,0c3.393,3.384,3.393,8.878,0,12.271l-24.541,24.541C72.192,443.631,69.97,444.482,67.749,444.482
			"/>
		<path style="fill:#BE3A2B;" d="M92.292,419.939H55.471c-4.79,0-8.678-3.879-8.678-8.678c0-4.799,3.888-8.678,8.678-8.678h36.821
			c4.79,0,8.678,3.879,8.678,8.678C100.97,416.06,97.082,419.939,92.292,419.939"/>
		<path style="fill:#BE3A2B;" d="M92.292,456.762c-4.79,0-8.678-3.879-8.678-8.678v-36.821c0-4.799,3.888-8.678,8.678-8.678
			s8.678,3.879,8.678,8.678v36.821C100.97,452.883,97.082,456.762,92.292,456.762"/>
	</g>
	<path style="fill:#EEC319;" d="M445.574,35.926c-7.324-0.937-13.381-6.994-14.319-14.319c-0.703-5.519-3.176-10.847-7.411-15.082
		c-13.46-13.243-36.248-5.137-38.331,13.616l-4.625,41.611l61.362,61.362l40.682-4.521c18.519-2.057,27.804-24.741,14.848-38.131
		l-0.304-0.304c-4.235-4.235-9.572-6.708-15.082-7.411c-7.324-0.937-13.381-7.003-14.319-14.319
		c-0.712-5.519-3.185-10.856-7.42-15.091S451.093,36.628,445.574,35.926"/>
	<g>
		<path style="fill:#BE3A2B;" d="M411.376,100.855c-2.222,0-4.443-0.85-6.135-2.543c-3.393-3.393-3.393-8.878,0-12.271l24.55-24.541
			c3.384-3.393,8.878-3.393,12.271,0c3.384,3.384,3.384,8.878,0,12.271l-24.55,24.541
			C415.819,100.005,413.598,100.855,411.376,100.855"/>
		<path style="fill:#BE3A2B;" d="M448.194,100.855h-36.821c-4.79,0-8.678-3.879-8.678-8.678c0-4.799,3.888-8.678,8.678-8.678h36.821
			c4.79,0,8.678,3.879,8.678,8.678C456.872,96.976,452.985,100.855,448.194,100.855"/>
		<path style="fill:#BE3A2B;" d="M411.376,100.855c-4.79,0-8.678-3.879-8.678-8.678V55.365c0-4.799,3.888-8.678,8.678-8.678
			c4.79,0,8.678,3.879,8.678,8.678v36.812C420.054,96.976,416.167,100.855,411.376,100.855"/>
		<path style="fill:#BE3A2B;" d="M132.079,451.11l-79.195-79.195c-5.719-5.719-7.324-14.371-4.035-21.764l16.02-36.048
			c49.378-111.087,138.197-199.914,249.283-249.283l36.057-16.028c7.394-3.28,16.046-1.675,21.764,4.044l79.195,79.186
			c5.719,5.727,7.324,14.379,4.035,21.764l-16.02,36.057c-49.378,111.087-138.197,199.914-249.283,249.283l-36.057,16.028
			C146.45,458.434,137.798,456.829,132.079,451.11"/>
	</g>
	<g>
		<path style="fill:#EEC319;" d="M217.455,143.926c39.346,55.079,87.535,103.276,142.614,142.614l14.11,10.075
			c17.764-22.268,33.653-46.097,47.399-71.333l-0.148-0.104c-55.079-39.346-103.268-87.535-142.614-142.614l-0.104-0.148
			c-25.227,13.746-49.065,29.635-71.333,47.408L217.455,143.926z"/>
		<path style="fill:#EEC319;" d="M298.555,348.059c-55.079-39.346-103.268-87.535-142.614-142.614l-11.273-15.785
			c-19.829,22.58-37.593,46.991-53.048,72.999l2.959,4.148c39.337,55.079,87.535,103.268,142.614,142.614l4.139,2.959
			c26.008-15.464,50.428-33.228,73.008-53.048L298.555,348.059z"/>
	</g>
</g>
<g>
</g>
<g>
</g>
<g>
</g>
<g>
</g>
<g>
</g>
<g>
</g>
<g>
</g>
<g>
</g>
<g>
</g>
<g>
</g>
<g>
</g>
<g>
</g>
<g>
</g>
<g>
</g>
<g>
</g>
</svg>
