<?xml version="1.0" standalone="no"?><!DOCTYPE svg PUBLIC "-//W3C//DTD SVG 1.1//EN" "http://www.w3.org/Graphics/SVG/1.1/DTD/svg11.dtd"><svg t="1577195749538" class="icon" viewBox="0 0 1024 1024" version="1.1" xmlns="http://www.w3.org/2000/svg" p-id="5598" xmlns:xlink="http://www.w3.org/1999/xlink" width="200" height="200"><defs><style type="text/css"></style></defs><path d="M452.382014 657.118455a927.631007 927.631007 0 0 0-5.127062 0.014124z m13.742786-0.176552l-2.923697 0.052966c1.306483-0.021186 2.616497-0.045903 3.92298-0.074152l-3.92298 0.074152 2.923697-0.052966z m4.717462-0.105931l-1.543062 0.035311 2.386979-0.060028-2.386979 0.060028 1.543062-0.035311z m4.717462-0.134179l-1.362979 0.038841 2.725958-0.081213-2.725958 0.081213 1.362979-0.038841z m4.713931-0.155365l-1.278234 0.042372c0.953379-0.031779 1.906759-0.063559 2.860138-0.1024l-2.860138 0.105931 1.278234-0.045903z m4.717462-0.180083l-0.918069 0.03531 2.295173-0.091807-2.295173 0.091807 0.918069-0.03531z m4.717462-0.2048l-0.317793 0.014124 1.36298-0.063559-1.359449 0.063559 0.317793-0.014124z m4.717462-0.229517l-0.519062 0.028248 3.778207-0.197738-3.778207 0.197738 0.519062-0.028248z m4.717462-0.247173l-0.473158 0.024717 4.321986-0.250703-4.321986 0.247172 0.473158-0.024717z m4.717463-0.278952l-0.173021 0.010594c1.16171-0.070621 2.31989-0.141241 3.478069-0.218925l-3.478069 0.218925 0.173021-0.010594z m14.148855-0.971034l-1.931476 0.144772a935.784166 935.784166 0 0 0 1.931476-0.144772z m9.434924-0.769766l-2.888386 0.247173 4.187807-0.360166-4.187807 0.360166 2.888386-0.247173z m4.717462-0.420193l-2.210428 0.201269a939.65771 939.65771 0 0 0 2.210428-0.201269z m9.431393-0.911007l-0.953379 0.098869 1.998565-0.2048-2.002096 0.2048 0.95691-0.098869z m4.717462-0.490813l-0.621462 0.067089 2.976662-0.321324-2.976662 0.317793c0.208331-0.017655 0.416662-0.042372 0.621462-0.063558z m4.717462-0.515531l-0.971034 0.105931 3.400386-0.381352-3.400386 0.384883 0.971034-0.109462z m4.717462-0.540249l-0.338979 0.038842 1.362979-0.158897-1.362979 0.158897 0.338979-0.038842z m9.434924-1.151117l-0.600276 0.074152a950.745159 950.745159 0 0 0 0.600276-0.074152z m9.431393-1.246455l-3.562813 0.480221a953.908966 953.908966 0 0 0 3.566344-0.480221z m9.434925-1.345324l-1.504221 0.218924 2.326952-0.34251-2.326952 0.346041 1.504221-0.222455z m4.717462-0.706207l-2.312828 0.349572c1.36651-0.2048 2.72949-0.413131 4.096-0.624993l-4.096 0.624993 2.312828-0.353103z m4.717462-0.734455l-2.28458 0.356634 3.368607-0.529655-3.368607 0.529655 2.28458-0.353103z m4.717462-0.755642l-1.034593 0.16949 3.206179-0.526124-3.206179 0.526124 1.034593-0.16949z m4.717462-0.776827l-1.666648 0.27542c1.292359-0.211862 2.588248-0.430786 3.880606-0.653241l-3.884137 0.653241 1.670179-0.27542z m4.713931-0.805076l-0.790952 0.134179a971.175724 971.175724 0 0 0 0.790952-0.134179z m9.434924-1.680773l-0.564965 0.105932 3.114372-0.575559-3.114372 0.572027 0.564965-0.1024z m9.434924-1.77611l-4.018317 0.769766a981.447503 981.447503 0 0 0 4.018317-0.769766z m14.148855-2.842483l-1.906758 0.395476 2.273986-0.473158-2.273986 0.473158 1.906758-0.395476z m4.717462-0.995751l-1.50422 0.317793 2.584717-0.550842-2.584717 0.554373 1.50422-0.317793z m4.717462-1.016938l-2.341075 0.504938c1.444193-0.310731 2.888386-0.628524 4.332579-0.946318l-4.332579 0.949849 2.341075-0.508469z m4.717463-1.045186l-2.344607 0.519062a1003.113931 1003.113931 0 0 0 2.344607-0.519062z m18.866317-4.413794l-0.822731 0.197738 4.3008-1.05931-4.3008 1.05931 0.822731-0.197738z m4.717462-1.165241l-0.37429 0.091807a1026.577655 1026.577655 0 0 0 0.37429-0.091807z m33.018703-8.816993l-2.062124 0.582621 3.866483-1.101683-3.866483 1.105214 2.062124-0.586152z m53.572855-16.811255z m-317.722482-187.1872c124.214731 0 248.425931-24.957352 372.640662-74.868524v173.557407l-4.717462 1.882041c-4.244303 1.684303-8.488607 3.340359-12.732911 4.961103-16.599393-77.453241-34.480552-119.278345-53.636413-125.478841l-47.121656 21.970097 1.112276 0.932193c24.318234 20.737766 42.058152 60.468966 53.21269 119.200662-102.915531 34.26869-205.834593 51.401269-308.753655 51.401269-186.322097 0-323.421572-34.127448-372.640662-74.868524-15.183448-12.566952-23.58731-23.128276-27.951669-33.491863l0.052965-0.720331a259.919448 259.919448 0 0 0 0.670897-18.537931c0-19.410097-1.430069-38.378814-0.713269-55.769158-0.127117 3.072-0.187145 6.193434-0.197738 9.357241 0.490814-6.002759 0.843917-12.45749 0.903945-19.473655l-0.081214 0.762703-0.190676 2.160994c2.72949-33.385931 15.751945-60.027586 66.514097-71.263338 80.101517-17.725793 147.314759 88.286455 333.629793 88.286455z m368.929545 168.236138l3.711117-1.483035a1157.402483 1157.402483 0 0 1-3.711117 1.483035zM69.992166 578.312828a179.88149 179.88149 0 0 0 0.384882 0.338979z m-7.291587-6.874925l0.399007 0.402538a123.593269 123.593269 0 0 1-0.399007-0.406069z m-6.352331-7.03382a88.9856 88.9856 0 0 0 0.610869 0.741517z m-3.636965-4.798676a72.869959 72.869959 0 0 0 0.176551 0.247172z m-3.329766-5.296552l0.27189 0.47669-0.27189-0.480221z m-0.519062-0.942786l0.247173 0.455503a57.619421 57.619421 0 0 1-0.247173-0.459034z m-0.473158-0.903945l0.2048 0.391945c-0.070621-0.130648-0.141241-0.261297-0.2048-0.391945z m-3.072-7.252745a51.111724 51.111724 0 0 0 0.127117 0.377821z m-0.342511-1.05931a50.486731 50.486731 0 0 0 0.13418 0.430786z m-0.317793-1.05931a50.582069 50.582069 0 0 0 0.141241 0.48022z m-0.155365-0.550842l0.077682 0.275421a50.719779 50.719779 0 0 1-0.077682-0.275421z m-1.15818-5.25771l0.060028 0.353103a54.907586 54.907586 0 0 1-0.060028-0.353103z m-0.720331-6.437076a62.354538 62.354538 0 0 0 0.035311 0.480221z m-0.127117-3.990069a78.388966 78.388966 0 0 0 0 0.257766z m0.617931-12.337434l-0.03531 0.381351c-0.141241 1.550124-0.261297 3.072-0.353104 4.565628l-0.038841 0.632055c0.105931-1.822014 0.250703-3.679338 0.427255-5.579034z m2.199835-19.551338c-0.526124 4.699807-1.073434 9.110069-1.546594 13.301407 0.434317-3.859421 0.935724-7.909517 1.423007-12.206787z m0.402537-3.71818a484.302566 484.302566 0 0 1-0.067089 0.64618z m0.57909-5.978041a353.668414 353.668414 0 0 1-0.070621 0.822731z m0.737986-85.790014l-0.197738 2.944883a189.990841 189.990841 0 0 0 0.197738-2.944883z m-4.477351 123.310786l0.014124-0.314262c-0.045903 1.158179-0.070621 2.302234-0.077683 3.432166v0.134179c0-1.073434 0.024717-2.157462 0.063559-3.252083z" fill="#FFFFFF" p-id="5599"></path><path d="M748.808828 395.567669c19.155862 6.200497 37.037021 48.0256 53.636413 125.478841 4.244303-1.620745 8.488607-3.2768 12.732911-4.961103l4.717462-1.882041v68.060689c-1.822014 0.734455-3.647559 1.461848-5.469573 2.182179l0.021187 0.120056-49.325021 19.692579-0.144773-1.557186c-105.906317 36.288441-211.816166 54.430897-317.722482 54.430896-186.318566 0-323.418041-34.127448-372.637131-74.868524-43.580028-36.069517-31.330869-55.620855-27.951669-101.552552 4.364359 10.367117 12.768221 20.92491 27.951669 33.491863 49.222621 40.741076 186.318566 74.868524 372.637131 74.868524 102.922593 0 205.841655-17.132579 308.760717-51.401269-11.327559-59.621517-29.434703-99.663448-54.328497-120.132855z m-701.50709 0.762703l0.081214-0.762703a266.603697 266.603697 0 0 1-0.903945 19.473655c0.024717-6.433545 0.243641-12.687007 0.822731-18.714483l0.081214-0.759172z" fill="#F9E5E5" p-id="5600"></path><path d="M447.254952 408.452414c123.293131 0 246.61451-24.777269 370.00651-74.360055l9.696221-3.894731v256.840386l-4.427917 1.779641c-125.033931 50.24309-250.138483 75.376993-375.274814 75.376993-176.576441 0-322.401103-31.179034-377.1392-76.489269-17.072552-14.1312-26.814676-26.585159-31.383835-39.921876l-0.526124-1.57131c-3.594593-11.062731-3.679338-18.290759-1.154648-41.104772l1.158179-10.162318 0.540248-4.996413c1.080497-10.476579 1.581903-18.869848 1.581904-28.495449l-0.014124-3.2768c-0.014124-2.171586-0.045903-4.353766-0.098869-6.839613l-0.508469-18.537931-0.165959-7.524635c-0.494345-28.223559 0.903945-42.054621 6.726621-56.754317l0.737986-1.811421c9.805683-23.456662 30.34571-38.686014 65.09109-46.373076a92.378924 92.378924 0 0 1 25.12331-2.023282c16.338097 0.879228 32.933959 5.653186 53.858869 14.756193l2.828359 1.246455 2.641213 1.207614c13.806345 6.391172 47.280552 22.905821 57.291035 27.693903l4.766896 2.231614c62.072055 28.679062 117.293903 43.004469 188.645518 43.004469z m360.705765-55.514924c-120.18229 46.415448-240.428138 69.639062-360.705765 69.639062-73.6256 0-130.789517-14.833876-194.602373-44.321545l-4.247834-1.984441c-10.074041-4.791614-48.749462-23.890979-60.218262-29.04629l-2.750676-1.211145c-19.501903-8.478014-34.604138-12.824717-48.975448-13.598014-7.259807-0.391945-14.30069 0.158897-21.309793 1.709021-30.518731 6.754869-47.209931 19.127614-55.112387 38.032772l-0.653241 1.606621c-5.363641 13.643917-6.366455 27.436138-5.550786 58.841159l0.381351 13.329655 0.165959 7.206841c0.028248 1.723145 0.049434 3.336828 0.060028 4.943448l0.003531 5.547256c-0.081214 10.790841-0.780359 20.306979-2.196304 32.856276l-1.257048 11.062731-0.57909 5.5296c-1.574841 15.889655-1.189959 21.504 1.461849 29.473544l0.572027 1.641931c3.778207 10.218814 11.917241 20.416441 26.673435 32.626759 51.54251 42.661959 194.577655 73.247779 368.135062 73.247779 121.82069 0 243.666097-24.187586 365.578593-72.587476V351.044855l-4.872828 1.892635z" fill="#4C3030" p-id="5601"></path><path d="M751.128717 395.8784c28.975669 9.992828 57.057986 112.650593 84.246952 307.98389 40.154924-252.497214-46.983945-398.696166-126.887724-405.828856-79.903779-7.13269-123.35669 42.104055-254.626428 51.796745-87.51669 6.458262-187.639172 3.502786-300.367448-8.862896 38.424717-121.926621 94.631724-198.387641 168.610428-229.393655 110.973352-46.503724 217.169214-47.676028 319.646896-31.496828 102.477683 16.175669 329.992828 199.33749 246.046014 628.118069-20.54709 15.444745-38.022179 15.444745-52.421738 0-27.471448-200.174345-55.850372-304.375172-85.143835-312.595421z" fill="#C40000" p-id="5602"></path><path d="M153.494069 340.963752c112.728276 12.369214 212.850759 15.32469 300.367448 8.862896 131.269738-9.689159 174.722648-58.925903 254.622897-51.793214 79.90731 7.13269 167.046179 153.331641 126.891255 405.828856-28.032883-201.374897-57.012083-304.255117-86.9376-308.647724-40.970593 27.570317-104.41269 41.355476-190.336883 41.355475-128.875697 0-241.649876-25.423448-303.121655-47.061627-40.977655-14.424276-74.804966-30.603476-101.485462-48.544662z" fill="#9E0000" p-id="5603"></path><path d="M642.853076 73.099476c64.123586 10.123476 144.444028 71.118566 197.932138 162.74891 68.668028 117.643476 91.736276 275.138207 55.073545 467.851476l-1.652525 8.509793-2.164524 1.627807c-22.874041 17.196138-44.081434 17.471559-61.016276 0.028248l-0.812137-0.858041-1.528938-1.634869-1.913821-13.813407c-13.100138-93.537103-26.390952-165.192386-39.851255-214.881103l-1.105214-4.035973-0.572028-2.040938-1.140524-3.997131c-12.1856-42.072276-24.427697-65.419476-34.434648-69.741462-15.476524 9.96811-33.806124 18.085959-54.978207 24.378262a7.062069 7.062069 0 0 1-4.021848-13.537986c20.193986-6.002759 37.481931-13.696883 51.881489-23.057655l1.9456-1.288828 2.266925-1.525407 2.701241 0.399007c34.070952 4.996414 62.160331 102.198731 90.023724 298.337104l0.847448 5.97451 1.719614 12.379807c10.670786 10.331807 22.792828 10.497766 38.347035-0.105931l0.995751-0.695614 1.087559-5.713214c35.331531-188.257103 12.676414-341.387476-53.89771-455.436358-51.464828-88.169931-128.278952-146.502621-187.93578-155.91989-116.139255-18.333131-216.350014-10.646069-315.815724 31.037793-25.677683 10.762593-49.180248 27.224276-70.525352 49.434483a7.062069 7.062069 0 1 1-10.183503-9.784497c22.651586-23.573186 47.746648-41.150676 75.249876-52.675972 102.106924-42.792607 204.920055-50.677407 323.478069-31.962924zM203.422897 224.227752a7.062069 7.062069 0 0 1 2.694179 9.615007l-1.182897 2.139807c-9.788028 17.937655-22.227862 46.959228-37.252413 86.965848l-2.789518 7.471669-2.849545 7.718841c25.409324 16.380469 57.17451 31.295559 95.284966 44.709959 21.733517 7.651752 48.180966 15.165793 77.241379 21.765296 69.074097 15.677793 146.167172 24.893793 223.532138 24.893793 2.789517 0 5.557848-0.014124 8.297931-0.042372a7.062069 7.062069 0 0 1 0.151835 14.124138c-2.789517 0.028248-5.607283 0.042372-8.449766 0.042372-78.452524 0-156.590786-9.336055-226.657103-25.246896-29.575945-6.712497-56.538924-14.374841-78.809159-22.213738-40.320883-14.194759-73.893959-30.109131-100.733352-47.781959l-2.348138-1.564248-4.586813-3.082593 3.845296-10.543669 2.884855-7.81771c17.125517-46.154152 31.133131-78.925683 42.107587-98.455835a7.062069 7.062069 0 0 1 9.618538-2.69771z m8.559227-22.927007a7.062069 7.062069 0 1 1 0 14.124138 7.062069 7.062069 0 0 1 0-14.124138z" fill="#4C3030" p-id="5604"></path><path d="M850.520276 694.568607c62.689986 0 114.95989 44.604028 126.80651 103.805352-11.864276 59.190731-64.123586 103.784166-126.802979 103.784165-62.682924 0-114.949297-44.600497-126.799448-103.79829l-0.497876 2.630621c10.688441-59.819255 62.506372-105.390786 125.157517-106.404193z m129.29589 126.764138c0.017655 0.847448 0.024717 1.698428 0.024717 2.552938z m-0.074152-2.602373l0.052965 1.641931z m-0.384883-6.108689a130.464662 130.464662 0 0 1 0.197738 2.598841z m-0.250703-2.605904c0.074152 0.702676 0.141241 1.405352 0.208331 2.111559z m-256.787421-3.184993a129.631338 129.631338 0 0 0-0.024717 0.194207z m255.985876-2.930758a129.317076 129.317076 0 0 1 0 0.007062z m-255.639835 0.494344l-0.268358 1.860856c0.084745-0.621462 0.176552-1.242924 0.268358-1.860856z m255.177269-3.273269a128.928662 128.928662 0 0 1-0.519062-2.754206z m-254.640551 0l-0.388414 2.316359c0.123586-0.776828 0.254234-1.543062 0.388414-2.312828z m254.174455-2.499972l0.038841 0.211862-0.038841-0.211862z m-256.151835 23.128276a130.817766 130.817766 0 0 1-0.017655 2.136276z" fill="#FFFFFF" p-id="5605"></path><path d="M850.520276 902.158124c62.686455 0 114.952828-44.596966 126.799448-103.794758 1.656055 8.252028 2.521159 16.786538 2.521159 25.522317 0 71.418703-57.898372 129.317076-129.317076 129.317076-71.422234 0-129.317076-57.898372-129.317076-129.317076 0-8.73931 0.865103-17.273821 2.517628-25.52938 11.850152 59.201324 64.116524 103.801821 126.799448 103.801821z" fill="#F9E5E5" p-id="5606"></path><path d="M850.520276 687.506538c75.324028 0 136.382676 61.058648 136.382676 136.379145 0 75.316966-61.058648 136.379145-136.379145 136.379145-75.320497 0-136.379145-61.058648-136.379145-136.379145a7.062069 7.062069 0 1 1 14.124138 0c0 67.520441 54.734566 122.255007 122.255007 122.255007s122.255007-54.734566 122.255007-122.255007-54.734566-122.255007-122.255007-122.255007c-50.514979 0-95.26731 30.917738-113.632221 77.061296a7.062069 7.062069 0 1 1-13.124855-5.2224c20.490593-51.475421 70.408828-85.963034 126.757076-85.963034z m-126.538152 103.476965a7.062069 7.062069 0 1 1 0 14.124138 7.062069 7.062069 0 0 1 0-14.124138z" fill="#4C3030" p-id="5607"></path></svg>