<?xml version="1.0" standalone="no"?><!DOCTYPE svg PUBLIC "-//W3C//DTD SVG 1.1//EN" "http://www.w3.org/Graphics/SVG/1.1/DTD/svg11.dtd"><svg class="icon" width="200px" height="200.00px" viewBox="0 0 1024 1024" version="1.1" xmlns="http://www.w3.org/2000/svg"><path d="M574.1 224.5c-24 0-43.5 19.2-43.9 43.2-1.1 65.7-3 184.9-3 201.7 0 45.7-37.1 82.8-82.8 82.8-10.5 0-72.8 4.5-77.3 4.7-113.6 6.9-203.7 101.3-203.7 216.7 0 24.2 19.6 43.9 43.9 43.9h584.2c24.2 0 43.9-19.6 43.9-43.9V268.3c0-24.2-19.6-43.9-43.9-43.9H574.1z" fill="#A87BFF" /><path d="M791.6 836.8H207.4c-34.9 0-63.2-28.4-63.2-63.2 0-124.7 97.4-228.4 221.8-236 0.8 0 3.5-0.2 7.4-0.5 30.5-2.1 62.9-4.3 71-4.3 35 0 63.4-28.5 63.4-63.4 0-16.8 1.9-133.8 3-202 0.3-16.7 7-32.3 18.9-44 11.9-11.7 27.6-18.2 44.3-18.2h217.5c34.9 0 63.2 28.4 63.2 63.2v505.2c0.1 34.8-28.2 63.2-63.1 63.2z m-217.5-593c-13.3 0-24.3 10.8-24.5 24.1-1.1 68.1-3 184.9-3 201.4 0 56.3-45.8 102.1-102.1 102.1-7.9 0-53.4 3.1-68.4 4.2-4.1 0.3-6.9 0.5-7.7 0.5-104 6.3-185.5 93-185.5 197.4 0 13.5 11 24.5 24.5 24.5h584.2c13.5 0 24.5-11 24.5-24.5V268.3c0-13.5-11-24.5-24.5-24.5H574.1z"  /><path d="M207.4 817.4h584.2" fill="#FFFFFF" /><path d="M791.6 836.8H207.4c-10.7 0-19.3-8.7-19.3-19.3s8.7-19.3 19.3-19.3h584.2c10.7 0 19.3 8.7 19.3 19.3s-8.6 19.3-19.3 19.3z"  /><path d="M668.7 779.2c0-81.2 65.8-147 147-147 6.7 0 13.3 0.6 19.7 1.5V268.3c0-24.2-19.6-43.9-43.9-43.9H574.1c-24 0-43.5 19.2-43.9 43.2-1.1 65.7-3 184.9-3 201.7 0 45.7-37.1 82.8-82.8 82.8-10.5 0-72.8 4.5-77.3 4.7-113.6 6.9-203.7 101.3-203.7 216.7 0 24.2 19.6 43.9 43.9 43.9h466.5c-3.2-12.2-5.1-25-5.1-38.2z" fill="#FFFFFF" /><path d="M673.9 836.8H207.4c-34.9 0-63.2-28.4-63.2-63.2 0-124.7 97.4-228.4 221.8-236 0.8 0 3.5-0.2 7.4-0.5 30.5-2.1 62.9-4.3 71-4.3 35 0 63.4-28.5 63.4-63.4 0-16.8 1.9-133.8 3-202 0.3-16.7 7-32.3 18.9-44 11.9-11.7 27.6-18.2 44.3-18.2h217.5c34.9 0 63.2 28.4 63.2 63.2v365.3c0 5.6-2.4 10.9-6.6 14.6-4.2 3.7-9.8 5.4-15.3 4.6-6.6-0.9-12.1-1.3-17.2-1.3-70.4 0-127.7 57.3-127.7 127.7 0 10.9 1.5 22 4.5 33.2 1.6 5.8 0.3 12-3.3 16.8-3.5 4.7-9.2 7.5-15.2 7.5z m-99.8-593c-13.3 0-24.3 10.8-24.5 24.1-1.1 68.1-3 184.9-3 201.4 0 56.3-45.8 102.1-102.1 102.1-7.9 0-53.4 3.1-68.4 4.2-4.1 0.3-6.9 0.5-7.7 0.5-104 6.3-185.5 93-185.5 197.4 0 13.5 11 24.5 24.5 24.5h443.1c-0.8-6.3-1.1-12.7-1.1-18.9 0-91.7 74.6-166.4 166.4-166.4h0.4V268.3c0-13.5-11-24.5-24.5-24.5H574.1z"  /><path d="M840.9 352.6H525.5c-17 0-30.8-13.8-30.8-30.8v-83.4c0-17 13.8-30.8 30.8-30.8h315.4c17 0 30.8 13.8 30.8 30.8v83.4c0 17-13.8 30.8-30.8 30.8z" fill="#A87BFF" /><path d="M840.9 371.9H525.5c-27.7 0-50.2-22.5-50.2-50.2v-83.4c0-27.7 22.5-50.2 50.2-50.2h315.4c27.7 0 50.2 22.5 50.2 50.2v83.4c0 27.7-22.5 50.2-50.2 50.2z m-315.4-145c-6.3 0-11.5 5.2-11.5 11.5v83.4c0 6.3 5.2 11.5 11.5 11.5h315.4c6.3 0 11.5-5.2 11.5-11.5v-83.4c0-6.3-5.2-11.5-11.5-11.5H525.5z"  /><path d="M960.8 143.6s-54.4-4.8-65.3 45.9M286.8 817.4v66.9" fill="#FFFFFF" /><path d="M286.8 903.6c-10.7 0-19.3-8.7-19.3-19.3v-66.9c0-10.7 8.7-19.3 19.3-19.3s19.3 8.7 19.3 19.3v66.9c0.1 10.7-8.6 19.3-19.3 19.3z"  /><path d="M741.2 817.4v66.9" fill="#FFFFFF" /><path d="M741.2 903.6c-10.7 0-19.3-8.7-19.3-19.3v-66.9c0-10.7 8.7-19.3 19.3-19.3s19.3 8.7 19.3 19.3v66.9c0.1 10.7-8.6 19.3-19.3 19.3z"  /><path d="M381.9 928.1c-80 0-107.2-0.9-162.1-2.7-63.3-2.1-101.6-31.9-122.6-56.5-10-11.7-17.1-23.4-21.9-32.9-5.5-10.8 0.2-23.9 11.8-27.3 8.9-2.6 18.4 1.6 22.5 9.8 11.7 23.2 42.5 65.9 111.4 68.2 108.4 3.6 108.4 3.6 630 0.1l10.9-0.1h0.1c10.9 0 19.7 9 19.3 20-0.3 10.5-9.2 18.6-19.7 18.7l-10.5 0.1c-259.5 1.7-390.2 2.6-469.2 2.6zM600 531.4c-2.2 0-4.4-0.4-6.6-1.2l-56.7-20.5c-10-3.6-15.2-14.7-11.6-24.8 3.6-10 14.7-15.2 24.8-11.6l56.7 20.5c10 3.6 15.2 14.7 11.6 24.8-2.9 7.9-10.3 12.8-18.2 12.8zM538.8 615.3c-5.5 0-10.9-2.3-14.7-6.8L484.2 562c-6.9-8.1-6-20.3 2.1-27.3 8.1-6.9 20.3-6 27.3 2.1l39.8 46.5c6.9 8.1 6 20.3-2.1 27.3-3.6 3.2-8.1 4.7-12.5 4.7zM434.8 645.9c-10.1 0-18.6-7.8-19.3-18.1l-4.1-61.1c-0.7-10.7 7.4-19.9 18-20.6 10.7-0.7 19.9 7.4 20.6 18l4.1 61.1c0.7 10.7-7.4 19.9-18 20.6-0.4 0.1-0.9 0.1-1.3 0.1zM933.4 143.6h-0.9c-3.3-0.2-18.8-1-36.1 4.9-26 8.9-43.5 28.9-49.3 56.2-2.2 10.4 4.4 20.7 14.9 23 1.4 0.3 2.7 0.4 4.1 0.4 8.9 0 16.9-6.2 18.9-15.3 3-14 10.3-22.7 23.1-27.4 10.9-4 21.6-3.3 21.7-3.3h-0.1v-0.3c1.2 0.2 2.5 0.4 3.8 0.4 10.7 0 19.3-8.7 19.3-19.3s-8.7-19.3-19.4-19.3z"  /></svg>