<?xml version="1.0" standalone="no"?><!DOCTYPE svg PUBLIC "-//W3C//DTD SVG 1.1//EN" "http://www.w3.org/Graphics/SVG/1.1/DTD/svg11.dtd"><svg class="icon" width="200px" height="200.00px" viewBox="0 0 1024 1024" version="1.1" xmlns="http://www.w3.org/2000/svg"><path d="M888.7 807.2L680.5 566.3h140.3L614.9 328.1h113.8L513 78.6 297.3 328.1h113.8L205.2 566.3h140.3L137.3 807.2z" fill="#FFFFFF" /><path d="M888.7 826.9H137.3c-7.7 0-14.7-4.5-17.9-11.5s-2-15.3 3-21.1l180-208.3h-97.2c-7.7 0-14.7-4.5-17.9-11.5s-2-15.3 3-21.1L368 347.8h-70.7c-7.7 0-14.7-4.5-17.9-11.5-3.2-7-2-15.3 3-21.1L498.1 65.8c3.7-4.3 9.2-6.8 14.9-6.8 5.7 0 11.2 2.5 14.9 6.8l215.7 249.5c5 5.8 6.2 14.1 3 21.1-3.2 7-10.2 11.5-17.9 11.5H658l177.7 205.6c5 5.8 6.2 14.1 3 21.1S828.5 586 820.8 586h-97.2l180.1 208.3c5 5.8 6.2 14.1 3 21.1s-10.3 11.5-18 11.5z m-708.3-39.4h665.3L665.6 579.2c-5-5.8-6.2-14.1-3-21.1s10.2-11.5 17.9-11.5h97.2L600 341c-5-5.8-6.2-14.1-3-21.1 3.2-7 10.2-11.5 17.9-11.5h70.7L513 108.8 340.4 308.4h70.7c7.7 0 14.7 4.5 17.9 11.5 3.2 7 2 15.3-3 21.1L248.3 546.6h97.2c7.7 0 14.7 4.5 17.9 11.5s2 15.3-3 21.1l-180 208.3z"  /><path d="M513 975.1c-10.9 0-19.7-8.8-19.7-19.7V274c0-10.9 8.8-19.7 19.7-19.7 10.9 0 19.7 8.8 19.7 19.7v681.4c0 10.8-8.8 19.7-19.7 19.7z"  /><path d="M395.4 452.7c-6 0-11.9-2.7-15.7-7.8-6.6-8.7-4.8-21 3.8-27.6l101.8-76.9c8.7-6.6 21-4.8 27.6 3.8 6.6 8.7 4.8 21-3.8 27.6l-101.8 76.9c-3.6 2.7-7.7 4-11.9 4z"  /><path d="M633.6 452.7c-4.1 0-8.3-1.3-11.9-4l-101.8-76.9a19.65 19.65 0 0 1-3.8-27.6c6.6-8.7 18.9-10.4 27.6-3.8l101.8 76.9c8.7 6.6 10.4 18.9 3.8 27.6-3.8 5.1-9.7 7.8-15.7 7.8zM395.4 659.3c-6 0-11.9-2.7-15.7-7.8-6.6-8.7-4.8-21 3.8-27.6L485.4 547c8.7-6.6 21-4.8 27.6 3.8 6.6 8.7 4.8 21-3.8 27.6l-101.8 76.9c-3.7 2.7-7.8 4-12 4z"  /><path d="M633.6 659.3c-4.1 0-8.3-1.3-11.9-4l-101.8-76.9a19.65 19.65 0 0 1-3.8-27.6c6.6-8.7 18.9-10.4 27.6-3.8l101.8 76.9c8.7 6.6 10.4 18.9 3.8 27.6-3.8 5.1-9.7 7.8-15.7 7.8z"  /><path d="M404.7 223.9m-45.3 0a45.3 45.3 0 1 0 90.6 0 45.3 45.3 0 1 0-90.6 0Z" fill="#F9F967" /><path d="M404.7 289c-35.9 0-65-29.2-65-65s29.2-65 65-65 65 29.2 65 65-29.2 65-65 65z m0-90.7c-14.1 0-25.6 11.5-25.6 25.6s11.5 25.6 25.6 25.6 25.6-11.5 25.6-25.6-11.5-25.6-25.6-25.6z"  /><path d="M777.6 697.1m-70.2 0a70.2 70.2 0 1 0 140.4 0 70.2 70.2 0 1 0-140.4 0Z" fill="#F9F967" /><path d="M777.6 787c-49.6 0-89.9-40.3-89.9-89.9 0-49.6 40.3-89.9 89.9-89.9 49.6 0 89.9 40.3 89.9 89.9 0 49.6-40.3 89.9-89.9 89.9z m0-140.4c-27.9 0-50.5 22.7-50.5 50.5 0 27.9 22.7 50.5 50.5 50.5 27.9 0 50.5-22.7 50.5-50.5 0-27.9-22.6-50.5-50.5-50.5z"  /></svg>