<?xml version="1.0" standalone="no"?><!DOCTYPE svg PUBLIC "-//W3C//DTD SVG 1.1//EN" "http://www.w3.org/Graphics/SVG/1.1/DTD/svg11.dtd"><svg class="icon" width="200px" height="200.00px" viewBox="0 0 1024 1024" version="1.1" xmlns="http://www.w3.org/2000/svg"><path d="M427.4 403.6c-43.7 0-85.2-3.1-123.9-9.2-74.6-11.8-136-34.8-182.8-68.3-51.5-36.9-71.9-93.8-59-164.4 9.3-50.6 32.6-90.5 33.6-92.2 5.6-9.5 17.9-12.7 27.4-7 9.5 5.6 12.7 17.9 7 27.4-0.3 0.5-21.1 36.3-28.9 80-9.7 54.6 4.8 96.2 43.1 123.7 106.6 76.4 277.3 74.3 369.6 66.2 11-1 20.7 7.2 21.7 18.2s-7.2 20.7-18.2 21.7c-30.7 2.5-60.6 3.9-89.6 3.9z"  /><path d="M230.9 372.5c-6.8 0-13.3-3.4-17.1-9.6-30.6-50.5-36.6-108.9-17.2-169 14.3-44.5 37.6-74.3 38.6-75.5 6.8-8.7 19.4-10.2 28.1-3.3 8.7 6.8 10.2 19.4 3.4 28.1-0.4 0.6-20.4 26.5-32.3 64.3-15.5 49-10.8 94.3 13.7 134.8 5.7 9.4 2.7 21.7-6.7 27.5-3.4 1.8-7 2.7-10.5 2.7zM337.3 385.4c-7.1 0-14.1-3.8-17.7-10.6-19.5-36.4-20.4-78.4-2.7-121.3 12.9-31.2 31.3-52.1 32-53 7.3-8.3 20-9 28.2-1.7 8.3 7.3 9 19.9 1.7 28.2-0.3 0.3-15.3 17.7-25.4 42.8-12.7 31.6-12.3 60.6 1.4 86.2 5.2 9.7 1.5 21.9-8.2 27.1-2.9 1.5-6.2 2.3-9.3 2.3zM603.4 403.6c-29 0-58.9-1.3-89.7-4.1-11-1-19.1-10.7-18.2-21.7 1-11 10.7-19.1 21.7-18.2 24.2 2.1 53.7 3.8 86.1 3.8 91.2 0 204.8-13.6 283.5-70 38.6-27.7 53-69.6 42.9-124.7-8-43.7-28.5-78.7-28.7-79-5.6-9.5-2.5-21.8 7-27.4 9.5-5.6 21.8-2.5 27.4 7 1 1.7 24.3 41.6 33.6 92.2 12.9 70.6-7.5 127.4-59 164.4-46.7 33.5-108.2 56.5-182.8 68.3-38.6 6.3-80.1 9.4-123.8 9.4z"  /><path d="M799.9 372.5c-3.5 0-7.1-0.9-10.4-2.9-9.4-5.7-12.4-18-6.7-27.5 59.5-97.9-17.8-198-18.6-199-6.8-8.7-5.3-21.3 3.3-28.1 8.7-6.8 21.3-5.3 28.1 3.3 1 1.2 24.2 31.1 38.6 75.5 19.4 60.1 13.4 118.5-17.2 169-3.7 6.3-10.3 9.7-17.1 9.7zM693.6 385.4c-3.2 0-6.4-0.8-9.4-2.4-9.7-5.2-13.4-17.3-8.2-27.1 13.7-25.6 14.2-54.6 1.4-86.2-10.2-25.2-25.3-42.6-25.5-42.8-7.3-8.3-6.5-20.9 1.7-28.2s20.9-6.5 28.2 1.7c0.8 0.9 19.2 21.8 32 53 17.7 42.9 16.8 84.9-2.7 121.3-3.5 6.8-10.4 10.7-17.5 10.7z"  /><path d="M781.6 473.2l-149-47 3-9.5c21.1-66.8 92.4-103.9 159.2-82.8l149 47-3 9.5c-21 66.8-92.3 103.9-159.2 82.8z" fill="#FFFFFF" /><path d="M820 499.1c-14.9 0-29.8-2.3-44.4-6.9l-168.1-53 9-28.5c24.4-77.2 107-120.3 184.3-95.9l168.1 53-9 28.5c-11.8 37.4-37.5 68-72.3 86.1-21.2 11.1-44.3 16.7-67.6 16.7z m-32.3-45c27.2 8.6 56.2 6.1 81.5-7.1 22.3-11.6 39.5-30.3 49.1-53.2l-129.5-40.9c-53-16.7-109.4 10.1-130.6 60.3l129.5 40.9z"  /><path d="M256.9 473.2l149-47-3-9.5c-21.1-66.8-92.4-103.9-159.2-82.8l-149 47 3 9.5c21.1 66.8 92.4 103.9 159.2 82.8z" fill="#FFFFFF" /><path d="M218.8 499.1c-62.4 0-120.4-40.1-140.2-102.7l-9-28.5 168.1-53c37.4-11.8 77.2-8.3 112 9.8s60.5 48.7 72.3 86.1l9 28.5-168.1 53c-14.6 4.6-29.5 6.8-44.1 6.8z m-98.6-105.3c21.2 50.2 77.7 77 130.6 60.3l129.5-40.9c-9.6-22.9-26.8-41.6-49.1-53.2-25.3-13.2-54.3-15.7-81.5-7.1l-129.5 40.9z"  /><path d="M800.5 695.6c0 141.9-127.7 256.9-285.1 256.9s-285.1-115-285.1-256.9S358 353.1 515.4 353.1s285.1 200.7 285.1 342.5z" fill="#FFFFFF" /><path d="M515.4 972.5c-81.1 0-157.5-28.5-215-80.4-28.2-25.4-50.3-55-65.8-88-16.1-34.3-24.3-70.8-24.3-108.5 0-37.1 8.2-78.8 23.7-120.3 15.3-41.2 37.4-81.3 63.9-116.2 28.7-37.7 61-67.8 96.1-89.4 39.3-24.2 80.2-36.5 121.5-36.5s82.1 12.3 121.5 36.5c35.1 21.6 67.4 51.7 96.1 89.4 26.5 34.9 48.6 75.1 63.9 116.2 15.5 41.6 23.7 83.2 23.7 120.3 0 37.6-8.2 74.1-24.3 108.5-15.5 33-37.6 62.6-65.8 88-57.7 51.8-134.1 80.4-215.2 80.4z m0-599.4c-88.7 0-154.4 69-185.7 110.2-49 64.5-79.4 145.8-79.4 212.3 0 130.6 118.9 236.9 265.1 236.9s265.1-106.3 265.1-236.9c0-66.5-30.4-147.9-79.4-212.3-31.3-41.2-97-110.2-185.7-110.2z"  /><path d="M521.6 747.6m-70.6 0a70.6 70.6 0 1 0 141.2 0 70.6 70.6 0 1 0-141.2 0Z" fill="#FF7155" /><path d="M521.6 838.2c-50 0-90.6-40.7-90.6-90.6 0-50 40.7-90.6 90.6-90.6 50 0 90.6 40.7 90.6 90.6 0.1 49.9-40.6 90.6-90.6 90.6z m0-141.3c-27.9 0-50.6 22.7-50.6 50.6 0 27.9 22.7 50.6 50.6 50.6 27.9 0 50.6-22.7 50.6-50.6 0.1-27.8-22.7-50.6-50.6-50.6z"  /><path d="M421.5 591.3m-31.3 0a31.3 31.3 0 1 0 62.6 0 31.3 31.3 0 1 0-62.6 0Z"  /><path d="M617.8 591.3m-31.3 0a31.3 31.3 0 1 0 62.6 0 31.3 31.3 0 1 0-62.6 0Z"  /></svg>