<?xml version="1.0" standalone="no"?><!DOCTYPE svg PUBLIC "-//W3C//DTD SVG 1.1//EN" "http://www.w3.org/Graphics/SVG/1.1/DTD/svg11.dtd"><svg class="icon" width="200px" height="200.00px" viewBox="0 0 1024 1024" version="1.1" xmlns="http://www.w3.org/2000/svg"><path d="M215.6 393.8v-99.6c0-24.3 13.9-46.7 36.3-58.4L489.5 81.6c25.5-13.4 57.1-9.4 78.2 9.7l290.4 243-91.3 112.3-551.2-52.8z" fill="#FF7155" /><path d="M766.8 466.4c-0.6 0-1.3 0-1.9-0.1l-551.2-52.8c-10.2-1-18-9.5-18-19.8v-99.6c0-31.4 17.6-60.2 46-75.5l237-153.8c0.5-0.3 1-0.6 1.6-0.9 32.8-17.2 73.1-12.3 100.4 12.3L870.8 319c8.3 7 9.5 19.3 2.7 27.7L782.2 459c-3.8 4.8-9.4 7.4-15.4 7.4z m-531.4-90.6l522.7 50 72.2-88.9L555 106.5c-0.2-0.2-0.4-0.3-0.6-0.5-14.6-13.2-37-16.1-54.9-7.2L262.7 252.5c-0.5 0.3-1 0.6-1.6 0.9-15.8 8.3-25.6 23.9-25.6 40.8v81.6z"  /><path d="M478.3 992.9c-20.2 0-40-5.7-55.7-16L187.2 822c-5.6-3.7-8.9-9.9-8.9-16.6V482.5c0-11 8.9-19.8 19.8-19.8h560.3c11 0 19.8 8.9 19.8 19.8v322.8c0 3.8-1 7.3-2.8 10.3-1.5 2.5-3.6 4.7-6.1 6.3L534 976.9c-15.7 10.3-35.5 16-55.7 16zM218 794.7l226.4 149c19.3 12.7 48.5 12.7 67.8 0l226.4-149V502.4H218v292.3z"  /><path d="M869 367.6m-84.4 0a84.4 84.4 0 1 0 168.8 0 84.4 84.4 0 1 0-168.8 0Z" fill="#FFFFFF" /><path d="M869 471.8c-57.5 0-104.2-46.8-104.2-104.2 0-57.5 46.8-104.2 104.2-104.2 57.5 0 104.2 46.8 104.2 104.2 0 57.4-46.7 104.2-104.2 104.2z m0-168.8c-35.6 0-64.5 29-64.5 64.5 0 35.6 29 64.6 64.5 64.6s64.6-29 64.6-64.6c-0.1-35.5-29-64.5-64.6-64.5z"  /><path d="M813.4 482.5H140.2c-20.7 0-37.6-16.8-37.6-37.6V405c0-20.7 16.8-37.6 37.6-37.6h673.3c20.7 0 37.6 16.8 37.6 37.6v40c-0.1 20.7-16.9 37.5-37.7 37.5z" fill="#FFFFFF" /><path d="M813.4 502.4H140.2c-31.7 0-57.4-25.7-57.4-57.4v-39.9c0-31.7 25.7-57.4 57.4-57.4h673.3c31.7 0 57.4 25.8 57.4 57.4V445c-0.1 31.6-25.8 57.4-57.5 57.4z m-673.2-115c-9.8 0-17.7 7.9-17.7 17.7V445c0 9.8 7.9 17.7 17.7 17.7h673.3c9.8 0 17.7-7.9 17.7-17.7v-39.9c0-9.8-7.9-17.7-17.7-17.7H140.2z"  /><path d="M478.3 866.9c-15.5 0-31-4.2-43.9-12.7l-176.1-90c-6.2-3.2-10.3-9.4-10.8-16.4V482.5c0-11 8.9-19.8 19.8-19.8h422c11 0 19.8 8.9 19.8 19.8v263.9c0 4-1.2 7.8-3.3 10.9-1.9 2.8-4.4 5.2-7.5 6.8l-176.1 90c-12.9 8.5-28.4 12.8-43.9 12.8zM287.2 734.3l166.4 85c0.8 0.4 1.5 0.9 2.3 1.4 12.6 8.7 32.3 8.7 44.9 0 0.7-0.5 1.5-1 2.3-1.4l166.4-85V502.4H287.2v231.9z"  /><path d="M415.7 677.1l-90.9 37.1c-23.2 9.4-34.3 35.9-24.8 59s35.9 34.3 59 24.8l123.9-50.6 120.5 50.7c23.1 9.7 49.6-1.1 59.3-24.2 9.7-23.1-1.1-49.6-24.2-59.3l-93-39.1" fill="#FFFFFF" /><path d="M620.9 821.5c-8.4 0-16.9-1.6-25.2-5.1l-113-47.5-116.3 47.5c-33.3 13.6-71.3-2.4-84.9-35.7-6.6-16.1-6.5-33.8 0.3-49.8s19.3-28.5 35.4-35.1l90.9-37.1c10.1-4.1 21.7 0.7 25.9 10.9 4.1 10.1-0.7 21.7-10.9 25.9l-90.9 37.1c-6.3 2.6-11.2 7.4-13.8 13.7-2.6 6.3-2.7 13.2-0.1 19.5 5.3 13 20.2 19.2 33.2 13.9l123.9-50.6c4.9-2 10.3-2 15.2 0.1l120.5 50.7c12.9 5.4 27.9-0.7 33.3-13.6 5.4-12.9-0.7-27.9-13.6-33.3l-93-39.1c-10.1-4.2-14.8-15.9-10.6-26s15.9-14.9 26-10.6l93 39.1c33.1 13.9 48.7 52.2 34.8 85.3-10.4 24.8-34.6 39.8-60.1 39.8z"  /><path d="M378.2 581.4m-31.1 0a31.1 31.1 0 1 0 62.2 0 31.1 31.1 0 1 0-62.2 0Z"  /><path d="M573 581.4m-31.1 0a31.1 31.1 0 1 0 62.2 0 31.1 31.1 0 1 0-62.2 0Z"  /><path d="M697.4 383c-11 0-19.8-8.9-19.8-19.8v-45.4c0-11 8.9-19.8 19.8-19.8s19.8 8.9 19.8 19.8v45.4c0 10.9-8.8 19.8-19.8 19.8z"  /></svg>