<?xml version="1.0" standalone="no"?><!DOCTYPE svg PUBLIC "-//W3C//DTD SVG 1.1//EN" "http://www.w3.org/Graphics/SVG/1.1/DTD/svg11.dtd"><svg class="icon" width="200px" height="200.00px" viewBox="0 0 1024 1024" version="1.1" xmlns="http://www.w3.org/2000/svg"><path d="M489.6 655.4m-262.2 0a262.2 262.2 0 1 0 524.4 0 262.2 262.2 0 1 0-524.4 0Z" fill="#FFFFFF" /><path d="M489.6 393.2c144.8 0 262.2 117.4 262.2 262.2S634.4 917.6 489.6 917.6 227.4 800.2 227.4 655.4s117.4-262.2 262.2-262.2m0-37.1c-40.4 0-79.6 7.9-116.5 23.5-35.6 15.1-67.6 36.6-95.1 64.1s-49 59.5-64.1 95.1c-15.6 36.9-23.5 76.1-23.5 116.5s7.9 79.6 23.5 116.5c15.1 35.6 36.6 67.6 64.1 95.1 27.5 27.5 59.5 49 95.1 64.1 36.9 15.6 76.1 23.5 116.5 23.5s79.6-7.9 116.5-23.5c35.6-15.1 67.6-36.6 95.1-64.1 27.5-27.5 49-59.5 64.1-95.1 15.6-36.9 23.5-76.1 23.5-116.5s-7.9-79.6-23.5-116.5c-15.1-35.6-36.6-67.6-64.1-95.1-27.5-27.5-59.5-49-95.1-64.1-36.9-15.5-76.1-23.5-116.5-23.5z"  /><path d="M498.8 601.4c28.3 45.7 25.8 40.8 44 88 13 33.7 14.3 71.8 16.8 74.1 26 24.3 54.8 15.3 81 0.4 11-6.3 18.1-18.5 16.2-31-5.3-36.2-18.3-124.5-64.3-162.7-59.1-49.2-93.7 31.2-93.7 31.2z" fill="#FF7155" /><path d="M595.7 797.1c-15.6 0-32.6-5-48.8-20.1-5.6-5.2-6.4-10.7-8.3-24-2-13.7-5.3-36.6-13.1-57l-2.9-7.4c-13.8-35.9-13.8-35.9-36-71.7l-3.6-5.8c-3.2-5.1-3.7-11.5-1.3-17.1 2.1-4.8 21.5-47.6 59.5-56.7 14.5-3.5 37.2-3.1 63.2 18.6 51.6 42.9 65 135 70.7 174.2 2.8 19.5-7.4 39.5-25.4 49.8-9.2 5.4-30 17.2-54 17.2z m-19.6-43.8c11.9 9.1 26.8 10.8 55.3-5.5 4.8-2.7 7.7-7.8 7.1-12.3-4.7-32.1-17.1-117.3-57.8-151.1-11.5-9.6-21.6-13.2-30.7-11-12.9 3.1-23.8 17-29.9 27.2 21.9 35.3 22.6 37.1 37.1 74.7l2.9 7.4c9.4 24.3 13 49.8 15.2 65 0.3 1.9 0.6 3.9 0.8 5.6z m0.7 3.8zM691.8 563.7c-6.2 0-12.3-3.1-15.8-8.8-5.4-8.7-2.6-20.1 6.1-25.5l99.6-61.2V357.7c0-10.2 8.3-18.5 18.5-18.5s18.5 8.3 18.5 18.5v120.9c0 6.4-3.3 12.4-8.8 15.8L701.5 561c-3 1.8-6.4 2.7-9.7 2.7z"  /><path d="M804.4 496.1c-9.4 0-17.5-7.2-18.4-16.7-1-10.2 6.5-19.2 16.6-20.2l107.5-10.4c10.2-1 19.2 6.5 20.2 16.6 1 10.2-6.5 19.2-16.6 20.2L806.3 496c-0.7 0-1.3 0.1-1.9 0.1zM326.2 610.4c-3.4 0-6.8-0.9-9.9-2.9L216.9 545c-5.4-3.4-8.7-9.3-8.7-15.7V415.6c0-10.2 8.3-18.5 18.5-18.5s18.5 8.3 18.5 18.5V519l90.8 57.2c8.7 5.5 11.3 16.9 5.8 25.5-3.4 5.7-9.4 8.7-15.6 8.7z"  /><path d="M223 546.8c-0.6 0-1.2 0-1.9-0.1l-98.6-9.8c-10.2-1-17.6-10.1-16.6-20.3 1-10.2 10.1-17.6 20.3-16.6l98.6 9.8c10.2 1 17.6 10.1 16.6 20.3-1 9.6-9 16.7-18.4 16.7z"  /><path d="M492.6 418.4m-169.9 0a169.9 169.9 0 1 0 339.8 0 169.9 169.9 0 1 0-339.8 0Z" fill="#FFFFFF" /><path d="M492.9 606.8c-60.7 0-120.4-29.2-156.7-83.3-58-86.2-35-203.6 51.3-261.6 41.8-28.1 92-38.2 141.4-28.5 49.4 9.7 92.1 38 120.2 79.8 28.1 41.8 38.2 92 28.5 141.4s-38 92.1-79.8 120.2c-32.3 21.6-68.8 32-104.9 32z m-0.6-339.9c-29.8 0-58.9 8.8-84.2 25.8-69.3 46.6-87.8 140.8-41.2 210.1 29.2 43.4 77.1 66.9 125.9 66.9 29 0 58.4-8.3 84.2-25.7 33.6-22.6 56.3-56.9 64.1-96.5 7.8-39.7-0.4-80-22.9-113.6-22.6-33.6-56.8-56.3-96.5-64.1-9.8-1.9-19.7-2.9-29.4-2.9z"  /><path d="M509.8 232.7l-140.3 50.1L330 171.9c-8.3-23.3 3.9-49.2 27.3-57.5l55.5-19.8c23.3-8.3 49.2 3.9 57.5 27.3l39.5 110.8z" fill="#FF7155" /><path d="M369.5 301.3c-7.6 0-14.7-4.7-17.4-12.3l-39.5-110.8c-11.8-33 5.5-69.4 38.5-81.2l55.5-19.8c33-11.8 69.4 5.5 81.2 38.5l39.5 110.8c1.7 4.6 1.4 9.7-0.7 14.2-2.1 4.4-5.9 7.9-10.5 9.5l-140.3 50.1c-2.1 0.6-4.2 1-6.3 1z m58.3-190.8c-2.9 0-5.9 0.5-8.9 1.5l-55.5 19.8c-6.6 2.4-11.9 7.2-15 13.6-3 6.4-3.4 13.6-1.1 20.2l33.3 93.3L486 221.3 452.7 128c-3.8-10.7-14-17.5-24.9-17.5z"  /><path d="M313.8 303.2l257.7-91.9" fill="#FFFFFF" /><path d="M313.8 321.7c-7.6 0-14.7-4.7-17.4-12.3-3.4-9.6 1.6-20.2 11.2-23.7l257.7-92c9.6-3.4 20.2 1.6 23.7 11.2 3.4 9.6-1.6 20.2-11.2 23.7l-257.7 92c-2.1 0.8-4.2 1.1-6.3 1.1z"  /><path d="M552.2 417.5l81.3 53.1-103.7 9.3c-20.8 1.9-41-11.1-45.7-31.5-2.6-11.5-0.5-23.7 13.9-32.6 16.5-10.4 37.9-9 54.2 1.7z" fill="#FF7155" /><path d="M525.7 498.6c-28.4 0-53.5-19-59.7-46.1-4.9-21.6 3.2-40.7 22.2-52.5 22.2-13.7 51.3-13 74.2 2l81.3 53.1c6.6 4.3 9.8 12.3 7.8 20-1.9 7.7-8.5 13.3-16.3 14l-103.7 9.3c-2 0.1-3.9 0.2-5.8 0.2z m-2.6-71.4c-5.5 0-10.8 1.4-15.4 4.3-5.6 3.5-7 6.6-5.6 12.8 2.4 10.7 13.9 18.3 26 17.2l50.6-4.5-36.6-24c-5.9-3.9-12.5-5.8-19-5.8z"  /></svg>