<?xml version="1.0" encoding="UTF-8" standalone="no"?>
<svg
   xmlns:dc="http://purl.org/dc/elements/1.1/"
   xmlns:cc="http://creativecommons.org/ns#"
   xmlns:rdf="http://www.w3.org/1999/02/22-rdf-syntax-ns#"
   xmlns:svg="http://www.w3.org/2000/svg"
   xmlns="http://www.w3.org/2000/svg"
   xmlns:sodipodi="http://sodipodi.sourceforge.net/DTD/sodipodi-0.dtd"
   xmlns:inkscape="http://www.inkscape.org/namespaces/inkscape"
   inkscape:version="1.0 (4035a4fb49, 2020-05-01)"
   sodipodi:docname="c0ldcat.svg"
   version="1.1"
   viewBox="0 0 43.68 43.4"
   id="svg2">
  <metadata
     id="metadata13">
    <rdf:RDF>
      <cc:Work
         rdf:about="">
        <dc:format>image/svg+xml</dc:format>
        <dc:type
           rdf:resource="http://purl.org/dc/dcmitype/StillImage" />
      </cc:Work>
    </rdf:RDF>
  </metadata>
  <sodipodi:namedview
     inkscape:document-rotation="0"
     inkscape:current-layer="g3823"
     inkscape:window-maximized="1"
     inkscape:window-y="0"
     inkscape:window-x="0"
     inkscape:cy="21.700001"
     inkscape:cx="21.84"
     inkscape:zoom="5.4377878"
     showgrid="false"
     id="namedview11"
     inkscape:window-height="1080"
     inkscape:window-width="1920"
     inkscape:pageshadow="2"
     inkscape:pageopacity="0"
     guidetolerance="10"
     gridtolerance="10"
     objecttolerance="10"
     borderopacity="1"
     bordercolor="#666666"
     pagecolor="#ffffff" />
  <defs
     id="defs4">
    <style
       id="style2">.cls-1{fill:#fff;}</style>
  </defs>
  <title
     id="title6">cc2_pure_white</title>
  <g
     id="g3823">
    <path
       sodipodi:nodetypes="cccssccsccsccc"
       inkscape:connector-curvature="0"
       style="fill:#000000;stroke-width:0.85"
       d="m 38.850633,3.2548074 c -0.85,-0.068 -2.55,0.85 -4.0035,2.295 -4.25,4.097 -11.169,4.131 -14.688,0.0765 -1.377,-1.581 -3.0005,-2.55 -3.604,-2.2015 -0.6035,0.3485 -1.0965,6.8509996 -1.0965,14.6879996 0,17.578 -0.782,20.0515 -5.015,15.81 -1.3769998,-1.377 -1.6234998,-3.145 -1.0794998,-7.752 0.8499998,-6.8935 -0.748,-10.863 -4.25,-10.863 -2.261,0 -2.278,0.119 -0.476,2.873 1.462,2.2355 1.7,4.3095 1.1475,9.35 -0.85,7.225 0.6545,9.6305 7.0294998,11.543 5.1,1.53 24.65,1.3855 26.248,-0.1955 1.7935,-1.7935 1.921,-34.4249996 0.136,-35.5299996 -0.105789,-0.061593 -0.226087,-0.093869 -0.3485,-0.0935 z"
       class="cls-1"
       id="path3825" />
  </g>
</svg>
