<?xml version="1.0" standalone="no"?><!DOCTYPE svg PUBLIC "-//W3C//DTD SVG 1.1//EN" "http://www.w3.org/Graphics/SVG/1.1/DTD/svg11.dtd"><svg t="1598881878363" class="icon" viewBox="0 0 1024 1024" version="1.1" xmlns="http://www.w3.org/2000/svg" p-id="2019" xmlns:xlink="http://www.w3.org/1999/xlink" width="200" height="200"><defs><style type="text/css"></style></defs><path d="M773.12 824.54c-13.16 0-26.31-5.02-36.35-15.06L214.52 287.23c-20.08-20.08-20.08-52.62 0-72.71s52.62-20.08 72.71 0l522.25 522.25c20.08 20.08 20.08 52.62 0 72.71-10.05 10.04-23.2 15.06-36.36 15.06z" p-id="2020"></path><path d="M250.88 824.54c-13.16 0-26.31-5.02-36.35-15.06-20.08-20.08-20.08-52.62 0-72.71l522.25-522.25c20.08-20.08 52.62-20.08 72.71 0 20.08 20.08 20.08 52.62 0 72.71L287.23 809.48c-10.04 10.04-23.2 15.06-36.35 15.06z" p-id="2021"></path></svg>