<?xml version="1.0" encoding="UTF-8" standalone="no"?>
<svg
   xmlns:dc="http://purl.org/dc/elements/1.1/"
   xmlns:cc="http://creativecommons.org/ns#"
   xmlns:rdf="http://www.w3.org/1999/02/22-rdf-syntax-ns#"
   xmlns:svg="http://www.w3.org/2000/svg"
   xmlns="http://www.w3.org/2000/svg"
   xmlns:sodipodi="http://sodipodi.sourceforge.net/DTD/sodipodi-0.dtd"
   xmlns:inkscape="http://www.inkscape.org/namespaces/inkscape"
   class="icon"
   width="200px"
   height="200.00px"
   viewBox="0 0 1024 1024"
   version="1.1"
   id="svg28"
   sodipodi:docname="liubingxie.svg"
   inkscape:version="0.92.4 5da689c313, 2019-01-14">
  <metadata
     id="metadata34">
    <rdf:RDF>
      <cc:Work
         rdf:about="">
        <dc:format>image/svg+xml</dc:format>
        <dc:type
           rdf:resource="http://purl.org/dc/dcmitype/StillImage" />
      </cc:Work>
    </rdf:RDF>
  </metadata>
  <defs
     id="defs32" />
  <sodipodi:namedview
     pagecolor="#ffffff"
     bordercolor="#666666"
     borderopacity="1"
     objecttolerance="10"
     gridtolerance="10"
     guidetolerance="10"
     inkscape:pageopacity="0"
     inkscape:pageshadow="2"
     inkscape:window-width="1920"
     inkscape:window-height="1048"
     id="namedview30"
     showgrid="false"
     inkscape:zoom="2.36"
     inkscape:cx="142.5445"
     inkscape:cy="138.87829"
     inkscape:window-x="0"
     inkscape:window-y="0"
     inkscape:window-maximized="1"
     inkscape:current-layer="svg28" />
  <path
     style="stroke-width:0.1953125;fill:#ffffff"
     d="m 181.23047,28.017578 c -1.28174,-0.0064 -3.61817,0.12207 -6.15235,0.986328 -4.07081,1.393473 -7.0704,4.182958 -8.68554,7.980469 -0.69421,-0.156192 -1.41331,-0.246094 -2.1543,-0.246094 h -61.60156 c -5.410158,0 -9.804689,4.394531 -9.804689,9.804688 v 16.289062 c 0,4.295965 2.775005,7.942134 6.625,9.265625 -0.135955,8.714262 -0.277344,17.78228 -0.277343,19.582032 0,6.816406 -5.546876,12.382812 -12.382813,12.382812 -1.582031,0 -7.910156,0.42969 -13.867187,0.83984 -0.761719,0.0586 -1.289063,0.0977 -1.445313,0.0977 -24.296875,1.48437 -43.320313,21.73828 -43.320313,46.09375 10e-7,6.79687 5.527344,12.34375 12.34375,12.34375 h 11.738282 v 9.27734 c 0,0.25614 0.02715,0.50579 0.07617,0.74805 -2.842973,-0.0771 -5.726802,-0.16534 -9.158204,-0.2793 -13.457031,-0.44921 -19.472656,-8.78906 -21.757812,-13.32031 -0.800781,-1.60156 -2.65625,-2.42187 -4.394531,-1.91406 -2.265625,0.66406 -3.378907,3.22266 -2.304688,5.33203 0.9375,1.85547 2.324219,4.14063 4.277344,6.42578 4.101562,4.80469 11.582031,10.625 23.945313,11.03516 10.722656,0.35156 16.035156,0.52734 31.660156,0.52734 15.429687,0 40.957038,-0.17578 91.640628,-0.50781 l 2.05078,-0.0195 c 2.05078,-0.0195 3.78906,-1.60157 3.84766,-3.65235 0.0781,-2.14843 -1.64063,-3.90625 -3.76953,-3.90625 h -0.0195 l -2.1289,0.0195 c -7.62534,0.0512 -11.197,0.0717 -17.73242,0.11524 0.0305,-0.19772 0.0586,-0.39651 0.0566,-0.60352 v -9.27734 h 6.07422 c 6.8164,0 12.34374,-5.54688 12.32421,-12.34375 V 123.76953 72.251953 c 4.10039,-1.173549 7.10938,-4.945414 7.10938,-9.419922 V 46.542969 c 0,-1.737935 -0.457,-3.368839 -1.25195,-4.785157 0.0183,-0.06621 0.0456,-0.127408 0.0605,-0.195312 0.58594,-2.734375 2.01172,-4.433594 4.51172,-5.351562 2.10091,-0.770978 4.1461,-0.6479 4.21875,-0.644532 v -0.05859 c 0.23438,0.03906 0.48828,0.07813 0.74219,0.07813 2.08984,0 3.76953,-1.699219 3.76953,-3.769532 -0.21224,-2.377318 -0.85839,-2.623838 -2.29492,-3.460937 -0.45881,-0.197326 -0.96356,-0.308594 -1.49414,-0.308594 h -0.17578 c -0.16114,-0.0098 -0.4712,-0.02716 -0.89844,-0.0293 z m -78.59375,16.298828 h 61.60156 c 1.23047,0 2.2461,1.015625 2.2461,2.246094 v 16.289062 c 0,1.230469 -1.01563,2.246094 -2.2461,2.246094 h -61.60156 c -1.23047,0 -2.2461,-1.015625 -2.2461,-2.246094 V 46.5625 c 1e-5,-1.230469 1.01563,-2.246094 2.2461,-2.246094 z m 4.39062,28.320313 h 52.36719 v 47.031251 h -0.0586 c -17.92969,0 -32.5,14.58984 -32.5,32.5 0,1.21094 0.0586,2.46094 0.21484,3.69141 H 40.507812 c -2.636718,0 -4.785156,-2.14844 -4.785156,-4.78516 0,-20.39063 15.917969,-37.32422 36.230469,-38.55469 0.15625,0 0.703125,-0.0391 1.503906,-0.0977 1.419929,-0.10414 4.274229,-0.30037 6.978516,-0.47461 l 0.716797,10.66992 c 0.136718,2.01172 1.796875,3.53515 3.769531,3.53515 0.07813,0 0.175781,0 0.253906,-0.0195 2.070313,-0.13672 3.652344,-1.93359 3.515625,-4.02343 l -0.707031,-10.54493 c 2.386612,-0.13853 4.657607,-0.70313 6.748047,-1.61133 l 7.630858,8.89454 c 0.74219,0.8789 1.79688,1.32812 2.8711,1.32812 0.85937,0 1.73828,-0.29297 2.4414,-0.91797 1.58203,-1.36718 1.75781,-3.75 0.41016,-5.33203 l -7.08203,-8.27539 c 1.7015,-1.72529 3.08734,-3.75914 4.07421,-6.007812 l 10.82032,3.912112 c 0.42968,0.15625 0.85937,0.23437 1.28906,0.23437 1.54297,0 2.98828,-0.95703 3.55469,-2.5 0.70312,-1.972654 -0.3125,-4.140622 -2.26563,-4.843748 l -11.07422,-4.003906 c -0.21817,-0.07776 -0.43945,-0.127288 -0.66015,-0.164062 0.006,-0.205337 0.0156,-0.410354 0.0156,-0.617188 0,-1.732076 0.13729,-10.544427 0.26953,-19.023437 z m 52.26954,54.628901 c 0.031,1e-5 0.0665,0.004 0.0977,0.004 v 23.80469 c 0,2.63672 -2.14844,4.78516 -4.78515,4.78516 h -19.95899 c -0.18795,-1.22726 -0.29492,-2.4466 -0.29492,-3.65235 0,-13.75 11.19141,-24.94141 24.94141,-24.94141 z M 59.785156,163.4375 h 81.210934 v 9.27734 c 0,0.22337 0.0289,0.43928 0.0664,0.65235 -48.939189,0.32268 -69.778962,0.42244 -81.390625,0.24804 0.06945,-0.28981 0.116201,-0.588 0.113281,-0.90039 z"
     transform="scale(5.12)"
     id="path4"
     inkscape:connector-curvature="0"
     sodipodi:nodetypes="sccsssscssccsscscccccccscscscccccscccsscccccsccscsscssssscscccsscssccccscccccscccccsccccscccsscscccsccccccc" />
</svg>
