<?xml version="1.0" encoding="UTF-8" standalone="no"?>
<svg
   xmlns:dc="http://purl.org/dc/elements/1.1/"
   xmlns:cc="http://creativecommons.org/ns#"
   xmlns:rdf="http://www.w3.org/1999/02/22-rdf-syntax-ns#"
   xmlns:svg="http://www.w3.org/2000/svg"
   xmlns="http://www.w3.org/2000/svg"
   xmlns:sodipodi="http://sodipodi.sourceforge.net/DTD/sodipodi-0.dtd"
   xmlns:inkscape="http://www.inkscape.org/namespaces/inkscape"
   class="icon"
   width="200px"
   height="200.00px"
   viewBox="0 0 1024 1024"
   version="1.1"
   id="svg20"
   sodipodi:docname="shengdantangguo.svg"
   inkscape:version="0.92.4 5da689c313, 2019-01-14">
  <metadata
     id="metadata26">
    <rdf:RDF>
      <cc:Work
         rdf:about="">
        <dc:format>image/svg+xml</dc:format>
        <dc:type
           rdf:resource="http://purl.org/dc/dcmitype/StillImage" />
      </cc:Work>
    </rdf:RDF>
  </metadata>
  <defs
     id="defs24" />
  <sodipodi:namedview
     pagecolor="#ffffff"
     bordercolor="#666666"
     borderopacity="1"
     objecttolerance="10"
     gridtolerance="10"
     guidetolerance="10"
     inkscape:pageopacity="0"
     inkscape:pageshadow="2"
     inkscape:window-width="1920"
     inkscape:window-height="1048"
     id="namedview22"
     showgrid="false"
     inkscape:zoom="2.36"
     inkscape:cx="86.581122"
     inkscape:cy="128.31633"
     inkscape:window-x="0"
     inkscape:window-y="0"
     inkscape:window-maximized="1"
     inkscape:current-layer="svg20" />
  <path
     d="M391.5 649.4c-1.5 0-3.1-0.2-4.6-0.5-11.2-2.5-18.3-13.7-15.8-24.9L399 500.3c2.5-11.2 13.7-18.3 24.9-15.8s18.3 13.7 15.8 24.9L411.9 633c-2.3 9.8-10.9 16.4-20.4 16.4zM470.8 731.5c-1.5 0-3.1-0.2-4.6-0.5-11.2-2.5-18.3-13.7-15.8-24.9l27.8-123.6c2.5-11.2 13.7-18.3 24.9-15.8s18.3 13.7 15.8 24.9l-27.8 123.6c-2.2 9.7-10.7 16.3-20.3 16.3z"
     id="path6"
     style="fill:#ffffff" />
  <path
     d="M362.2 628.3c-5.3 0-10.7-2-14.7-6.1-48.4-48.4-75.6-112.2-76.6-179.6-1-67.7 24.4-131 71.7-178.2 34.4-34.4 77.9-57.6 125.9-67 46.6-9.1 94.9-5 139.8 12.1 10.8 4.1 16.2 16.1 12.1 26.9-4.1 10.8-16.1 16.2-26.9 12.1C515.9 219 429 236.8 372 293.8c-81.1 81.1-78.9 215.2 4.9 298.9 8.1 8.1 8.1 21.3 0 29.5-4 4.1-9.4 6.1-14.7 6.1z"
     id="path10"
     style="fill:#ffffff" />
  <path
     d="M236.3 352.5c-11.5 0-20.8-9.3-20.8-20.8 0-53 24.6-102.5 69.3-139.3 43.7-36 101.9-55.8 164-55.8 45.2 0 89.1 10.6 127 30.6 37.5 19.8 67.3 47.8 86.3 81 5.7 10 2.2 22.7-7.7 28.4-10 5.7-22.7 2.2-28.4-7.7-31.5-55-101-90.6-177.1-90.6-105.6 0-191.6 68.8-191.6 153.4-0.1 11.4-9.4 20.8-21 20.8z"
     id="path12"
     style="fill:#ffffff" />
  <path
     d="M667.3 283.5c-3 0-6.1-0.7-9-2-10.4-5-14.8-17.4-9.8-27.8 12.3-25.7 6-57.8-19.1-98-16-25.7-38.1-45.2-62.1-54.9-10.7-4.3-15.8-16.5-11.5-27.1 4.3-10.7 16.5-15.8 27.1-11.5 32.1 13 61.1 38.4 81.8 71.5 33.2 53.3 40.2 98.4 21.3 138-3.5 7.4-11 11.8-18.7 11.8z"
     id="path14"
     style="fill:#ffffff" />
  <path
     d="M524.5 96.1c69 0 137.9 26.3 190.5 78.8 17.6 17.6 17.6 46.2 0 63.9-8.8 8.8-20.4 13.2-31.9 13.2-11.6 0-23.1-4.4-31.9-13.2-34.9-34.9-80.8-52.3-126.6-52.4-45.9 0-91.7 17.4-126.6 52.4-69.8 69.8-69.8 183.4 0 253.2l373.9 373.9c17.6 17.6 17.6 46.2 0 63.9-8.8 8.8-20.4 13.2-31.9 13.2-11.6 0-23.1-4.4-31.9-13.2L334 555.7c-105-105-105-275.9 0-380.9 52.6-52.5 121.5-78.7 190.5-78.7m0-41.7v41.7-41.7c-40.4 0-79.8 7.6-117 22.7-38.6 15.6-73.2 38.6-102.9 68.2-121.3 121.3-121.3 318.6 0 439.9l373.9 373.9c16.4 16.4 38.2 25.4 61.4 25.4s45-9 61.4-25.4 25.4-38.2 25.4-61.4-9-45-25.4-61.4L427.4 462.4c-25.9-25.9-40.1-60.4-40.1-97.1 0-36.7 14.3-71.2 40.2-97.1 25.9-25.9 60.4-40.2 97.1-40.2 36.7 0 71.2 14.3 97.1 40.1 16.4 16.4 38.2 25.4 61.4 25.4 23.2 0 45-9 61.4-25.4 33.9-33.9 33.9-88.9 0-122.8-29.6-29.6-64.3-52.6-102.9-68.2-37.3-15.1-76.7-22.7-117.1-22.7z"
     id="path16"
     style="fill:#ffffff" />
  <path
     d="M551.5 811.1c-1.5 0-3.1-0.2-4.6-0.5-11.2-2.5-18.3-13.7-15.8-24.9L559 662.1c2.5-11.2 13.7-18.3 24.9-15.8s18.3 13.7 15.8 24.9l-27.8 123.6c-2.2 9.7-10.8 16.3-20.4 16.3zM630.9 893.2c-1.5 0-3.1-0.2-4.6-0.5-11.2-2.5-18.3-13.7-15.8-24.9l27.8-123.6c2.5-11.2 13.7-18.3 24.9-15.8s18.3 13.7 15.8 24.9L651.2 877c-2.2 9.6-10.8 16.2-20.3 16.2z"
     id="path18"
     style="fill:#ffffff" />
</svg>
