<?xml version="1.0" encoding="UTF-8" standalone="no"?>
<svg
   xmlns:dc="http://purl.org/dc/elements/1.1/"
   xmlns:cc="http://creativecommons.org/ns#"
   xmlns:rdf="http://www.w3.org/1999/02/22-rdf-syntax-ns#"
   xmlns:svg="http://www.w3.org/2000/svg"
   xmlns="http://www.w3.org/2000/svg"
   xmlns:sodipodi="http://sodipodi.sourceforge.net/DTD/sodipodi-0.dtd"
   xmlns:inkscape="http://www.inkscape.org/namespaces/inkscape"
   class="icon"
   width="200px"
   height="200.00px"
   viewBox="0 0 1024 1024"
   version="1.1"
   id="svg34"
   sodipodi:docname="shengdanhua.svg"
   inkscape:version="0.92.4 5da689c313, 2019-01-14">
  <metadata
     id="metadata40">
    <rdf:RDF>
      <cc:Work
         rdf:about="">
        <dc:format>image/svg+xml</dc:format>
        <dc:type
           rdf:resource="http://purl.org/dc/dcmitype/StillImage" />
      </cc:Work>
    </rdf:RDF>
  </metadata>
  <defs
     id="defs38" />
  <sodipodi:namedview
     pagecolor="#ffffff"
     bordercolor="#666666"
     borderopacity="1"
     objecttolerance="10"
     gridtolerance="10"
     guidetolerance="10"
     inkscape:pageopacity="0"
     inkscape:pageshadow="2"
     inkscape:window-width="1920"
     inkscape:window-height="1048"
     id="namedview36"
     showgrid="false"
     inkscape:zoom="3.337544"
     inkscape:cx="161.57246"
     inkscape:cy="51.241073"
     inkscape:window-x="0"
     inkscape:window-y="0"
     inkscape:window-maximized="1"
     inkscape:current-layer="svg34" />
  <path
     style="stroke-width:0.1953125;fill:#ffffff"
     d="M 98.398438 9.3359375 C 98.143574 9.3359375 97.895895 9.3665626 97.652344 9.4121094 C 97.576881 9.4262203 97.50554 9.4485528 97.431641 9.4667969 C 97.263516 9.5081671 97.099144 9.5573589 96.939453 9.6191406 C 96.868461 9.6467572 96.799423 9.6755727 96.730469 9.7070312 C 96.560267 9.78413 96.397242 9.8714136 96.240234 9.9707031 C 96.196609 9.998493 96.151829 10.023329 96.109375 10.052734 C 95.702513 10.332454 95.350064 10.684059 95.070312 11.095703 C 95.0578 11.114096 95.047372 11.133733 95.035156 11.152344 C 94.915027 11.335665 94.811894 11.530217 94.722656 11.734375 C 94.700303 11.785014 94.682411 11.836954 94.662109 11.888672 C 94.625782 11.982304 94.580195 12.070677 94.550781 12.167969 L 92.558594 18.710938 C 88.144531 33.125 77.871094 43.828125 65.722656 46.679688 C 64.472656 46.992188 63.417969 47.871094 62.929688 49.082031 C 62.441406 50.292969 62.558594 51.660156 63.261719 52.753906 C 68.362353 60.788443 71.965698 70.080146 73.929688 79.876953 C 59.711052 81.226937 48.554688 93.225963 48.554688 107.79297 C 48.554688 112.00133 49.491347 115.99273 51.158203 119.57812 C 43.374619 124.45412 34.94945 128.01055 26.386719 129.92188 C 25.117187 130.21484 24.0625 131.09375 23.554688 132.28516 C 23.046875 133.47656 23.164062 134.84375 23.847656 135.95703 C 30.429688 146.5625 30.117187 161.40625 23.046875 174.70703 L 19.824219 180.74219 C 19.778745 180.82679 19.749797 180.91545 19.710938 181.00195 C 19.682652 181.06598 19.651758 181.12826 19.626953 181.19336 C 19.541324 181.41412 19.474287 181.63949 19.429688 181.86719 C 19.331422 182.36887 19.333745 182.87766 19.427734 183.37305 C 19.432979 183.40124 19.439463 183.42894 19.445312 183.45703 C 19.488338 183.65994 19.54678 183.85799 19.621094 184.05273 C 19.643507 184.1122 19.668024 184.16997 19.693359 184.22852 C 19.768267 184.39991 19.855772 184.56554 19.955078 184.72656 C 19.986718 184.77812 20.01464 184.83048 20.048828 184.88086 C 20.189638 185.08772 20.345473 185.28688 20.527344 185.46875 C 20.717773 185.65918 20.926147 185.82709 21.146484 185.97266 C 21.812321 186.4161 22.579493 186.64062 23.359375 186.64062 C 23.590253 186.64062 23.8208 186.61432 24.050781 186.57422 C 24.092085 186.56697 24.132685 186.55933 24.173828 186.55078 C 24.544312 186.47456 24.912229 186.35248 25.273438 186.17188 L 31.308594 182.96875 C 44.609375 175.89844 59.453125 175.58594 70.058594 182.16797 C 71.171875 182.85156 72.539062 182.96875 73.730469 182.46094 C 74.921875 181.95312 75.820313 180.89844 76.09375 179.62891 C 77.787748 172.03979 80.783586 164.56483 84.837891 157.54492 C 89.33771 160.6202 94.77357 162.42188 100.625 162.42188 C 107.25006 162.42188 113.34098 160.10921 118.14453 156.25586 C 123.90048 164.74764 128.06823 174.10346 130.19531 183.63281 C 130.48828 184.90234 131.36719 185.95703 132.55859 186.46484 C 133.75 186.97266 135.11719 186.85547 136.23047 186.17188 C 146.83594 179.58984 161.67969 179.90234 174.98047 186.97266 L 181.01562 190.17578 C 181.08951 190.21519 181.16655 190.24486 181.24219 190.2793 C 181.30827 190.30918 181.37211 190.34304 181.43945 190.36914 C 181.63818 190.4469 181.84262 190.5042 182.04883 190.54883 C 182.10349 190.56045 182.15781 190.57075 182.21289 190.58008 C 182.43745 190.61888 182.66353 190.64453 182.89062 190.64453 C 183.14453 190.64453 183.40027 190.61914 183.65234 190.57031 C 184.41594 190.42482 185.14442 190.06056 185.76172 189.47266 C 187.01172 188.22266 187.28516 186.30859 186.46484 184.74609 L 183.24219 178.71094 C 176.17188 165.41016 175.85938 150.56641 182.44141 139.96094 C 183.125 138.84766 183.24217 137.48047 182.73438 136.28906 C 182.22656 135.09766 181.17188 134.19922 179.90234 133.92578 C 168.0164 131.27267 156.40069 125.44472 146.39648 117.31641 C 147.5846 114.21033 148.24219 110.84365 148.24219 107.32422 C 148.24219 92.787734 137.13303 80.805732 122.95703 79.414062 C 124.94415 69.782858 128.51397 60.653084 133.53516 52.753906 C 134.23828 51.660156 134.35547 50.292969 133.86719 49.082031 C 133.37891 47.871094 132.34375 46.972656 131.07422 46.679688 C 118.92578 43.828125 108.63281 33.105469 104.23828 18.710938 L 102.24609 12.167969 C 102.21859 12.080359 102.17745 12.000668 102.14453 11.916016 C 102.11692 11.844147 102.09014 11.772923 102.05859 11.703125 C 101.98942 11.551123 101.90831 11.408035 101.82227 11.267578 C 101.78004 11.198475 101.74346 11.126805 101.69727 11.060547 C 101.56492 10.870903 101.42094 10.690188 101.25977 10.527344 C 101.22463 10.491848 101.18291 10.463856 101.14648 10.429688 C 101.00883 10.300572 100.86515 10.17877 100.71094 10.070312 C 100.64457 10.023627 100.57315 9.9860462 100.50391 9.9433594 C 100.36796 9.8595533 100.22963 9.7821295 100.08398 9.7148438 C 100.00568 9.67866 99.926655 9.6464397 99.845703 9.6152344 C 99.690882 9.5555137 99.532037 9.5072121 99.369141 9.4667969 C 99.294051 9.448184 99.221237 9.4264528 99.144531 9.4121094 C 98.901524 9.3665288 98.653392 9.3359375 98.398438 9.3359375 z M 94.375 34.105469 L 94.375 86.111328 C 90.917042 83.271934 86.770392 81.240675 82.226562 80.3125 C 81.993711 78.993341 81.737242 77.677763 81.445312 76.367188 C 79.570312 67.96875 76.640625 60.097656 72.675781 52.910156 C 78.183594 50.78125 83.300781 47.34375 87.695312 42.792969 C 90.192453 40.208211 92.426249 37.281202 94.375 34.105469 z M 102.42188 34.115234 C 104.3705 37.288733 106.60462 40.208409 109.10156 42.792969 C 113.49609 47.324219 118.61328 50.761719 124.12109 52.910156 C 120.15625 60.097656 117.22656 67.96875 115.35156 76.367188 C 115.095 77.516266 114.87124 78.671539 114.66016 79.828125 C 110.08146 80.74787 105.9024 82.784649 102.42188 85.642578 L 102.42188 34.115234 z M 120.19531 87.304688 C 131.23047 87.304688 140.21484 96.289062 140.21484 107.32422 C 140.21484 118.35938 131.23047 127.34375 120.19531 127.34375 C 112.84675 127.34375 106.42359 123.3485 102.94141 117.42773 C 102.94162 117.42716 102.94119 117.42636 102.94141 117.42578 C 104.04462 114.42052 104.64844 111.17611 104.64844 107.79297 C 104.64844 104.19271 103.95932 100.75284 102.71875 97.587891 C 106.14671 91.462007 112.69343 87.304688 120.19531 87.304688 z M 76.601562 87.773438 C 83.949761 87.773438 90.371213 91.769167 93.853516 97.689453 C 92.751154 100.6952 92.148438 103.94043 92.148438 107.32422 C 92.148438 110.92447 92.837556 114.36435 94.078125 117.5293 C 90.650161 123.65518 84.103441 127.8125 76.601562 127.8125 C 65.566406 127.8125 56.582031 118.82812 56.582031 107.79297 C 56.582031 96.757812 65.566406 87.773438 76.601562 87.773438 z M 142.39844 124.43359 C 144.93964 126.44332 147.57461 128.3331 150.3125 130.07812 C 157.55859 134.70703 165.21484 138.18359 173.08594 140.46875 C 170.72266 145.87891 169.53125 151.93359 169.62891 158.24219 C 169.68368 161.83542 170.17125 165.48285 171.04102 169.10742 L 133.7832 131.84961 C 137.13623 129.9849 140.06682 127.45271 142.39844 124.43359 z M 98.580078 125.17969 C 103.72801 131.40159 111.5051 135.37109 120.19531 135.37109 C 120.33811 135.37109 120.4788 135.36151 120.62109 135.35938 C 120.10614 145.93982 111.33037 154.39453 100.625 154.39453 C 89.982556 154.39453 81.250813 146.03813 80.642578 135.54492 C 87.8791 134.49442 94.229507 130.66607 98.580078 125.17969 z M 55.550781 126.29883 C 58.485494 129.63329 62.196097 132.26491 66.400391 133.91211 L 35.183594 165.12891 C 36.057204 161.49607 36.546661 157.83982 36.601562 154.23828 C 36.699219 147.92969 35.507812 141.875 33.144531 136.46484 C 40.88397 134.21792 48.394515 130.81239 55.550781 126.29883 z M 128.44531 137.87695 L 165.375 174.79492 C 161.74467 173.92248 158.09121 173.43377 154.49219 173.37891 L 153.76953 173.37891 C 147.71484 173.37891 141.91406 174.57031 136.71875 176.83594 C 134.43359 168.96484 130.9375 161.32812 126.32812 154.0625 C 125.49998 152.75958 124.63937 151.48121 123.75 150.22461 C 126.22557 146.62348 127.87711 142.41712 128.44531 137.87695 z M 72.921875 138.75391 C 73.697863 143.68401 75.765507 148.18846 78.761719 151.91602 C 74.704677 158.60981 71.60302 165.62866 69.511719 172.83203 C 64.101562 170.46875 58.066406 169.27734 51.738281 169.375 C 48.147099 169.42975 44.501431 169.91635 40.878906 170.78516 L 72.921875 138.75391 z "
     transform="scale(5.12)"
     id="path4" />
</svg>
