<?xml version="1.0" encoding="UTF-8" standalone="no"?>
<svg
   xmlns:dc="http://purl.org/dc/elements/1.1/"
   xmlns:cc="http://creativecommons.org/ns#"
   xmlns:rdf="http://www.w3.org/1999/02/22-rdf-syntax-ns#"
   xmlns:svg="http://www.w3.org/2000/svg"
   xmlns="http://www.w3.org/2000/svg"
   xmlns:sodipodi="http://sodipodi.sourceforge.net/DTD/sodipodi-0.dtd"
   xmlns:inkscape="http://www.inkscape.org/namespaces/inkscape"
   class="icon"
   width="200px"
   height="200.00px"
   viewBox="0 0 1024 1024"
   version="1.1"
   id="svg20"
   sodipodi:docname="shengdanqiu.svg"
   inkscape:version="0.92.4 5da689c313, 2019-01-14">
  <metadata
     id="metadata26">
    <rdf:RDF>
      <cc:Work
         rdf:about="">
        <dc:format>image/svg+xml</dc:format>
        <dc:type
           rdf:resource="http://purl.org/dc/dcmitype/StillImage" />
      </cc:Work>
    </rdf:RDF>
  </metadata>
  <defs
     id="defs24" />
  <sodipodi:namedview
     pagecolor="#ffffff"
     bordercolor="#666666"
     borderopacity="1"
     objecttolerance="10"
     gridtolerance="10"
     guidetolerance="10"
     inkscape:pageopacity="0"
     inkscape:pageshadow="2"
     inkscape:window-width="1920"
     inkscape:window-height="1048"
     id="namedview22"
     showgrid="false"
     inkscape:zoom="2.36"
     inkscape:cx="14.491583"
     inkscape:cy="88.964157"
     inkscape:window-x="0"
     inkscape:window-y="0"
     inkscape:window-maximized="1"
     inkscape:current-layer="svg20" />
  <path
     d="M516.2 971.8c-51.1 0-100.7-10-147.4-29.8-45.1-19.1-85.6-46.4-120.4-81.2s-62.1-75.3-81.2-120.4c-19.8-46.7-29.8-96.3-29.8-147.4s10-100.7 29.8-147.4c19.1-45.1 46.4-85.6 81.2-120.4s75.3-62.1 120.4-81.2c46.7-19.8 96.3-29.8 147.4-29.8s100.7 10 147.4 29.8c45.1 19.1 85.6 46.4 120.4 81.2s62.1 75.3 81.2 120.4C885 492.3 895 541.9 895 593s-10 100.7-29.8 147.4c-19.1 45.1-46.4 85.6-81.2 120.4s-75.3 62.1-120.4 81.2c-46.6 19.8-96.2 29.8-147.4 29.8z m0-714C331.4 257.8 181 408.2 181 593s150.4 335.2 335.2 335.2S851.4 777.8 851.4 593 701.1 257.8 516.2 257.8z"
     id="path2"
     style="fill:#ffffff" />
  <path
     d="M624.9 156.6h-43.6c0-35.9-29.2-65-65-65-35.9 0-65 29.2-65 65h-43.6C407.6 96.7 456.3 48 516.2 48s108.7 48.7 108.7 108.6z"
     id="path6"
     style="fill:#ffffff" />
  <path
     style="stroke-width:0.1953125;fill:#ffffff"
     d="M 81.015625 27.1875 C 74.121094 27.1875 68.496094 32.8125 68.496094 39.707031 L 68.496094 47.617188 C 68.496094 49.674143 69.006875 51.612835 69.892578 53.328125 C 72.447742 52.060379 75.089405 50.943719 77.810547 49.992188 C 77.315171 49.325774 77.011719 48.509084 77.011719 47.617188 L 77.011719 39.707031 C 77.011719 37.5 78.808594 35.703125 81.015625 35.703125 L 120.64453 35.703125 C 122.85156 35.703125 124.64844 37.5 124.64844 39.707031 L 124.64844 47.617188 C 124.64844 48.511057 124.34307 49.328909 123.8457 49.996094 C 126.56864 50.948565 129.21263 52.066993 131.76953 53.335938 C 132.65499 51.620403 133.16406 49.679668 133.16406 47.617188 L 133.16406 39.707031 C 133.16406 32.8125 127.53906 27.1875 120.64453 27.1875 L 81.015625 27.1875 z "
     transform="scale(5.12)"
     id="path8" />
  <path
     d="M856.8 507.6H175.7c-6.9 0-13.5-3.3-17.6-8.9-4.1-5.6-5.3-12.8-3.2-19.4 11.9-38 29.8-73.7 53-106.2 22.9-32.1 50.6-60.3 82.2-83.9 65.7-49 144-74.9 226.2-74.9 82.2 0 160.4 25.9 226.2 74.9 31.6 23.6 59.3 51.8 82.2 83.9 23.2 32.5 41.1 68.3 53 106.2 2.1 6.6 0.9 13.8-3.2 19.4-4.2 5.6-10.7 8.9-17.7 8.9z m-650-43.6h619c-51.6-124.5-172.5-206.2-309.5-206.2-137.1 0-257.9 81.7-309.5 206.2z"
     id="path12"
     style="fill:#ffffff" />
  <path
     d="M516.2 971.8c-77.4 0-151.9-23.2-215.3-67.2C239 861.7 191.6 802.1 164 732.3c-2.7-6.7-1.8-14.3 2.2-20.3s10.8-9.5 18-9.5h664c7.2 0 14 3.6 18 9.5s4.9 13.6 2.2 20.3c-27.6 69.8-75 129.4-136.9 172.4-63.4 43.9-137.8 67.1-215.3 67.1zM218 746c57 111.7 170.8 182.2 298.2 182.2 127.4 0 241.2-70.5 298.2-182.2H218z"
     id="path16"
     style="fill:#ffffff" />
  <path
     d="M297 703.5h-0.5c-7.7-0.2-14.8-4.4-18.5-11.1L176.4 511.3c-5.9-10.5-2.2-23.8 8.3-29.7 10.5-5.9 23.8-2.2 29.7 8.3l83.5 148.9L390.7 489c4.1-6.6 11.5-10.6 19.3-10.3 7.8 0.3 14.9 4.7 18.5 11.6l78.6 147.9 94-149.3c4-6.3 10.9-10.1 18.3-10.2 7.5-0.1 14.4 3.7 18.4 9.9l99.9 153.7 105.8-154.2c6.8-9.9 20.4-12.5 30.3-5.6 9.9 6.8 12.5 20.4 5.6 30.3L755.1 694c-4.1 5.9-10.8 9.5-18 9.5h-0.3c-7.3-0.1-14-3.8-18-9.9l-99-152.6-95.9 152.3c-4.1 6.6-11.5 10.5-19.2 10.2-7.8-0.3-14.8-4.7-18.5-11.6l-78.5-147.6-92.3 148.9c-3.9 6.4-10.9 10.3-18.4 10.3z"
     id="path18"
     style="fill:#ffffff" />
</svg>
