<?xml version="1.0" encoding="UTF-8" standalone="no"?>
<svg
   xmlns:dc="http://purl.org/dc/elements/1.1/"
   xmlns:cc="http://creativecommons.org/ns#"
   xmlns:rdf="http://www.w3.org/1999/02/22-rdf-syntax-ns#"
   xmlns:svg="http://www.w3.org/2000/svg"
   xmlns="http://www.w3.org/2000/svg"
   xmlns:sodipodi="http://sodipodi.sourceforge.net/DTD/sodipodi-0.dtd"
   xmlns:inkscape="http://www.inkscape.org/namespaces/inkscape"
   class="icon"
   width="200px"
   height="200.00px"
   viewBox="0 0 1024 1024"
   version="1.1"
   id="svg22"
   sodipodi:docname="shengdanshu.svg"
   inkscape:version="0.92.4 5da689c313, 2019-01-14">
  <metadata
     id="metadata28">
    <rdf:RDF>
      <cc:Work
         rdf:about="">
        <dc:format>image/svg+xml</dc:format>
        <dc:type
           rdf:resource="http://purl.org/dc/dcmitype/StillImage" />
      </cc:Work>
    </rdf:RDF>
  </metadata>
  <defs
     id="defs26" />
  <sodipodi:namedview
     pagecolor="#ffffff"
     bordercolor="#666666"
     borderopacity="1"
     objecttolerance="10"
     gridtolerance="10"
     guidetolerance="10"
     inkscape:pageopacity="0"
     inkscape:pageshadow="2"
     inkscape:window-width="1920"
     inkscape:window-height="1048"
     id="namedview24"
     showgrid="false"
     inkscape:zoom="4.72"
     inkscape:cx="94.130025"
     inkscape:cy="119.03978"
     inkscape:window-x="0"
     inkscape:window-y="0"
     inkscape:window-maximized="1"
     inkscape:current-layer="svg22" />
  <path
     style="stroke-width:0.1953125;fill:#ffffff"
     d="M 100.19531 11.523438 C 99.082033 11.523438 98.007812 12.011719 97.285156 12.851562 L 78.185547 34.933594 A 8.8476563 8.8476563 0 0 1 85.744141 37.960938 L 100.19531 21.25 L 133.90625 60.234375 L 120.09766 60.234375 C 118.59375 60.234375 117.22656 61.113281 116.60156 62.480469 C 115.97656 63.847656 116.21094 65.46875 117.1875 66.601562 L 151.89453 106.75781 L 132.91016 106.75781 C 131.40625 106.75781 130.03906 107.63672 129.41406 109.00391 C 128.78906 110.37109 129.02344 111.99219 130 113.125 L 141.83789 126.81641 A 13.710938 13.710938 0 0 1 148.58789 122.84961 L 141.32812 114.45312 L 160.3125 114.45312 C 161.81641 114.45312 163.18359 113.59375 163.80859 112.22656 C 164.43359 110.85937 164.19922 109.23828 163.22266 108.10547 L 128.51562 67.949219 L 142.32422 67.949219 C 143.82812 67.949219 145.19531 67.070312 145.82031 65.703125 C 146.44531 64.335938 146.21094 62.714844 145.23438 61.582031 L 103.10547 12.851562 C 102.38281 12.011719 101.30859 11.523437 100.19531 11.523438 z M 70.216797 44.148438 L 55.15625 61.5625 C 54.179688 62.695312 53.945312 64.316406 54.570312 65.683594 C 55.195312 67.050781 56.5625 67.929688 58.066406 67.929688 L 71.875 67.929688 L 37.167969 108.08594 C 36.191406 109.21875 35.957031 110.83984 36.582031 112.20703 C 37.207031 113.57422 38.574219 114.45312 40.078125 114.45312 L 59.0625 114.45312 L 23.90625 155.13672 C 22.929688 156.26953 22.695312 157.89062 23.320312 159.25781 C 23.945313 160.625 25.3125 161.50391 26.816406 161.50391 L 173.57422 161.50391 C 175.07812 161.50391 176.46484 160.625 177.08984 159.25781 C 177.71484 157.89062 177.48047 156.26953 176.50391 155.13672 L 164.55664 141.31836 A 13.710938 13.710938 0 0 1 159.65625 147.42578 L 165.17578 153.80859 L 35.234375 153.80859 L 70.390625 113.125 C 71.367188 111.99219 71.601562 110.37109 70.976562 109.00391 C 70.351562 107.63672 68.984375 106.75781 67.480469 106.75781 L 48.496094 106.75781 L 83.203125 66.601562 C 84.179688 65.46875 84.414062 63.847656 83.789062 62.480469 C 83.164063 61.113281 81.796875 60.234375 80.292969 60.234375 L 66.484375 60.234375 L 74.298828 51.197266 A 8.8476563 8.8476563 0 0 1 70.216797 44.148438 z "
     transform="scale(5.12)"
     id="path4" />
  <path
     d="M513 975.1c-10.9 0-19.7-8.8-19.7-19.7V274c0-10.9 8.8-19.7 19.7-19.7 10.9 0 19.7 8.8 19.7 19.7v681.4c0 10.8-8.8 19.7-19.7 19.7z"
     id="path6"
     style="fill:#ffffff" />
  <path
     d="M395.4 452.7c-6 0-11.9-2.7-15.7-7.8-6.6-8.7-4.8-21 3.8-27.6l101.8-76.9c8.7-6.6 21-4.8 27.6 3.8 6.6 8.7 4.8 21-3.8 27.6l-101.8 76.9c-3.6 2.7-7.7 4-11.9 4z"
     id="path8"
     style="fill:#ffffff" />
  <path
     d="M633.6 452.7c-4.1 0-8.3-1.3-11.9-4l-101.8-76.9a19.65 19.65 0 0 1-3.8-27.6c6.6-8.7 18.9-10.4 27.6-3.8l101.8 76.9c8.7 6.6 10.4 18.9 3.8 27.6-3.8 5.1-9.7 7.8-15.7 7.8zM395.4 659.3c-6 0-11.9-2.7-15.7-7.8-6.6-8.7-4.8-21 3.8-27.6L485.4 547c8.7-6.6 21-4.8 27.6 3.8 6.6 8.7 4.8 21-3.8 27.6l-101.8 76.9c-3.7 2.7-7.8 4-12 4z"
     id="path10"
     style="fill:#ffffff" />
  <path
     d="M633.6 659.3c-4.1 0-8.3-1.3-11.9-4l-101.8-76.9a19.65 19.65 0 0 1-3.8-27.6c6.6-8.7 18.9-10.4 27.6-3.8l101.8 76.9c8.7 6.6 10.4 18.9 3.8 27.6-3.8 5.1-9.7 7.8-15.7 7.8z"
     id="path12"
     style="fill:#ffffff" />
  <path
     d="M404.7 289c-35.9 0-65-29.2-65-65s29.2-65 65-65 65 29.2 65 65-29.2 65-65 65z m0-90.7c-14.1 0-25.6 11.5-25.6 25.6s11.5 25.6 25.6 25.6 25.6-11.5 25.6-25.6-11.5-25.6-25.6-25.6z"
     id="path16"
     style="fill:#ffffff" />
  <path
     d="M777.6 787c-49.6 0-89.9-40.3-89.9-89.9 0-49.6 40.3-89.9 89.9-89.9 49.6 0 89.9 40.3 89.9 89.9 0 49.6-40.3 89.9-89.9 89.9z m0-140.4c-27.9 0-50.5 22.7-50.5 50.5 0 27.9 22.7 50.5 50.5 50.5 27.9 0 50.5-22.7 50.5-50.5 0-27.9-22.6-50.5-50.5-50.5z"
     id="path20"
     style="fill:#ffffff" />
</svg>
