<?xml version="1.0" encoding="UTF-8" standalone="no"?>
<!-- Created with Inkscape (http://www.inkscape.org/) -->
<svg
   xmlns:svg="http://www.w3.org/2000/svg"
   xmlns="http://www.w3.org/2000/svg"
   version="1.0"
   width="620"
   height="369.37"
   id="svg2">
  <defs
     id="defs4" />
  <g
     transform="translate(-118.24016,-359.48875)"
     id="layer1">
    <path
       d="M 347.04559,705.24243 L 347.04559,691.62437 L 348.92394,691.62437 L 350.80229,691.62437 L 350.80229,697.25943 L 350.80229,702.89449 L 357.84611,702.89449 L 364.88993,702.89449 L 364.88993,697.25943 L 364.88993,691.62437 L 366.76828,691.62437 L 368.64665,691.62437 L 368.64665,705.24243 L 368.64665,718.86048 L 366.76828,718.86048 L 364.88993,718.86048 L 364.88993,712.52104 L 364.88993,706.1816 L 357.84611,706.1816 L 350.80229,706.1816 L 350.80229,712.52104 L 350.80229,718.86048 L 348.92394,718.86048 L 347.04559,718.86048 L 347.04559,705.24243 z M 367.39281,687.49012 L 366.37378,686.6937 L 371.6191,677.65949 C 374.50401,672.69069 376.9701,668.62959 377.09924,668.63485 C 377.22837,668.64011 377.73835,668.95037 378.23249,669.32435 C 379.0924,669.97506 378.91358,670.38313 374.07227,678.81857 C 371.29001,683.66641 368.87816,687.77996 368.71272,687.95971 C 368.54724,688.13947 367.95326,687.92815 367.39281,687.49012 z M 213.9174,685.80205 C 208.95887,684.23386 206.19697,681.43309 204.6782,676.43293 C 202.07903,667.87572 206.05911,658.80807 213.36683,656.63787 C 219.89221,654.70007 227.53089,656.96423 229.84788,661.52304 C 231.20404,664.19138 231.19383,664.75611 229.7845,665.0255 C 229.06407,665.16319 227.8151,665.40395 227.00902,665.56046 C 225.71105,665.81248 225.43658,665.664 224.60951,664.26224 C 222.29785,660.34423 214.9559,660.09459 211.64221,663.82125 C 208.78546,667.03407 208.76746,674.55218 211.60749,678.31658 C 213.92426,681.3874 219.21739,682.09193 223.51184,679.90106 C 225.26276,679.00782 225.4223,678.77035 225.4223,677.05762 L 225.4223,675.1888 L 221.90039,675.1888 L 218.37848,675.1888 L 218.37848,672.60607 L 218.37848,670.02333 L 224.71792,670.02333 L 231.05736,670.02333 L 231.05736,676.02302 L 231.05736,682.02276 L 229.06161,683.31807 C 224.80146,686.0831 218.21961,687.16263 213.9174,685.80205 z M 663.24694,669.59005 C 661.18207,668.33093 661.03649,667.89051 662.39168,667.00257 C 663.45821,666.30372 663.64703,666.29865 664.29957,666.95119 C 665.18808,667.8397 665.92472,667.86637 667.04069,667.05037 C 667.89961,666.4223 667.90469,665.31289 667.06375,662.00249 C 666.57914,660.09464 667.86346,657.63194 669.82962,656.69891 C 672.08839,655.62708 674.42229,656.25933 676.47359,658.4988 C 678.1611,660.34113 679.05834,660.55047 680.23292,659.37589 C 680.83752,658.77125 680.93566,658.20206 680.65804,656.91055 C 680.07129,654.18108 680.19034,651.41783 680.93332,650.522 C 681.31486,650.06195 682.33194,649.3909 683.19349,649.03077 C 685.2446,648.1734 687.25495,648.8174 689.38383,651.01385 C 691.19297,652.88041 692.1552,653.0481 693.36791,651.70808 C 694.10573,650.89283 694.14668,650.52613 693.67549,648.95348 C 692.83019,646.13224 693.00787,644.41553 694.30455,642.87448 C 696.49921,640.26624 699.76445,640.52978 702.49994,643.5359 C 705.27684,646.58751 707.73941,644.68286 706.40644,640.51447 C 705.78349,638.56648 705.7832,638.12723 706.4039,636.64169 C 707.64446,633.67262 711.14778,632.76509 714.146,634.63612 C 715.45414,635.45245 715.4924,636.27564 714.25805,637.04651 C 713.48228,637.53099 713.11652,637.50732 712.21107,636.91405 C 710.1978,635.59488 708.209,637.39678 709.09788,639.73472 C 709.98161,642.05913 709.67792,645.06741 708.43398,646.31139 C 706.08228,648.66309 703.40141,648.41576 700.50879,645.58029 C 698.44838,643.56059 697.97274,643.40831 696.67907,644.35424 C 696.01432,644.84036 695.88762,645.34404 696.118,646.58479 C 696.99806,651.32424 696.99359,651.43911 695.864,653.103 C 694.64543,654.89799 692.51509,655.76669 690.54456,655.27211 C 689.8615,655.10067 688.48208,654.12327 687.47918,653.10008 C 686.47628,652.07694 685.34547,651.23981 684.96628,651.23981 C 683.72229,651.23981 682.6961,652.69868 683.01481,654.01404 C 683.17705,654.68354 683.43058,656.20486 683.57827,657.3948 C 683.81856,659.331 683.69726,659.72564 682.42322,661.1515 C 681.20882,662.51067 680.69279,662.74472 678.91052,662.74472 C 677.10532,662.74472 676.52698,662.47339 674.65619,660.74897 C 673.46537,659.65131 672.275,658.75322 672.01095,658.75322 C 671.06253,658.75322 669.57286,660.68694 669.90293,661.48965 C 670.5696,663.11095 670.69207,666.2994 670.13899,667.63463 C 669.56201,669.02762 667.22609,670.49447 665.59009,670.49114 C 665.11257,670.4902 664.05815,670.08471 663.24694,669.59005 z M 558.02829,665.14516 C 555.03828,664.16766 552.47395,661.87471 550.98903,658.85084 C 549.82759,656.48567 549.67281,655.64591 549.67281,651.7094 C 549.67281,647.7689 549.82698,646.93435 550.994,644.55776 C 553.81979,638.80329 559.68264,636.386 566.14056,638.31267 C 571.11665,639.79722 574.18183,644.14739 574.65438,650.39568 C 575.3095,659.05803 570.63053,665.14605 562.96019,665.61155 C 561.22533,665.71683 559.18746,665.52412 558.02829,665.14516 z M 567.15773,660.80673 C 569.42918,658.99609 570.59761,656.60762 570.91289,653.1307 C 571.39624,647.80008 569.41232,643.49612 565.69333,641.80725 C 560.83868,639.60267 555.40691,642.08266 553.88807,647.19718 C 551.38616,655.62196 555.57107,662.83858 562.69665,662.38694 C 564.82947,662.25174 565.75733,661.92308 567.15773,660.80673 z M 378.03841,651.7094 L 378.03841,638.09135 L 380.03416,638.10327 L 382.02991,638.11525 L 388.95502,648.55161 L 395.88017,658.98801 L 395.88144,648.53968 L 395.88275,638.09135 L 397.76111,638.09135 L 399.63946,638.09135 L 399.63946,651.7094 L 399.63946,665.32745 L 397.64371,665.31548 L 395.64796,665.30355 L 388.7228,654.86714 L 381.79765,644.43078 L 381.79638,654.87912 L 381.79512,665.32745 L 379.91677,665.32745 L 378.03841,665.32745 L 378.03841,651.7094 z M 440.02403,651.7094 L 440.02403,638.09135 L 441.90238,638.09135 L 443.78073,638.09135 L 443.78073,643.7264 L 443.78073,649.36146 L 450.82455,649.36146 L 457.86837,649.36146 L 457.86837,643.7264 L 457.86837,638.09135 L 459.74672,638.09135 L 461.62507,638.09135 L 461.62507,651.7094 L 461.62507,665.32745 L 459.74672,665.32745 L 457.86837,665.32745 L 457.86837,658.98801 L 457.86837,652.64858 L 450.82455,652.64858 L 443.78073,652.64858 L 443.78073,658.98801 L 443.78073,665.32745 L 441.90238,665.32745 L 440.02403,665.32745 L 440.02403,651.7094 z M 489.80035,650.77022 L 489.80035,649.36146 L 493.08746,649.36146 L 496.37458,649.36146 L 496.37458,650.77022 L 496.37458,652.17899 L 493.08746,652.17899 L 489.80035,652.17899 L 489.80035,650.77022 z M 502.00963,650.77022 L 502.00963,649.36146 L 505.29675,649.36146 L 508.58387,649.36146 L 508.58387,650.77022 L 508.58387,652.17899 L 505.29675,652.17899 L 502.00963,652.17899 L 502.00963,650.77022 z M 514.21893,650.77022 L 514.21893,649.36146 L 517.50604,649.36146 L 520.79315,649.36146 L 520.79315,650.77022 L 520.79315,652.17899 L 517.50604,652.17899 L 514.21893,652.17899 L 514.21893,650.77022 z M 526.8978,650.77022 L 526.8978,649.36146 L 530.18492,649.36146 L 533.47203,649.36146 L 533.47203,650.77022 L 533.47203,652.17899 L 530.18492,652.17899 L 526.8978,652.17899 L 526.8978,650.77022 z M 539.10709,650.77022 L 539.10709,649.36146 L 542.3942,649.36146 L 545.68132,649.36146 L 545.68132,650.77022 L 545.68132,652.17899 L 542.3942,652.17899 L 539.10709,652.17899 L 539.10709,650.77022 z M 402.92657,650.53543 L 402.92657,649.36146 L 419.83174,649.36146 L 436.7369,649.36146 L 436.7369,650.53543 L 436.7369,651.7094 L 419.83174,651.7094 L 402.92657,651.7094 L 402.92657,650.53543 z M 464.91219,650.53543 C 464.91219,649.39499 465.0061,649.36146 468.1993,649.36146 C 471.3925,649.36146 471.48642,649.39499 471.48642,650.53543 C 471.48642,651.67583 471.3925,651.7094 468.1993,651.7094 C 465.0061,651.7094 464.91219,651.67583 464.91219,650.53543 z M 477.12147,650.53543 C 477.12147,649.38752 477.19971,649.36146 480.64338,649.36146 C 484.08701,649.36146 484.16529,649.38752 484.16529,650.53543 C 484.16529,651.68329 484.08701,651.7094 480.64338,651.7094 C 477.19971,651.7094 477.12147,651.68329 477.12147,650.53543 z M 674.11363,631.77403 C 669.46471,623.66913 665.66105,616.88757 665.66105,616.70391 C 665.66105,616.52031 666.10119,616.07781 666.63915,615.7206 C 667.58138,615.09502 667.93052,615.61443 676.1483,629.86586 C 680.84039,638.00297 684.67935,644.79692 684.67935,644.96349 C 684.67935,645.2883 683.19109,646.51534 682.801,646.51214 C 682.67187,646.51111 678.76255,639.87893 674.11363,631.77403 z M 574.22597,638.91313 C 573.56527,638.3955 574.82935,635.99473 584.91999,618.60345 C 591.21384,607.75596 596.3709,598.72227 596.3801,598.52856 C 596.38931,598.33486 595.57231,598.17637 594.56458,598.17637 C 593.03307,598.17637 592.58339,597.9411 591.82486,596.74309 C 591.11837,595.62726 590.81013,595.44529 590.433,595.92132 C 590.16661,596.25764 584.93676,605.24283 578.81108,615.88843 L 567.67353,635.24409 L 566.54281,634.50318 C 565.92089,634.09572 565.49211,633.62693 565.58988,633.46149 C 566.85476,631.32181 588.39969,593.93031 588.76221,593.24569 C 589.18461,592.44787 587.97077,590.08034 580.69661,577.5145 C 572.45633,563.27974 572.17064,562.70098 573.11258,562.15212 C 573.65092,561.83844 574.20179,561.57429 574.3367,561.56513 C 574.47161,561.55598 579.01488,569.25459 584.43285,578.67316 L 594.28367,595.79782 L 617.64568,595.81312 L 641.00768,595.82843 L 641.00768,597.0024 L 641.00768,598.17637 L 620.39666,598.17637 L 599.78569,598.17637 L 587.8777,618.83176 C 581.32831,630.19222 575.74598,639.49006 575.4725,639.49363 C 575.19901,639.4972 574.63808,639.23597 574.22597,638.91313 z M 377.21898,633.00379 C 376.76569,632.25502 372.06291,624.11678 366.76828,614.91878 L 357.14173,598.1952 L 333.54493,598.18576 L 309.94813,598.17637 L 309.94813,596.7676 L 309.94813,595.35884 L 333.54493,595.35537 L 357.14173,595.35194 L 365.59431,580.71479 C 370.24325,572.66432 374.68166,564.96561 375.45751,563.60647 C 376.85561,561.15734 376.87769,561.14255 377.94079,561.94447 L 379.01346,562.75356 L 369.52934,579.1736 C 364.31309,588.20462 359.95002,595.95733 359.83363,596.40184 C 359.70896,596.878 363.7907,604.44335 369.76939,614.81721 C 375.35045,624.50114 379.91677,632.63544 379.91677,632.89339 C 379.91677,633.15138 379.49517,633.58805 378.97994,633.86379 C 378.1861,634.28862 377.91735,634.15738 377.21898,633.00379 z M 644.76438,598.17637 L 644.76438,584.55832 L 646.76013,584.57025 L 648.75588,584.58222 L 655.68103,595.01858 L 662.60614,605.45499 L 662.60745,595.00665 L 662.60872,584.55832 L 664.48708,584.55832 L 666.36543,584.55832 L 666.36543,598.17637 L 666.36543,611.79443 L 664.36968,611.78245 L 662.37393,611.77052 L 655.44877,601.33412 L 648.52366,590.89776 L 648.52235,601.34609 L 648.52109,611.79443 L 646.64273,611.79443 L 644.76438,611.79443 L 644.76438,598.17637 z M 284.59039,597.70678 L 284.59039,584.08873 L 286.58614,584.10066 L 288.58188,584.11263 L 295.50702,594.54899 L 302.43216,604.98539 L 302.43344,594.53706 L 302.43473,584.08873 L 304.31308,584.08873 L 306.19144,584.08873 L 306.19144,597.70678 L 306.19144,611.32483 L 304.19568,611.31286 L 302.19993,611.30093 L 295.2748,600.86453 L 288.34966,590.42817 L 288.34838,600.8765 L 288.34709,611.32483 L 286.46874,611.32483 L 284.59039,611.32483 L 284.59039,597.70678 z M 172.87369,595.39298 C 172.13798,594.83802 171.94209,594.44245 172.29498,594.22437 C 172.99698,593.79047 172.97844,591.93996 172.26495,591.22647 C 171.43761,590.39915 169.62734,590.53918 168.20506,591.54053 C 166.32509,592.86411 164.9978,593.13399 163.23299,592.55155 C 160.11665,591.52306 159.05443,587.6151 161.02472,584.42711 C 162.15188,582.60333 162.2994,581.26092 161.46442,580.42594 C 160.60246,579.56397 159.42269,579.74669 157.52217,581.03641 C 152.21889,584.63528 146.88441,579.0083 150.56479,573.6975 C 151.38281,572.5171 151.67964,571.62535 151.47216,570.97163 C 150.89422,569.15072 149.76407,569.03957 146.76757,570.50895 C 143.99111,571.87043 143.20658,571.91119 140.97381,570.80995 C 139.70566,570.18451 138.54745,568.18153 138.55093,566.61987 C 138.55225,566.02594 139.07395,564.69475 139.71024,563.66165 C 140.34655,562.62856 140.87374,561.3501 140.88181,560.82065 C 140.91447,558.67529 138.58735,558.0613 136.5368,559.67429 C 134.04625,561.63331 130.48578,561.28653 128.94487,558.93479 C 128.08793,557.62693 127.99857,555.02955 128.75352,553.37265 C 129.24876,552.2857 129.36461,552.24907 130.27968,552.89015 C 131.01374,553.40444 131.26991,554.08314 131.26991,555.5136 C 131.26991,558.39382 132.30872,558.83889 135.2164,557.2044 C 138.68399,555.25519 141.67752,555.68542 143.04483,558.32948 C 144.03178,560.23803 143.86792,561.84064 142.42303,564.41102 C 141.40113,566.22894 141.23972,566.87955 141.64861,567.53257 C 142.39415,568.72325 144.43727,568.80998 145.97331,567.71627 C 149.22355,565.40185 153.48447,566.84993 154.29597,570.54468 C 154.52502,571.5875 154.28619,572.5765 153.38659,574.31045 C 152.03968,576.90657 151.88335,577.98258 152.73009,578.82935 C 153.55771,579.65695 154.89768,579.51833 156.39826,578.44983 C 161.88579,574.54234 167.1332,579.78294 163.66273,585.70487 C 162.40009,587.85938 162.48823,588.96484 163.98658,589.76675 C 164.69831,590.14764 165.3414,589.99197 166.94989,589.04932 C 171.65618,586.29124 176.35671,588.84035 175.45248,593.66025 C 175.03061,595.90906 174.25172,596.43241 172.87369,595.39298 z M 309.94813,587.37585 L 309.94813,585.96708 L 331.0796,585.96708 L 352.21105,585.96708 L 352.21105,587.37585 L 352.21105,588.78461 L 331.0796,588.78461 L 309.94813,588.78461 L 309.94813,587.37585 z M 665.20315,580.07066 C 664.47872,579.52302 664.38466,579.19224 664.77348,578.55943 C 665.04724,578.11384 669.7497,569.98677 675.2234,560.49926 L 685.17557,543.24927 L 670.01807,516.95531 L 654.86053,490.66134 L 624.5721,490.66805 L 594.28367,490.67477 L 583.95274,508.72301 C 578.27072,518.64958 573.41049,526.77082 573.15222,526.77021 C 572.89394,526.76961 572.33095,526.50165 571.90113,526.17478 C 571.20004,525.6416 572.19365,523.72245 581.557,507.52358 L 591.99433,489.46675 L 586.84136,480.54458 C 584.00721,475.63739 579.53241,467.89233 576.89732,463.33339 L 572.10635,455.04441 L 573.23834,454.52863 C 573.86096,454.24495 574.42634,454.01285 574.49481,454.01285 C 574.56328,454.01285 579.04376,461.71566 584.45144,471.13019 L 594.28367,488.24747 L 625.46432,488.38755 L 656.64496,488.52758 L 672.12868,515.29409 C 680.6447,530.01567 687.71162,542.41106 687.83297,542.83942 C 688.03273,543.54469 666.94574,580.81753 666.36543,580.78494 C 666.23629,580.77767 665.71326,580.45623 665.20315,580.07066 z M 283.77014,578.78455 C 283.26798,577.93347 278.67115,569.95634 273.55497,561.0576 C 268.43879,552.15891 264.11099,544.71415 263.93762,544.51374 C 263.6912,544.22893 220.38463,534.79341 219.28159,534.78425 C 219.13262,534.78298 219.1047,534.14171 219.21956,533.35915 C 219.37314,532.31271 219.63114,531.99597 220.1948,532.16184 C 222.37827,532.80433 263.96648,541.46973 264.09762,541.3095 C 264.31376,541.04545 293.71575,490.06839 293.88901,489.65731 C 293.96692,489.47244 288.09721,482.73606 280.84521,474.68751 L 267.65977,460.05383 L 268.69384,459.21651 C 269.72617,458.38059 269.75009,458.40392 282.9116,473.07907 L 296.09529,487.77896 L 323.97132,487.68368 L 351.84734,487.5884 L 362.73353,468.70543 C 368.72094,458.31977 373.75271,449.68941 373.91529,449.52683 C 374.34257,449.09958 376.16006,449.75987 376.16006,450.34233 C 376.16006,450.6132 371.40548,459.05492 365.59431,469.10166 C 359.78316,479.14845 355.02858,487.47082 355.02858,487.59587 C 355.02858,487.72088 355.83231,487.8232 356.81463,487.8232 C 358.37198,487.8232 358.72391,488.03878 359.56294,489.5069 L 360.52519,491.19066 L 369.81006,475.06708 C 383.41177,451.44722 382.11744,453.42514 383.41552,454.27569 L 384.50835,454.99173 L 373.27064,474.43806 L 362.03287,493.88441 L 370.97482,509.34127 C 375.89287,517.84255 379.91677,525.01438 379.91677,525.27871 C 379.91677,525.73102 378.86611,526.32941 378.07198,526.32941 C 377.87438,526.32941 373.0843,518.30199 367.42722,508.4907 L 357.14173,490.652 L 326.78422,490.64636 L 296.4267,490.64073 L 281.73238,516.11587 C 273.6505,530.1272 266.84867,541.90827 266.61719,542.29606 C 266.30962,542.81134 268.99135,547.85161 276.57911,561.01919 C 286.17645,577.67421 286.89884,579.08513 286.12834,579.66973 C 284.94292,580.56913 284.78894,580.51131 283.77014,578.78455 z M 158.59137,570.56497 C 157.86945,569.76728 158.62746,569.00082 172.17542,556.82952 C 180.06717,549.73974 186.74771,543.93896 187.02109,543.93896 C 187.29445,543.93896 187.74993,544.30646 188.03328,544.75567 C 188.44706,545.41164 188.3185,545.79744 187.38008,546.7162 C 184.5136,549.52246 159.95358,571.40986 159.67113,571.40986 C 159.49778,571.40986 159.01189,571.02968 158.59137,570.56497 z M 378.03841,544.17375 L 378.03841,530.5557 L 380.03416,530.56763 L 382.02991,530.5796 L 388.95502,541.01596 L 395.88017,551.45237 L 395.88144,541.00403 L 395.88275,530.5557 L 397.76111,530.5557 L 399.63946,530.5557 L 399.63946,544.17375 L 399.63946,557.79181 L 397.64371,557.77983 L 395.64796,557.7679 L 388.7228,547.3315 L 381.79765,536.89514 L 381.79638,547.34347 L 381.79512,557.79181 L 379.91677,557.79181 L 378.03841,557.79181 L 378.03841,544.17375 z M 440.02403,544.17375 L 440.02403,530.5557 L 441.90238,530.5557 L 443.78073,530.5557 L 443.78073,536.19076 L 443.78073,541.82582 L 450.82455,541.82582 L 457.86837,541.82582 L 457.86837,536.19076 L 457.86837,530.5557 L 459.74672,530.5557 L 461.62507,530.5557 L 461.62507,544.17375 L 461.62507,557.79181 L 459.74672,557.79181 L 457.86837,557.79181 L 457.86837,551.45237 L 457.86837,545.11293 L 450.82455,545.11293 L 443.78073,545.11293 L 443.78073,551.45237 L 443.78073,557.79181 L 441.90238,557.79181 L 440.02403,557.79181 L 440.02403,544.17375 z M 551.31637,544.17375 L 551.31637,530.5557 L 553.31213,530.56763 L 555.30787,530.5796 L 562.23298,541.01596 L 569.15814,551.45237 L 569.1594,541.00403 L 569.16071,530.5557 L 571.03907,530.5557 L 572.91742,530.5557 L 572.91742,544.17375 L 572.91742,557.79181 L 570.92167,557.77983 L 568.92593,557.7679 L 562.00077,547.3315 L 555.07562,536.89514 L 555.07435,547.34347 L 555.07308,557.79181 L 553.19472,557.79181 L 551.31637,557.79181 L 551.31637,544.17375 z M 193.02073,531.02529 L 193.02073,517.40724 L 195.01648,517.41917 L 197.01223,517.43114 L 203.93737,527.8675 L 210.8625,538.30391 L 210.86379,527.85557 L 210.86507,517.40724 L 212.74343,517.40724 L 214.62178,517.40724 L 214.62178,531.02529 L 214.62178,544.64335 L 212.62603,544.63137 L 210.63028,544.61944 L 203.70514,534.18304 L 196.78001,523.74668 L 196.77872,534.19501 L 196.77744,544.64335 L 194.89908,544.64335 L 193.02073,544.64335 L 193.02073,531.02529 z M 490.26994,543.23458 L 490.26994,541.82582 L 493.55705,541.82582 L 496.84417,541.82582 L 496.84417,543.23458 L 496.84417,544.64335 L 493.55705,544.64335 L 490.26994,544.64335 L 490.26994,543.23458 z M 502.94881,543.23458 L 502.94881,541.82582 L 506.23593,541.82582 L 509.52304,541.82582 L 509.52304,543.23458 L 509.52304,544.64335 L 506.23593,544.64335 L 502.94881,544.64335 L 502.94881,543.23458 z M 515.62769,543.23458 L 515.62769,541.82582 L 518.9148,541.82582 L 522.20192,541.82582 L 522.20192,543.23458 L 522.20192,544.64335 L 518.9148,544.64335 L 515.62769,544.64335 L 515.62769,543.23458 z M 528.30656,543.23458 L 528.30656,541.82582 L 531.59368,541.82582 L 534.8808,541.82582 L 534.8808,543.23458 L 534.8808,544.64335 L 531.59368,544.64335 L 528.30656,544.64335 L 528.30656,543.23458 z M 540.98544,543.23458 L 540.98544,541.82582 L 544.27255,541.82582 L 547.55967,541.82582 L 547.55967,543.23458 L 547.55967,544.64335 L 544.27255,544.64335 L 540.98544,544.64335 L 540.98544,543.23458 z M 403.39616,542.99978 L 403.39616,541.82582 L 420.06654,541.82582 L 436.7369,541.82582 L 436.7369,542.99978 L 436.7369,544.17375 L 420.06654,544.17375 L 403.39616,544.17375 L 403.39616,542.99978 z M 464.91219,542.99978 C 464.91219,541.85934 465.0061,541.82582 468.1993,541.82582 C 471.3925,541.82582 471.48642,541.85934 471.48642,542.99978 C 471.48642,544.14018 471.3925,544.17375 468.1993,544.17375 C 465.0061,544.17375 464.91219,544.14018 464.91219,542.99978 z M 477.59107,542.99978 C 477.59107,541.85934 477.68498,541.82582 480.87818,541.82582 C 484.07138,541.82582 484.16529,541.85934 484.16529,542.99978 C 484.16529,544.14018 484.07138,544.17375 480.87818,544.17375 C 477.68498,544.17375 477.59107,544.14018 477.59107,542.99978 z M 275.31329,542.90112 C 274.34191,542.06361 274.38357,541.98261 286.98144,520.22477 C 293.93509,508.21506 299.90638,498.32703 300.25099,498.25139 C 300.59559,498.17573 301.13775,498.42738 301.45579,498.81057 C 301.93454,499.38746 299.87798,503.24911 289.50354,521.25354 C 282.61177,533.21399 276.81895,543.16667 276.6306,543.37071 C 276.44225,543.57475 275.84947,543.36339 275.31329,542.90112 z M 662.13913,522.07504 C 655.29489,510.19418 649.6295,500.17721 649.54934,499.81507 C 649.38879,499.0897 651.43774,497.76536 651.67841,498.43898 C 651.76081,498.66969 657.50482,508.67919 664.44284,520.68224 C 675.65359,540.0773 676.97201,542.571 676.28994,543.09013 C 675.86778,543.41143 675.31108,543.67482 675.0528,543.67543 C 674.79453,543.67604 668.98338,533.9559 662.13913,522.07504 z M 580.13147,530.89122 C 579.15858,530.33843 579.40389,529.84456 588.11446,514.82112 C 593.05716,506.29627 597.27251,499.05818 597.4819,498.73647 C 597.91485,498.0713 599.68393,498.77075 599.68393,499.60714 C 599.68393,500.19529 581.69942,531.48718 581.37001,531.47224 C 581.24087,531.46637 580.68351,531.20495 580.13147,530.89122 z M 202.40372,514.00272 C 202.39889,513.67988 200.94436,503.16698 199.17142,490.64073 C 197.39848,478.11447 196.08171,467.71864 196.24527,467.53892 C 196.58961,467.16053 236.6393,449.31697 237.14427,449.31697 C 237.32938,449.31697 237.70379,449.8063 237.97629,450.40436 C 238.46199,451.47038 238.08161,451.66522 218.62147,460.3183 C 203.00207,467.26361 198.80752,469.3088 198.94149,469.91405 C 199.03514,470.3371 200.38864,479.87542 201.94929,491.11031 C 203.50994,502.34521 204.91006,512.22416 205.06068,513.06355 C 205.3215,514.51702 205.26497,514.58971 203.87351,514.58971 C 203.02244,514.58971 202.40883,514.34463 202.40372,514.00272 z M 207.32816,474.15785 C 207.15596,473.6153 207.19455,472.99685 207.41391,472.78351 C 207.84244,472.36676 240.43465,457.76956 240.93668,457.76956 C 241.10216,457.76956 241.46517,458.26916 241.74339,458.87977 C 242.24227,459.97471 242.01461,460.09445 225.23003,467.56714 C 215.86948,471.7346 208.08268,475.14432 207.92604,475.14432 C 207.76941,475.14432 207.50036,474.70042 207.32816,474.15785 z M 243.26665,444.1515 L 243.26665,430.53345 L 245.26239,430.54541 L 247.25814,430.55735 L 254.18328,440.99374 L 261.10841,451.43012 L 261.1097,440.98179 L 261.11099,430.53345 L 262.98934,430.53345 L 264.86769,430.53345 L 264.86769,444.1515 L 264.86769,457.76956 L 262.87194,457.75761 L 260.87619,457.74566 L 253.95106,447.30928 L 247.02592,436.87289 L 247.02463,447.32122 L 247.02335,457.76956 L 245.145,457.76956 L 243.26665,457.76956 L 243.26665,444.1515 z M 384.28073,449.60428 C 381.29073,448.62677 378.7264,446.33382 377.24148,443.30996 C 376.08004,440.94478 375.92526,440.10501 375.92526,436.16851 C 375.92526,432.22802 376.07943,431.39345 377.24645,429.01688 C 380.07224,423.26243 385.93509,420.8451 392.39301,422.77177 C 397.36909,424.25635 400.43428,428.60653 400.90683,434.8548 C 401.56195,443.51713 396.88297,449.60517 389.21264,450.07067 C 387.47779,450.17596 385.43991,449.98324 384.28073,449.60428 z M 393.41018,445.26586 C 395.68163,443.45521 396.85006,441.06676 397.16534,437.58981 C 397.64869,432.25921 395.66477,427.95523 391.94577,426.26637 C 387.09113,424.0618 381.65936,426.5418 380.14052,431.6563 C 377.63861,440.0811 381.82352,447.29771 388.9491,446.84605 C 391.08192,446.71085 392.00978,446.3822 393.41018,445.26586 z M 489.33076,436.6381 L 489.33076,423.02005 L 491.20911,423.02005 L 493.08746,423.02005 L 493.08746,428.6551 L 493.08746,434.29016 L 500.13128,434.29016 L 507.17511,434.29016 L 507.17511,428.6551 L 507.17511,423.02005 L 509.05346,423.02005 L 510.9318,423.02005 L 510.9318,436.6381 L 510.9318,450.25615 L 509.05346,450.25615 L 507.17511,450.25615 L 507.17511,443.91671 L 507.17511,437.57727 L 500.13128,437.57727 L 493.08746,437.57727 L 493.08746,443.91671 L 493.08746,450.25615 L 491.20911,450.25615 L 489.33076,450.25615 L 489.33076,436.6381 z M 551.78596,436.6381 L 551.78596,423.02005 L 553.78171,423.03199 L 555.77746,423.04395 L 562.70256,433.48033 L 569.62772,443.91671 L 569.62899,433.46838 L 569.63031,423.02005 L 571.50866,423.02005 L 573.38701,423.02005 L 573.38701,436.6381 L 573.38701,450.25615 L 571.39126,450.24421 L 569.39551,450.23225 L 562.47035,439.79587 L 555.5452,429.35949 L 555.54393,439.80782 L 555.54267,450.25615 L 553.66432,450.25615 L 551.78596,450.25615 L 551.78596,436.6381 z M 429.69309,435.69893 L 429.69309,434.29016 L 432.9802,434.29016 L 436.26732,434.29016 L 436.26732,435.69893 L 436.26732,437.10769 L 432.9802,437.10769 L 429.69309,437.10769 L 429.69309,435.69893 z M 442.37196,435.69893 L 442.37196,434.29016 L 445.65908,434.29016 L 448.9462,434.29016 L 448.9462,435.69893 L 448.9462,437.10769 L 445.65908,437.10769 L 442.37196,437.10769 L 442.37196,435.69893 z M 454.58125,435.69893 L 454.58125,434.29016 L 457.86837,434.29016 L 461.15548,434.29016 L 461.15548,435.69893 L 461.15548,437.10769 L 457.86837,437.10769 L 454.58125,437.10769 L 454.58125,435.69893 z M 467.26012,435.69893 L 467.26012,434.29016 L 470.54724,434.29016 L 473.83436,434.29016 L 473.83436,435.69893 L 473.83436,437.10769 L 470.54724,437.10769 L 467.26012,437.10769 L 467.26012,435.69893 z M 479.46942,435.69893 L 479.46942,434.29016 L 482.75653,434.29016 L 486.04364,434.29016 L 486.04364,435.69893 L 486.04364,437.10769 L 482.75653,437.10769 L 479.46942,437.10769 L 479.46942,435.69893 z M 514.21893,435.69893 L 514.21893,434.29016 L 530.8893,434.29016 L 547.55967,434.29016 L 547.55967,435.69893 L 547.55967,437.10769 L 530.8893,437.10769 L 514.21893,437.10769 L 514.21893,435.69893 z M 404.80493,435.46413 C 404.80493,434.3237 404.89884,434.29016 408.09204,434.29016 C 411.28524,434.29016 411.37916,434.3237 411.37916,435.46413 C 411.37916,436.60455 411.28524,436.6381 408.09204,436.6381 C 404.89884,436.6381 404.80493,436.60455 404.80493,435.46413 z M 417.4838,435.46413 C 417.4838,434.3237 417.57772,434.29016 420.77092,434.29016 C 423.96412,434.29016 424.05803,434.3237 424.05803,435.46413 C 424.05803,436.60455 423.96412,436.6381 420.77092,436.6381 C 417.57772,436.6381 417.4838,436.60455 417.4838,435.46413 z M 711.43151,426.08358 C 706.4604,424.48552 703.13027,419.6843 702.65753,413.43364 C 701.94653,404.03258 706.94403,397.42301 715.21042,396.83156 C 720.81279,396.43071 725.34182,398.76364 727.38035,403.10038 C 727.94353,404.29858 728.32343,405.35985 728.22448,405.45879 C 728.12554,405.55772 726.89992,405.85575 725.50088,406.12107 C 723.72438,406.45797 722.9072,406.45374 722.79163,406.10704 C 722.70063,405.83399 722.11116,404.99856 721.48172,404.25052 C 718.38404,400.56912 711.60149,401.42523 709.20824,405.79972 C 708.59669,406.9175 708.39355,408.40135 708.39355,411.74994 C 708.39355,416.64486 709.07323,418.50653 711.52829,420.3364 C 713.29661,421.65442 716.88577,421.88604 718.95219,420.81551 C 720.28901,420.12297 722.16098,417.72438 722.82864,415.84851 C 722.95885,415.48267 727.33659,416.76343 728.0096,417.36427 C 728.55827,417.85407 727.13326,420.89148 725.46157,422.79544 C 724.64608,423.72423 723.11363,424.92773 722.05608,425.46989 C 719.59031,426.73398 714.3892,427.0344 711.43151,426.08358 z M 571.91814,418.65157 C 571.23752,418.13346 571.7227,417.083 576.3449,409.06788 C 581.17395,400.69399 581.60396,400.10132 582.5096,400.57135 C 583.04503,400.84926 583.56016,401.14263 583.65427,401.22331 C 583.9718,401.49541 573.62631,419.24044 573.15222,419.23694 C 572.89394,419.23503 572.33861,418.97163 571.91814,418.65157 z M 582.77877,383.10507 L 582.77877,369.48702 L 584.65712,369.48702 L 586.53547,369.48702 L 586.53547,375.12207 L 586.53547,380.75713 L 593.57929,380.75713 L 600.62311,380.75713 L 600.62311,375.12207 L 600.62311,369.48702 L 602.50146,369.48702 L 604.37981,369.48702 L 604.37981,383.10507 L 604.37981,396.72312 L 602.50146,396.72312 L 600.62311,396.72312 L 600.62311,390.38368 L 600.62311,384.04425 L 593.57929,384.04425 L 586.53547,384.04425 L 586.53547,390.38368 L 586.53547,396.72312 L 584.65712,396.72312 L 582.77877,396.72312 L 582.77877,383.10507 z"
       id="path2453"
       style="fill:#000000" />
  </g>
</svg>
