<svg id="svg2" xmlns="http://www.w3.org/2000/svg" viewBox="0 0 43.68 43.4"><defs><style>.cls-1{fill:#fff;}</style></defs><title>cc2_pure_white</title><g id="g3823"><path id="path3825" class="cls-1" d="M56,14.3c-1-.08-3,1-4.71,2.7-5,4.82-13.14,4.86-17.28.09-1.62-1.86-3.53-3-4.24-2.59s-1.29,8.06-1.29,17.28c0,20.68-.92,23.59-5.9,18.6-1.62-1.62-1.91-3.7-1.27-9.12,1-8.11-.88-12.78-5-12.78-2.66,0-2.68.14-.56,3.38,1.72,2.63,2,5.07,1.35,11-1,8.5.77,11.33,8.27,13.58,6,1.8,29,1.63,30.88-.23,2.11-2.11,2.26-40.5.16-41.8A.81.81,0,0,0,56,14.3Zm-21.35,15A2.75,2.75,0,1,1,31.88,32,2.75,2.75,0,0,1,34.63,29.27Zm17.26,0A2.75,2.75,0,1,1,49.14,32,2.75,2.75,0,0,1,51.89,29.27Z" transform="translate(-14.16 -14.3)"/></g></svg>