<?xml version="1.0" encoding="UTF-8" standalone="no"?>
<!-- Generator: Adobe Illustrator 16.0.0, SVG Export Plug-In . SVG Version: 6.00 Build 0)  -->

<svg
   xmlns:dc="http://purl.org/dc/elements/1.1/"
   xmlns:cc="http://creativecommons.org/ns#"
   xmlns:rdf="http://www.w3.org/1999/02/22-rdf-syntax-ns#"
   xmlns:svg="http://www.w3.org/2000/svg"
   xmlns="http://www.w3.org/2000/svg"
   xmlns:sodipodi="http://sodipodi.sourceforge.net/DTD/sodipodi-0.dtd"
   xmlns:inkscape="http://www.inkscape.org/namespaces/inkscape"
   version="1.1"
   id="Layer_1"
   x="0px"
   y="0px"
   width="126px"
   height="126px"
   viewBox="0 0 126 126"
   enable-background="new 0 0 126 126"
   xml:space="preserve"
   sodipodi:docname="house_1162614_easyicon.net.svg"
   inkscape:version="0.92.0 r"><metadata
     id="metadata9"><rdf:RDF><cc:Work
         rdf:about=""><dc:format>image/svg+xml</dc:format><dc:type
           rdf:resource="http://purl.org/dc/dcmitype/StillImage" /></cc:Work></rdf:RDF></metadata><defs
     id="defs7" /><sodipodi:namedview
     pagecolor="#ffffff"
     bordercolor="#666666"
     borderopacity="1"
     objecttolerance="10"
     gridtolerance="10"
     guidetolerance="10"
     inkscape:pageopacity="0"
     inkscape:pageshadow="2"
     inkscape:window-width="2160"
     inkscape:window-height="1390"
     id="namedview5"
     showgrid="false"
     inkscape:zoom="5.7012238"
     inkscape:cx="70.62121"
     inkscape:cy="32.229837"
     inkscape:window-x="0"
     inkscape:window-y="50"
     inkscape:window-maximized="1"
     inkscape:current-layer="g4487" /><g
     id="g4487"><path
       fill="#231F20"
       id="path2"
       d="M67.682,58.705l-0.15-0.779c-0.003-0.009-0.004-0.016-0.009-0.024c-0.002-0.01-0.003-0.019-0.008-0.029  c-0.009-0.018-0.017-0.033-0.024-0.048c-0.005-0.005-0.007-0.011-0.01-0.017c-0.017-0.018-0.032-0.032-0.051-0.044  c-0.002,0-0.004,0-0.006-0.001l-13.139-4.341c-0.103-0.057-0.254-0.004-0.382,0.135L43.062,65.331  c-0.063,0.055-0.121,0.127-0.168,0.214c-0.131,0.242-0.123,0.501,0.019,0.58c0.004,0.001,0.006,0.001,0.006,0.002l4.478,2.455  l0.344,0.189l1.691,0.925l0.359,0.196l4.377,2.4l0.105,0.058l0.699,0.383c0.102,0.056,0.246,0.005,0.376-0.131l12.131-13.312  C67.63,59.125,67.716,58.881,67.682,58.705z M63.454,57.551l-1.643,1.794l-0.637,0.245l-2.534-0.981l-0.002-0.52l1.503-1.643  L63.454,57.551z M55.179,61.041L55.143,61.6l-1.358,1.489l-0.693,0.268l-2.213-0.978l-0.002-0.495l1.425-1.557l0.623-0.218  L55.179,61.041z M53.2,59.344l1.385-1.514l0.592-0.206l2.363,0.914l-0.031,0.48l-1.41,1.538l-0.631,0.245l-2.262-0.937L53.2,59.344z   M52.84,63.609l-0.035,0.548l-1.293,1.413l-0.591,0.228l-2.202-1.037l-0.003-0.515l1.253-1.369l0.678-0.238L52.84,63.609z   M53.069,64.173l0.586-0.205l2.451,1.085l-0.034,0.557l-1.334,1.457l-0.614,0.236l-2.465-1.159l-0.003-0.428L53.069,64.173z   M53.938,63.73l-0.004-0.501l1.453-1.588l0.675-0.236l2.466,1.019l-0.034,0.545l-1.515,1.654l-0.548,0.21L53.938,63.73z   M56.274,61.135l-0.002-0.46l1.524-1.663l0.503-0.178l2.632,1.019l-0.026,0.483l-1.45,1.582l-0.667,0.258L56.274,61.135z   M59.926,56.375l-1.414,1.548l-0.823,0.318l-2.227-0.862l-0.004-0.502l1.396-1.526L59.926,56.375z M53.979,54.392l2.661,0.887  l-1.344,1.468L54.56,57.03l-2.218-0.858L53.979,54.392z M52.1,56.433l2.261,0.875l-0.031,0.496l-1.317,1.44l-0.679,0.262  l-2.218-0.918L52.1,56.433z M49.876,58.849l2.228,0.921l-0.028,0.499l-1.398,1.524l-0.597,0.231l-2.224-0.982L49.876,58.849z   M47.618,61.301l2.167,0.957l-0.035,0.553l-1.214,1.325l-0.63,0.245l-2.179-1.025L47.618,61.301z M43.786,65.463l1.705-1.853  l2.132,1.003l-0.035,0.557l-1.448,1.583L43.786,65.463z M46.327,66.856l1.497-1.636l0.624-0.218L50.566,66l-0.039,0.646  l-1.531,1.672L46.327,66.856z M49.183,68.421l1.617-1.766l0.667-0.234l2.337,1.101l-0.037,0.608l-1.712,1.866L49.183,68.421z   M54.654,71.421l-2.411-1.322l1.782-1.946l0.642-0.226l2.223,1.046L54.654,71.421z M57.122,68.717l-2.226-1.049l-0.002-0.465  l1.372-1.497l0.734-0.259l2.216,0.979L57.122,68.717z M59.454,66.169L57.2,65.173l-0.003-0.485l1.544-1.686l0.639-0.224l2.301,0.953  L59.454,66.169z M61.921,63.47l-2.299-0.951v-0.476l1.479-1.616l0.691-0.243l2.313,0.896L61.921,63.47z M64.344,60.817l-2.311-0.894  l-0.005-0.51l1.641-1.789l2.756,0.917L64.344,60.817z M85.327,65.081l-0.176-0.91c-0.004-0.011-0.006-0.019-0.011-0.029  c-0.002-0.012-0.005-0.023-0.011-0.034c-0.008-0.021-0.018-0.038-0.027-0.058c-0.006-0.005-0.009-0.012-0.012-0.019  c-0.019-0.021-0.038-0.038-0.059-0.052c-0.002,0-0.004-0.001-0.006-0.001l-15.369-5.078c-0.12-0.066-0.296-0.004-0.445,0.159  L56.528,72.831c-0.072,0.064-0.141,0.148-0.194,0.25c-0.153,0.283-0.144,0.586,0.022,0.677c0.002,0.001,0.004,0.002,0.006,0.003  l5.238,2.87l0.401,0.222l1.978,1.083l0.419,0.229l5.123,2.808l0.122,0.067l0.814,0.447c0.12,0.065,0.292,0.006,0.441-0.154  l14.189-15.57C85.267,65.572,85.365,65.286,85.327,65.081z M80.383,63.73l-1.922,2.099l-0.747,0.288l-2.962-1.148l-0.003-0.608  l1.759-1.92L80.383,63.73z M70.704,67.813l-0.042,0.653l-1.592,1.741l-0.811,0.314l-2.589-1.144L65.669,68.8l1.669-1.822  l0.726-0.254L70.704,67.813z M68.39,65.829l1.618-1.771l0.692-0.241l2.764,1.068l-0.036,0.562l-1.648,1.8l-0.739,0.287l-2.646-1.095  L68.39,65.829z M67.966,70.816l-0.039,0.642l-1.514,1.654l-0.69,0.266l-2.576-1.214l-0.003-0.602l1.466-1.602l0.792-0.278  L67.966,70.816z M68.235,71.477l0.687-0.239l2.866,1.269l-0.04,0.651l-1.56,1.704l-0.72,0.277l-2.884-1.355l-0.002-0.5  L68.235,71.477z M69.25,70.959l-0.004-0.585l1.7-1.859l0.787-0.275l2.885,1.19l-0.04,0.637l-1.772,1.935l-0.639,0.247L69.25,70.959z   M71.983,67.923l-0.002-0.538l1.782-1.946l0.589-0.208l3.08,1.191l-0.033,0.566l-1.694,1.849l-0.78,0.301L71.983,67.923z   M76.256,62.355l-1.655,1.811l-0.963,0.372l-2.605-1.009l-0.003-0.586l1.633-1.786L76.256,62.355z M69.3,60.037l3.111,1.037  l-1.57,1.717l-0.861,0.331l-2.596-1.004L69.3,60.037z M67.102,62.423l2.645,1.024l-0.038,0.58l-1.542,1.684l-0.793,0.306  l-2.593-1.072L67.102,62.423z M64.5,65.249l2.606,1.078l-0.033,0.583l-1.636,1.784l-0.699,0.27l-2.601-1.149L64.5,65.249z   M61.859,68.117l2.534,1.119l-0.041,0.647l-1.42,1.551l-0.736,0.286l-2.548-1.2L61.859,68.117z M57.377,72.985l1.995-2.167  l2.493,1.174l-0.041,0.651l-1.694,1.852L57.377,72.985z M60.348,74.614l1.754-1.913l0.729-0.255l2.476,1.167l-0.045,0.756  l-1.792,1.957L60.348,74.614z M63.69,76.446l1.89-2.066l0.78-0.273l2.733,1.288l-0.042,0.71l-2.003,2.183L63.69,76.446z   M70.089,79.955l-2.821-1.548l2.086-2.276l0.75-0.264l2.6,1.224L70.089,79.955z M72.978,76.792l-2.605-1.227L70.37,75.02  l1.605-1.751l0.858-0.302l2.593,1.145L72.978,76.792z M75.704,73.811l-2.637-1.166l-0.004-0.567l1.807-1.973l0.747-0.261  l2.692,1.113L75.704,73.811z M78.589,70.653L75.9,69.542l-0.001-0.556l1.73-1.891l0.809-0.285l2.703,1.048L78.589,70.653z   M81.422,67.552l-2.704-1.046l-0.002-0.597l1.916-2.093l3.224,1.074L81.422,67.552z M119.773,73.635L96.116,57.37  c-0.119-0.111-0.281-0.163-0.516-0.166c-0.06,0.008-0.117,0.024-0.173,0.05l-39.615-8.896c-0.159,0-0.313,0.062-0.432,0.173  l-5.847,5.46L37.536,39.931c-0.21-0.236-0.579-0.257-0.817-0.044c-0.236,0.213-0.256,0.579-0.041,0.816l12.012,14.077l-11.361,10.61  c-0.148,0.138-0.223,0.34-0.199,0.53c0.019,0.198,0.131,0.378,0.303,0.485l2.962,1.802l0.873,23.13l0.089,0.313  c0.034,0.058,0.075,0.109,0.122,0.152l35.005,25.704c0.108,0.081,0.243,0.125,0.38,0.125c0.11,0,0.223-0.032,0.259-0.062  l37.86-13.688l0.12-0.066c0.043-0.029,0.075-0.06,0.099-0.082l0.129-0.155c0.032-0.062,0.054-0.127,0.064-0.205l0.066-27.57  l4.046-1.079c0.227-0.061,0.401-0.24,0.455-0.464C120.017,74.035,119.946,73.796,119.773,73.635z M38.819,65.749l10.702-9.994  l0.521,0.61c0.041,0.046,0.09,0.085,0.141,0.115c0.209,0.122,0.486,0.102,0.676-0.071c0.236-0.214,0.258-0.578,0.042-0.816  l-0.535-0.627l5.684-5.308l38.446,8.811L71.821,85.831L38.819,65.749z M41.706,69.005l25.966,15.801l-25.154,5.726L41.706,69.005z   M76.222,115.725L43.416,91.641l25.827-5.879l2.436,1.482c0.101,0.062,0.216,0.094,0.334,0.094l0.047-0.007  c0.022,0.004,0.049,0.007,0.077,0.007l4.085-1.067V115.725z M77.503,116.066v-30.13l1.313-0.349l34.357,17.592L77.503,116.066z   M114.139,102.236l-33.48-17.139l33.513-8.906L114.139,102.236z M78.862,84.247c-0.098,0-0.194,0.024-0.285,0.069l-4.977,1.328  l22.268-26.76l22.181,14.904L78.862,84.247z M31.67,17.651c-5.878-3.41-13.435-1.401-16.845,4.477  c-3.409,5.878-1.401,13.434,4.478,16.844c5.876,3.409,13.434,1.4,16.843-4.477C39.556,28.617,37.547,21.06,31.67,17.651z   M34.147,33.336c-2.771,4.775-8.912,6.408-13.687,3.638c-4.777-2.771-6.407-8.911-3.637-13.687c2.771-4.777,8.909-6.41,13.687-3.639  C35.285,22.419,36.918,28.56,34.147,33.336z M14.366,16.679l-2.217-2.472c-0.16-0.179-0.187-0.429-0.092-0.632  c0.032-0.069,0.079-0.13,0.138-0.183c0.236-0.214,0.604-0.194,0.815,0.042l2.218,2.473c0.212,0.238,0.192,0.603-0.047,0.816  c-0.19,0.171-0.463,0.192-0.673,0.07c0,0,0,0-0.002-0.001C14.456,16.762,14.407,16.723,14.366,16.679z M23.28,12.31l-0.343-3.302  c-0.033-0.317,0.197-0.602,0.515-0.634c0.319-0.033,0.604,0.198,0.638,0.516l0.34,3.303c0.032,0.318-0.198,0.601-0.518,0.633  c-0.124,0.015-0.245-0.014-0.349-0.074c-0.152-0.088-0.265-0.249-0.282-0.44L23.28,12.31z M39.671,21.903  c-0.129-0.292,0.004-0.632,0.295-0.762L43,19.795c0.294-0.131,0.636,0.004,0.764,0.296c0.128,0.291-0.004,0.63-0.296,0.762  l-3.034,1.345c-0.175,0.078-0.37,0.062-0.524-0.028C39.805,22.109,39.722,22.019,39.671,21.903z M41.365,30.968l14.403,3.133  c0.314,0.066,0.51,0.375,0.444,0.688c-0.069,0.311-0.375,0.51-0.688,0.441l-14.401-3.133c-0.063-0.013-0.118-0.035-0.17-0.065  c-0.211-0.122-0.327-0.369-0.273-0.621C40.745,31.099,41.054,30.9,41.365,30.968z M27.81,44.107l1.734,16.842  c0.034,0.317-0.195,0.603-0.515,0.634c-0.125,0.013-0.247-0.016-0.348-0.075c-0.155-0.09-0.265-0.249-0.285-0.441l-1.735-16.842  c-0.033-0.317,0.197-0.603,0.516-0.635C27.491,43.56,27.778,43.789,27.81,44.107z M17.995,41.766c0.136,0.18,0.158,0.43,0.037,0.638  l-1.665,2.871c-0.16,0.276-0.512,0.371-0.792,0.208c-0.273-0.159-0.368-0.512-0.208-0.789l1.665-2.871  c0.16-0.277,0.514-0.371,0.789-0.211C17.891,41.652,17.95,41.705,17.995,41.766z M11.419,34.513  c0.064,0.145,0.063,0.304,0.009,0.443c-0.053,0.137-0.158,0.256-0.304,0.319l-3.036,1.345c-0.175,0.079-0.369,0.06-0.523-0.03  c-0.103-0.06-0.187-0.147-0.239-0.264c-0.063-0.147-0.063-0.304-0.01-0.442c0.027-0.069,0.066-0.133,0.12-0.187  c0.049-0.056,0.112-0.103,0.186-0.133l3.036-1.345C10.95,34.089,11.29,34.222,11.419,34.513z M9.723,25.45l-3.245-0.697  c-0.061-0.012-0.118-0.036-0.168-0.064c-0.211-0.123-0.33-0.371-0.277-0.621c0.018-0.08,0.051-0.148,0.094-0.211  c0.129-0.185,0.359-0.284,0.595-0.233l3.246,0.697c0.313,0.066,0.513,0.376,0.446,0.686C10.343,25.318,10.036,25.517,9.723,25.45  L9.723,25.45z M33.055,14.017l0.001-0.002l1.666-2.872c0.16-0.276,0.514-0.371,0.789-0.21c0.278,0.162,0.371,0.514,0.211,0.79  l-1.668,2.875c-0.159,0.275-0.512,0.371-0.789,0.209C32.99,14.646,32.895,14.292,33.055,14.017z"
       style="fill:#212121;fill-opacity:1" /></g></svg>