<?xml version="1.0" encoding="UTF-8" standalone="no"?>
<svg
   xmlns:dc="http://purl.org/dc/elements/1.1/"
   xmlns:cc="http://creativecommons.org/ns#"
   xmlns:rdf="http://www.w3.org/1999/02/22-rdf-syntax-ns#"
   xmlns:svg="http://www.w3.org/2000/svg"
   xmlns="http://www.w3.org/2000/svg"
   xmlns:sodipodi="http://sodipodi.sourceforge.net/DTD/sodipodi-0.dtd"
   xmlns:inkscape="http://www.inkscape.org/namespaces/inkscape"
   height="24"
   width="24"
   version="1.1"
   id="svg20"
   sodipodi:docname="device_tablet_1185599_easyicon.net.svg"
   inkscape:version="0.92.0 r">
  <metadata
     id="metadata26">
    <rdf:RDF>
      <cc:Work
         rdf:about="">
        <dc:format>image/svg+xml</dc:format>
        <dc:type
           rdf:resource="http://purl.org/dc/dcmitype/StillImage" />
      </cc:Work>
    </rdf:RDF>
  </metadata>
  <defs
     id="defs24" />
  <sodipodi:namedview
     pagecolor="#ffffff"
     bordercolor="#666666"
     borderopacity="1"
     objecttolerance="10"
     gridtolerance="10"
     guidetolerance="10"
     inkscape:pageopacity="0"
     inkscape:pageshadow="2"
     inkscape:window-width="2160"
     inkscape:window-height="1390"
     id="namedview22"
     showgrid="false"
     inkscape:zoom="29.931425"
     inkscape:cx="11.492086"
     inkscape:cy="9.7955894"
     inkscape:window-x="0"
     inkscape:window-y="50"
     inkscape:window-maximized="1"
     inkscape:current-layer="g18" />
  <g
     transform="translate(0 -1028.4)"
     id="g18">
    <path
       d="m 1.2272732,1033.1999 c -0.5949782,0 -1.0772732,0.36 -1.0772732,0.9006 v 0.8992 0.9006 0.8992 0.9006 0.9006 3.5996 0.8996 0.9006 0.8992 0.9006 0.8992 c 0,0.4508 0.482295,0.9006 1.0772732,0.9006 H 2.3045453 3.3818185 10.922732 12 h 1.077268 7.540917 1.077268 1.077279 c 0.594653,0 1.077268,-0.4498 1.077268,-0.9006 v -0.8992 -0.9006 -0.8992 -0.9006 -4.4992 -0.9006 -0.9006 -0.8992 -0.9006 -0.8992 c 0,-0.5406 -0.482615,-0.9006 -1.077268,-0.9006 H 21.695453 20.618185 13.077268 12 10.922732 3.3818185 2.3045453 Z"
       id="path4"
       inkscape:connector-curvature="0"
       style="fill:#9e9e9e;stroke-width:0.98465508;fill-opacity:1" />
    <rect
       height="12.6"
       width="19.6"
       y="1034.1"
       x="1"
       id="rect6"
       style="fill:#212121;fill-opacity:1;stroke-width:1.06926787" />
    <g
       id="g4506"
       transform="translate(0,0.2509)"
       style="fill:#ffffff;fill-opacity:1">
      <path
         style="fill:#ffffff;stroke-width:1.24370098;fill-opacity:1"
         inkscape:connector-curvature="0"
         id="path10"
         d="m 23.499881,1040.1491 a 1.2498159,1.2497447 0 1 1 -2.499394,0 1.2498159,1.2497447 0 1 1 2.499394,0 z" />
      <path
         style="fill:#ffffff;stroke-width:1.24976981;fill-opacity:1"
         inkscape:connector-curvature="0"
         id="path14"
         d="m 22.249771,1038.8964 c -0.689873,0 -1.249771,0.4999 -1.249771,1.2498 h 2.499541 c 0,-0.7499 -0.559898,-1.2498 -1.24977,-1.2498 z" />
      <path
         style="fill:#ffffff;stroke-width:1.24976981;fill-opacity:1"
         inkscape:connector-curvature="0"
         id="path16"
         d="m 22.874653,1040.1462 a 0.62488573,0.62488573 0 1 1 -1.249765,0 0.62488573,0.62488573 0 1 1 1.249765,0 z" />
    </g>
  </g>
</svg>
