<?xml version="1.0" encoding="UTF-8" standalone="no"?>
<!-- Created with Inkscape (http://www.inkscape.org/) -->

<svg
   xmlns:dc="http://purl.org/dc/elements/1.1/"
   xmlns:cc="http://creativecommons.org/ns#"
   xmlns:rdf="http://www.w3.org/1999/02/22-rdf-syntax-ns#"
   xmlns:svg="http://www.w3.org/2000/svg"
   xmlns="http://www.w3.org/2000/svg"
   xmlns:sodipodi="http://sodipodi.sourceforge.net/DTD/sodipodi-0.dtd"
   xmlns:inkscape="http://www.inkscape.org/namespaces/inkscape"
   width="256"
   height="256"
   viewBox="0 0 256 256"
   id="svg4134"
   version="1.1"
   inkscape:version="0.91 r13725"
   sodipodi:docname="neteaser-music.svg">
  <defs
     id="defs4136" />
  <sodipodi:namedview
     id="base"
     pagecolor="#ffffff"
     bordercolor="#666666"
     borderopacity="1.0"
     inkscape:pageopacity="0.0"
     inkscape:pageshadow="2"
     inkscape:zoom="1.979899"
     inkscape:cx="182.56867"
     inkscape:cy="175.02757"
     inkscape:document-units="px"
     inkscape:current-layer="layer1"
     showgrid="false"
     units="px"
     inkscape:window-width="2160"
     inkscape:window-height="1380"
     inkscape:window-x="0"
     inkscape:window-y="60"
     inkscape:window-maximized="1" />
  <metadata
     id="metadata4139">
    <rdf:RDF>
      <cc:Work
         rdf:about="">
        <dc:format>image/svg+xml</dc:format>
        <dc:type
           rdf:resource="http://purl.org/dc/dcmitype/StillImage" />
        <dc:title></dc:title>
      </cc:Work>
    </rdf:RDF>
  </metadata>
  <g
     inkscape:label="Layer 1"
     inkscape:groupmode="layer"
     id="layer1"
     transform="translate(0,-796.36216)">
    <path
       style="fill-opacity:1;fill:#e41318"
       d="m 121.27178,1051.9715 c -44.224758,-3.8345 -82.664078,-32.2547 -100.288538,-74.14825 -3.50457,-8.3304 -5.72035,-16.0355 -7.93594,-27.5961 -0.96368,-5.0283 -1.20197,-8.5022 -1.20968,-17.6346 -0.008,-9.2132 0.0539,-10.1683 1.10369,-17.0961 4.66757,-30.8021 22.54542,-60.3547 48.16523,-79.6185 8.39118,-6.3093 20.99802,-13.0564 28.95167,-15.4943 6.42986,-1.9711 11.746088,-0.9904 15.619568,2.8811 5.23584,5.2332 5.22045,12.5471 -0.0382,18.1686 -2.04495,2.1861 -4.03526,3.4456 -8.329278,5.2711 -12.24306,5.2049 -22.16585,11.8692 -31.2363,20.9789 -14.39781,14.46 -22.8896,31.8178 -25.76194,52.6592 -0.68894,4.999 -0.687,17.9668 0.004,22.7499 0.66129,4.5814 1.40054,8.4037 2.36743,12.2409 9.73204,38.6228 40.44444,65.31195 79.504358,69.08965 4.84898,0.469 17.37362,0.1726 21.96905,-0.5198 14.0053,-2.1104 25.5511,-6.1066 36.17073,-12.5192 9.29776,-5.6145 18.61489,-14.51425 24.28294,-23.19545 11.47509,-17.5752 14.5836,-39.3765 8.57223,-60.1213 -5.08552,-17.5498 -17.49281,-30.7524 -36.04524,-38.3557 -3.44952,-1.4137 -4.87021,-1.709 -6.16517,-1.2817 -1.62079,0.5349 -1.62219,0.5643 -0.28511,5.9618 0.67456,2.723 1.47786,5.9808 1.78512,7.2395 0.83455,3.4186 2.83634,10.3261 3.74511,12.923 2.45979,7.0291 3.47273,12.3453 3.47585,18.2421 0.006,12.4447 -4.88702,23.8489 -14.19436,33.0788 -6.30954,6.2571 -14.19202,10.7631 -22.7346,12.9962 -4.98923,1.3042 -6.6887,1.5114 -12.20363,1.4876 -4.43666,-0.019 -5.56397,-0.1163 -8.49645,-0.7316 -14.23784,-2.9873 -25.849208,-11.5379 -33.388698,-24.5874 -7.17337,-12.4159 -9.18045,-29.4853 -5.2685,-44.8066 3.95474,-15.4889 13.56493,-29.0819 26.817328,-37.9312 5.09676,-3.4034 9.38898,-5.5177 17.24018,-8.4927 2.29518,-0.8696 4.378,-1.7717 4.62847,-2.0047 0.4262,-0.3963 0.35321,-0.9327 -1.1383,-8.3657 -2.59752,-12.9448 -3.02673,-15.7855 -3.01029,-19.9231 0.021,-5.2703 0.82446,-8.5604 3.32034,-13.5961 1.94078,-3.9156 4.49977,-7.3879 8.03575,-10.9037 3.81604,-3.7944 7.13562,-6.1936 11.72165,-8.472 6.42594,-3.1924 10.60548,-4.1819 17.66514,-4.1819 8.59585,0 15.90547,1.6332 22.89303,5.115 4.85068,2.417 9.78994,6.0386 13.31658,9.7643 4.79787,5.0687 5.42079,9.8589 1.9695,15.1458 -3.51644,5.3867 -8.26344,7.9796 -13.07449,7.1418 -2.49603,-0.4346 -4.51321,-1.4204 -8.85791,-4.3286 -4.89929,-3.2794 -6.28195,-3.77 -11.14668,-3.9552 -7.50575,-0.2855 -14.11707,1.4576 -16.70424,4.4042 -1.43491,1.6343 -1.72075,2.5925 -1.71559,5.7511 0.004,2.1116 0.15879,3.3719 0.61391,4.9807 0.33511,1.1846 0.77892,3.085 0.98623,4.2231 0.93887,5.1539 2.7873,8.7573 5.76232,11.2331 2.87091,2.3892 5.77749,3.596 11.76676,4.8853 13.97147,3.0077 24.9992,8.3177 36.52095,17.5855 3.181,2.5587 9.22315,8.5214 12.03883,11.8806 10.01999,11.9539 16.70935,25.7222 19.62097,40.3845 1.33816,6.7387 1.47121,8.2703 1.48502,17.096 0.0156,10.0301 -0.45987,14.2404 -2.56951,22.75 -6.63479,26.7626 -22.73658,48.93845 -46.28248,63.74155 -5.94703,3.7389 -16.385,8.7005 -23.55762,11.198 -16.15217,5.6242 -34.36496,8.01 -50.48062,6.6126 z m 13.17329,-100.39425 c 3.89445,-0.8192 7.43502,-2.7233 10.48982,-5.6414 3.9092,-3.7342 5.7794,-7.705 5.77726,-12.2664 -9.1e-4,-2.2624 -0.19466,-3.3037 -1.67674,-9.0191 -0.92154,-3.5539 -2.03276,-7.7338 -2.46939,-9.2885 -2.07975,-7.4059 -4.73715,-16.9603 -5.7659,-20.7307 -0.7901,-2.8958 -1.26488,-4.1978 -1.55114,-4.2539 -0.47197,-0.092 -4.6749,1.5146 -7.07339,2.7047 -4.5587,2.2618 -8.56986,5.1921 -12.12622,8.8585 -4.92299,5.0753 -7.65135,10.0443 -9.31857,16.9713 -0.84757,3.5216 -0.8565,9.217 -0.0202,12.9073 1.09332,4.8245 3.22013,9.6919 5.64355,12.9158 4.19451,5.58 11.30603,8.2697 18.09094,6.8424 z"
       id="path4204"
       inkscape:connector-curvature="0"
       sodipodi:nodetypes="sssssssssssssssssssssssssssssssssssssssssssssssssssssssssssscssssscssssscc" />
  </g>
</svg>
