<?xml version="1.0" encoding="UTF-8" standalone="no"?>
<!-- Generator: Adobe Illustrator 19.1.0, SVG Export Plug-In . SVG Version: 6.00 Build 0)  -->

<svg
   xmlns:dc="http://purl.org/dc/elements/1.1/"
   xmlns:cc="http://creativecommons.org/ns#"
   xmlns:rdf="http://www.w3.org/1999/02/22-rdf-syntax-ns#"
   xmlns:svg="http://www.w3.org/2000/svg"
   xmlns="http://www.w3.org/2000/svg"
   xmlns:sodipodi="http://sodipodi.sourceforge.net/DTD/sodipodi-0.dtd"
   xmlns:inkscape="http://www.inkscape.org/namespaces/inkscape"
   version="1.1"
   id="Слой_3"
   x="0px"
   y="0px"
   viewBox="0 0 128 128"
   enable-background="new 0 0 128 128"
   xml:space="preserve"
   sodipodi:docname="skipping_rope_1205592_easyicon.net.svg"
   inkscape:version="0.92.0 r"><metadata
     id="metadata25"><rdf:RDF><cc:Work
         rdf:about=""><dc:format>image/svg+xml</dc:format><dc:type
           rdf:resource="http://purl.org/dc/dcmitype/StillImage" /></cc:Work></rdf:RDF></metadata><defs
     id="defs23" /><sodipodi:namedview
     pagecolor="#ffffff"
     bordercolor="#666666"
     borderopacity="1"
     objecttolerance="10"
     gridtolerance="10"
     guidetolerance="10"
     inkscape:pageopacity="0"
     inkscape:pageshadow="2"
     inkscape:window-width="2160"
     inkscape:window-height="1390"
     id="namedview21"
     showgrid="false"
     inkscape:zoom="5.6121422"
     inkscape:cx="30.361564"
     inkscape:cy="61.28077"
     inkscape:window-x="0"
     inkscape:window-y="50"
     inkscape:window-maximized="1"
     inkscape:current-layer="g18" /><g
     id="g18"><path
       fill="#783741"
       d="M56.751,121.681c-5.662,0-10.93-2.159-14.878-6.107c-4.043-4.043-6.156-9.491-5.95-15.342   c0.201-5.688,2.553-11.061,6.622-15.13L89.639,38.01c2.854-2.854,4.344-6.721,4.197-10.888c-0.147-4.165-1.876-8.106-4.869-11.1   c-6.076-6.074-15.238-6.075-21.315,0L37.299,46.375c-1.171,1.173-3.072,1.171-4.242,0c-1.172-1.171-1.172-3.071,0-4.242   L63.41,11.78c8.355-8.354,21.445-8.354,29.799,0c4.07,4.069,6.422,9.442,6.623,15.13c0.206,5.85-1.907,11.298-5.951,15.342   L46.788,89.344c-2.992,2.993-4.721,6.935-4.869,11.1c-0.147,4.168,1.343,8.034,4.196,10.888c2.885,2.885,6.777,4.459,10.954,4.346   c4.178-0.081,8.109-1.757,11.07-4.717l18.917-18.916c1.171-1.172,3.071-1.172,4.243,0c1.171,1.172,1.171,3.071-0.001,4.242   l-18.916,18.916c-4.063,4.063-9.459,6.362-15.196,6.474C57.041,121.679,56.895,121.681,56.751,121.681z"
       id="path4"
       style="fill:#212121;fill-opacity:1" /><path
       fill="#FFBAB0"
       d="M20.682,70.215c-1.757,1.757-5.611,0.753-8.606-2.243c-2.996-2.996-4-6.849-2.243-8.607l18.711-16.644   c1.757-1.757,4.577-1.786,7.573,1.21c2.996,2.996,2.967,5.815,1.209,7.573L20.682,70.215z"
       id="path6"
       style="fill:#81c784;fill-opacity:1" /><path
       fill="#783741"
       d="M18.332,74.08c-2.75,0-5.882-1.49-8.378-3.987c-4.302-4.302-5.266-9.825-2.242-12.849   c0.041-0.042,0.083-0.082,0.127-0.12L26.493,40.53c1.335-1.3,3.067-2.015,4.888-2.015c1.626,0,4.135,0.571,6.857,3.294   c4.459,4.458,3.86,9.093,1.279,11.745L22.924,72.209c-0.039,0.044-0.079,0.086-0.121,0.128   C21.662,73.477,20.116,74.08,18.332,74.08z M11.951,61.497c-0.135,0.398,0.242,2.349,2.246,4.354   c1.54,1.54,3.187,2.229,4.136,2.229c0.13,0,0.211-0.014,0.255-0.024L35.085,49.51c0.039-0.043,0.079-0.086,0.12-0.127   c0.958-0.958-0.527-2.648-1.209-3.331c-0.962-0.962-1.94-1.536-2.615-1.536c-0.181,0-0.426,0.037-0.716,0.326   c-0.041,0.042-0.083,0.082-0.127,0.12L11.951,61.497z"
       id="path8"
       style="fill:#4caf50;fill-opacity:1" /><path
       fill="#783741"
       d="M20.682,72.215c-0.512,0-1.023-0.195-1.414-0.586c-0.781-0.78-0.781-2.047,0-2.828   c0.704-0.704,0.169-3.367-2.242-5.778c-2.41-2.41-5.073-2.945-5.778-2.243c-0.78,0.781-2.048,0.781-2.828,0   c-0.781-0.781-0.781-2.047,0-2.828c2.577-2.578,7.6-1.592,11.435,2.243c3.834,3.834,4.82,8.857,2.243,11.435   C21.706,72.019,21.194,72.215,20.682,72.215z"
       id="path10"
       style="fill:#4caf50;fill-opacity:1" /><path
       fill="#FFBAB0"
       d="M102.463,69.005c1.757-1.757,5.611-0.753,8.606,2.243c2.996,2.996,4.001,6.849,2.243,8.606L94.601,96.499   c-1.757,1.757-4.577,1.786-7.573-1.21c-2.996-2.996-2.967-5.815-1.21-7.573L102.463,69.005z"
       id="path12"
       style="fill:#ef9a9a;fill-opacity:1" /><path
       fill="#783741"
       d="M91.764,100.704c-1.626,0-4.135-0.571-6.857-3.294c-4.459-4.458-3.86-9.093-1.279-11.745l16.594-18.654   c0.039-0.044,0.079-0.086,0.121-0.128c1.141-1.14,2.687-1.743,4.471-1.743c2.75,0,5.882,1.49,8.378,3.987   c4.302,4.302,5.266,9.825,2.242,12.849c-0.041,0.042-0.083,0.082-0.127,0.12L96.652,98.689   C95.317,99.989,93.585,100.704,91.764,100.704z M104.557,71.164L88.06,89.71c-0.039,0.043-0.079,0.086-0.12,0.127   c-0.958,0.958,0.527,2.648,1.209,3.331c0.962,0.962,1.94,1.536,2.615,1.536c0.181,0,0.426-0.037,0.716-0.326   c0.041-0.042,0.083-0.082,0.127-0.12l18.587-16.535c0.135-0.398-0.242-2.349-2.246-4.354c-1.54-1.54-3.187-2.229-4.136-2.229   C104.683,71.14,104.601,71.153,104.557,71.164z"
       id="path14"
       style="fill:#f44336;fill-opacity:1" /><path
       fill="#783741"
       d="M110.977,82.703c-2.435,0-5.292-1.284-7.685-3.678c-3.835-3.834-4.82-8.857-2.243-11.435   c0.781-0.781,2.047-0.781,2.829,0c0.781,0.78,0.781,2.047,0.001,2.828c-0.704,0.704-0.168,3.367,2.242,5.778   c2.41,2.41,5.074,2.946,5.778,2.243c0.78-0.781,2.048-0.781,2.828,0c0.781,0.781,0.781,2.047,0,2.828   C113.758,82.237,112.443,82.703,110.977,82.703z"
       id="path16"
       style="fill:#f44336;fill-opacity:1" /></g></svg>