<?xml version="1.0" encoding="utf-8"?>
<!-- Generator: Adobe Illustrator 21.0.0, SVG Export Plug-In . SVG Version: 6.00 Build 0)  -->
<svg version="1.1" id="图层_1" xmlns="http://www.w3.org/2000/svg" xmlns:xlink="http://www.w3.org/1999/xlink" x="0px" y="0px"
	 viewBox="0 0 399 249" style="enable-background:new 0 0 399 249;" xml:space="preserve" width="500">
<style type="text/css">
	.st0{fill:#3FA9F5;}
	.st1{enable-background:new    ;}
	.st3{font-size:16.1438px;}
	.st4{font-family:'ArialMT';}
	.st5{fill:#7FFEFE;}
	.st6{fill:#FEFE7F;}
	.st7{fill:#00FE7F;}
	.st8{fill:#FEFE00;}
	.st9{fill:none;stroke:#231815;stroke-linecap:round;stroke-miterlimit:10;}
	.st10{letter-spacing:27;}
	.st11{letter-spacing:11;}
	.st12{letter-spacing:1;}
</style>
<g id="箭头_7">
</g>
<g>
	<polygon class="st0" points="271,69.3 278.7,33.9 286.3,69.3 281.7,69.3 281.7,165.7 276.2,165.7 276.2,69.3 	"/>
	<text transform="matrix(1 0 0 1 293.0075 113.8369)" class="st1"><tspan x="0" y="0" class="st2 st3">溶解度</tspan><tspan x="48.4" y="0" class="st4 st3">↑</tspan></text>
	<path class="st5" d="M107.7,115.5c0,11.1,0,22.1,0,33.2c-19.4,0-38.7,0-58.2,0c0-11.1,0-22.1,0-33.2
		C68.9,115.5,88.3,115.5,107.7,115.5z"/>
	<path class="st6" d="M107.7,94c-19.4,0-38.7,0-58.1,0c0-3.9,0-7.8,0-11.7c19.4,0,38.7,0,58.1,0C107.7,86.2,107.7,90.1,107.7,94z"/>
	<path class="st7" d="M107.7,159.5c-19.4,0-38.7,0-58.1,0c0-3.6,0-7.2,0-10.8c19.4,0,38.7,0,58.2,0
		C107.7,152.3,107.7,155.9,107.7,159.5z"/>
	<path class="st8" d="M107.7,42c-19.4,0-38.7,0-58.1,0c0-0.3,0-0.6,0-0.9c19.4,0,38.7,0,58.1,0C107.7,41.4,107.7,41.7,107.7,42z"/>
	<g id="XMLID_1_">
		<g>
			<polyline class="st9" points="49.8,202.7 49.8,187.1 49.8,5 107.4,5 107.4,187.1 107.4,198.9 			"/>
			<line class="st9" x1="87.4" y1="244" x2="68.2" y2="244"/>
			<line class="st9" x1="68.2" y1="244" x2="49.8" y2="202.7"/>
			<line class="st9" x1="107.4" y1="198.9" x2="87.4" y2="244"/>
			<line class="st9" x1="49.8" y1="187.1" x2="107.4" y2="187.1"/>
		</g>
	</g>
	<text transform="matrix(1 0 0 1 122.7985 45.1763)" class="st2 st3">胡萝卜素</text>
	<text transform="matrix(1 0 0 1 187.3737 46.4483)" class="st4 st3 st10"> </text>
	<text transform="matrix(1 0 0 1 219.6618 45.1763)" class="st2 st3">橙黄</text>
	<text transform="matrix(1 0 0 1 122.7985 83.9214)" class="st2 st3">叶绿素</text>
	<text transform="matrix(1 0 0 1 171.2302 85.1934)" class="st4 st3 st11"> </text>
	<text transform="matrix(1 0 0 1 187.3737 85.1934)" class="st4 st3 st10"> </text>
	<text transform="matrix(1 0 0 1 219.6618 83.9214)" class="st2 st3">黄</text>
	<text transform="matrix(1 0 0 1 122.7985 122.6665)" class="st1"><tspan x="0" y="0" class="st2 st3">叶绿素</tspan><tspan x="48.4" y="0" class="st4 st3">A</tspan></text>
	<text transform="matrix(1 0 0 1 182.1725 123.9385)" class="st4 st3"> </text>
	<text transform="matrix(1 0 0 1 187.3737 123.9385)" class="st4 st3 st10"> </text>
	<text transform="matrix(1 0 0 1 219.6618 122.6665)" class="st2 st3">蓝绿</text>
	<text transform="matrix(1 0 0 1 122.7985 161.4121)" class="st1"><tspan x="0" y="0" class="st2 st3">叶绿素</tspan><tspan x="48.4" y="0" class="st4 st3">B</tspan></text>
	<text transform="matrix(1 0 0 1 180.737 162.6836)" class="st4 st3 st12"> </text>
	<text transform="matrix(1 0 0 1 187.3737 162.6836)" class="st4 st3 st10"> </text>
	<text transform="matrix(1 0 0 1 219.6618 161.4121)" class="st2 st3">黄绿</text>
</g>
</svg>
