<?xml version="1.0" encoding="utf-8"?>
<!-- Generator: Adobe Illustrator 16.0.0, SVG Export Plug-In . SVG Version: 6.00 Build 0)  -->
<!DOCTYPE svg PUBLIC "-//W3C//DTD SVG 1.1//EN" "http://www.w3.org/Graphics/SVG/1.1/DTD/svg11.dtd">
<svg version="1.1" id="Layer_1" xmlns="http://www.w3.org/2000/svg" xmlns:xlink="http://www.w3.org/1999/xlink" x="0px" y="0px"
	 width="126px" height="126px" viewBox="0 0 126 126" enable-background="new 0 0 126 126" xml:space="preserve">
<path fill="#231F20" d="M63.084,85.323c-0.553,0-1-0.448-1-1v-3.767c0-0.552,0.447-1,1-1s1,0.448,1,1v3.767
	C64.084,84.875,63.637,85.323,63.084,85.323z M50.966,80.745l2.214-3.047c0.325-0.447,0.226-1.072-0.221-1.397
	c-0.447-0.325-1.073-0.226-1.396,0.221l-2.214,3.047c-0.325,0.447-0.226,1.072,0.221,1.397c0.178,0.129,0.383,0.191,0.587,0.191
	C50.466,81.157,50.771,81.014,50.966,80.745z M42.457,70.14l3.582-1.165c0.525-0.171,0.813-0.735,0.642-1.26
	c-0.171-0.525-0.737-0.813-1.261-0.642l-3.582,1.165c-0.525,0.171-0.813,0.735-0.642,1.26c0.138,0.423,0.529,0.691,0.951,0.691
	C42.25,70.189,42.354,70.173,42.457,70.14z M46.649,57.08c0.171-0.525-0.117-1.089-0.643-1.26l-3.582-1.164
	c-0.523-0.169-1.089,0.117-1.26,0.642s0.117,1.089,0.643,1.26l3.582,1.164c0.103,0.033,0.206,0.049,0.309,0.049
	C46.12,57.771,46.512,57.502,46.649,57.08z M52.875,48.457c0.447-0.325,0.546-0.95,0.221-1.397l-2.215-3.047
	c-0.323-0.446-0.949-0.546-1.396-0.221s-0.546,0.95-0.221,1.397l2.215,3.047c0.195,0.269,0.5,0.412,0.81,0.412
	C52.492,48.647,52.697,48.585,52.875,48.457z M63.979,44.139l-0.001-3.768c0-0.552-0.448-1-1-1c-0.553,0-1,0.448-1,1l0.001,3.768
	c0,0.552,0.448,1,1,1C63.532,45.14,63.979,44.692,63.979,44.139z M74.5,48.174l2.215-3.048c0.325-0.447,0.226-1.072-0.221-1.397
	c-0.448-0.325-1.073-0.226-1.396,0.221l-2.215,3.048c-0.325,0.447-0.226,1.072,0.221,1.397c0.178,0.129,0.383,0.191,0.587,0.191
	C74,48.586,74.305,48.443,74.5,48.174z M80.643,57.623l3.582-1.166c0.525-0.171,0.813-0.735,0.642-1.26
	c-0.172-0.525-0.738-0.815-1.261-0.641l-3.582,1.166c-0.525,0.171-0.813,0.735-0.642,1.26c0.138,0.422,0.529,0.691,0.951,0.691
	C80.436,57.672,80.54,57.656,80.643,57.623z M84.899,69.396c0.171-0.525-0.117-1.089-0.643-1.26l-3.583-1.163
	c-0.525-0.17-1.089,0.117-1.26,0.643s0.117,1.089,0.643,1.26l3.583,1.163c0.103,0.033,0.206,0.049,0.309,0.049
	C84.37,70.088,84.762,69.819,84.899,69.396z M76.58,80.904c0.447-0.325,0.546-0.95,0.221-1.396l-2.216-3.047
	c-0.324-0.447-0.949-0.546-1.396-0.221c-0.447,0.325-0.546,0.95-0.221,1.396l2.216,3.047c0.195,0.27,0.5,0.412,0.81,0.412
	C76.197,81.095,76.402,81.033,76.58,80.904z M64.084,84.323l-0.001-3.768c0-0.552-0.448-1-1-1c-0.553,0-1,0.448-1,1l0.001,3.768
	c0,0.552,0.448,1,1,1C63.637,85.323,64.084,84.875,64.084,84.323z M50.967,80.745l2.214-3.049c0.324-0.447,0.225-1.072-0.222-1.396
	c-0.449-0.326-1.073-0.225-1.397,0.222l-2.214,3.049c-0.324,0.447-0.225,1.072,0.222,1.396c0.178,0.129,0.384,0.191,0.587,0.191
	C50.466,81.157,50.771,81.014,50.967,80.745z M42.456,70.139l3.585-1.165c0.525-0.171,0.813-0.735,0.643-1.26
	c-0.172-0.525-0.735-0.812-1.26-0.642l-3.585,1.165c-0.525,0.171-0.813,0.735-0.643,1.26c0.138,0.422,0.529,0.691,0.951,0.691
	C42.25,70.188,42.354,70.172,42.456,70.139z M46.65,57.08c0.171-0.525-0.117-1.089-0.643-1.26l-3.583-1.164
	c-0.523-0.171-1.089,0.117-1.26,0.642s0.117,1.089,0.643,1.26l3.583,1.164c0.103,0.033,0.206,0.049,0.309,0.049
	C46.121,57.771,46.513,57.502,46.65,57.08z M52.876,48.458c0.446-0.325,0.546-0.95,0.221-1.397l-2.215-3.049
	c-0.323-0.446-0.947-0.547-1.396-0.221c-0.446,0.325-0.546,0.95-0.221,1.397l2.215,3.049c0.195,0.269,0.5,0.412,0.81,0.412
	C52.492,48.648,52.698,48.586,52.876,48.458z M63.979,44.142v-3.77c0-0.552-0.447-1-1-1s-1,0.448-1,1v3.77c0,0.552,0.447,1,1,1
	S63.979,44.694,63.979,44.142z M118.714,62.61c0-0.276-0.224-0.5-0.5-0.5H82.541c-0.276,0-0.5,0.224-0.5,0.5s0.224,0.5,0.5,0.5
	h35.673C118.49,63.11,118.714,62.887,118.714,62.61z M108.129,95.377c0.162-0.224,0.113-0.536-0.11-0.698L79.159,73.71
	c-0.223-0.161-0.536-0.114-0.698,0.11c-0.162,0.224-0.113,0.536,0.11,0.698l28.859,20.969c0.089,0.064,0.191,0.096,0.294,0.096
	C107.879,95.583,108.031,95.512,108.129,95.377z M80.308,115.664c0.263-0.085,0.406-0.368,0.321-0.63L69.605,81.108
	c-0.085-0.262-0.367-0.407-0.63-0.321s-0.406,0.368-0.321,0.63l11.023,33.926c0.068,0.211,0.265,0.346,0.476,0.346
	C80.204,115.688,80.257,115.681,80.308,115.664z M46.505,115.401l11.023-33.926c0.085-0.262-0.059-0.544-0.321-0.63
	c-0.263-0.084-0.545,0.059-0.63,0.321l-11.023,33.926c-0.085,0.262,0.059,0.544,0.321,0.63c0.051,0.017,0.104,0.024,0.154,0.024
	C46.24,115.747,46.437,115.613,46.505,115.401z M18.682,95.642L47.54,74.675c0.224-0.162,0.272-0.475,0.11-0.698
	c-0.163-0.225-0.476-0.271-0.698-0.11L18.094,94.833c-0.224,0.162-0.272,0.475-0.11,0.698c0.098,0.135,0.25,0.206,0.404,0.206
	C18.49,95.737,18.593,95.706,18.682,95.642z M43.957,62.802c0-0.276-0.224-0.5-0.5-0.5H7.786c-0.276,0-0.5,0.224-0.5,0.5
	s0.224,0.5,0.5,0.5h35.671C43.733,63.302,43.957,63.078,43.957,62.802z M47.537,51.592c0.162-0.224,0.113-0.536-0.11-0.698
	L18.568,29.925c-0.223-0.162-0.535-0.114-0.698,0.11c-0.162,0.224-0.113,0.536,0.11,0.698l28.858,20.969
	c0.089,0.064,0.191,0.096,0.294,0.096C47.287,51.798,47.439,51.727,47.537,51.592z M57.023,44.625
	c0.263-0.085,0.406-0.368,0.321-0.63L46.322,10.069c-0.085-0.262-0.367-0.407-0.63-0.321s-0.406,0.368-0.321,0.63l11.022,33.926
	c0.068,0.211,0.265,0.346,0.476,0.346C56.92,44.649,56.973,44.642,57.023,44.625z M69.422,44.245l11.024-33.926
	c0.085-0.262-0.059-0.544-0.321-0.63c-0.263-0.085-0.545,0.059-0.63,0.321L68.471,43.937c-0.085,0.262,0.059,0.544,0.321,0.63
	c0.051,0.017,0.104,0.024,0.154,0.024C69.157,44.591,69.354,44.457,69.422,44.245z M79.047,51.544l28.859-20.965
	c0.224-0.162,0.272-0.475,0.11-0.698c-0.163-0.224-0.476-0.272-0.698-0.11L78.459,50.735c-0.224,0.162-0.272,0.475-0.11,0.698
	c0.098,0.135,0.25,0.206,0.404,0.206C78.855,51.64,78.958,51.608,79.047,51.544z M118.714,62.61c0-0.276-0.224-0.5-0.5-0.5H82.541
	c-0.276,0-0.5,0.224-0.5,0.5s0.224,0.5,0.5,0.5h35.673C118.49,63.11,118.714,62.887,118.714,62.61z M108.129,95.377
	c0.162-0.224,0.113-0.536-0.11-0.698L79.159,73.71c-0.223-0.161-0.536-0.114-0.698,0.11c-0.162,0.224-0.113,0.536,0.11,0.698
	l28.859,20.969c0.089,0.064,0.191,0.096,0.294,0.096C107.879,95.583,108.031,95.512,108.129,95.377z M80.308,115.664
	c0.263-0.085,0.406-0.368,0.321-0.63L69.605,81.108c-0.085-0.262-0.367-0.407-0.63-0.321s-0.406,0.368-0.321,0.63l11.023,33.926
	c0.068,0.211,0.265,0.346,0.476,0.346C80.204,115.688,80.257,115.681,80.308,115.664z M46.505,115.401l11.023-33.926
	c0.085-0.262-0.059-0.544-0.321-0.63c-0.263-0.084-0.545,0.059-0.63,0.321l-11.023,33.926c-0.085,0.262,0.059,0.544,0.321,0.63
	c0.051,0.017,0.104,0.024,0.154,0.024C46.24,115.747,46.437,115.613,46.505,115.401z M18.682,95.642L47.54,74.675
	c0.224-0.162,0.272-0.475,0.11-0.698c-0.163-0.225-0.476-0.271-0.698-0.11L18.094,94.833c-0.224,0.162-0.272,0.475-0.11,0.698
	c0.098,0.135,0.25,0.206,0.404,0.206C18.49,95.737,18.593,95.706,18.682,95.642z M43.957,62.802c0-0.276-0.224-0.5-0.5-0.5H7.786
	c-0.276,0-0.5,0.224-0.5,0.5s0.224,0.5,0.5,0.5h35.671C43.733,63.302,43.957,63.078,43.957,62.802z M94.783,73.314
	c0.088-0.262-0.053-0.545-0.314-0.633l-5.364-1.804c-0.26-0.086-0.545,0.054-0.633,0.315c-0.088,0.262,0.053,0.545,0.314,0.633
	l5.364,1.804c0.053,0.018,0.106,0.026,0.159,0.026C94.519,73.655,94.713,73.523,94.783,73.314z M82.478,89.971
	c0.225-0.16,0.277-0.472,0.117-0.697l-3.277-4.613c-0.159-0.226-0.473-0.278-0.697-0.118s-0.277,0.472-0.117,0.697l3.277,4.613
	c0.097,0.137,0.251,0.21,0.407,0.21C82.288,90.063,82.39,90.033,82.478,89.971z M63.239,95.716l0.057-5.657
	c0.003-0.276-0.219-0.502-0.495-0.505c-0.002,0-0.003,0-0.005,0c-0.273,0-0.497,0.221-0.5,0.495l-0.057,5.657
	c-0.003,0.276,0.219,0.502,0.495,0.505c0.002,0,0.003,0,0.005,0C63.013,96.211,63.236,95.99,63.239,95.716z M43.79,89.552
	l3.372-4.542c0.165-0.222,0.118-0.535-0.104-0.699c-0.222-0.164-0.535-0.118-0.699,0.104l-3.372,4.542
	c-0.165,0.222-0.118,0.535,0.104,0.699c0.09,0.066,0.194,0.099,0.298,0.099C43.541,89.754,43.692,89.685,43.79,89.552z
	 M31.679,73.133l5.396-1.692c0.264-0.083,0.41-0.363,0.328-0.626c-0.083-0.264-0.363-0.408-0.627-0.328l-5.396,1.692
	c-0.264,0.083-0.41,0.363-0.328,0.626c0.067,0.214,0.265,0.351,0.478,0.351C31.579,73.156,31.629,73.149,31.679,73.133z
	 M37.526,54.221c0.088-0.262-0.053-0.545-0.314-0.633l-5.362-1.804c-0.261-0.086-0.544,0.053-0.633,0.315
	c-0.088,0.262,0.053,0.545,0.314,0.633l5.362,1.804c0.053,0.018,0.106,0.026,0.159,0.026C37.262,54.562,37.456,54.43,37.526,54.221z
	 M47.378,40.869c0.225-0.16,0.277-0.472,0.117-0.697l-3.276-4.61c-0.161-0.225-0.473-0.278-0.697-0.118
	c-0.225,0.16-0.277,0.472-0.117,0.697l3.276,4.61c0.098,0.137,0.251,0.21,0.407,0.21C47.188,40.961,47.29,40.932,47.378,40.869z
	 M63.702,35.364l0.059-5.657c0.003-0.276-0.219-0.502-0.495-0.505c-0.002,0-0.003,0-0.005,0c-0.273,0-0.497,0.221-0.5,0.495
	l-0.059,5.657c-0.003,0.276,0.219,0.502,0.495,0.505c0.002,0,0.003,0,0.005,0C63.476,35.858,63.699,35.638,63.702,35.364z
	 M79.639,40.999l3.374-4.542c0.165-0.222,0.118-0.535-0.104-0.7c-0.218-0.163-0.534-0.119-0.699,0.103l-3.374,4.542
	c-0.165,0.222-0.118,0.535,0.104,0.7c0.089,0.066,0.193,0.099,0.298,0.099C79.39,41.2,79.541,41.13,79.639,40.999z M89.22,54.925
	l5.4-1.692c0.264-0.083,0.41-0.363,0.328-0.626c-0.083-0.264-0.362-0.41-0.627-0.328l-5.4,1.692
	c-0.264,0.083-0.41,0.363-0.328,0.626c0.067,0.214,0.265,0.351,0.478,0.351C89.12,54.948,89.17,54.941,89.22,54.925z M94.783,73.314
	c0.088-0.262-0.053-0.545-0.314-0.633l-5.364-1.804c-0.26-0.086-0.545,0.054-0.633,0.315c-0.088,0.262,0.053,0.545,0.314,0.633
	l5.364,1.804c0.053,0.018,0.106,0.026,0.159,0.026C94.519,73.655,94.713,73.523,94.783,73.314z M82.478,89.971
	c0.225-0.16,0.277-0.472,0.117-0.697l-3.278-4.613c-0.16-0.226-0.474-0.278-0.697-0.118c-0.225,0.16-0.277,0.472-0.117,0.697
	l3.278,4.613c0.098,0.137,0.251,0.21,0.407,0.21C82.288,90.063,82.39,90.033,82.478,89.971z M63.239,95.716l0.058-5.659
	c0.003-0.276-0.219-0.502-0.495-0.505c-0.002,0-0.003,0-0.005,0c-0.273,0-0.497,0.221-0.5,0.495l-0.058,5.659
	c-0.003,0.276,0.219,0.502,0.495,0.505c0.002,0,0.003,0,0.005,0C63.013,96.211,63.236,95.99,63.239,95.716z M43.79,89.552
	l3.373-4.544c0.165-0.222,0.118-0.535-0.104-0.699c-0.222-0.163-0.534-0.118-0.699,0.104l-3.373,4.544
	c-0.165,0.222-0.118,0.535,0.104,0.699c0.09,0.066,0.194,0.099,0.298,0.099C43.541,89.754,43.692,89.685,43.79,89.552z
	 M31.679,73.133l5.4-1.692c0.264-0.083,0.41-0.363,0.328-0.626c-0.082-0.264-0.362-0.41-0.627-0.328l-5.4,1.692
	c-0.264,0.083-0.41,0.363-0.328,0.626c0.067,0.214,0.265,0.351,0.478,0.351C31.579,73.156,31.629,73.149,31.679,73.133z
	 M37.53,54.222c0.088-0.262-0.053-0.545-0.314-0.633l-5.366-1.805c-0.261-0.086-0.544,0.053-0.633,0.315
	c-0.088,0.262,0.053,0.545,0.314,0.633l5.366,1.805c0.053,0.018,0.106,0.026,0.159,0.026C37.266,54.563,37.46,54.431,37.53,54.222z
	 M95.258,73.474c0.176-0.523-0.106-1.091-0.63-1.267l-5.364-1.804c-0.522-0.177-1.09,0.106-1.267,0.629
	c-0.176,0.523,0.106,1.091,0.63,1.267l5.364,1.804c0.105,0.036,0.213,0.053,0.318,0.053C94.728,74.155,95.117,73.891,95.258,73.474z
	 M82.767,90.378c0.45-0.32,0.556-0.944,0.236-1.395l-3.277-4.613c-0.32-0.45-0.943-0.556-1.395-0.236
	c-0.45,0.32-0.556,0.944-0.236,1.395l3.277,4.613c0.195,0.274,0.503,0.421,0.816,0.421C82.389,90.563,82.591,90.503,82.767,90.378z
	 M63.739,95.721l0.057-5.657c0.006-0.553-0.438-1.005-0.99-1.01c-0.57-0.044-1.005,0.438-1.01,0.99l-0.057,5.657
	c-0.006,0.553,0.438,1.005,0.99,1.01c0.003,0,0.007,0,0.01,0C63.287,96.711,63.733,96.27,63.739,95.721z M44.191,89.851l3.372-4.542
	c0.329-0.443,0.236-1.07-0.207-1.399c-0.441-0.33-1.069-0.236-1.398,0.207l-3.372,4.542c-0.329,0.443-0.236,1.07,0.207,1.399
	c0.179,0.133,0.388,0.197,0.595,0.197C43.693,90.254,43.995,90.115,44.191,89.851z M31.828,73.61l5.396-1.692
	c0.527-0.165,0.82-0.726,0.655-1.253c-0.165-0.527-0.726-0.822-1.253-0.655l-5.396,1.692c-0.527,0.165-0.82,0.726-0.655,1.253
	c0.134,0.427,0.528,0.701,0.954,0.701C31.628,73.657,31.729,73.642,31.828,73.61z M38.001,54.381
	c0.176-0.523-0.106-1.091-0.63-1.267l-5.362-1.804c-0.521-0.175-1.09,0.106-1.267,0.629c-0.176,0.523,0.106,1.091,0.63,1.267
	l5.362,1.804c0.105,0.036,0.213,0.053,0.318,0.053C37.471,55.063,37.86,54.798,38.001,54.381z M47.667,41.276
	c0.45-0.32,0.556-0.944,0.236-1.394l-3.276-4.61c-0.32-0.45-0.943-0.555-1.395-0.236c-0.45,0.32-0.556,0.944-0.236,1.394l3.276,4.61
	c0.195,0.274,0.504,0.421,0.816,0.421C47.289,41.461,47.491,41.401,47.667,41.276z M64.202,35.369l0.059-5.657
	c0.006-0.552-0.438-1.004-0.989-1.01c-0.004,0-0.008,0-0.011,0c-0.548,0-0.994,0.441-1,0.99l-0.059,5.657
	c-0.006,0.552,0.438,1.004,0.989,1.01c0.004,0,0.008,0,0.011,0C63.75,36.358,64.196,35.917,64.202,35.369z M80.04,41.296
	l3.374-4.542c0.329-0.443,0.237-1.07-0.206-1.399c-0.444-0.33-1.07-0.236-1.399,0.207l-3.374,4.542
	c-0.329,0.443-0.237,1.07,0.206,1.399c0.18,0.133,0.389,0.197,0.596,0.197C79.542,41.7,79.844,41.561,80.04,41.296z M89.369,55.402
	l5.4-1.692c0.527-0.165,0.82-0.726,0.655-1.253s-0.725-0.823-1.253-0.655l-5.4,1.692c-0.527,0.165-0.82,0.726-0.655,1.253
	c0.134,0.428,0.528,0.702,0.954,0.702C89.169,55.449,89.27,55.434,89.369,55.402z M95.258,73.474
	c0.176-0.523-0.106-1.091-0.63-1.267l-5.364-1.804c-0.522-0.177-1.09,0.106-1.267,0.629c-0.176,0.523,0.106,1.091,0.63,1.267
	l5.364,1.804c0.105,0.036,0.213,0.053,0.318,0.053C94.728,74.155,95.117,73.891,95.258,73.474z M82.767,90.378
	c0.45-0.32,0.556-0.944,0.236-1.394l-3.278-4.613c-0.32-0.449-0.943-0.555-1.395-0.236c-0.45,0.32-0.556,0.944-0.236,1.394
	l3.278,4.613c0.195,0.274,0.504,0.421,0.816,0.421C82.389,90.563,82.591,90.503,82.767,90.378z M63.739,95.721l0.058-5.659
	c0.006-0.552-0.438-1.004-0.99-1.01c-0.571-0.042-1.005,0.438-1.01,0.99l-0.058,5.659c-0.006,0.552,0.438,1.004,0.99,1.01
	c0.003,0,0.007,0,0.01,0C63.287,96.711,63.733,96.27,63.739,95.721z M44.191,89.851l3.373-4.544c0.329-0.444,0.236-1.07-0.207-1.399
	c-0.441-0.329-1.069-0.236-1.398,0.207l-3.373,4.544c-0.329,0.444-0.236,1.07,0.207,1.399c0.179,0.133,0.388,0.197,0.595,0.197
	C43.693,90.254,43.995,90.115,44.191,89.851z M31.828,73.61l5.4-1.692c0.527-0.165,0.82-0.726,0.655-1.253s-0.724-0.822-1.253-0.655
	l-5.4,1.692c-0.527,0.165-0.82,0.726-0.655,1.253c0.134,0.428,0.528,0.702,0.954,0.702C31.628,73.657,31.729,73.642,31.828,73.61z
	 M38.005,54.382c0.176-0.523-0.106-1.091-0.63-1.267l-5.366-1.805c-0.521-0.175-1.09,0.106-1.267,0.629
	c-0.176,0.523,0.106,1.091,0.63,1.267l5.366,1.805c0.105,0.036,0.213,0.053,0.318,0.053C37.475,55.063,37.864,54.799,38.005,54.382z
	 M86.747,95.881c0.225-0.16,0.277-0.473,0.117-0.697l-4.009-5.627c-0.16-0.226-0.473-0.277-0.697-0.117
	c-0.225,0.16-0.277,0.473-0.117,0.697l4.009,5.627c0.098,0.137,0.251,0.21,0.407,0.21C86.558,95.974,86.659,95.943,86.747,95.881z
	 M63.216,103.008l0.068-6.909c0.003-0.276-0.219-0.502-0.495-0.505c-0.002,0-0.003,0-0.005,0c-0.274,0-0.497,0.221-0.5,0.495
	l-0.068,6.909c-0.003,0.276,0.219,0.502,0.495,0.505c0.002,0,0.003,0,0.005,0C62.99,103.503,63.213,103.283,63.216,103.008z
	 M39.489,95.438l4.109-5.55c0.165-0.222,0.118-0.535-0.104-0.699c-0.222-0.163-0.535-0.119-0.699,0.104l-4.109,5.55
	c-0.165,0.222-0.118,0.535,0.104,0.699c0.09,0.066,0.194,0.098,0.298,0.098C39.24,95.64,39.392,95.57,39.489,95.438z M24.738,75.367
	l6.59-2.072c0.263-0.083,0.409-0.364,0.326-0.627c-0.082-0.263-0.357-0.409-0.627-0.327l-6.59,2.072
	c-0.263,0.083-0.409,0.364-0.326,0.627c0.066,0.213,0.264,0.35,0.477,0.35C24.638,75.39,24.688,75.382,24.738,75.367z
	 M31.784,52.339c0.088-0.262-0.053-0.545-0.314-0.633l-6.547-2.195c-0.26-0.086-0.546,0.054-0.633,0.315
	c-0.088,0.262,0.053,0.545,0.314,0.633l6.547,2.195c0.053,0.018,0.106,0.026,0.159,0.026C31.52,52.68,31.715,52.548,31.784,52.339z
	 M43.84,35.972c0.225-0.16,0.277-0.472,0.117-0.697l-4.006-5.626c-0.16-0.226-0.473-0.277-0.697-0.117
	c-0.225,0.16-0.277,0.472-0.117,0.697l4.006,5.626c0.098,0.137,0.251,0.21,0.407,0.21C43.65,36.064,43.752,36.034,43.84,35.972z
	 M63.716,29.32l0.066-6.906c0.003-0.276-0.219-0.502-0.495-0.505c-0.288-0.014-0.502,0.219-0.505,0.495l-0.066,6.906
	c-0.003,0.276,0.219,0.502,0.495,0.505c0.002,0,0.003,0,0.005,0C63.49,29.815,63.713,29.594,63.716,29.32z M83.204,36.118
	l4.111-5.549c0.165-0.222,0.118-0.535-0.104-0.7c-0.221-0.164-0.535-0.118-0.699,0.104l-4.111,5.549
	c-0.165,0.222-0.118,0.535,0.104,0.7c0.09,0.066,0.194,0.098,0.298,0.098C82.955,36.32,83.106,36.25,83.204,36.118z M94.972,53.07
	l6.59-2.071c0.264-0.083,0.41-0.363,0.327-0.627c-0.082-0.263-0.362-0.409-0.626-0.327l-6.59,2.071
	c-0.264,0.083-0.41,0.363-0.327,0.627c0.066,0.213,0.264,0.35,0.477,0.35C94.872,53.093,94.922,53.086,94.972,53.07z
	 M101.711,75.587c0.088-0.262-0.053-0.545-0.314-0.633l-6.549-2.198c-0.26-0.086-0.546,0.054-0.633,0.315
	c-0.088,0.262,0.053,0.545,0.314,0.633l6.549,2.198c0.053,0.018,0.106,0.026,0.159,0.026
	C101.446,75.928,101.642,75.796,101.711,75.587z M86.747,95.881c0.225-0.16,0.277-0.473,0.117-0.697l-4.009-5.627
	c-0.16-0.226-0.473-0.277-0.697-0.117c-0.225,0.16-0.277,0.473-0.117,0.697l4.009,5.627c0.098,0.137,0.251,0.21,0.407,0.21
	C86.558,95.974,86.659,95.943,86.747,95.881z M63.216,103.008l0.066-6.91c0.003-0.276-0.219-0.502-0.495-0.505
	c-0.002,0-0.003,0-0.005,0c-0.274,0-0.497,0.221-0.5,0.495l-0.066,6.91c-0.003,0.276,0.219,0.502,0.495,0.505
	c0.002,0,0.003,0,0.005,0C62.99,103.503,63.213,103.283,63.216,103.008z M39.489,95.438l4.112-5.551
	c0.165-0.222,0.118-0.535-0.104-0.7c-0.222-0.164-0.535-0.118-0.699,0.104l-4.112,5.551c-0.165,0.222-0.118,0.535,0.104,0.7
	c0.09,0.066,0.194,0.098,0.298,0.098C39.24,95.64,39.392,95.57,39.489,95.438z M24.738,75.367l6.592-2.073
	c0.263-0.083,0.409-0.364,0.326-0.627c-0.082-0.264-0.362-0.408-0.627-0.327l-6.592,2.073c-0.263,0.083-0.409,0.364-0.326,0.627
	c0.066,0.214,0.264,0.35,0.477,0.35C24.638,75.39,24.688,75.382,24.738,75.367z M31.788,52.341c0.088-0.262-0.053-0.545-0.314-0.633
	l-6.551-2.198c-0.26-0.086-0.546,0.054-0.633,0.315c-0.088,0.262,0.053,0.545,0.314,0.633l6.551,2.198
	c0.053,0.018,0.106,0.026,0.159,0.026C31.523,52.682,31.719,52.55,31.788,52.341z M43.843,35.975
	c0.225-0.16,0.277-0.472,0.117-0.697l-4.009-5.629c-0.16-0.226-0.473-0.277-0.697-0.117c-0.225,0.16-0.277,0.472-0.117,0.697
	l4.009,5.629c0.098,0.137,0.251,0.21,0.407,0.21C43.653,36.068,43.755,36.038,43.843,35.975z M50.102,58.328
	c0.096-0.259-0.037-0.546-0.296-0.642l-1.365-0.503c-0.255-0.095-0.546,0.037-0.642,0.296s0.037,0.546,0.296,0.642l1.365,0.503
	c0.057,0.021,0.115,0.031,0.173,0.031C49.836,58.655,50.027,58.53,50.102,58.328z M52.377,54.182
	c0.178-0.211,0.152-0.526-0.059-0.705l-1.11-0.94c-0.209-0.178-0.524-0.152-0.705,0.058c-0.178,0.211-0.152,0.526,0.059,0.705
	l1.11,0.94c0.094,0.08,0.209,0.119,0.323,0.119C52.137,54.358,52.277,54.298,52.377,54.182z M55.934,51.062
	c0.239-0.137,0.323-0.442,0.187-0.682l-0.721-1.264c-0.138-0.241-0.443-0.324-0.683-0.187c-0.239,0.137-0.323,0.442-0.187,0.682
	l0.721,1.264c0.093,0.162,0.262,0.252,0.435,0.252C55.77,51.128,55.855,51.107,55.934,51.062z M60.343,49.347
	c0.271-0.046,0.454-0.305,0.408-0.577l-0.246-1.434c-0.047-0.272-0.305-0.457-0.578-0.408c-0.271,0.046-0.454,0.305-0.408,0.577
	l0.246,1.434c0.042,0.244,0.254,0.416,0.492,0.416C60.285,49.354,60.313,49.352,60.343,49.347z M65.652,48.841l0.26-1.431
	c0.049-0.272-0.131-0.532-0.403-0.582c-0.262-0.047-0.532,0.13-0.581,0.403l-0.26,1.431c-0.049,0.272,0.131,0.532,0.403,0.582
	c0.029,0.005,0.06,0.008,0.09,0.008C65.397,49.252,65.608,49.083,65.652,48.841z M70.234,50.584l0.732-1.255
	c0.14-0.238,0.059-0.544-0.18-0.684c-0.238-0.14-0.545-0.059-0.684,0.18l-0.732,1.255c-0.14,0.238-0.059,0.544,0.18,0.684
	c0.079,0.046,0.166,0.068,0.252,0.068C69.975,50.832,70.142,50.743,70.234,50.584z M73.945,53.791l1.117-0.931
	c0.212-0.177,0.24-0.492,0.063-0.704c-0.178-0.214-0.492-0.24-0.704-0.064l-1.117,0.931c-0.212,0.177-0.24,0.492-0.063,0.704
	c0.099,0.119,0.241,0.18,0.384,0.18C73.738,53.906,73.852,53.868,73.945,53.791z M76.335,58.072l1.367-0.492
	c0.26-0.093,0.396-0.38,0.302-0.64c-0.093-0.26-0.382-0.395-0.64-0.301l-1.367,0.492c-0.26,0.093-0.396,0.38-0.302,0.64
	c0.073,0.204,0.266,0.331,0.471,0.331C76.223,58.102,76.279,58.092,76.335,58.072z M79.072,62.42
	c0.001-0.276-0.222-0.501-0.498-0.502l-1.455-0.006c-0.001,0-0.001,0-0.001,0c-0.276,0-0.5,0.223-0.501,0.498
	c-0.001,0.276,0.222,0.501,0.498,0.502l1.455,0.006c0.001,0,0.001,0,0.001,0C78.848,62.918,79.071,62.695,79.072,62.42z
	 M78.199,67.934c0.096-0.259-0.037-0.547-0.296-0.642L76.54,66.79c-0.256-0.094-0.546,0.037-0.642,0.296
	c-0.096,0.259,0.037,0.547,0.296,0.642l1.363,0.502c0.057,0.021,0.115,0.031,0.173,0.031C77.934,68.261,78.125,68.136,78.199,67.934
	z M75.495,72.818c0.178-0.21,0.152-0.526-0.059-0.705l-1.109-0.94c-0.209-0.178-0.524-0.152-0.705,0.058
	c-0.178,0.21-0.152,0.526,0.059,0.705l1.109,0.94c0.094,0.08,0.209,0.119,0.323,0.119C75.255,72.995,75.396,72.935,75.495,72.818z
	 M71.283,76.481c0.239-0.137,0.323-0.442,0.187-0.682l-0.721-1.262c-0.139-0.242-0.446-0.322-0.683-0.186
	c-0.239,0.137-0.323,0.442-0.187,0.682l0.721,1.262c0.093,0.162,0.262,0.252,0.435,0.252C71.12,76.547,71.205,76.526,71.283,76.481z
	 M66.073,78.484c0.271-0.047,0.454-0.305,0.408-0.577l-0.246-1.433c-0.047-0.272-0.303-0.457-0.578-0.408
	c-0.271,0.047-0.454,0.305-0.408,0.577l0.246,1.433c0.042,0.244,0.254,0.416,0.492,0.416C66.016,78.491,66.044,78.489,66.073,78.484
	z M61.072,78.181l0.258-1.431c0.049-0.272-0.132-0.532-0.403-0.581c-0.269-0.047-0.531,0.131-0.581,0.403l-0.258,1.431
	c-0.049,0.272,0.132,0.532,0.403,0.581c0.03,0.005,0.06,0.008,0.09,0.008C60.818,78.592,61.028,78.422,61.072,78.181z
	 M55.896,76.588l0.731-1.255c0.14-0.239,0.059-0.545-0.18-0.684c-0.238-0.138-0.545-0.059-0.684,0.18l-0.731,1.255
	c-0.14,0.239-0.059,0.545,0.18,0.684c0.079,0.046,0.166,0.068,0.252,0.068C55.637,76.836,55.804,76.747,55.896,76.588z
	 M51.577,73.321l1.118-0.93c0.212-0.177,0.24-0.492,0.064-0.704c-0.178-0.212-0.493-0.24-0.704-0.064l-1.118,0.93
	c-0.212,0.177-0.24,0.492-0.064,0.704c0.1,0.119,0.241,0.18,0.385,0.18C51.371,73.437,51.484,73.398,51.577,73.321z M48.636,68.773
	l1.368-0.491c0.26-0.093,0.395-0.38,0.302-0.64c-0.093-0.259-0.377-0.394-0.64-0.302l-1.368,0.491
	c-0.26,0.093-0.395,0.38-0.302,0.64c0.073,0.204,0.266,0.331,0.471,0.331C48.522,68.803,48.58,68.793,48.636,68.773z M49.383,63.003
	c0.001-0.276-0.222-0.501-0.498-0.502l-1.453-0.006c0,0-0.001,0-0.002,0c-0.275,0-0.499,0.223-0.5,0.498
	c-0.001,0.276,0.222,0.501,0.498,0.502l1.453,0.006c0,0,0.001,0,0.002,0C49.158,63.501,49.382,63.278,49.383,63.003z M67.734,63
	c0-4.423-2.079-7.888-4.734-7.888S58.266,58.577,58.266,63s2.079,7.888,4.734,7.888S67.734,67.423,67.734,63z M66.734,63
	c0,3.733-1.71,6.888-3.734,6.888S59.266,66.733,59.266,63s1.71-6.888,3.734-6.888S66.734,59.267,66.734,63z M70.888,63
	c0-2.518-3.465-4.491-7.888-4.491S55.112,60.482,55.112,63s3.465,4.491,7.888,4.491S70.888,65.518,70.888,63z M69.888,63
	c0,1.892-3.154,3.491-6.888,3.491S56.112,64.892,56.112,63s3.154-3.491,6.888-3.491S69.888,61.108,69.888,63z"/>
</svg>
