<?xml version="1.0" encoding="UTF-8" standalone="no"?>
<!-- Generator: Adobe Illustrator 19.0.0, SVG Export Plug-In . SVG Version: 6.00 Build 0)  -->

<svg
   xmlns:dc="http://purl.org/dc/elements/1.1/"
   xmlns:cc="http://creativecommons.org/ns#"
   xmlns:rdf="http://www.w3.org/1999/02/22-rdf-syntax-ns#"
   xmlns:svg="http://www.w3.org/2000/svg"
   xmlns="http://www.w3.org/2000/svg"
   xmlns:sodipodi="http://sodipodi.sourceforge.net/DTD/sodipodi-0.dtd"
   xmlns:inkscape="http://www.inkscape.org/namespaces/inkscape"
   version="1.1"
   id="Layer_1"
   x="0px"
   y="0px"
   viewBox="0 0 512 512"
   style="enable-background:new 0 0 512 512;"
   xml:space="preserve"
   sodipodi:docname="photo_camera_1203855_easyicon.net.svg"
   inkscape:version="0.92.0 r"><metadata
     id="metadata73"><rdf:RDF><cc:Work
         rdf:about=""><dc:format>image/svg+xml</dc:format><dc:type
           rdf:resource="http://purl.org/dc/dcmitype/StillImage" /></cc:Work></rdf:RDF></metadata><defs
     id="defs71" /><sodipodi:namedview
     pagecolor="#ffffff"
     bordercolor="#666666"
     borderopacity="1"
     objecttolerance="10"
     gridtolerance="10"
     guidetolerance="10"
     inkscape:pageopacity="0"
     inkscape:pageshadow="2"
     inkscape:window-width="2160"
     inkscape:window-height="1390"
     id="namedview69"
     showgrid="false"
     inkscape:zoom="1.9841919"
     inkscape:cx="224.75302"
     inkscape:cy="215.68132"
     inkscape:window-x="0"
     inkscape:window-y="50"
     inkscape:window-maximized="1"
     inkscape:current-layer="Layer_1" /><g
     id="g6"
     style="fill:#212121;fill-opacity:1"><g
       id="g4"
       style="fill:#212121;fill-opacity:1"><path
         d="M501.801,122.39H146.869V87.713c0-5.633-4.567-10.199-10.199-10.199H48.956c-5.632,0-10.199,4.566-10.199,10.199v34.677    H10.199C4.567,122.39,0,126.957,0,132.59v291.697c0,5.633,4.567,10.199,10.199,10.199h491.602c5.632,0,10.199-4.566,10.199-10.199    V132.59C512,126.957,507.433,122.39,501.801,122.39z M59.155,97.912h67.315v24.478H59.155V97.912z M491.602,414.088H20.398    V142.789h471.203V414.088z"
         id="path2"
         style="fill:#212121;fill-opacity:1" /></g></g><g
     id="g12"
     style="fill:#212121;fill-opacity:1"><g
       id="g10"
       style="fill:#212121;fill-opacity:1"><path
         d="M256,158.088c-66.361,0-120.351,53.99-120.351,120.351S189.639,398.789,256,398.789s120.351-53.99,120.351-120.351    S322.361,158.088,256,158.088z M256,378.39c-55.113,0-99.952-44.838-99.952-99.952c0-55.114,44.839-99.952,99.952-99.952    s99.952,44.838,99.952,99.952C355.952,333.553,311.113,378.39,256,378.39z"
         id="path8"
         style="fill:#212121;fill-opacity:1" /></g></g><g
     id="g18"
     style="fill:#212121;fill-opacity:1"><g
       id="g16"
       style="fill:#212121;fill-opacity:1"><path
         d="M256,189.705c-48.928,0-88.733,39.805-88.733,88.733s39.805,88.733,88.733,88.733s88.733-39.805,88.733-88.733    C344.733,229.511,304.928,189.705,256,189.705z M256,346.773c-37.68,0-68.335-30.655-68.335-68.335S218.32,210.104,256,210.104    s68.335,30.655,68.335,68.335S293.68,346.773,256,346.773z"
         id="path14"
         style="fill:#212121;fill-opacity:1" /></g></g><g
     id="g24"
     style="fill:#212121;fill-opacity:1"><g
       id="g22"
       style="fill:#212121;fill-opacity:1"><path
         d="M467.124,159.108H390.63c-5.632,0-10.199,4.566-10.199,10.199v39.777c0,5.633,4.567,10.199,10.199,10.199h76.494    c5.632,0,10.199-4.566,10.199-10.199v-39.777C477.323,163.674,472.755,159.108,467.124,159.108z M456.924,198.884h-56.096v-19.378    h56.096V198.884z"
         id="path20"
         style="fill:#212121;fill-opacity:1" /></g></g><g
     id="g30"
     style="fill:#212121;fill-opacity:1"><g
       id="g28"
       style="fill:#212121;fill-opacity:1"><path
         d="M49.976,166.247c-5.632,0-10.199,4.566-10.199,10.199v146.869c0,5.633,4.567,10.199,10.199,10.199    c5.632,0,10.199-4.566,10.199-10.199V176.446C60.175,170.813,55.608,166.247,49.976,166.247z"
         id="path26"
         style="fill:#212121;fill-opacity:1" /></g></g><g
     id="g36"
     style="fill:#212121;fill-opacity:1"><g
       id="g34"
       style="fill:#212121;fill-opacity:1"><path
         d="M49.976,351.872c-5.632,0-10.199,4.566-10.199,10.199v12.239c0,5.633,4.567,10.199,10.199,10.199    c5.632,0,10.199-4.566,10.199-10.199v-12.239C60.175,356.439,55.608,351.872,49.976,351.872z"
         id="path32"
         style="fill:#212121;fill-opacity:1" /></g></g><g
     id="g38"
     style="fill:#212121;fill-opacity:1" /><g
     id="g40"
     style="fill:#212121;fill-opacity:1" /><g
     id="g42"
     style="fill:#212121;fill-opacity:1" /><g
     id="g44"
     style="fill:#212121;fill-opacity:1" /><g
     id="g46"
     style="fill:#212121;fill-opacity:1" /><g
     id="g48"
     style="fill:#212121;fill-opacity:1" /><g
     id="g50"
     style="fill:#212121;fill-opacity:1" /><g
     id="g52"
     style="fill:#212121;fill-opacity:1" /><g
     id="g54"
     style="fill:#212121;fill-opacity:1" /><g
     id="g56"
     style="fill:#212121;fill-opacity:1" /><g
     id="g58"
     style="fill:#212121;fill-opacity:1" /><g
     id="g60"
     style="fill:#212121;fill-opacity:1" /><g
     id="g62"
     style="fill:#212121;fill-opacity:1" /><g
     id="g64"
     style="fill:#212121;fill-opacity:1" /><g
     id="g66"
     style="fill:#212121;fill-opacity:1" /></svg>