<?xml version="1.0" encoding="UTF-8" standalone="no"?>
<!-- Created with Inkscape (http://www.inkscape.org/) -->

<svg
   xmlns:dc="http://purl.org/dc/elements/1.1/"
   xmlns:cc="http://creativecommons.org/ns#"
   xmlns:rdf="http://www.w3.org/1999/02/22-rdf-syntax-ns#"
   xmlns:svg="http://www.w3.org/2000/svg"
   xmlns="http://www.w3.org/2000/svg"
   xmlns:sodipodi="http://sodipodi.sourceforge.net/DTD/sodipodi-0.dtd"
   xmlns:inkscape="http://www.inkscape.org/namespaces/inkscape"
   width="1024"
   height="1024"
   viewBox="0 0 1024 1024"
   id="svg4542"
   version="1.1"
   inkscape:version="0.91 r13725"
   sodipodi:docname="sjy.svg">
  <defs
     id="defs4544" />
  <sodipodi:namedview
     id="base"
     pagecolor="#ffffff"
     bordercolor="#666666"
     borderopacity="1.0"
     inkscape:pageopacity="0.0"
     inkscape:pageshadow="2"
     inkscape:zoom="0.7"
     inkscape:cx="579.80589"
     inkscape:cy="451.28982"
     inkscape:document-units="px"
     inkscape:current-layer="layer1"
     showgrid="false"
     units="px"
     inkscape:window-width="2160"
     inkscape:window-height="1380"
     inkscape:window-x="0"
     inkscape:window-y="60"
     inkscape:window-maximized="1" />
  <metadata
     id="metadata4547">
    <rdf:RDF>
      <cc:Work
         rdf:about="">
        <dc:format>image/svg+xml</dc:format>
        <dc:type
           rdf:resource="http://purl.org/dc/dcmitype/StillImage" />
        <dc:title />
      </cc:Work>
    </rdf:RDF>
  </metadata>
  <g
     inkscape:label="Layer 1"
     inkscape:groupmode="layer"
     id="layer1"
     transform="translate(0,-28.362139)">
    <path
       id="path4317"
       d="m 649.9276,526.84557 c 44.00519,-16.24297 86.19573,-36.96105 130.04953,-53.58694 18.0261,-6.83554 34.772,-16.80879 52.4381,-24.50162 9.4075,-4.0979 19.1378,-6.67837 28.6481,-10.33904 10.2448,-3.94072 19.6122,-9.8075 29.7712,-13.94254 7.7586,-3.16058 13.934,-4.99519 22.3955,-5.53244 10.9935,-0.70013 21.5725,-0.40579 32.2945,2.40615 11.1849,2.93197 22.2155,5.52387 31.5886,12.49942 4.1094,3.0577 9.1874,4.70087 12.9767,8.24437 2.1747,2.03466 4.9695,12.79662 8.513,10.98486 2.72037,-1.39454 3.31197,-6.74694 1.61167,-8.81018 -1.80887,-2.19754 -5.65817,-2.48902 -7.99857,-3.93786 -3.192,-1.97751 -13.5511,-6.9127 -13.1453,-11.71356 0.3658,-4.29507 9.4103,-3.56065 12.6538,-3.99216 8.19,-1.1002 19.21777,-1.9575 26.87617,-5.11237 3.355,-1.38311 8.0073,-6.35258 3.595,-9.83608 -4.1807,-3.3006 -7.147,3.94357 -10.039,5.9068 -4.6094,3.12628 -12.73937,3.54064 -17.98317,4.40652 -6.1297,1.01161 -12.0251,2.02323 -18.169,3.02054 -5.8125,0.94018 -11.7993,-1.11162 -17.6433,-2.33471 -8.1643,-1.71174 -15.7486,-4.33221 -23.4643,-7.38992 3.2149,-5.80391 13.071,-5.90108 18.9092,-7.18417 10.6734,-2.349 20.7724,-8.42726 31.6201,-11.79359 5.3238,-1.65459 11.3506,-5.06092 16.97157,-5.46385 2.4376,-0.17432 4.5408,1.00018 6.9499,0.94874 5.6353,-0.12002 5.4524,-6.52978 11.0077,-7.33278 -2.6663,1.0059 -5.801,2.89768 -8.2301,3.65496 -1.9175,0.59725 -3.1805,-0.27149 -5.1952,-0.38008 -5.0324,-0.26576 -10.75337,1.77461 -15.55707,3.42064 0.1086,-1.24879 -0.01,-2.8291 -0.5001,-3.82643 -2.1775,0.89731 -3.252,3.032 -5.0095,4.47227 -2.3604,1.9375 -5.501,3.25202 -8.3272,4.1779 -3.7207,1.22023 -9.4418,2.90053 -13.4682,2.21755 -1.7518,-0.2972 4.9809,-5.0152 5.3267,-5.2181 3.7864,-2.20326 7.5099,-4.52084 11.2763,-6.75267 4.2665,-2.52904 8.153,-4.71801 12.9424,-5.53816 2.7919,-0.47723 7.68987,-1.63173 5.481,-6.04111 -4.6437,-9.26169 -15.5028,4.60084 -19.3835,6.98985 -6.0783,3.74355 -12.0823,7.38421 -18.4691,10.62482 -2.5405,1.2888 -25.1561,14.03114 -26.3048,11.93647 -1.3146,-2.39472 0.051,-6.12112 0.4829,-8.68731 0.8287,-4.88946 1.1345,-10.49907 3.4835,-14.93131 3.1777,-5.99253 9.8646,-10.17901 15.8429,-12.97952 2.629,-1.23166 8.3644,-3.41492 5.2152,-7.40993 -2.4061,-3.05484 -5.8353,-0.50009 -7.0756,1.52313 -0.8087,1.3231 -0.6401,3.09486 -1.8946,4.60371 -1.3602,1.63173 -3.5835,2.85195 -5.2381,4.16362 -2.7033,2.13753 -6.1611,5.70675 -8.9588,2.32328 -2.5461,-3.07485 -1.8975,-14.96274 -0.6658,-18.40051 0.8001,-2.23469 2.4862,-2.6462 2.8862,-4.72086 0.383,-1.99466 -1.2488,-4.22078 -3.3406,-4.20934 -5.7067,0.0343 -3.9664,8.01861 -3.5749,11.25348 0.8258,6.78696 0.5229,13.92255 0.4401,20.8181 -0.077,6.40974 0.1086,13.38818 -2.7891,19.22639 -2.9205,5.88393 -9.8447,12.40513 -16.6173,13.66821 -11.7565,2.19183 -15.6915,-11.02201 -13.4425,-19.5893 3.0148,-11.49068 9.0245,-22.20693 12.0193,-33.76333 1.0802,-4.16648 2.4519,-8.49584 4.0722,-12.49371 1.4717,-3.62639 4.4408,-5.70677 0.5516,-8.67588 -4.0294,-3.08057 -6.2498,-0.90304 -5.6525,3.22631 0.7401,5.10664 1.386,9.52459 0.034,14.80842 -2.0318,7.96431 -6.4298,16.66019 -10.0761,24.04725 -5.1324,10.39048 -8.2787,22.73561 -16.1287,31.55436 -7.3928,8.31009 -20.2551,14.6284 -30.0798,19.77219 -22.507,11.78215 -46.8257,19.46069 -70.0671,29.58826 -81.83497,35.66652 -163.18128,71.03299 -247.08519,102.08152 -25.93046,9.59604 -51.70946,20.41516 -77.98284,29.00245 -19.52642,6.38116 -35.88942,12.59373 -55.3787,1.38597 -5.55816,-3.19487 -7.42135,-8.47298 -16.43443,-4.27507 -4.91519,2.29184 -10.07613,12.97952 -15.71716,10.88771 -13.45389,-4.99806 8.51298,-27.81366 16.82307,-28.43092 14.817,-1.09734 22.17549,16.26011 38.46419,14.04543 -8.3101,-4.56655 -21.50965,-4.76945 -8.45299,-13.97114 8.58444,-6.04967 18.03759,-3.07484 27.14211,-5.71533 16.76307,-4.86088 29.49969,-25.8933 49.57765,-31.46859 -15.47712,1.90606 -22.90419,5.9525 -35.28932,15.78858 -4.34365,3.44921 -8.86733,7.16417 -13.90254,9.20455 -4.5094,1.82605 -12.42513,1.24594 -15.76859,4.5494 -1.82606,-6.26972 1.84604,-13.43674 1.1602,-20.50089 -7.08986,10.81054 -6.98128,24.27301 -22.92991,25.3132 -6.244,0.40865 -12.508,-3.64638 -18.57482,-3.99502 -5.45243,-0.31434 -10.05041,1.42884 -15.49998,1.00304 -0.92874,-17.66608 9.00451,-19.62073 16.46588,-33.75187 -4.96378,4.98091 -12.95952,9.56459 -16.78879,15.28564 -4.16648,6.22686 -1.86891,13.70536 -3.82641,20.06366 -2.1947,7.11274 -13.55106,18.41481 -21.79828,16.97169 -11.02487,-1.92893 -10.65052,-23.81294 -12.20223,-32.75457 -8.36725,-48.24595 -12.56515,-99.61821 -14.93416,-148.52143 -1.61744,-33.41184 -0.82301,-66.78653 -0.5744,-100.18121 0.36293,-49.26615 -10.69052,-100.79845 6.68123,-148.11282 1.21165,-3.3006 2.39758,-6.60977 3.5978,-9.91895 3.11486,-8.58729 6.30116,-17.16028 10.06755,-25.48467 1.86607,-4.12361 3.87214,-8.18435 6.10112,-12.12507 1.0802,-1.91464 2.21755,-3.79783 3.41491,-5.64388 0.49437,-0.763 0.78872,-1.50599 1.1745,-2.31184 0.25719,-0.5344 2.02037,-2.06896 2.02037,-2.06896 l -7.85572,-0.0829 c 0,0 -6.28686,9.40457 -8.88162,14.39119 -4.13505,7.94431 -7.70141,16.16867 -11.8136,24.12442 -5.87821,-5.51529 -5.06378,-15.95435 -6.8241,-23.73863 -0.32292,10.92771 3.67496,21.13529 2.85195,31.02853 -0.41436,4.95805 -5.91822,33.46326 -10.00183,33.03461 -0.11716,-0.0114 -0.22862,-0.04 -0.3372,-0.0772 -1.12307,-0.39721 -1.72603,-1.8632 -2.13182,-2.86624 -0.81158,-2.00322 -1.27167,-4.1579 -1.67459,-6.27256 -1.20593,-6.33546 -1.72889,-12.80807 -2.15469,-19.23496 -0.48866,-7.40993 -0.74298,-14.83699 -0.85444,-22.26121 -0.0257,-1.7346 -0.0457,-3.47206 -0.0543,-5.20952 -0.0171,-3.50921 -0.77443,-6.92127 -1.0802,-10.42191 -0.13145,-1.50885 -0.37721,-3.01198 -0.53724,-4.52082 -0.11145,-1.03734 -0.28863,-2.06608 -0.40865,-3.09771 -0.18864,-1.60886 -0.0515,-3.25773 -0.16578,-4.88089 -1.84605,0.0772 -3.62066,-0.0343 -5.47814,0.0829 -0.15718,2.43473 -0.10859,4.89519 0.12573,7.32705 0.12002,1.25738 0.30006,2.49474 0.49723,3.74354 0.39151,2.51188 0.58583,4.96377 1.2088,7.42993 0.71727,2.8348 1.45169,5.6639 2.07752,8.52156 1.49456,6.84696 2.8691,14.98845 -0.783,21.41535 -7.13273,-2.87767 -10.31903,-12.33654 -11.27634,-19.61217 -8.8702,-2.48331 -13.14812,-14.14258 -19.4007,-20.21512 -7.76999,-7.54423 -10.38762,-7.16987 -4.70657,2.74908 10.19329,17.80325 26.1362,29.96833 31.46289,51.47512 6.76124,27.29642 2.70049,58.98507 1.43455,86.91877 -1.68888,37.23824 3.74068,75.49952 4.57512,112.75777 0.62012,27.65935 -0.44007,55.30728 1.1345,82.95233 1.59172,27.93082 0.71156,54.0356 2.48617,82.06644 1.20879,19.07491 3.91786,54.47567 -16.7745,65.14334 -10.942,5.64103 -34.53489,-17.45177 -48.58603,-21.14959 -7.26989,-1.91463 -19.86648,-0.1486 -24.38731,-5.69819 -2.00893,-2.4633 -0.77156,-9.49316 -3.79211,-13.30242 -1.40312,-1.76605 -6.69266,-3.72355 -8.93593,-5.22667 -20.2237,-13.53676 -35.45506,-26.47341 -46.85715,-45.68264 -2.91195,17.29174 23.97296,32.27162 35.32933,41.61331 7.01557,5.77249 18.81201,11.35351 14.42264,22.56699 -3.85785,9.85609 -11.55354,4.84946 -19.75791,7.4385 -13.80824,4.3608 -28.52808,18.71771 -42.07055,25.43323 -17.75182,8.8016 -36.65813,19.5007 -55.753053,24.63593 -10.5305,2.83195 -23.20711,4.57512 -32.82887,1.47456 -11.77072,-3.79498 -20.7295,-10.11899 -33.53184,-11.57069 7.58996,3.75211 13.54248,5.90965 21.06385,8.24722 5.66389,1.76033 15.5257,2.73765 13.99399,11.2935 -8.8359,0.51441 -15.55999,11.14206 -21.21245,17.3632 C 24.012827,656.1978 12.876507,670.1232 -1.3215274e-4,681.49956 22.795467,661.87598 41.541747,631.51042 71.390067,626.21231 c 31.985853,-5.67532 58.227783,-30.8685 91.196673,-35.95801 1.78605,-5.00091 11.14204,-10.61337 14.63411,-4.10932 2.08896,3.88642 -10.48477,18.53482 -12.89093,21.46679 -9.41315,11.4678 -22.9842,27.28498 -38.34702,31.25142 -1.39453,0.36007 -6.25257,-1.04876 -9.08737,-0.23718 -7.66711,2.19183 -13.16526,8.9302 -20.806664,10.47334 9.224544,-0.74871 17.374604,-6.01253 26.742034,-7.16131 6.48405,-0.79443 17.04026,-4.74372 22.50411,-1.64602 9.34172,-10.20471 15.88005,-23.68147 27.53933,-31.07139 3.94072,7.93574 0.10574,19.27209 1.08305,26.99922 0.26863,2.12039 -1.96321,2.72622 -1.25165,5.74963 0.32292,1.37739 4.48368,3.99215 5.45528,5.6496 2.14897,3.67496 4.63228,7.1756 6.21257,10.92486 -11.37923,-15.13134 -4.08075,-25.81615 -7.24704,-42.32775 -2.44045,-12.7309 1.47455,-32.22303 12.47657,-38.89568 7.0813,-4.29507 19.15779,-7.46137 26.02476,-6.78696 4.10647,0.40579 7.4928,3.51207 11.50781,3.95501 4.21792,0.46866 5.6982,-3.04341 10.00756,-2.24041 15.39423,2.8691 31.19426,18.83488 42.28772,28.56809 -5.10951,12.46799 -33.25751,13.80823 -43.40222,6.82981 -7.91859,-5.44956 -14.85128,-12.43655 -22.67272,-17.32316 5.53816,6.53834 12.17081,12.40226 17.74611,18.77772 5.63817,6.44689 10.13041,7.29848 0,9.96754 -6.0011,1.58028 -17.94328,0.48008 -24.35875,-0.006 -5.85249,-0.44294 -12.06792,-3.3349 -15.14276,-6.20399 11.19062,9.5246 37.39541,14.14545 51.06647,10.67338 -1.82033,8.05004 -15.13133,8.92164 -9.57888,19.58073 0.823,0.18289 1.64887,0.3372 2.48045,0.46008 1.54885,0.23147 -13.6425,24.30444 -13.95684,25.03887 5.83536,-4.4551 11.71072,-11.7593 15.24851,-18.19476 2.55188,-4.65228 10.93341,-27.59933 15.59712,-14.69697 2.16611,5.99537 -5.60388,14.47979 -5.73533,20.54375 -0.08,3.66925 5.7439,8.95878 4.88089,12.80805 -1.82319,8.15579 -14.44835,5.61246 -20.09509,8.1815 -9.8218,4.46654 -14.76842,13.82253 -27.26785,13.28244 -5.55244,-0.24005 -10.52764,-3.33776 -16.7945,-2.89197 -8.61301,0.6144 -16.15153,4.78374 -25.00172,6.10112 -7.7157,1.14878 -18.56625,2.69478 -26.39626,0.75728 -6.06682,-1.50027 -9.45887,-5.64961 -15.5657,-5.18095 6.59264,9.40458 30.12837,10.63338 40.92463,9.43602 6.44689,-0.71441 13.07668,-4.54655 19.68646,-4.2865 7.45565,0.29434 7.82428,2.30327 14.1083,7.46136 -9.59034,8.8702 -13.231,23.44143 -23.72435,31.47148 -9.46173,7.24132 -24.43875,15.37995 -35.39504,21.53822 25.31034,-8.99879 42.81354,-20.69807 58.54214,-42.68209 7.61282,-10.64195 29.26535,-23.91294 42.48491,-20.85238 -2.05466,11.42494 6.48975,19.26924 5.7439,30.12836 1.45169,-8.54728 -6.18398,-12.77948 -4.2465,-21.06385 2.12897,-9.10452 17.02884,-20.98384 25.92475,-13.09954 5.06664,4.48939 2.63476,14.53409 1.25452,19.97508 -4.5637,17.98901 -17.12028,34.7835 -27.81938,49.54049 -20.1551,27.79365 -43.57081,52.61248 -66.23783,78.28289 -13.31386,15.07704 -25.02171,31.4286 -39.34147,45.59976 -9.25598,9.15882 -16.20011,27.45932 -28.39948,33.17465 -8.341534,3.90928 -16.217253,-1.68317 -24.418763,-1.09449 1.74318,11.17061 17.583219,14.30548 20.395159,25.15888 3.960734,15.34853 -5.72676,34.01194 -5.42385,49.53764 10.179014,-5.78391 8.573004,-19.25209 9.790374,-29.53969 1.58314,-13.37102 3.61209,-25.6847 10.21044,-37.47257 10.69624,-19.10921 27.33071,-32.12874 41.07608,-48.64032 32.51167,-39.06144 61.75416,-80.46044 95.49746,-118.49311 8.92734,-10.06183 18.09188,-21.22101 30.31126,-27.56789 9.98183,-5.18666 31.01424,-12.14508 40.36167,-3.22916 11.45637,10.92771 9.95896,38.36416 8.86447,52.30671 -2.66619,33.88334 -22.65271,83.75817 -1.35453,114.81813 8.09863,-13.63105 5.71248,-46.51421 6.5812,-62.61145 1.07163,-19.84648 1.65459,-39.18716 2.70907,-58.82504 2.25469,-41.9791 6.56406,-50.61211 43.50224,-23.57859 46.61996,34.12052 93.90861,87.06449 117.02712,139.67411 26.64773,0.58296 -5.80678,-34.45487 -11.9279,-42.43348 -19.39783,-25.2789 -39.93301,-50.14917 -60.6368,-74.36503 -11.27349,-13.18812 -55.8245,-47.13719 -50.06344,-67.23229 3.43206,-11.96504 27.74222,-9.87609 36.53239,-6.73552 8.1815,2.92339 11.91361,9.29885 16.363,16.20011 1.88034,2.91768 14.66554,17.13456 14.71412,18.80915 -0.40008,-13.17098 -24.00153,-30.6656 -8.3501,-39.52437 13.08239,-7.40421 25.06172,13.58534 40.99321,8.4987 -8.38153,-0.89731 -17.25459,-2.58905 -23.88436,-8.46727 -12.77663,-11.32492 -7.68713,-9.66462 -25.70471,-2.85766 -7.64711,2.8891 -15.78574,4.14361 -22.87275,-1.84891 -15.65144,-13.23957 6.03539,-15.17706 14.52265,-18.49195 12.82235,-5.00949 22.27551,-18.07188 36.94961,-18.33764 12.9338,-0.23433 19.68647,12.0422 31.11713,14.70554 7.93002,1.84606 25.36178,-0.44865 35.64081,-0.38293 -8.99023,0.67441 -21.03243,-3.10056 -29.60543,-5.74961 -8.33009,-2.56905 -12.22222,-8.36439 -19.85791,-11.67928 4.1579,-6.25258 17.2803,-7.03558 24.21871,-11.50497 8.70159,-5.60388 10.71054,-8.26722 21.4325,-8.21578 19.26638,0.0886 27.88224,1.48312 42.67351,-12.27939 -10.42761,4.77801 -17.99757,11.81073 -29.95976,10.92485 -8.53299,-0.63154 -18.44338,-7.34134 -27.39072,-3.3549 -10.90771,4.85804 -18.56339,15.40282 -30.79707,19.34926 -7.06129,2.27755 -18.33764,5.47528 -25.81614,6.25828 -0.0429,-10.68195 11.00487,-17.64608 9.85037,-29.03388 -7.6214,18.24905 -14.66268,28.97387 -32.99746,34.92639 -7.01558,2.27755 -11.91076,4.65514 -18.45195,1.67745 4.84374,-41.18182 63.06867,-50.17489 93.64855,-61.8256 50.72642,-19.31496 99.28673,-45.67979 150.47038,-64.5718 z"
       style="overflow:visible;fill:#3f51b5;fill-opacity:1"
       inkscape:connector-curvature="0" />
  </g>
</svg>
