<?xml version="1.0" encoding="UTF-8" standalone="no"?>
<svg
   xmlns:dc="http://purl.org/dc/elements/1.1/"
   xmlns:cc="http://creativecommons.org/ns#"
   xmlns:rdf="http://www.w3.org/1999/02/22-rdf-syntax-ns#"
   xmlns:svg="http://www.w3.org/2000/svg"
   xmlns="http://www.w3.org/2000/svg"
   xmlns:sodipodi="http://sodipodi.sourceforge.net/DTD/sodipodi-0.dtd"
   xmlns:inkscape="http://www.inkscape.org/namespaces/inkscape"
   version="1.1"
   id="Layer_1"
   x="0px"
   y="0px"
   width="250"
   height="250"
   viewBox="121 0 250 250"
   enable-background="new 121 0 754 703"
   xml:space="preserve"
   inkscape:version="0.91 r13725"
   sodipodi:docname="Heart_diagram_zh.svg"><metadata
     id="metadata437"><rdf:RDF><cc:Work
         rdf:about=""><dc:format>image/svg+xml</dc:format><dc:type
           rdf:resource="http://purl.org/dc/dcmitype/StillImage" /><dc:title></dc:title></cc:Work></rdf:RDF></metadata><defs
     id="defs435"><marker
       refY="3.8990364"
       refX="-1"
       viewBox="-1.0 -1.3763819204711736 16.23606797749979 10.550836550532098"
       markerHeight="10.550837"
       markerWidth="16.236069"
       orient="auto"
       markerUnits="userSpaceOnUse"
       id="ProcessOnMarker1015"><path
         d="M 12,3.8990364 0,7.7980727 0,0 Z"
         id="ProcessOnPath1016"
         inkscape:connector-curvature="0"
         style="fill:#323232;stroke:#323232;stroke-width:2" /></marker><marker
       refY="3.8990364"
       refX="-1"
       viewBox="-1.0 -1.3763819204711736 16.23606797749979 10.550836550532098"
       markerHeight="10.550837"
       markerWidth="16.236069"
       orient="auto"
       markerUnits="userSpaceOnUse"
       id="ProcessOnMarker1023"><path
         d="M 12,3.8990364 0,7.7980727 0,0 Z"
         id="ProcessOnPath1024"
         inkscape:connector-curvature="0"
         style="fill:#323232;stroke:#323232;stroke-width:2" /></marker><marker
       refY="3.8990364"
       refX="-1"
       viewBox="-1.0 -1.3763819204711736 16.23606797749979 10.550836550532098"
       markerHeight="10.550837"
       markerWidth="16.236069"
       orient="auto"
       markerUnits="userSpaceOnUse"
       id="ProcessOnMarker1031"><path
         d="M 12,3.8990364 0,7.7980727 0,0 Z"
         id="ProcessOnPath1032"
         inkscape:connector-curvature="0"
         style="fill:#323232;stroke:#323232;stroke-width:2" /></marker><sodipodi:namedview
       inkscape:window-width="1366"
       inkscape:pageopacity="0"
       inkscape:pageshadow="2"
       inkscape:window-height="706"
       inkscape:window-x="-8"
       inkscape:window-y="-8"
       inkscape:window-maximized="1"
       inkscape:current-layer="layer1"
       id="namedview600"
       objecttolerance="10"
       bordercolor="#666666"
       borderopacity="1"
       pagecolor="#ffffff"
       gridtolerance="10"
       guidetolerance="10"
       showgrid="false"
       inkscape:zoom="0.62813389"
       inkscape:cx="428.89664"
       inkscape:cy="354.12746" /><defs
       id="defs52"><inkscape:perspective
         inkscape:persp3d-origin="446.5 : 234.33333 : 1"
         id="perspective604"
         sodipodi:type="inkscape:persp3d"
         inkscape:vp_x="0 : 351.5 : 1"
         inkscape:vp_y="0 : 1000 : 0"
         inkscape:vp_z="893 : 351.5 : 1" /></defs><linearGradient
       gradientTransform="matrix(1.9,0,0,-1.9,-634.3912,408.2693)"
       y2="45.382801"
       x2="663.3609"
       y1="20.9727"
       x1="629.7207"
       gradientUnits="userSpaceOnUse"
       id="path3948_1_"><stop
         id="stop89"
         style="stop-color:#DD0008"
         offset="0" /><stop
         id="stop91"
         style="stop-color:#FA555B"
         offset="0.3952" /><stop
         id="stop93"
         style="stop-color:#F13E45"
         offset="0.5336" /><stop
         id="stop95"
         style="stop-color:#E60009"
         offset="1" /></linearGradient><radialGradient
       gradientUnits="userSpaceOnUse"
       gradientTransform="matrix(2.7112,0.4254,0.4201,-2.6775,-1361.5044,134.4707)"
       r="30.872999"
       cy="46.804699"
       cx="688.7998"
       id="path3897_1_"><stop
         id="stop100"
         style="stop-color:#000000"
         offset="0" /><stop
         id="stop102"
         style="stop-color:#060D11"
         offset="0.2585" /><stop
         id="stop104"
         style="stop-color:#192A35"
         offset="0.456" /><stop
         id="stop106"
         style="stop-color:#81C5EF"
         offset="1" /></radialGradient><linearGradient
       gradientTransform="matrix(1.9,0,0,-1.9,-634.3912,408.2693)"
       y2="-49.176201"
       x2="549.46997"
       y1="-53.216301"
       x1="522.96002"
       gradientUnits="userSpaceOnUse"
       id="path3834_1_"><stop
         id="stop110"
         style="stop-color:#116DAE"
         offset="0" /><stop
         id="stop112"
         style="stop-color:#1782CE"
         offset="0.3428" /><stop
         id="stop114"
         style="stop-color:#1066A3"
         offset="1" /></linearGradient><linearGradient
       gradientTransform="matrix(1.9,0,0,-1.9,-634.3912,408.2693)"
       y2="79.341103"
       x2="536.85999"
       y1="105.9707"
       x1="536.28998"
       gradientUnits="userSpaceOnUse"
       id="path3833_1_"><stop
         id="stop134"
         style="stop-color:#157BC2"
         offset="0" /><stop
         id="stop136"
         style="stop-color:#359EE8"
         offset="0.5" /><stop
         id="stop138"
         style="stop-color:#116199"
         offset="1" /></linearGradient><radialGradient
       gradientUnits="userSpaceOnUse"
       gradientTransform="matrix(2.4269,-0.8599,-1.1407,-3.2194,-1961.3647,83.5377)"
       r="18.161501"
       cy="-320.97659"
       cx="895.79688"
       id="path4220_1_"><stop
         id="stop142"
         style="stop-color:#C90F16;stop-opacity:0"
         offset="0" /><stop
         id="stop144"
         style="stop-color:#C21F25;stop-opacity:0"
         offset="0.5326" /><stop
         id="stop146"
         style="stop-color:#650004"
         offset="1" /></radialGradient><linearGradient
       gradientTransform="matrix(1.9,0,0,-1.9,-634.3912,408.2693)"
       y2="57.000099"
       x2="636.09082"
       y1="97.370102"
       x1="608.09082"
       gradientUnits="userSpaceOnUse"
       id="path3939_1_"><stop
         id="stop150"
         style="stop-color:#157BC2"
         offset="0" /><stop
         id="stop152"
         style="stop-color:#359EE8"
         offset="0.5" /><stop
         id="stop154"
         style="stop-color:#116199"
         offset="1" /></linearGradient><linearGradient
       gradientTransform="matrix(2.0089,-0.0479,-0.0488,-2.5292,-701.8131,572.6243)"
       y2="137.56689"
       x2="537.28662"
       y1="148.81689"
       x1="537.05658"
       gradientUnits="userSpaceOnUse"
       id="path3819_1_"><stop
         id="stop170"
         style="stop-color:#1480CD"
         offset="0" /><stop
         id="stop172"
         style="stop-color:#093D60"
         offset="1" /></linearGradient><radialGradient
       gradientUnits="userSpaceOnUse"
       gradientTransform="matrix(2.5946,-0.436,-0.5611,-3.3389,-1115.7029,852.6719)"
       r="32.464298"
       cy="61.752399"
       cx="591.09473"
       id="path2865_1_"><stop
         id="stop177"
         style="stop-color:#285F86"
         offset="0" /><stop
         id="stop179"
         style="stop-color:#356D95"
         offset="0.3803" /><stop
         id="stop181"
         style="stop-color:#4B89B6"
         offset="0.6668" /><stop
         id="stop183"
         style="stop-color:#285E87"
         offset="1" /></radialGradient><linearGradient
       gradientTransform="matrix(1.9,0,0,-1.5465,-634.3912,362.8187)"
       y2="15.0479"
       x2="529.65417"
       y1="54.9268"
       x1="528.1543"
       gradientUnits="userSpaceOnUse"
       id="path2870_1_"><stop
         id="stop189"
         style="stop-color:#052E6E"
         offset="0" /><stop
         id="stop191"
         style="stop-color:#052E6E;stop-opacity:0"
         offset="1" /></linearGradient><linearGradient
       gradientTransform="matrix(1.9036,-0.2577,-0.3658,-1.7722,-580.2877,572.6948)"
       y2="110.6602"
       x2="483.59119"
       y1="110.6602"
       x1="479.28131"
       gradientUnits="userSpaceOnUse"
       id="path3835_1_"><stop
         id="stop208"
         style="stop-color:#1480CD"
         offset="0" /><stop
         id="stop210"
         style="stop-color:#093D60"
         offset="1" /></linearGradient><linearGradient
       gradientTransform="matrix(-2.218,-3.0523,-2.7244,2.2826,2818.7134,1777.0203)"
       y2="266.99991"
       x2="752.39398"
       y1="273.74319"
       x1="760.47662"
       gradientUnits="userSpaceOnUse"
       id="path3840_1_"><stop
         id="stop240"
         style="stop-color:#FF3549"
         offset="0" /><stop
         id="stop242"
         style="stop-color:#8A000E"
         offset="1" /></linearGradient><linearGradient
       gradientTransform="matrix(-2.218,-3.0523,-2.7244,2.2826,2818.7134,1777.0203)"
       y2="273.74399"
       x2="760.4762"
       y1="266.99899"
       x1="752.3916"
       gradientUnits="userSpaceOnUse"
       id="path3840_2_"><stop
         id="stop245"
         style="stop-color:#F90113"
         offset="0" /><stop
         id="stop247"
         style="stop-color:#FFBABF"
         offset="1" /></linearGradient><linearGradient
       gradientTransform="matrix(1.9,0,0,-1.9,-634.3912,408.2693)"
       y2="-40.9562"
       x2="584.50958"
       y1="-39.446301"
       x1="582.80957"
       gradientUnits="userSpaceOnUse"
       id="path3915_1_"><stop
         id="stop257"
         style="stop-color:#BBD7EF"
         offset="0" /><stop
         id="stop259"
         style="stop-color:#BBD7EF;stop-opacity:0"
         offset="1" /></linearGradient><linearGradient
       gradientTransform="matrix(1.9,0,0,-1.9,-634.3912,408.2693)"
       y2="-52.849998"
       x2="588.2002"
       y1="-50.48"
       x1="586.49017"
       gradientUnits="userSpaceOnUse"
       id="path3794_1_"><stop
         id="stop264"
         style="stop-color:#A4C4E0"
         offset="0" /><stop
         id="stop266"
         style="stop-color:#A4C4E0;stop-opacity:0"
         offset="1" /></linearGradient><linearGradient
       gradientTransform="matrix(1.9,0,0,-1.9,-634.3912,408.2693)"
       y2="-40.2216"
       x2="598.74121"
       y1="-36.621601"
       x1="595.70117"
       gradientUnits="userSpaceOnUse"
       id="path3781_1_"><stop
         id="stop270"
         style="stop-color:#BBD7EF"
         offset="0" /><stop
         id="stop272"
         style="stop-color:#BBD7EF;stop-opacity:0"
         offset="1" /></linearGradient><linearGradient
       gradientTransform="matrix(1.9,0,0,-1.9,-634.3912,408.2693)"
       y2="-63.1003"
       x2="567.54468"
       y1="-60.950199"
       x1="566.6748"
       gradientUnits="userSpaceOnUse"
       id="path3964_1_"><stop
         id="stop276"
         style="stop-color:#CFE3F4"
         offset="0" /><stop
         id="stop278"
         style="stop-color:#BBD7EF;stop-opacity:0"
         offset="1" /></linearGradient><linearGradient
       gradientTransform="matrix(1.2053,0.8835,0.8835,-1.2053,18.743,-359.3528)"
       y2="-208.72839"
       x2="645.32812"
       y1="-205.1284"
       x1="642.28809"
       gradientUnits="userSpaceOnUse"
       id="path10403_1_"><stop
         id="stop286"
         style="stop-color:#EEB4B4"
         offset="0" /><stop
         id="stop288"
         style="stop-color:#EFBBBB;stop-opacity:0"
         offset="1" /></linearGradient><linearGradient
       gradientTransform="matrix(0.8248,1.0921,1.0921,-0.8248,311.7451,-547.5377)"
       y2="-275.3772"
       x2="697.70288"
       y1="-273.86719"
       x1="696.00293"
       gradientUnits="userSpaceOnUse"
       id="path10407_1_"><stop
         id="stop293"
         style="stop-color:#EEB4B4"
         offset="0" /><stop
         id="stop295"
         style="stop-color:#EFBBBB;stop-opacity:0"
         offset="1" /></linearGradient><linearGradient
       gradientTransform="matrix(0.9832,0.8095,0.8095,-0.9832,207.3408,-324.6583)"
       y2="-283.99371"
       x2="599.78308"
       y1="-281.84381"
       x1="598.91309"
       gradientUnits="userSpaceOnUse"
       id="path10391_1_"><stop
         id="stop300"
         style="stop-color:#EEB4B4"
         offset="0" /><stop
         id="stop302"
         style="stop-color:#EFBBBB;stop-opacity:0"
         offset="1" /></linearGradient><linearGradient
       gradientTransform="matrix(1.9,0,0,-1.9,-632.3482,404.1854)"
       y2="52.7701"
       x2="643.87329"
       y1="50.619099"
       x1="640.31152"
       gradientUnits="userSpaceOnUse"
       id="path3847_1_"><stop
         id="stop306"
         style="stop-color:#BD292F"
         offset="0" /><stop
         id="stop308"
         style="stop-color:#4C1014"
         offset="1" /></linearGradient><linearGradient
       gradientTransform="matrix(1.9,0,0,-1.9,-620.0982,418.8865)"
       y2="53.021702"
       x2="645.198"
       y1="51.3018"
       x1="640.12793"
       gradientUnits="userSpaceOnUse"
       id="path3859_1_"><stop
         id="stop312"
         style="stop-color:#BD292F"
         offset="0" /><stop
         id="stop314"
         style="stop-color:#4C1014"
         offset="1" /></linearGradient><linearGradient
       gradientTransform="matrix(-2.005,0,0,-2.005,2727.7231,421.7115)"
       y2="56.408501"
       x2="1075.9393"
       y1="54.258801"
       x1="1072.3799"
       gradientUnits="userSpaceOnUse"
       id="path4001_1_"><stop
         id="stop318"
         style="stop-color:#BD292F"
         offset="0" /><stop
         id="stop320"
         style="stop-color:#4C1014"
         offset="1" /></linearGradient><radialGradient
       gradientUnits="userSpaceOnUse"
       gradientTransform="matrix(1.9,0,0,-2.9504,-634.3912,503.7997)"
       r="5.3333998"
       cy="46.402302"
       cx="627.45898"
       id="path3895_1_"><stop
         id="stop331"
         style="stop-color:#FD1E32"
         offset="0" /><stop
         id="stop333"
         style="stop-color:#C80214"
         offset="1" /></radialGradient><radialGradient
       gradientUnits="userSpaceOnUse"
       gradientTransform="matrix(1.9,0,0,-3.8633,-633.813,552.1724)"
       r="4.3565998"
       cy="37.659199"
       cx="617.06049"
       id="path3899_1_"><stop
         id="stop337"
         style="stop-color:#FD1E32"
         offset="0" /><stop
         id="stop339"
         style="stop-color:#C80214"
         offset="1" /></radialGradient><linearGradient
       gradientTransform="matrix(2.0039,0,0,-2.0039,-726.8954,421.3932)"
       y2="59.834999"
       x2="683.98608"
       y1="61.875"
       x1="687.99609"
       gradientUnits="userSpaceOnUse"
       id="path3877_1_"><stop
         id="stop350"
         style="stop-color:#FD1E32"
         offset="0" /><stop
         id="stop352"
         style="stop-color:#8D010E"
         offset="1" /></linearGradient><marker
       refY="3.8990364"
       refX="-1"
       viewBox="-1.0 -1.3763819204711736 16.23606797749979 10.550836550532098"
       markerHeight="10.550837"
       markerWidth="16.236069"
       orient="auto"
       markerUnits="userSpaceOnUse"
       id="ProcessOnMarker1031-8"><path
         style="fill:#323232;stroke:#323232;stroke-width:2"
         inkscape:connector-curvature="0"
         d="M 12,3.8990364 0,7.7980727 0,0 Z"
         id="ProcessOnPath1032-7" /></marker><marker
       refY="3.8990364"
       refX="-1"
       viewBox="-1.0 -1.3763819204711736 16.23606797749979 10.550836550532098"
       markerHeight="10.550837"
       markerWidth="16.236069"
       orient="auto"
       markerUnits="userSpaceOnUse"
       id="ProcessOnMarker1031-8-9"><path
         style="fill:#323232;stroke:#323232;stroke-width:2"
         inkscape:connector-curvature="0"
         d="M 12,3.8990364 0,7.7980727 0,0 Z"
         id="ProcessOnPath1032-7-8" /></marker><marker
       refY="3.8990364"
       refX="-1"
       viewBox="-1.0 -1.3763819204711736 16.23606797749979 10.550836550532098"
       markerHeight="10.550837"
       markerWidth="16.236069"
       orient="auto"
       markerUnits="userSpaceOnUse"
       id="ProcessOnMarker1031-8-9-3"><path
         style="fill:#323232;stroke:#323232;stroke-width:2"
         inkscape:connector-curvature="0"
         d="M 12,3.8990364 0,7.7980727 0,0 Z"
         id="ProcessOnPath1032-7-8-7" /></marker><marker
       refY="3.8990364"
       refX="-1"
       viewBox="-1.0 -1.3763819204711736 16.23606797749979 10.550836550532098"
       markerHeight="10.550837"
       markerWidth="16.236069"
       orient="auto"
       markerUnits="userSpaceOnUse"
       id="ProcessOnMarker1031-8-9-2"><path
         style="fill:#323232;stroke:#323232;stroke-width:2"
         inkscape:connector-curvature="0"
         d="M 12,3.8990364 0,7.7980727 0,0 Z"
         id="ProcessOnPath1032-7-8-2" /></marker><marker
       refY="3.8990364"
       refX="-1"
       viewBox="-1.0 -1.3763819204711736 16.23606797749979 10.550836550532098"
       markerHeight="10.550837"
       markerWidth="16.236069"
       orient="auto"
       markerUnits="userSpaceOnUse"
       id="ProcessOnMarker1031-8-9-2-2"><path
         style="fill:#323232;stroke:#323232;stroke-width:2"
         inkscape:connector-curvature="0"
         d="M 12,3.8990364 0,7.7980727 0,0 Z"
         id="ProcessOnPath1032-7-8-2-1" /></marker><marker
       refY="3.8990364"
       refX="-1"
       viewBox="-1.0 -1.3763819204711736 16.23606797749979 10.550836550532098"
       markerHeight="10.550837"
       markerWidth="16.236069"
       orient="auto"
       markerUnits="userSpaceOnUse"
       id="ProcessOnMarker1031-8-9-2-4"><path
         style="fill:#323232;stroke:#323232;stroke-width:2"
         inkscape:connector-curvature="0"
         d="M 12,3.8990364 0,7.7980727 0,0 Z"
         id="ProcessOnPath1032-7-8-2-17" /></marker><marker
       refY="3.8990364"
       refX="-1"
       viewBox="-1.0 -1.3763819204711736 16.23606797749979 10.550836550532098"
       markerHeight="10.550837"
       markerWidth="16.236069"
       orient="auto"
       markerUnits="userSpaceOnUse"
       id="ProcessOnMarker1031-8-9-2-1"><path
         style="fill:#323232;stroke:#323232;stroke-width:2"
         inkscape:connector-curvature="0"
         d="M 12,3.8990364 0,7.7980727 0,0 Z"
         id="ProcessOnPath1032-7-8-2-170" /></marker></defs><sodipodi:namedview
     pagecolor="#ffffff"
     bordercolor="#666666"
     borderopacity="1"
     objecttolerance="10"
     gridtolerance="10"
     guidetolerance="10"
     inkscape:pageopacity="0"
     inkscape:pageshadow="2"
     inkscape:window-width="2160"
     inkscape:window-height="1380"
     id="namedview433"
     showgrid="false"
     inkscape:zoom="1.3428165"
     inkscape:cx="270.36023"
     inkscape:cy="375.292"
     inkscape:window-x="0"
     inkscape:window-y="60"
     inkscape:window-maximized="1"
     inkscape:current-layer="Layer_1"
     inkscape:snap-text-baseline="true" /><filter
     width="1.1319662"
     height="1.2311034"
     id="filter6570"
     y="-0.11555172"
     x="-0.065983124"
     style="color-interpolation-filters:sRGB"><feGaussianBlur
       stdDeviation="0.66074208"
       id="feGaussianBlur6572" /></filter><filter
     id="filter6474"
     style="color-interpolation-filters:sRGB"><feGaussianBlur
       stdDeviation="1.1621011"
       id="feGaussianBlur6476" /></filter><filter
     width="1.3749251"
     height="1.1764872"
     id="filter4215"
     y="-0.088243589"
     x="-0.18746257"
     style="color-interpolation-filters:sRGB"><feGaussianBlur
       stdDeviation="0.75368185"
       id="feGaussianBlur4217" /></filter><filter
     width="1.4733552"
     height="1.1830436"
     id="filter4205"
     y="-0.0915218"
     x="-0.23667762"
     style="color-interpolation-filters:sRGB"><feGaussianBlur
       stdDeviation="0.56070564"
       id="feGaussianBlur4207" /></filter><filter
     width="1.6932493"
     height="1.14512"
     id="filter4186"
     y="-0.072559983"
     x="-0.34662467"
     style="color-interpolation-filters:sRGB"><feGaussianBlur
       stdDeviation="0.74129452"
       id="feGaussianBlur4188" /></filter><filter
     width="2.7092595"
     height="1.1290607"
     id="filter4180"
     y="-0.06453041"
     x="-0.8546297"
     style="color-interpolation-filters:sRGB"><feGaussianBlur
       stdDeviation="1.0915771"
       id="feGaussianBlur4182" /></filter><filter
     id="filter3884"
     style="color-interpolation-filters:sRGB"><feGaussianBlur
       result="result6"
       stdDeviation="1.5"
       id="feGaussianBlur3886" /><feComposite
       in="SourceGraphic"
       operator="atop"
       in2="result6"
       result="result8"
       id="feComposite3888" /><feComposite
       in="result8"
       operator="atop"
       in2="SourceAlpha"
       result="result9"
       id="feComposite3890" /></filter><filter
     width="1.3566767"
     height="1.8250941"
     id="filter3882"
     y="-0.41254702"
     x="-0.17833833"
     style="color-interpolation-filters:sRGB"><feGaussianBlur
       stdDeviation="0.18989019"
       id="feGaussianBlur3884" /></filter><filter
     id="filter3865"
     style="color-interpolation-filters:sRGB"><feGaussianBlur
       result="result6"
       stdDeviation="1.5"
       id="feGaussianBlur3867" /><feComposite
       in="SourceGraphic"
       operator="atop"
       in2="result6"
       result="result8"
       id="feComposite3869" /><feComposite
       in="result8"
       operator="atop"
       in2="SourceAlpha"
       result="result9"
       id="feComposite3871" /></filter><filter
     id="filter3860"
     style="color-interpolation-filters:sRGB"><feGaussianBlur
       result="result6"
       stdDeviation="1.5"
       id="feGaussianBlur3862" /><feComposite
       in="SourceGraphic"
       operator="atop"
       in2="result6"
       result="result8"
       id="feComposite3864" /><feComposite
       in="result8"
       operator="atop"
       in2="SourceAlpha"
       result="result9"
       id="feComposite3866" /></filter><filter
     id="filter3855"
     style="color-interpolation-filters:sRGB"><feGaussianBlur
       result="result8"
       stdDeviation="7.1521428571428567"
       id="feGaussianBlur3857" /><feOffset
       dx="-1.1627906976744207"
       dy="-0.58139534883721034"
       result="result11"
       id="feOffset3859" /><feComposite
       in="SourceGraphic"
       operator="in"
       in2="result11"
       result="result6"
       id="feComposite3861" /><feFlood
       flood-opacity="1"
       in="result6"
       flood-color="rgb(0,0,0)"
       result="result10"
       id="feFlood3863" /><feBlend
       mode="normal"
       in="result6"
       in2="result10"
       result="result12"
       id="feBlend3865" /><feComposite
       operator="in"
       in2="SourceGraphic"
       result="result2"
       id="feComposite3867" /></filter><filter
     width="1.1658033"
     height="1.3730123"
     id="filter3846"
     y="-0.18650614"
     x="-0.082901634"
     style="color-interpolation-filters:sRGB"><feGaussianBlur
       stdDeviation="0.51196698"
       id="feGaussianBlur3848" /></filter><filter
     width="1.1953913"
     height="1.5789371"
     id="filter3814"
     y="-0.28946856"
     x="-0.097695656"
     style="color-interpolation-filters:sRGB"><feGaussianBlur
       stdDeviation="1.1630436"
       id="feGaussianBlur3816" /></filter><filter
     width="1.2050658"
     height="1.2607129"
     id="filter3781"
     y="-0.13035645"
     x="-0.10253289"
     style="color-interpolation-filters:sRGB"><feGaussianBlur
       stdDeviation="2.3957081"
       id="feGaussianBlur3783" /></filter><filter
     width="1.2237082"
     height="1.2844141"
     id="filter3773"
     y="-0.14220703"
     x="-0.11185406"
     style="color-interpolation-filters:sRGB"><feGaussianBlur
       stdDeviation="2.6134997"
       id="feGaussianBlur3775" /></filter><filter
     width="1.4129108"
     height="1.6712608"
     id="filter3764"
     y="-0.33563039"
     x="-0.20645539"
     style="color-interpolation-filters:sRGB"><feGaussianBlur
       stdDeviation="2.7872198"
       id="feGaussianBlur3766" /></filter><filter
     width="1.3569157"
     height="1.2188178"
     id="filter3760"
     y="-0.10940888"
     x="-0.17845786"
     style="color-interpolation-filters:sRGB"><feGaussianBlur
       stdDeviation="1.4412817"
       id="feGaussianBlur3762" /></filter><filter
     width="1.1913935"
     height="1.229437"
     id="filter3744"
     y="-0.11471852"
     x="-0.095696725"
     style="color-interpolation-filters:sRGB"><feGaussianBlur
       stdDeviation="2.6752717"
       id="feGaussianBlur3746" /></filter><g
     id="g3711"
     transform="matrix(0.38693212,0,0,0.38693212,57.287217,-13.518606)"><path
       id="path3916"
       d="m 638.586,622.371 c 71.056,-17.969 49.208,-108.627 49.208,-108.627 0,0 9.607,-143.334 -89.986,-219.772 l 77.736,184.659 -14.701,111.893 -26.34,22.868 4.084,8.984 -10e-4,-0.005 z"
       inkscape:connector-curvature="0"
       style="fill:#e52739;stroke:#c30000" /><path
       id="path3807"
       d="M 523.851,662.461 C 528.635,497.957 497.903,226.336 497.903,226.336 l 62.89,-10.209 c 0,0 37.479,421.325 24.771,444.429 0,22.93 -61.712,29.4 -61.712,1.895 l 0,0.01 z"
       inkscape:connector-curvature="0"
       style="fill:#fd1e32;stroke:#8a020c" /><g
       id="path3918"
       style="filter:url(#filter3855)"><polygon
         points="579.981,404.328 575.081,362.675 557.112,346.34 557.115,346.339 536.696,396.979 526.896,453.334 615.92,595.446 675.542,553.793 657.573,402.695 626.537,349.607 609.385,379.01 606.935,408.412 "
         id="polygon84"
         style="fill:#ff444b" /><polygon
         points="579.981,404.328 575.081,362.675 557.112,346.34 557.115,346.339 536.696,396.979 526.896,453.334 615.92,595.446 675.542,553.793 657.573,402.695 626.537,349.607 609.385,379.01 606.935,408.412 "
         id="polygon86"
         style="fill:none;stroke:#000000" /></g><path
       id="path3948"
       d="m 606.12,410.046 -26.137,-2.829 -4.083,-46.176 -16.336,-29.402 4.491,0.408 c 0,0 4.083,-8.167 0.816,-23.685 l -2.858,-13.476 15.109,-4.492 16.335,0 24.503,32.262 10.617,26.953 -16.743,22.459 -5.717,37.979 0.003,-0.001 0,0 z"
       style="fill:url(#path3948_1_)"
       inkscape:connector-curvature="0" /><path
       id="path3913"
       d="M 531.119,419.774 C 497.212,426.927 429.693,361.8 407.502,317.3 l 37.721,24.966 27.598,-111.494 c 0,0 0.442,81.288 84.299,122.111 l -25.996,66.894 -0.005,-0.003 0,0 z"
       inkscape:connector-curvature="0"
       style="fill:#fd1e32;stroke:#000000" /><path
       id="path3897"
       d="m 466.016,324.964 1.732,24.255 15.594,12.705 20.214,-7.508 5.775,5.775 7.508,8.662 9.24,4.621 23.678,-10.975 12.128,-23.101 -3.465,-15.016 -32.92,-22.522 -32.342,1.732 -27.142,21.372 0,0 0,0 z"
       style="fill:url(#path3897_1_);stroke:#000000"
       inkscape:connector-curvature="0" /><path
       id="path3834"
       d="m 346.859,394.771 c 1.92,74.853 23.03,216.885 23.03,216.885 10.558,15.834 54.699,5.276 59.979,-1.919 0,0 -28.312,-138.189 -28.312,-217.837 l 0.96,-0.959 -55.657,3.838 0,-0.008 z"
       style="fill:url(#path3834_1_);stroke:#034484"
       inkscape:connector-curvature="0" /><g
       id="path3809"
       style="filter:url(#filter3855)"><linearGradient
         id="SVGID_1_"
         gradientUnits="userSpaceOnUse"
         x1="539.73438"
         y1="-84.227997"
         x2="632.55298"
         y2="-11.2792"
         gradientTransform="matrix(1.9,0,0,-1.9,-634.3912,408.2693)"><stop
           offset="0"
           style="stop-color:#92BCD9"
           id="stop119" /><stop
           offset="0.5"
           style="stop-color:#356F95"
           id="stop121" /><stop
           offset="1"
           style="stop-color:#CCE2ED"
           id="stop123" /></linearGradient><path
         d="m 339.045,429.654 c 0,0 38.796,101.684 66.973,132.313 l 189.485,30.219 -66.973,-150.28 16.334,-75.956 -14.701,5.717 -11.026,1.226 -6.533,-4.492 -7.351,-13.066 -5.16,5.837 -14.851,2.33 -10.209,-5.31 -7.353,-8.983 -3.268,-11.026 0.815,-12.251 -17.15,13.068 -8.167,15.927 -2.45,20.42 -17.969,40.43 13.066,37.568 -15.519,6.534 -22.868,-15.927 -50.639,-20.419 -4.486,6.121 0,0 z"
         id="path125"
         style="fill:url(#SVGID_1_)"
         inkscape:connector-curvature="0" /><path
         d="m 339.045,429.654 c 0,0 38.796,101.684 66.973,132.313 l 189.485,30.219 -66.973,-150.28 16.334,-75.956 -14.701,5.717 -11.026,1.226 -6.533,-4.492 -7.351,-13.066 -5.16,5.837 -14.851,2.33 -10.209,-5.31 -7.353,-8.983 -3.268,-11.026 0.815,-12.251 -17.15,13.068 -8.167,15.927 -2.45,20.42 -17.969,40.43 13.066,37.568 -15.519,6.534 -22.868,-15.927 -50.639,-20.419 -4.486,6.121 0,0 z"
         id="path127"
         inkscape:connector-curvature="0"
         style="fill:none;stroke:#000000;stroke-width:0.1" /></g><path
       id="path4353"
       enable-background="new    "
       d="m 415.383,489.391 c -3.508,-10.191 -6.244,-23.442 -2.869,-29.456 3.513,-6.251 2.95,-18.911 -5.02,-7.009 -7.816,11.676 -25.919,11.414 -40.584,7.311 l -0.985,6.613 11.905,1.366 c 0,0 -7.69,4.677 -14.673,6.516 l -6.23,8.538 c 8.452,-5.145 29.634,-14.751 29.634,-14.751 0,0 10.889,-1.315 11.257,1.99 0,0 -8.388,10.293 -21.611,10.651 l -3.947,5.557 c 0,0 11.307,-4.447 6.015,7.776 l 3.909,-1.794 c 0,-9.188 12.873,-18.205 3.528,1.223 0,0 0.823,-2.248 4.266,-0.48 0.605,-4.813 9.235,-20.262 13.508,-23.188 4.271,-2.925 4.183,6.673 2.94,22.846 l 8.96,-3.711 -0.003,0.002 0,0 z"
       inkscape:connector-curvature="0"
       style="opacity:0.3982;fill:#406e89" /><path
       id="path4351"
       enable-background="new    "
       d="m 443.646,540.767 c 5.513,-16.019 9.813,-36.843 4.509,-46.29 -5.519,-9.822 -4.638,-29.722 7.888,-11.015 12.284,18.352 40.734,17.938 63.775,11.485 l 1.549,10.396 -18.709,2.146 c 0,0 12.086,7.35 23.059,10.235 l 9.791,13.422 c -13.283,-8.087 -46.567,-23.183 -46.567,-23.183 0,0 -17.108,-2.071 -17.688,3.127 0,0 13.178,16.178 33.963,16.739 l 6.203,8.731 c 0,0 -17.764,-6.988 -9.448,12.221 l -6.146,-2.818 c 0,-14.438 -20.229,-28.609 -5.545,1.922 0,0 -1.294,-3.533 -6.702,-0.759 -0.952,-7.563 -14.514,-31.839 -21.228,-36.435 -6.711,-4.598 -6.57,10.485 -4.621,35.9 l -14.083,-5.824 0,0 z"
       inkscape:connector-curvature="0"
       style="opacity:0.19910003;fill:#264151" /><path
       id="path4349"
       enable-background="new    "
       d="m 566.117,572.534 c -5.514,-16.02 -9.813,-36.843 -4.508,-46.29 5.517,-9.824 4.636,-29.722 -7.891,-11.014 -12.281,18.349 -40.731,17.937 -63.773,11.483 l -1.548,10.396 18.708,2.146 c 0,0 -12.087,7.353 -23.061,10.238 l -9.791,13.42 c 13.283,-8.085 46.569,-23.182 46.569,-23.182 0,0 17.106,-2.07 17.687,3.127 0,0 -13.178,16.177 -33.963,16.737 l -6.203,8.733 c 0,0 17.767,-6.989 9.448,12.22 l 6.146,-2.817 c 0,-14.438 20.229,-28.609 5.546,1.922 0,0 1.294,-3.533 6.702,-0.76 0.95,-7.563 14.515,-31.839 21.226,-36.436 6.711,-4.596 6.572,10.487 4.624,35.902 l 14.082,-5.825 0,0 z"
       inkscape:connector-curvature="0"
       style="opacity:0.19910003;fill:#223a48" /><path
       id="path4347"
       enable-background="new    "
       d="m 451.19,533.831 c -5.516,-16.019 -9.813,-36.843 -4.511,-46.289 5.519,-9.824 4.638,-29.722 -7.889,-11.015 -12.283,18.349 -40.733,17.937 -63.775,11.483 l -1.548,10.396 18.708,2.146 c 0,0 -12.086,7.352 -23.058,10.237 l -9.791,13.42 c 13.282,-8.085 46.567,-23.182 46.567,-23.182 0,0 17.108,-2.07 17.688,3.127 0,0 -13.178,16.177 -33.963,16.738 l -6.203,8.732 c 0,0 17.765,-6.989 9.448,12.22 l 6.146,-2.816 c 0,-14.438 20.229,-28.61 5.545,1.921 0,0 1.294,-3.533 6.703,-0.759 0.951,-7.563 14.516,-31.839 21.227,-36.437 6.712,-4.596 6.57,10.487 4.624,35.902 l 14.082,-5.824 0,0 z"
       inkscape:connector-curvature="0"
       style="opacity:0.3982;fill:#406e89" /><path
       id="path3833"
       d="m 475.965,270.149 c 0,0 -33.753,-9.654 -62.441,-10.903 -29.167,-1.27 -84.57,-6.677 -115.73,-1.152 0.421,-5.879 -2.439,-11.621 -2.439,-11.621 8.482,-2.036 24.248,-3.954 24.465,-5.8 0.215,-1.846 -16.054,-2.47 -23.395,-11.426 -1.836,-3.703 -0.484,-7.998 4.421,-10.386 2.925,-1.527 6.122,4.251 14.712,7.125 8.889,2.973 17.849,4.032 25.836,2.69 7.989,-1.342 47.229,-11.688 133.597,-3.051 l 0.974,44.524 0,0 z"
       style="fill:url(#path3833_1_);stroke:#034484"
       inkscape:connector-curvature="0" /><path
       id="path3939"
       d="m 561.819,333.837 c 19.673,-12.955 -39.825,-94.524 53.261,-81.568 10.241,-7.653 2.397,-15.354 2.397,-15.354 0,0 -27.827,-8.157 -37.904,-9.117 0,0 30.707,-4.318 42.224,-11.996 3.465,-17.54 -9.117,-16.313 -9.117,-16.313 0,0 -37.426,14.874 -59.498,18.233 -22.07,3.359 -60.764,7.894 -60.764,7.894 -4.802,0.437 -19.082,0 -19.082,0 0,0 4.44,64.296 -1.327,90.761 l 3.441,-4.13 20.632,-10.556 32.629,1.439 27.829,17.273 5.279,13.434 0,0 z"
       style="fill:url(#path3939_1_);stroke:#034484"
       inkscape:connector-curvature="0" /><g
       id="path3817"
       style="filter:url(#filter3860)"><linearGradient
         id="SVGID_2_"
         gradientUnits="userSpaceOnUse"
         x1="508.62891"
         y1="82.736298"
         x2="551.79889"
         y2="82.736298"
         gradientTransform="matrix(1.9,0,0,-1.9,-634.3912,408.2693)"><stop
           offset="0"
           style="stop-color:#116DAE"
           id="stop159" /><stop
           offset="0.3428"
           style="stop-color:#1782CE"
           id="stop161" /><stop
           offset="1"
           style="stop-color:#1066A3"
           id="stop163" /></linearGradient><path
         d="m 332.944,312.729 c 10.074,-12.956 6.717,-66.696 6.717,-66.696 0,0 -5.278,-43.183 -2.399,-62.377 l 57.58,-1.919 8.157,-0.48 10.076,139.629 -24.471,-5.278 -12.955,-12.476 -25.91,2.879 -13.437,11.996 -3.358,-5.278 0,0 z"
         id="path165"
         style="fill:url(#SVGID_2_)"
         inkscape:connector-curvature="0" /><path
         d="m 332.944,312.729 c 10.074,-12.956 6.717,-66.696 6.717,-66.696 0,0 -5.278,-43.183 -2.399,-62.377 l 57.58,-1.919 8.157,-0.48 10.076,139.629 -24.471,-5.278 -12.955,-12.476 -25.91,2.879 -13.437,11.996 -3.358,-5.278 0,0 z"
         id="path167"
         inkscape:connector-curvature="0"
         style="fill:none;stroke:#034484" /></g><path
       id="path3819"
       d="m 400.685,181.859 c 0.104,5.292 -13.441,9.906 -30.254,10.306 -16.812,0.401 -30.521,-3.564 -30.623,-8.855 -0.103,-5.292 13.443,-9.906 30.256,-10.306 16.808,-0.4 30.519,3.564 30.621,8.855 l 0,0 z"
       style="fill:url(#path3819_1_);stroke:#034487;stroke-width:3.25119996;stroke-linecap:round;stroke-linejoin:round"
       inkscape:connector-curvature="0" /><path
       id="path6450"
       d="m 479.75,59.018 c -1.888,-0.032 -3.986,0.187 -6.234,0.653 -24.162,32.606 -13.647,92.511 -24.759,73.268 0,0 -21.351,-48.526 -33.903,-55.991 l -16.804,17.1 c 4.75,8.821 26.332,42.602 20.188,48.746 0,0 -57.653,65.1 -10.153,178.421 l 21.019,8.847 12.23,19.654 17.595,-21.014 c 7.693,-4.951 13.033,-10.51 16.686,-16.565 l -0.18,0.119 -3.441,4.097 c 3.715,-17.045 6.748,-59.138 4.75,-70.716 -0.558,-2.737 -1.435,-9.792 -1.974,-12.575 -0.226,-5.506 -0.587,-5.455 0.311,-8.682 4.453,-16.042 19.948,-8.2 22.552,-0.95 7.752,-0.919 35.927,-4.617 55.218,-7.552 2.159,-0.329 4.483,-0.841 6.889,-1.366 0.144,-19.515 -16.418,-61.938 -29.913,-68.685 -19.152,-13.134 -6.355,-38.94 2.729,-54.268 0,0 -6.818,-16.616 -22.088,-12.884 -19.378,21.95 -16.858,39.765 -19.95,52.428 -1.84,7.54 -5.816,5.043 -5.816,-2.909 0,0 1.01,-41.045 12.884,-58.009 0,0 -4.656,-10.935 -17.871,-11.163 l 0,0 0.035,-0.004 z"
       inkscape:connector-curvature="0"
       style="fill:#f40218;stroke:#f90113" /><path
       id="path2865"
       d="m 384.286,437.957 c 19.191,-1.919 36.466,-23.031 36.466,-23.031 l 0.88,-12.262 19.678,-43.428 -4.493,-18.471 -12.471,-14.101 -36.644,-10.857 -10.179,-12.893 -27.143,0 -20.355,25.106 -10.18,25.106 4.75,45.465 20.664,25.321 39.027,14.045 0,0 z"
       style="fill:url(#path2865_1_)"
       inkscape:connector-curvature="0" /><path
       id="path4357"
       enable-background="new    "
       d="m 525.585,442.327 c -5.513,16.018 -9.813,15.606 -4.509,25.054 5.517,9.824 11.986,38.707 -0.537,19.999 -12.284,-18.349 -41.731,-28.653 -64.774,-22.201 l -7.899,-8.663 18.708,-2.146 c 0,0 -12.086,-7.352 -23.06,-10.237 l -9.791,-13.42 c 13.282,8.085 46.568,23.182 46.568,23.182 0,0 17.109,2.07 17.688,-3.128 0,0 -13.18,-16.176 -33.965,-16.737 l -6.201,-8.732 c 0,0 17.765,6.989 9.446,-12.22 l 6.146,2.816 c 0,14.438 20.229,28.61 5.545,-1.921 0,0 1.294,3.533 6.703,0.76 0.951,7.563 14.514,31.839 21.225,36.435 6.712,4.597 9.84,-7.22 14.425,-22.834 l 4.282,13.993 0,0 z"
       inkscape:connector-curvature="0"
       style="opacity:0.39380002;fill:#4e809f" /><path
       id="path4355"
       enable-background="new    "
       d="m 527.757,377.006 c -5.514,16.018 -9.813,36.842 -4.509,46.289 5.517,9.824 4.636,29.722 -7.888,11.015 -12.284,-18.35 -34.381,-19.669 -57.425,-13.218 l -7.9,-8.664 18.709,-2.146 c 0,0 -12.087,-7.352 -23.061,-10.237 l -9.789,-13.421 c 13.281,8.086 46.566,23.183 46.566,23.183 0,0 17.109,2.07 17.688,-3.128 0,0 -34.413,-16.176 -55.196,-16.737 l -2.938,-11.185 c 0,0 35.733,9.439 27.417,-9.77 l 6.146,2.817 c 0,14.438 20.229,28.609 5.545,-1.923 0,0 1.294,3.533 6.703,0.761 0.951,7.563 14.514,31.839 21.225,36.435 6.712,4.596 6.572,-10.487 4.624,-35.901 l 14.083,5.83 0,0 z"
       inkscape:connector-curvature="0"
       style="opacity:0.39380002;fill:#4e809f" /><path
       id="path2870"
       d="m 363.41,353.379 c 3.598,-5.952 19,-6.165 19,-6.165 15.522,0.245 27.012,-24.775 27.012,-24.775 l -33.413,-18.804 -20.788,-2.566 -22.53,16.8 c -0.003,0 0.861,37.166 30.719,35.51 l 0,0 z"
       style="fill:url(#path2870_1_)"
       inkscape:connector-curvature="0" /><g
       id="path3804"
       style="filter:url(#filter3814)"><path
         d="m 340.17,320.841 c 22.312,-17.808 51.887,-2.913 51.887,-2.913 l -17.243,-16.368 -16.967,0.679 -15.604,8.821 -2.073,9.781 0,0 z"
         id="path195"
         inkscape:connector-curvature="0"
         style="fill:#052e6e" /></g><g
       id="path3836"
       style="filter:url(#filter3884)"><path
         d="m 360.414,527.086 c 0,0 -32.148,-47.982 -35.986,-70.533 0,0 -23.51,-35.508 -11.995,-66.215 -6.718,-39.826 2.881,-58.059 21.594,-78.69 l 4.461,4.043 c 0,0 -43.428,34.606 -1.356,111.965 l 53.492,116.225 155.962,60.496 86.807,8.3 4.554,10.372 c -42.473,18.785 -96.138,4.682 -96.138,4.682 -41.652,-13.884 -91.717,-24.056 -112.949,-35.487 -48.188,-28.586 -68.44,-65.153 -68.44,-65.153 l 0,-0.003 -0.006,-0.002 0,0 z"
         id="path198"
         inkscape:connector-curvature="0"
         style="fill:#157bc3" /><path
         d="m 360.414,527.086 c 0,0 -32.148,-47.982 -35.986,-70.533 0,0 -23.51,-35.508 -11.995,-66.215 -6.718,-39.826 2.881,-58.059 21.594,-78.69 l 4.461,4.043 c 0,0 -43.428,34.606 -1.356,111.965 l 53.492,116.225 155.962,60.496 86.807,8.3 4.554,10.372 c -42.473,18.785 -96.138,4.682 -96.138,4.682 -41.652,-13.884 -91.717,-24.056 -112.949,-35.487 -48.188,-28.586 -68.44,-65.153 -68.44,-65.153 l 0,-0.003 -0.006,-0.002 0,0 z"
         id="path200"
         inkscape:connector-curvature="0"
         style="fill:none;stroke:#034484" /></g><g
       id="path3838"
       style="filter:url(#filter6474)"><path
         d="m 477.192,62.954 c -7.635,6.017 -10.058,18.058 -12.925,27.377 -5.211,15.555 -2.292,33.061 -8.215,48.148 -7.275,6.65 -12.312,-6.517 -14.25,-11.638 -7.847,-15.561 -14.925,-31.787 -26.6,-44.829 -7.22,6.825 -16.938,13.321 -6.948,22.249 5.755,12.281 16.554,24.74 14.191,39.085 -37.354,47.739 -35.569,115.625 -13.639,169.634 3.519,12.715 24.146,7.682 27.521,21.527 5.271,17.448 13.157,-2.639 20.079,-8.642 18.996,-10.02 17.334,-35.057 13.032,-55.024 -1.321,-18.303 -6.239,-38.697 6.204,-55.353 7.671,-7.865 21.124,-1.878 25.354,6.887 18.202,-3.248 37.683,-5.405 55.1,-9.321 -3.258,-22.074 -10.656,-45.437 -25.887,-62.463 -15.425,-7.669 -17.021,-27.669 -10.45,-41.859 1.484,-6.586 8.145,-12.831 7.54,-18.941 C 523.926,83.265 512.237,77.38 508.66,87 c -11.842,13.763 -11.031,32.154 -15.734,48.628 -3.126,7.292 -12.521,2.35 -11.813,-4.394 0.373,-20.763 2.364,-42.569 12.054,-61.216 -3.373,-5.292 -9.827,-7.879 -15.973,-7.066 l -0.002,0.002 0,0 z"
         id="path203"
         inkscape:connector-curvature="0"
         style="fill:#fd1e32" /></g><path
       id="path3872"
       d="m 460.739,338.587 c 0,12.66 5.309,24.911 5.309,24.911 7.309,15.855 36.079,19.203 37.979,-7.759 l -6.126,4.083 -20.827,-1.633 -12.66,-16.745 -3.675,-2.857 0,0 z"
       inkscape:connector-curvature="0"
       style="fill:#95989d" /><path
       id="path3882"
       d="m 550.125,364.104 c -7.099,10.481 -8.295,12.266 -8.295,12.266 l -2.042,2.449 c -3.34,12.838 -45.858,11.873 -35.122,-24.786 l 2.782,6.815 18.159,10.325 19.871,-6.764 4.647,-0.305 0,0 z"
       inkscape:connector-curvature="0"
       style="fill:#95989d" /><g
       id="path2874"
       style="filter:url(#filter3764)"><linearGradient
         id="SVGID_3_"
         gradientUnits="userSpaceOnUse"
         x1="547.29791"
         y1="18.627001"
         x2="588.16711"
         y2="18.627001"
         gradientTransform="matrix(2.277,0,0,-2.3334,-917.2498,436.5372)"><stop
           offset="0"
           style="stop-color:#759CDB"
           id="stop230" /><stop
           offset="0.5"
           style="stop-color:#34578D"
           id="stop232" /><stop
           offset="1"
           style="stop-color:#052E6E"
           id="stop234" /></linearGradient><path
         d="m 372.346,369.911 c -15.021,-0.496 -38.42,9.532 -32.944,28.583 13.993,23.065 49.422,22.144 68.449,6.417 11.899,-12.741 -1.874,-31.923 -16.648,-33.03 -6.127,-1.686 -12.522,-2.317 -18.857,-1.97 l 0,0 z"
         id="path236"
         style="fill:url(#SVGID_3_)"
         inkscape:connector-curvature="0" /></g><path
       id="path2872"
       d="m 403.517,392.893 c 0,7.846 -12.575,14.203 -28.091,14.203 -15.514,0 -28.09,-6.357 -28.09,-14.203 0,-7.845 12.577,-14.203 28.09,-14.203 15.514,-10e-4 28.091,6.358 28.091,14.203 l 0,0 z"
       inkscape:connector-curvature="0"
       style="fill:#052e6e" /><path
       id="path3925"
       d="m 438.574,486.122 -4.143,-23.575 c -0.318,-1.582 0.014,-4.146 0.378,-1.585 l 3.765,25.16 0,0 z"
       inkscape:connector-curvature="0"
       style="fill:#013a6f;stroke:#000000;stroke-width:0.0283" /><g
       id="path3754"
       style="filter:url(#filter3760)"><path
         d="m 472.524,263.556 c -8.146,-60.401 21.034,-52.934 25.784,-36.651 -2.967,-50.958 -60.356,-9.538 -25.784,36.651 z"
         id="path252"
         inkscape:connector-curvature="0"
         style="fill:#f50218" /></g><path
       id="path4331"
       d="m 498.323,488.953 c -7.966,-10.641 -4.229,-22.37 8.297,-3.664 12.284,18.35 23.985,-2.854 28.548,-4.107 l 0.971,7.511 -10.623,11.387 c 0,0 2.848,1.574 13.818,4.462 2.899,-2.212 12.584,16.592 2.494,6.987 0,0 -24.617,-9.001 -25.194,-3.805 0,0 18.375,21.375 39.159,21.938 l -1.882,5.845 c 0,0 -19.498,-7.564 -5.983,3.559 l -3.259,4.11 c 0,0 -21.385,-29.188 -0.925,9.431 0,0 22.76,3.888 23.129,9.633 0.158,2.458 4.347,9.105 0.451,7.127 -29.36,-14.915 -16.641,0.229 -12.713,11.558 1.004,2.896 -5.717,-3.996 -6.6,-0.775 -0.949,-7.563 -30.685,-60.138 -37.396,-64.732 -6.712,-4.596 -6.572,-9.727 -4.624,15.688 l -4.841,-1.211 c -0.866,38.153 1.662,-29.775 -2.83,-40.934 l 0.003,-0.008 0,0 z"
       inkscape:connector-curvature="0"
       style="fill:#99bbcf;stroke:#808080;stroke-width:0.5" /><path
       id="path4345"
       d="m 421.288,553.249 c 12.117,-19.173 29.117,-20.314 23.813,-29.762 -5.517,-9.823 0.891,-21.472 7.891,-11.017 6.999,10.456 8.759,9.68 12.519,11.687 0.235,0.126 -2.135,-7.772 -0.814,-8.129 0.656,-0.181 1.423,-3.372 3.078,-1.714 1.653,1.656 4.2,8.168 5.158,7.795 3.833,-1.493 8.378,-3.676 11.7,-6.17 6.646,-4.991 -3.639,0.785 -3.287,1.759 2.767,7.634 -6.161,10.229 -3.677,10.685 9.94,1.816 21.227,0.534 32.747,-2.689 l 18.519,13.153 -29.324,-2.345 c 0,0 31.277,2.449 43.067,0.027 l 4.073,9.746 c -13.283,-8.087 -60.862,-9.3 -60.862,-9.3 0,0 -24.051,-5.744 -24.628,-0.548 0,0 27.063,20.261 47.848,20.822 l 2.937,8.324 c 0,0 -21.438,-6.989 -13.124,12.22 l -6.146,-2.818 c 0,-14.438 -25.146,-29.114 -38.623,-14.82 0,0 -1.702,-3.532 -7.111,-0.76 -0.951,-7.563 11.741,-13.354 3.389,-21.875 -2.081,-2.12 -11.019,5.743 -19.277,24.22 l -8.113,-5.032 -1.744,-3.461 -0.009,0.002 z"
       inkscape:connector-curvature="0"
       style="fill:#99bbcf;stroke:#808080;stroke-width:0.5" /><path
       id="path3915"
       d="m 432.819,385.004 c -16.335,46.554 -24.316,38.056 -72.912,47.857 27.272,27.272 61.638,36.045 85.323,88.313 l 8.155,-6.139 C 407.071,435.14 432.82,385 432.82,385 l -10e-4,0.004 z m -14.843,60.325 c 0.609,0.021 1.423,0.719 2.078,2.494 L 438.52,493.6 417.502,449.07 c -1.113,-1.927 -0.54,-3.779 0.474,-3.741 l 0,0 z m -20.367,17.813 c 0.121,0.021 0.393,0.183 0.891,0.596 l 19.653,16.091 -18.881,-14.666 c -0.975,-0.721 -2.026,-2.076 -1.663,-2.021 l 0,0 z m 22.86,13.181 c 0.313,0.027 0.682,0.295 1.068,0.891 l 14.188,20.782 -15.613,-19.478 c -0.757,-0.814 -0.54,-1.919 0.059,-2.138 0.09,-0.029 0.193,-0.066 0.298,-0.057 l 0,0 0,0 z m 9.796,6.353 c 0.273,-0.064 0.638,0.092 0.95,0.713 l 8.729,16.328 -9.856,-15.496 c -0.487,-0.658 -0.277,-1.433 0.177,-1.545 l 0,0 0,0 z"
       style="fill:url(#path3915_1_)"
       inkscape:connector-curvature="0" /><path
       id="path3839"
       d="m 471.629,570.995 c 5.514,-16.02 11.038,-42.151 5.733,-51.599 -5.518,-9.823 -4.638,-29.723 7.889,-11.016 12.283,18.35 34.38,19.668 57.424,13.218 l 7.901,8.663 -18.709,2.146 c 0,0 12.086,7.35 23.059,10.236 l 9.791,13.422 c -13.283,-8.085 -46.567,-23.184 -46.567,-23.184 0,0 -17.108,-2.068 -17.688,3.127 0,0 13.178,16.179 33.963,16.739 l 6.203,8.733 c 0,0 -17.765,2.812 -9.448,22.021 l -7.372,-9.353 c 0,-14.438 -19.004,-31.876 -4.317,-1.348 0,0 -1.294,-3.531 -6.702,-0.759 -0.952,-7.563 -14.515,-31.838 -21.227,-36.435 -6.712,-4.598 -6.571,10.485 -4.623,35.9 l -15.31,-0.511 0,0 z"
       inkscape:connector-curvature="0"
       style="fill:#99bbcf;stroke:#808080;stroke-width:0.5" /><path
       id="path3794"
       d="m 444.457,380.9 -64.779,58.425 19.771,14.429 c 0,0 62.7,31.563 77.306,61.571 l 6.65,-8.194 C 468.238,482.356 444.457,380.895 444.457,380.895 l 0,0.005 z m -5.403,61.868 c 0.605,-0.068 1.453,0.484 2.375,2.14 l 25.293,42.394 -27.551,-40.791 c -1.395,-1.738 -1.127,-3.626 -0.117,-3.743 l 0,0 z m 18.524,11.816 c 0.095,0.042 0.264,0.373 0.476,1.068 l 7.54,24.282 -7.659,-22.683 c -0.35,-0.946 -0.529,-2.326 -0.415,-2.612 0.019,-0.043 0.027,-0.071 0.061,-0.06 l -0.003,0.005 0,0 z m -38.89,3.562 c 0.123,-0.003 0.454,0.084 1.012,0.413 l 21.908,12.944 -20.961,-11.638 c -1.074,-0.556 -2.328,-1.718 -1.959,-1.719 l 0,0 z m 21.196,5.522 c 0.302,0.033 0.706,0.243 1.128,0.713 l 17.221,18.406 -18.468,-16.863 c -1.047,-0.829 -0.786,-2.354 0.119,-2.256 l 0,0 z m 8.491,2.969 c 0.241,0.021 0.526,0.229 0.831,0.653 l 11.103,14.784 -12.11,-13.775 c -0.582,-0.574 -0.491,-1.423 -0.062,-1.603 0.065,-0.027 0.157,-0.065 0.238,-0.059 z m 7.956,16.981 c 0.114,0.043 0.312,0.264 0.712,0.771 l 15.913,19.894 -15.438,-18.349 c -0.804,-0.906 -1.532,-2.445 -1.187,-2.316 l 0,0 z m 13.834,2.256 c 0.067,0.045 0.172,0.266 0.356,0.653 l 7.36,15.141 -7.303,-14.071 c -0.384,-0.704 -0.617,-1.857 -0.413,-1.723 l 0,0 z m -7.896,1.189 c 0.025,-0.105 0.181,-0.008 0.534,0.477 l 9.44,12.587 -9.263,-11.638 c -0.408,-0.485 -0.754,-1.25 -0.711,-1.426 l 0,0 z"
       style="fill:url(#path3794_1_)"
       inkscape:connector-curvature="0" /><path
       id="path3781"
       d="m 441.845,366.118 c -10.618,22.868 -23.986,52.605 -23.986,52.605 l -0.073,10.686 c 0,0 64.771,34.141 82.428,62.466 0,-4.042 4.868,-8.253 4.868,-8.253 -17.671,-23.057 -60.787,-62.781 -63.237,-117.504 l 0,0 z m -9.442,57.772 c 0.725,0.063 1.563,0.354 2.435,0.95 l 18.05,17.813 -21.61,-15.734 c -2.196,-1.42 -1.048,-3.213 1.125,-3.029 l 0,0 z m 22.8,0.237 c 0.595,-0.133 1.465,0.352 2.554,1.9 l 29.567,39.543 -31.646,-37.704 c -1.568,-1.579 -1.466,-3.517 -0.475,-3.739 l 0,0 z m -10.449,2.909 c 0.12,0.023 0.415,0.215 0.891,0.653 l 18.821,17.157 -18.107,-15.675 c -0.938,-0.766 -1.966,-2.209 -1.605,-2.135 l 0,0 z m 1.068,13.716 c 0.122,0.012 0.372,0.207 0.891,0.594 l 20.484,15.082 -19.595,-13.717 c -1.008,-0.667 -2.146,-1.995 -1.78,-1.959 l 0,0 z m 12.409,4.097 c 0.304,0.001 0.658,0.171 1.129,0.596 l 19.059,16.507 -20.068,-14.844 c -1.128,-0.719 -1.029,-2.262 -0.12,-2.259 l 0,0 z m 8.551,2.079 c 0.064,-0.023 0.152,-0.01 0.235,0 0.223,0.024 0.522,0.188 0.831,0.534 l 12.589,13.597 -13.477,-12.469 c -0.671,-0.537 -0.644,-1.49 -0.178,-1.662 l 0,0 0,0 z"
       style="fill:url(#path3781_1_)"
       inkscape:connector-curvature="0" /><path
       id="path3964"
       d="m 434.837,371.762 c -16.016,6.789 -15.133,45.951 -46.206,49.713 -8.424,1.026 -28.902,-5.836 -28.902,-5.836 0,0 -8.092,-1.76 -15.021,1.128 0,0 47.178,15.478 76.416,47.146 12.037,13.036 30.144,26.349 43.7,54.742 l 4.929,-0.771 -0.831,-0.832 c -4.084,-13.065 -37.584,-66.975 -37.584,-66.975 l -12.229,-39.188 c 0,0 14.689,-36.76 15.732,-39.129 l -0.004,0.002 z m -13.3,84.253 c 0.49,-0.028 1.362,0.539 2.435,1.843 0,0 19.851,22.822 39.246,54.268 -22.05,-34.295 -37.19,-49.552 -40.255,-52.421 -2.005,-2.005 -2.243,-3.631 -1.426,-3.681 l 0,-0.009 z m 10.628,7.303 c 0.406,0 1.082,0.474 1.9,1.603 0,0 15.171,19.902 29.565,46.847 -16.439,-29.438 -28.137,-42.847 -30.518,-45.36 -1.549,-1.761 -1.624,-3.091 -0.947,-3.09 l 0,0 z m 14.191,16.15 c 0.261,0.016 0.692,0.317 1.188,1.069 0,0 9.124,13.26 17.574,31.054 -9.691,-19.462 -16.771,-28.47 -18.229,-30.163 -0.945,-1.179 -0.969,-1.981 -0.533,-1.96 l 0,0 z"
       style="fill:url(#path3964_1_)"
       inkscape:connector-curvature="0" /><path
       id="path3065"
       enable-background="new    "
       d="m 667.414,501.76 c -5.513,16.02 -9.813,36.842 -4.509,46.289 5.517,9.824 4.636,29.724 -7.89,11.017 -12.282,-18.352 -56.903,-16.204 -79.944,-9.755 l 7.114,-17.324 26.217,3.051 c 0,0 -12.087,-7.35 -23.061,-10.237 L 575.55,511.38 c 13.283,8.086 46.568,23.184 46.568,23.184 0,0 17.107,2.069 17.687,-3.128 0,0 -34.413,-16.177 -55.194,-16.738 l -2.938,-11.185 c 0,0 35.733,9.439 27.417,-9.771 l 6.146,2.817 c 0,14.438 20.229,28.609 5.545,-1.922 0,0 1.294,3.533 6.703,0.761 0.949,7.563 14.514,31.839 21.225,36.435 6.712,4.596 6.572,-10.487 4.624,-35.902 l 14.081,5.829 0,0 z"
       inkscape:connector-curvature="0"
       style="opacity:0.39380002;fill:#d3383e" /><path
       id="path3054"
       d="m 601.872,500.334 c 5.733,-11.314 10.983,-26.304 7.788,-33.807 -3.323,-7.805 -0.788,-22.438 7.092,-7.385 7.729,14.769 24.592,17.89 42.908,15.353 l 5.265,7.176 -14.582,-0.228 c 0,0 8.604,6.608 16.771,9.812 l 6.271,10.878 c -9.456,-7.27 -33.634,-21.667 -33.634,-21.667 0,0 -12.958,-3.19 -13.888,0.599 0,0 16.796,15.131 32.72,17.563 l 4.996,9.325 c 0,0 -21.066,-13.354 -16.469,1.665 2.46,10.753 15.014,12.554 8.653,20.916 -0.023,-5.688 -21.007,-20.011 -36.706,-50.63 -1.373,-2.675 -1.394,10.085 -0.972,25.245 0.118,4.258 38.416,19.352 38.099,22.521 -1.549,15.379 -37.476,-12.759 -37.349,-10.844 0.863,13.159 10.96,25.98 10.612,33.529 l -2.475,2.835 -11.358,-21.013 c 0,0 -12.028,6.69 -20.816,16.663 l -2.52,-5.081 22.521,-19.856 -3.026,-30.841 c 0,0 -18.634,35.896 -20.381,49.74 l -3.521,-10.297 c 0.003,0.005 9.467,-20.81 14.001,-32.171 l 0,0 z"
       inkscape:connector-curvature="0"
       style="fill:#ffaaaa;stroke:#808080;stroke-width:0.52780002" /><path
       id="path10403"
       d="m 628.345,358.613 c -17.37,9.57 -39.68,22.219 -39.68,22.219 l -5.015,6.743 c 0,0 25.213,51.778 23.24,77.959 1.881,-2.564 6.929,-2.972 6.929,-2.972 -0.486,-22.846 -9.366,-68.096 14.524,-103.947 l 0.002,-0.002 0,0 z m -32.856,32.26 c 0.432,0.376 0.826,0.951 1.103,1.734 l 3.168,19.692 -6.394,-20.03 c -0.731,-1.919 0.831,-2.523 2.123,-1.396 l 0,0 z m 14.354,10.754 c 0.439,0.191 0.768,0.903 0.736,2.393 l 0.369,38.838 -2.543,-38.637 c -0.26,-1.731 0.706,-2.913 1.438,-2.594 l 0,0 z m -7.982,-3.014 c 0.063,0.069 0.163,0.329 0.261,0.828 l 3.961,19.639 -4.199,-18.365 c -0.238,-0.923 -0.217,-2.317 -0.023,-2.102 l 0,0 z m -5.7,9.198 c 0.072,0.064 0.14,0.307 0.289,0.791 l 5.979,19.095 -6.052,-17.813 c -0.328,-0.896 -0.432,-2.267 -0.216,-2.073 l 0,0 z m 5.967,8.37 c 0.192,0.144 0.339,0.415 0.439,0.901 l 4.415,19.334 -5.828,-18.749 c -0.383,-0.979 0.399,-1.912 0.974,-1.486 z m 4.458,5.294 c 0.054,0.018 0.104,0.065 0.15,0.11 0.129,0.119 0.244,0.362 0.277,0.726 l 1.662,14.479 -2.752,-14.178 c -0.173,-0.652 0.287,-1.244 0.663,-1.137 l 0,0 0,0 z"
       style="fill:url(#path10403_1_)"
       inkscape:connector-curvature="0" /><path
       id="path3056"
       d="m 557.083,433.207 c -1.45,0.188 -3.546,1.896 -6.39,6.043 -5.814,8.48 -14.343,12.34 -24.16,13.061 0.816,1.977 1.82,3.979 2.861,5.979 3.964,-0.048 8.778,0.34 9.053,2.729 0,0 -2.217,1.496 -5.524,3.444 1.368,2.237 2.807,4.438 4.326,6.628 3.903,-5.497 7.032,-9.426 8.387,-10.332 2.229,-1.486 1.054,7.61 -1.132,20.015 1.51,1.894 2.966,3.764 4.459,5.521 l 2.463,-10.786 c 0,0 3.953,10.228 7.588,21.897 3.535,3.717 6.141,6.34 7.521,7.667 -2.048,-6.961 -4.38,-14.896 -5.856,-20.662 -4.45,-12.623 -7.876,-29.01 -3.595,-36.453 3.2,-5.565 3.706,-15.229 -10e-4,-14.751 l 0,0 z m 10.05,74.009 -4.06,5.134 c 1.096,4.823 1.861,9.29 1.861,12.672 l 6.059,-5.005 c 0,0 -1.764,-5.72 -3.86,-12.801 l 0,0 z m -10.982,13.905 -3.328,4.289 c 2.982,3.083 6.137,6.729 8.853,10.786 l 3.264,-4.938 -8.789,-10.137 0,0 z"
       inkscape:connector-curvature="0"
       style="fill:#ffaaaa;stroke:#808080;stroke-width:0.55379999" /><path
       id="path10407"
       d="m 625.753,372.749 c -33.851,10.821 -32.431,2.544 -59.16,-21.135 -3.837,27.517 6.039,51.08 -13.725,87.384 l 7.07,2.023 c 25.816,-61.304 65.816,-68.271 65.815,-68.272 l 0,0 z m -41.12,17.655 c 0.252,0.361 0.204,1.13 -0.531,2.277 l -18.297,30.486 16.474,-31.414 c 0.622,-1.474 1.935,-1.948 2.354,-1.349 l 0,0 z m -17.038,-0.091 c 0.042,0.078 0.066,0.305 0.046,0.771 l -2.76,14.402 2.275,-13.341 c -0.011,-0.874 0.313,-2.067 0.439,-1.832 l 0,0 0,0 z m 0.305,14.981 c 0.119,0.192 0.125,0.521 -0.05,1.001 l -5.783,17.179 4.415,-17.431 c 0.142,-0.79 0.868,-1.144 1.255,-0.895 0.058,0.04 0.123,0.081 0.163,0.146 l 0,0 0,0 0,0 z m 0.601,8.39 c 0.157,0.127 0.224,0.404 0.002,0.854 l -5.596,12.104 4.629,-12.393 c 0.166,-0.563 0.703,-0.778 0.965,-0.565 l 0,0 0,0 0,0 z"
       style="fill:url(#path10407_1_)"
       inkscape:connector-curvature="0" /><path
       id="path3052"
       d="m 591.466,493.494 c -4.382,-12.629 -7.798,-29.047 -3.583,-36.495 4.384,-7.745 3.686,-23.433 -6.269,-8.684 -9.764,14.467 -27.322,15.507 -45.633,10.421 l -6.278,6.83 14.867,1.69 c 0,0 -9.604,5.795 -18.325,8.071 l -2.044,9.314 c 10.556,-6.375 31.271,-17.012 31.271,-17.012 0,0 13.599,-1.633 14.058,2.466 0,0 -10.475,12.753 -26.99,13.197 l -4.93,6.885 c 0,0 14.115,-5.511 7.509,9.636 l 4.884,-2.224 c 0,-11.384 16.076,-22.557 4.407,1.517 0,0 1.025,-2.785 5.326,-0.6 0.756,-5.964 11.531,-25.104 16.865,-28.727 5.333,-3.623 -7.351,20.816 -8.896,40.855 l 5.758,5.984 9.313,-26.704 c 0,0 1.646,23.62 1.646,38.376 l 3.573,8.729 c -0.005,0.007 6.626,-31.006 3.471,-43.525 l 0,0 z"
       inkscape:connector-curvature="0"
       style="fill:#ffaaaa;stroke:#808080;stroke-width:0.54960001" /><path
       id="path10391"
       d="m 563.266,340.183 c 0,0 17.777,28.094 19.416,56.941 0.677,11.875 8.408,28.81 3.325,49.282 l 2.909,1.663 -0.06,-0.772 c 3.453,-8.502 16.564,-42.571 16.564,-42.571 l 4.037,-29.565 c 0,0 18.045,-19.108 19.593,-19.893 -11.181,-3.312 -27.381,17.351 -45.064,6.058 -4.797,-3.06 -12.471,-15.319 -12.471,-15.319 0,0 -3.436,-4.36 -8.253,-5.819 l 0.004,-0.005 z m 23.275,48.213 c 0.97,0.127 1.909,1.063 1.604,2.494 l 0.416,47.559 c 0,-30.018 -3.683,-47.797 -3.683,-47.797 -0.306,-1.736 0.692,-2.384 1.663,-2.256 z m 6.531,5.581 c 0.16,-0.053 0.313,-0.043 0.475,0 0.647,0.178 1.192,1.064 0.831,2.316 l -3.74,32.893 c 2.026,-20.959 1.544,-33.25 1.544,-33.25 -0.018,-1.172 0.409,-1.8 0.89,-1.959 l 0,0 z m 2.434,13.954 c 0.571,-0.132 1.229,0.647 0.832,1.724 l -5.521,29.448 c 3.599,-18.56 3.979,-29.864 3.979,-29.864 0.045,-0.826 0.368,-1.23 0.71,-1.308 l 0,0 z"
       style="fill:url(#path10391_1_)"
       inkscape:connector-curvature="0" /><g
       id="path3962"
       style="filter:url(#filter3773)"><path
         d="m 496.564,300.245 c -2.399,-30.229 14.229,-50.73 14.229,-50.73 -8.767,-8.577 -17.167,-6.458 -23.217,-8.503 -11.398,-3.854 -12.902,-7.567 26.261,0.216 15.834,-11.516 59.979,-23.511 59.979,-23.511 l -23.032,13.915 c 19.192,-4.798 27.351,3.839 27.351,3.839 0,0 -54.697,-13.436 -66.215,63.336 l -0.396,2.714 -14.96,-1.276 0,0 0,0 z"
         id="path327"
         inkscape:connector-curvature="0"
         style="fill:#47a7eb" /></g><path
       id="path3901"
       d="m 542.827,409.856 c 7.508,-15.019 13.283,-36.962 13.283,-36.962 l -7.509,-3.465 -13.282,34.073 7.508,6.354 0,0 z"
       inkscape:connector-curvature="0"
       style="fill:#ef343b;stroke:#7c0000" /><path
       id="path3895"
       d="m 556.688,352.686 c 15.596,13.86 -5.195,33.496 -12.703,28.877 l 12.703,-28.877 z"
       style="fill:url(#path3895_1_);stroke:#7c0000"
       inkscape:connector-curvature="0" /><path
       id="path2922"
       d="m 581.553,286.09 c -13.236,0.249 -18.325,3.536 -18.325,3.536 0.677,3 0.798,5.921 0.798,5.921 34.375,-15.817 42.203,12.2 57.783,39.29 -6.105,10.179 0,15.557 0,15.557 1.02,4.071 -2.034,8.143 -2.375,7.125 0,0 -4.834,5.748 -8.847,11.222 -3.731,5.09 -4.021,12.545 -6.057,22.384 -1.394,6.729 2.224,38.61 3.385,26.125 1.161,-12.485 -0.693,-25.182 5.938,-40.968 2.646,-6.294 8.96,-10.492 13.359,-16.685 0,0 -2.663,5.979 -1.358,15.202 1.599,11.298 -0.127,11.194 1.308,20.662 1.504,9.933 3.248,19.861 3.712,22.879 0.464,3.018 5.776,16.607 6.116,18.646 0.3,1.802 2.888,4.88 4.83,8.766 1.695,3.395 4.247,13.521 5.024,15.341 2.035,4.75 -0.313,13.93 1.724,19.356 2.039,5.438 10.421,29.114 12.26,33.25 1.356,3.054 -0.388,5.753 -1.969,7.453 -1.581,1.7 -4.556,-0.688 -6.441,-0.409 -1.886,0.278 -6.856,1.726 -3.74,9.854 3.118,8.131 0.515,8.779 6.771,12.173 5.499,2.981 2.74,9.803 0.269,14.25 -1.695,3.055 -9.952,8.14 -13.538,6.115 -1.42,-1.448 1.069,-4.197 0.713,-6.77 -0.906,-6.55 -1.767,-14.751 -12.229,-8.134 -10.464,6.615 8.74,17.408 -2.375,28.5 -4.41,3.393 -12.466,-3.951 -18.573,-3.951 -6.105,0 -15.32,-33.419 -28.014,-49.143 -12.827,-15.89 -54.961,-60.454 -51.398,-90.819 3.563,-30.365 26.389,-81.038 31.783,-81.713 2.714,-0.339 9.349,10.207 10.865,13.241 2.715,5.429 4.055,50.535 9.144,44.77 0,0 -0.053,-45.712 -4.452,-51.3 -4.398,-5.59 -7.396,-7.906 -15.794,-30.697 -8.396,-22.792 -45.361,-27.371 -45.361,-27.371 0,0 -25.588,-4.221 -43.699,15.141 -11.457,7.992 -24.894,14.78 -31.409,32.182 -0.487,-1.982 -1.057,-3.957 -1.781,-6.056 -4.018,-11.635 -13.291,-21.223 -35.625,-23.157 -5.429,-4.75 -15.563,-2.019 -16.922,-6.769 -2.715,-8.143 -10.813,-13.521 -21.672,-10.807 -19,-1.357 -25.175,10.094 -25.175,10.094 -35.965,37.322 -21.019,72.616 -21.019,72.616 0,0 -6.786,22.384 14.25,50.884 0,0 -5.464,10.856 -0.714,23.75 8.146,21.716 14.787,48.336 26.423,61.216 11.637,12.88 10.242,15.005 14.547,20.366 44.24,55.114 92.746,34.094 147.844,63.829 0,0 110.371,67.67 158.354,-36.932 8.638,-26.869 0.204,-163.189 -36.871,-209.949 -21.334,-18.183 -28.046,-68.5 -61.453,-70.063 l -0.014,-0.003 z m -224.617,18.941 7.659,0.475 c 0,0 8.15,-0.91 12.471,1.01 2.808,1.248 6.262,9.954 10.566,11.519 4.309,1.564 8.669,2.375 8.669,2.375 0,0 5.255,3.85 8.134,4.809 5.328,1.776 14.829,-0.955 22.09,6.234 7.238,7.17 14.604,25.691 6.709,44.115 -2.88,6.719 -15.369,23.401 -16.743,36.339 -1.266,22.857 20.818,53.846 16.269,38.059 0,0 -7.714,-17.018 -8.191,-34.557 -0.409,-14.938 20.438,-30.447 18.404,-58.543 2.519,-8.011 9.723,-20.168 19.595,-22.042 -3.496,10.448 3.594,22.766 14.569,27.427 14.925,6.336 23.493,-4.606 26.586,-7.86 -12.847,5.184 -42.427,6.894 -32.786,-27.39 15.307,-26.854 48.115,-22.31 55.694,-20.484 7.03,1.694 49.089,21.043 21.079,49.342 0,0 -12.303,11.629 -21.037,13.865 -7.732,1.98 -14.532,-7.057 -21.13,-15.047 1.409,3.354 3.226,13.887 7.357,16.946 13.815,10.239 24.01,-2.554 26.854,0.086 1.203,1.837 -10.927,11.048 -12.236,14.714 -17.271,39.348 -13.998,56.039 -2.003,96.344 0,0 7.838,28.815 17.103,49.282 5.341,11.803 14.079,16.013 14.604,22.684 2.879,31.669 -2.21,26.88 -20.129,23.302 -15.109,-3.02 -22.484,-12.069 -26.422,-8.135 -3.73,3.73 2.002,12.843 -5.462,8.432 -16.965,-11.535 -29.526,-5.759 -32.241,-10.509 0,0 -7.229,-21.278 -24.19,-9.063 -6.786,8.145 -9.354,-4.82 -18.854,-3.465 -9.5,1.356 -17.821,-14.751 -25.116,-15.26 -7.295,-0.509 -28.65,-20.704 -30.518,-36.991 -1.866,-16.285 -12.749,-28.669 -13.597,-33.25 -0.851,-4.58 1.134,-7.042 -2.021,-11.222 -3.153,-4.181 -11.683,-10.453 -12.36,-26.063 24.771,-2.714 81.1,39.055 72.616,26.838 0,0 -21.045,-28.17 -74.991,-41.739 0.681,-6.446 -7.455,-12.929 -15.26,-19.713 -1.018,-8.821 -9.151,-23.732 -5.759,-47.145 8.143,-27.481 27.807,-44.118 34.021,-45.718 l 0,0 -0.003,-10e-4 0,0 z"
       inkscape:connector-curvature="0"
       style="fill:#f9e8bc;stroke:#f7dfa3;stroke-linejoin:round" /><g
       id="path4174"
       style="filter:url(#filter4180)"><path
         d="m 384.737,199.164 c -11.915,57.068 5.017,93.44 5.017,93.44 -8.152,-42.644 -5.017,-93.44 -5.017,-93.44 z"
         id="path381"
         inkscape:connector-curvature="0"
         style="fill:#44a6eb" /></g><g
       id="path3735"
       style="filter:url(#filter3744)"><path
         d="m 473.551,140.55 c -35.47,0 -64.243,36.873 -64.243,82.413 0,8.321 1.005,16.355 2.791,23.929 -0.551,-4.343 -0.891,-8.817 -0.891,-13.359 0,-45.54 28.775,-82.413 64.242,-82.413 28.815,0 53.204,24.326 61.334,57.891 -5.179,-38.868 -31.482,-68.459 -63.233,-68.459 l 0,-0.002 z"
         id="path393"
         inkscape:connector-curvature="0"
         style="fill:#fd6c78" /></g><path
       style="fill:none"
       inkscape:connector-curvature="0"
       id="ProcessOnPath1003"
       d="m 290.70856,212.92845 408.33333,0 0,356.66667 -408.33333,0 0,-356.66667 z" /><g
       id="g4431"><path
         inkscape:connector-curvature="0"
         id="ProcessOnPath1030-1-5-0-7"
         d="m 605.61133,360.27734 c -11.76711,6.81468 -18.20248,11.36087 -21.16602,15.39844 -1.48177,2.01879 -2.07621,3.99932 -1.83398,5.91797 0.24223,1.91865 1.24884,3.68456 2.65625,5.51758 5.62963,7.33206 18.19027,16.42329 24.39648,39.21679 l 1.92969,-0.52539 c -6.35179,-23.32817 -19.51677,-33.10709 -24.74023,-39.91015 -1.30587,-1.70077 -2.0842,-3.17368 -2.25782,-4.54883 -0.17361,-1.37515 0.18477,-2.74569 1.46094,-4.48437 2.55235,-3.47737 8.85462,-8.07458 20.55664,-14.85157 l -1.00195,-1.73047 z"
         style="color:#000000;font-style:normal;font-variant:normal;font-weight:normal;font-stretch:normal;font-size:medium;line-height:normal;font-family:sans-serif;text-indent:0;text-align:start;text-decoration:none;text-decoration-line:none;text-decoration-style:solid;text-decoration-color:#000000;letter-spacing:normal;word-spacing:normal;text-transform:none;direction:ltr;block-progression:tb;writing-mode:lr-tb;baseline-shift:baseline;text-anchor:start;white-space:normal;clip-rule:nonzero;display:inline;overflow:visible;visibility:visible;opacity:1;isolation:auto;mix-blend-mode:normal;color-interpolation:sRGB;color-interpolation-filters:linearRGB;solid-color:#000000;solid-opacity:1;fill:#cccccc;fill-opacity:1;fill-rule:nonzero;stroke:none;stroke-width:2;stroke-linecap:butt;stroke-linejoin:miter;stroke-miterlimit:4;stroke-dasharray:none;stroke-dashoffset:0;stroke-opacity:1;color-rendering:auto;image-rendering:auto;shape-rendering:auto;text-rendering:auto;enable-background:accumulate" /><path
         style="fill:#323232;stroke:#323232;stroke-width:2"
         inkscape:connector-curvature="0"
         d="m 614.04433,438.60814 -6.91466,-10.55414 7.52415,-2.04867 z"
         id="path4437" /></g></g></svg>