<?xml version="1.0" encoding="UTF-8" standalone="no"?>
<!-- Generator: Adobe Illustrator 19.0.0, SVG Export Plug-In . SVG Version: 6.00 Build 0)  -->

<svg
   xmlns:dc="http://purl.org/dc/elements/1.1/"
   xmlns:cc="http://creativecommons.org/ns#"
   xmlns:rdf="http://www.w3.org/1999/02/22-rdf-syntax-ns#"
   xmlns:svg="http://www.w3.org/2000/svg"
   xmlns="http://www.w3.org/2000/svg"
   xmlns:sodipodi="http://sodipodi.sourceforge.net/DTD/sodipodi-0.dtd"
   xmlns:inkscape="http://www.inkscape.org/namespaces/inkscape"
   version="1.1"
   id="Layer_1"
   x="0px"
   y="0px"
   viewBox="0 0 512 512"
   style="enable-background:new 0 0 512 512;"
   xml:space="preserve"
   sodipodi:docname="music_player_1206029_easyicon.net.svg"
   inkscape:version="0.92.0 r"><metadata
     id="metadata59"><rdf:RDF><cc:Work
         rdf:about=""><dc:format>image/svg+xml</dc:format><dc:type
           rdf:resource="http://purl.org/dc/dcmitype/StillImage" /></cc:Work></rdf:RDF></metadata><defs
     id="defs57" /><sodipodi:namedview
     pagecolor="#ffffff"
     bordercolor="#666666"
     borderopacity="1"
     objecttolerance="10"
     gridtolerance="10"
     guidetolerance="10"
     inkscape:pageopacity="0"
     inkscape:pageshadow="2"
     inkscape:window-width="2160"
     inkscape:window-height="1390"
     id="namedview55"
     showgrid="false"
     inkscape:zoom="0.99209595"
     inkscape:cx="82.428854"
     inkscape:cy="195.63163"
     inkscape:window-x="0"
     inkscape:window-y="50"
     inkscape:window-maximized="1"
     inkscape:current-layer="Layer_1" /><g
     id="g6"
     style="fill:#212121;fill-opacity:1"><polygon
       style="fill:#212121;fill-opacity:1"
       points="34.289,341.986 43.391,424.95 71.173,424.95 71.173,341.986  "
       id="polygon2" /><polygon
       style="fill:#212121;fill-opacity:1"
       points="477.711,341.986 468.609,424.95 440.827,424.95 440.827,341.986  "
       id="polygon4" /></g><g
     id="g14"
     style="fill:#212121;fill-opacity:1"><path
       style="fill:#212121;fill-opacity:1"
       d="M422.639,312.421l-22.756,71.047l22.756,71.047c16.328,0,29.565-13.237,29.565-29.565v-82.963   C452.205,325.659,438.968,312.421,422.639,312.421z"
       id="path8" /><path
       style="fill:#212121;fill-opacity:1"
       d="M59.795,341.986v82.963c0,16.329,13.237,29.565,29.565,29.565l22.756-71.047L89.36,312.42   C73.032,312.421,59.795,325.659,59.795,341.986z"
       id="path10" /><path
       style="fill:#212121;fill-opacity:1"
       d="M437.02,87.53C388.665,39.186,324.38,12.551,256,12.551S123.335,39.186,74.98,87.53   C26.624,135.886,0,200.17,0,268.551c0,7.908,6.411,14.319,14.319,14.319c7.909,0,14.319-6.411,14.319-14.319   C28.638,142.986,130.435,41.189,256,41.189c125.465,0,227.197,101.637,227.359,227.063c-0.002,0.101-0.015,0.198-0.015,0.299   c0,7.913,6.415,14.328,14.328,14.328S512,276.465,512,268.551C512,200.17,485.376,135.886,437.02,87.53z"
       id="path12" /></g><path
     style="fill:#212121;fill-opacity:1"
     d="M477.142,424.95c-4.714,0-8.533,0-8.533,0V321.555c0-0.668,0.079-1.335,0.233-1.983  c3.97-16.61,5.984-33.775,5.984-51.019c0-120.661-98.164-218.827-218.825-218.827S37.175,147.893,37.175,268.553  c0,17.244,2.014,34.409,5.984,51.019c0.155,0.649,0.233,1.315,0.233,1.983V424.95c0,0-3.82,0-8.533,0s-8.533-3.82-8.533-8.533  v-93.864c-4.126-17.6-6.217-35.762-6.217-53.999C20.108,138.481,125.929,32.66,256,32.66s235.892,105.821,235.892,235.893  c0,18.237-2.091,36.399-6.217,53.999v93.864C485.675,421.13,481.856,424.95,477.142,424.95z"
     id="path16" /><g
     id="g22"
     style="fill:#e53935;fill-opacity:1"><path
       style="fill:#e53935;fill-opacity:1"
       d="M377.706,267.488c-24.817,0-44.934,20.118-44.934,44.933v142.095   c0,24.817,20.117,44.933,44.934,44.933c24.816,0,44.934-20.117,44.934-44.933V312.421   C422.639,287.606,402.522,267.488,377.706,267.488z"
       id="path18" /><path
       style="fill:#e53935;fill-opacity:1"
       d="M134.294,267.488c-24.816,0-44.934,20.118-44.934,44.933v142.095   c0,24.817,20.117,44.933,44.934,44.933s44.934-20.117,44.934-44.933V312.421C179.228,287.606,159.111,267.488,134.294,267.488z"
       id="path20" /></g><g
     id="g24" /><g
     id="g26" /><g
     id="g28" /><g
     id="g30" /><g
     id="g32" /><g
     id="g34" /><g
     id="g36" /><g
     id="g38" /><g
     id="g40" /><g
     id="g42" /><g
     id="g44" /><g
     id="g46" /><g
     id="g48" /><g
     id="g50" /><g
     id="g52" /><g
     id="g4705"
     transform="matrix(0.45539247,0,0,0.45539247,179.949,93.949)"><g
       id="g4614" /><g
       id="g4616" /><g
       id="g4618" /><g
       id="g4620" /><g
       id="g4622" /><g
       id="g4624" /><g
       id="g4626" /><g
       id="g4628" /><g
       id="g4630" /><g
       id="g4632" /><g
       id="g4634" /><g
       id="g4636" /><g
       id="g4638" /><g
       id="g4640" /><g
       id="g4642" /><g
       id="g4612" /></g></svg>