<?xml version="1.0" encoding="iso-8859-1"?>
<!-- Generator: Adobe Illustrator 19.0.0, SVG Export Plug-In . SVG Version: 6.00 Build 0)  -->
<svg version="1.1" id="Capa_1" xmlns="http://www.w3.org/2000/svg" xmlns:xlink="http://www.w3.org/1999/xlink" x="0px" y="0px"
	 viewBox="0 0 463 463" style="enable-background:new 0 0 463 463;" xml:space="preserve">
<g>
	<path d="M439.5,208c-10.336,0-19.128,6.71-22.266,16H310.636c-0.514-5.464-1.576-10.77-3.143-15.859l39.352-16.3
		c4.473,5.115,10.973,8.053,17.726,8.053c2.991,0,6.031-0.575,8.962-1.789c11.972-4.959,17.676-18.733,12.718-30.704
		c-2.402-5.799-6.919-10.316-12.718-12.719c-5.799-2.401-12.186-2.401-17.986,0c-5.8,2.402-10.316,6.919-12.719,12.718
		c-1.41,3.404-1.968,7.01-1.722,10.582l-39.377,16.311c-2.545-4.784-5.554-9.285-8.985-13.427l75.388-75.388
		c3.207,1.595,6.762,2.445,10.448,2.445c6.277,0,12.179-2.445,16.616-6.883c4.439-4.439,6.884-10.34,6.884-16.618
		c0-6.277-2.444-12.178-6.883-16.617c-9.164-9.163-24.07-9.162-33.234,0c-7.306,7.307-8.767,18.26-4.42,27.047l-75.406,75.406
		c-4.143-3.431-8.644-6.441-13.428-8.986l16.307-39.37c0.521,0.035,1.042,0.059,1.562,0.059c9.225,0,17.997-5.467,21.741-14.507
		c2.402-5.799,2.402-12.187,0.001-17.986c-2.402-5.799-6.919-10.316-12.719-12.718c-11.973-4.959-25.746,0.747-30.704,12.718
		c-2.402,5.799-2.402,12.187,0,17.986c1.41,3.404,3.565,6.349,6.264,8.701l-16.3,39.352c-5.089-1.568-10.396-2.63-15.86-3.143
		V45.766c9.29-3.138,16-11.93,16-22.266C255,10.542,244.458,0,231.5,0S208,10.542,208,23.5c0,10.336,6.71,19.128,16,22.266v106.599
		c-5.464,0.514-10.77,1.576-15.859,3.143l-16.3-39.352c2.699-2.352,4.854-5.297,6.264-8.701c2.402-5.799,2.402-12.187,0-17.986
		C193.146,77.497,179.37,71.791,167.4,76.75c-11.971,4.959-17.676,18.732-12.718,30.705c3.745,9.041,12.515,14.506,21.741,14.506
		c0.519,0,1.041-0.024,1.562-0.059l16.308,39.37c-4.785,2.545-9.285,5.555-13.428,8.986L105.477,94.87
		c1.595-3.207,2.445-6.762,2.445-10.449c0-6.277-2.444-12.178-6.883-16.617c-9.164-9.163-24.071-9.163-33.233,0
		c-4.439,4.439-6.884,10.34-6.884,16.617c0,6.277,2.444,12.179,6.883,16.617s10.34,6.883,16.617,6.883
		c3.687,0,7.241-0.85,10.448-2.445l75.388,75.388c-3.431,4.143-6.441,8.644-8.986,13.428l-39.377-16.311
		c0.246-3.572-0.313-7.178-1.722-10.582c-2.402-5.799-6.919-10.316-12.719-12.718c-5.8-2.402-12.188-2.401-17.985,0
		c-5.8,2.402-10.316,6.919-12.719,12.719c-2.401,5.799-2.401,12.187,0,17.986c2.402,5.799,6.919,10.316,12.719,12.718
		c2.899,1.201,5.945,1.801,8.992,1.801s6.094-0.601,8.993-1.802c3.404-1.41,6.349-3.565,8.701-6.264l39.352,16.3
		c-1.567,5.089-2.629,10.395-3.143,15.859H45.766c-3.138-9.29-11.93-16-22.266-16C10.542,208,0,218.542,0,231.5S10.542,255,23.5,255
		c10.336,0,19.128-6.71,22.266-16h106.599c0.514,5.464,1.576,10.77,3.143,15.859l-39.352,16.3c-2.352-2.699-5.297-4.854-8.701-6.264
		c-5.797-2.4-12.185-2.401-17.985,0c-5.8,2.402-10.316,6.919-12.719,12.718c-2.401,5.799-2.401,12.187,0,17.986
		c2.402,5.799,6.919,10.316,12.719,12.718c2.899,1.201,5.946,1.802,8.993,1.802c3.046,0,6.093-0.601,8.992-1.801
		c5.8-2.402,10.316-6.919,12.719-12.718c1.41-3.404,1.968-7.01,1.723-10.582l39.377-16.311c2.545,4.784,5.555,9.285,8.986,13.428
		L94.87,357.523c-3.207-1.595-6.762-2.445-10.448-2.445c-6.277,0-12.179,2.445-16.616,6.883c-4.439,4.438-6.884,10.34-6.884,16.617
		s2.444,12.179,6.883,16.617c4.582,4.582,10.599,6.873,16.617,6.872c6.017,0,12.036-2.291,16.616-6.872
		c4.439-4.439,6.884-10.34,6.884-16.618c0-3.687-0.849-7.241-2.445-10.448l75.388-75.388c4.143,3.431,8.644,6.441,13.428,8.986
		l-16.308,39.37c-9.784-0.656-19.348,4.899-23.304,14.448c-4.957,11.972,0.748,25.745,12.719,30.704
		c2.932,1.214,5.971,1.789,8.962,1.789c9.226,0,17.998-5.467,21.742-14.507c2.402-5.799,2.402-12.187,0.001-17.986
		c-1.41-3.405-3.565-6.349-6.265-8.702l16.3-39.351c5.089,1.568,10.395,2.63,15.859,3.143v106.599c-9.29,3.138-16,11.93-16,22.266
		c0,12.958,10.542,23.5,23.5,23.5s23.5-10.542,23.5-23.5c0-10.336-6.71-19.128-16-22.266V310.636
		c5.464-0.514,10.771-1.576,15.86-3.143l16.299,39.351c-2.699,2.352-4.855,5.297-6.265,8.702
		c-2.401,5.799-2.401,12.187,0.001,17.986c3.744,9.041,12.516,14.507,21.742,14.507c2.991,0,6.031-0.575,8.962-1.789
		c5.8-2.402,10.316-6.919,12.719-12.718c2.401-5.799,2.401-12.187-0.001-17.987c-3.955-9.548-13.52-15.103-23.303-14.447
		l-16.307-39.37c4.784-2.545,9.285-5.555,13.428-8.986l75.406,75.406c-4.346,8.787-2.886,19.74,4.42,27.048
		c4.582,4.582,10.599,6.873,16.617,6.872c6.017,0,12.036-2.291,16.616-6.872c4.439-4.439,6.884-10.34,6.884-16.618
		s-2.444-12.179-6.883-16.617c-4.438-4.438-10.34-6.883-16.617-6.883c-3.687,0-7.241,0.849-10.448,2.445l-75.388-75.388
		c3.431-4.143,6.44-8.643,8.985-13.427l39.377,16.311c-0.246,3.572,0.313,7.178,1.722,10.582
		c2.402,5.799,6.919,10.316,12.719,12.718c2.899,1.201,5.946,1.801,8.993,1.801c3.046,0,6.094-0.601,8.993-1.802
		c5.799-2.402,10.315-6.919,12.717-12.718c4.959-11.971-0.745-25.745-12.717-30.705c-9.55-3.955-20.24-1.121-26.694,6.261
		l-39.346-16.297c1.567-5.089,2.629-10.395,3.143-15.859h106.599c3.138,9.29,11.93,16,22.266,16c12.958,0,23.5-10.542,23.5-23.5
		S452.458,208,439.5,208z M356.686,173.141c0.869-2.098,2.503-3.731,4.601-4.6c1.049-0.435,2.15-0.652,3.253-0.652
		c1.102,0,2.204,0.217,3.253,0.652c2.097,0.869,3.73,2.502,4.599,4.6l0.001,0c1.793,4.33-0.271,9.313-4.6,11.106
		c-4.331,1.792-9.313-0.27-11.106-4.6C355.817,177.549,355.817,175.238,356.686,173.141z M278.753,95.208
		c1.354-3.27,4.527-5.247,7.865-5.247c1.082,0,2.182,0.208,3.241,0.647c2.098,0.869,3.731,2.502,4.601,4.6
		c0.868,2.098,0.868,4.408,0,6.505c-1.794,4.331-6.775,6.395-11.106,4.6c-2.098-0.869-3.731-2.502-4.601-4.6
		C277.885,99.617,277.885,97.306,278.753,95.208z M168.541,101.715c-1.794-4.331,0.27-9.313,4.6-11.106
		c4.332-1.793,9.313,0.271,11.106,4.6c0.868,2.098,0.868,4.408,0,6.505c-0.869,2.098-2.503,3.731-4.601,4.6
		C175.316,108.109,170.334,106.044,168.541,101.715z M101.714,184.247c-2.097,0.869-4.406,0.869-6.505,0
		c-2.098-0.869-3.731-2.502-4.601-4.6c-0.868-2.098-0.868-4.408,0-6.506l0.001,0c0.868-2.097,2.502-3.731,4.6-4.6
		c1.049-0.435,2.15-0.652,3.253-0.652c1.102,0,2.203,0.217,3.252,0.652c2.098,0.869,3.731,2.502,4.601,4.6
		c0.868,2.098,0.868,4.408-0.001,6.506C105.445,181.744,103.812,183.377,101.714,184.247z M106.314,289.859
		c-0.869,2.098-2.503,3.731-4.601,4.6c-2.099,0.869-4.408,0.867-6.505,0c-2.098-0.869-3.731-2.502-4.601-4.6
		c-0.868-2.098-0.868-4.408,0-6.506c0.869-2.098,2.503-3.731,4.601-4.6c1.049-0.435,2.15-0.652,3.252-0.652
		c1.103,0,2.204,0.217,3.253,0.652c2.098,0.869,3.731,2.502,4.6,4.6l0.001,0C107.183,285.451,107.183,287.762,106.314,289.859z
		 M184.247,367.792c-1.793,4.33-6.771,6.394-11.106,4.6c-4.33-1.793-6.394-6.776-4.601-11.105c1.354-3.271,4.527-5.248,7.865-5.248
		c1.082,0,2.182,0.208,3.241,0.647c2.098,0.869,3.731,2.502,4.601,4.6C185.115,363.383,185.115,365.694,184.247,367.792z
		 M294.46,361.286c0.868,2.098,0.868,4.408,0,6.506c-0.869,2.098-2.503,3.731-4.601,4.6c-4.332,1.793-9.313-0.271-11.106-4.6
		c-0.868-2.098-0.868-4.408,0-6.506c0.869-2.098,2.503-3.731,4.601-4.6C287.685,354.895,292.666,356.956,294.46,361.286z
		 M364.551,278.106c1.081,0,2.181,0.208,3.241,0.646c4.329,1.794,6.393,6.776,4.599,11.107c-0.868,2.097-2.502,3.73-4.599,4.6
		c-2.1,0.869-4.41,0.868-6.506,0c-2.098-0.869-3.731-2.502-4.601-4.6c-0.868-2.098-0.868-4.408,0-6.506
		C358.04,280.083,361.213,278.106,364.551,278.106z M231.5,296c-35.565,0-64.5-28.935-64.5-64.5s28.935-64.5,64.5-64.5
		s64.5,28.935,64.5,64.5S267.065,296,231.5,296z M372.568,78.411c1.656-1.657,3.833-2.485,6.01-2.485s4.354,0.829,6.01,2.485
		c0,0,0.001,0,0.001,0c1.605,1.605,2.489,3.74,2.489,6.01c0,2.271-0.884,4.405-2.49,6.011c-1.605,1.605-3.739,2.49-6.01,2.49
		s-4.404-0.884-6.01-2.49C369.254,87.118,369.254,81.725,372.568,78.411z M231.5,15c4.687,0,8.5,3.813,8.5,8.5s-3.813,8.5-8.5,8.5
		s-8.5-3.813-8.5-8.5S226.813,15,231.5,15z M78.411,90.432c-1.605-1.605-2.489-3.74-2.489-6.01c0-2.27,0.884-4.404,2.489-6.01
		c0,0,0.001,0,0.001,0c1.656-1.657,3.833-2.485,6.01-2.485s4.354,0.829,6.011,2.486c1.605,1.605,2.489,3.74,2.489,6.01
		c0,2.271-0.884,4.405-2.49,6.011c-1.605,1.605-3.739,2.49-6.01,2.49S80.018,92.038,78.411,90.432z M23.5,240
		c-4.687,0-8.5-3.813-8.5-8.5s3.813-8.5,8.5-8.5s8.5,3.813,8.5,8.5S28.187,240,23.5,240z M90.432,384.589
		c-3.313,3.313-8.706,3.314-12.021,0c-1.605-1.605-2.489-3.74-2.489-6.01c0-2.27,0.884-4.405,2.49-6.01
		c1.605-1.605,3.739-2.49,6.01-2.49s4.404,0.884,6.01,2.49c0.001,0.001,0.002,0.002,0.003,0.003
		c1.604,1.605,2.487,3.739,2.487,6.008C92.922,380.849,92.038,382.983,90.432,384.589z M231.5,448c-4.687,0-8.5-3.813-8.5-8.5
		s3.813-8.5,8.5-8.5s8.5,3.813,8.5,8.5S236.187,448,231.5,448z M384.589,372.568c1.605,1.605,2.489,3.74,2.489,6.01
		c0,2.271-0.884,4.405-2.49,6.011c-3.314,3.314-8.707,3.313-12.02,0c-3.314-3.314-3.314-8.707,0-12.021
		c1.605-1.605,3.739-2.49,6.01-2.49S382.982,370.962,384.589,372.568z M439.5,240c-4.687,0-8.5-3.813-8.5-8.5s3.813-8.5,8.5-8.5
		s8.5,3.813,8.5,8.5S444.187,240,439.5,240z"/>
	<path d="M231,207.5c0-12.958-10.542-23.5-23.5-23.5S184,194.542,184,207.5s10.542,23.5,23.5,23.5S231,220.458,231,207.5z
		 M207.5,216c-4.687,0-8.5-3.813-8.5-8.5s3.813-8.5,8.5-8.5s8.5,3.813,8.5,8.5S212.187,216,207.5,216z"/>
	<path d="M239.5,240c-12.958,0-23.5,10.542-23.5,23.5s10.542,23.5,23.5,23.5s23.5-10.542,23.5-23.5S252.458,240,239.5,240z
		 M239.5,272c-4.687,0-8.5-3.813-8.5-8.5s3.813-8.5,8.5-8.5s8.5,3.813,8.5,8.5S244.187,272,239.5,272z"/>
	<path d="M247.52,207c4.143,0,7.5-3.358,7.5-7.5s-3.357-7.5-7.5-7.5h-0.01c-4.142,0-7.495,3.358-7.495,7.5S243.378,207,247.52,207z"
		/>
	<path d="M271.52,224h-0.01c-4.142,0-7.495,3.358-7.495,7.5s3.363,7.5,7.505,7.5c4.143,0,7.5-3.358,7.5-7.5S275.662,224,271.52,224z
		"/>
</g>
<g>
</g>
<g>
</g>
<g>
</g>
<g>
</g>
<g>
</g>
<g>
</g>
<g>
</g>
<g>
</g>
<g>
</g>
<g>
</g>
<g>
</g>
<g>
</g>
<g>
</g>
<g>
</g>
<g>
</g>
</svg>
