<?xml version="1.0" encoding="UTF-8" standalone="no"?>
<svg
   xmlns:dc="http://purl.org/dc/elements/1.1/"
   xmlns:cc="http://creativecommons.org/ns#"
   xmlns:rdf="http://www.w3.org/1999/02/22-rdf-syntax-ns#"
   xmlns:svg="http://www.w3.org/2000/svg"
   xmlns="http://www.w3.org/2000/svg"
   xmlns:sodipodi="http://sodipodi.sourceforge.net/DTD/sodipodi-0.dtd"
   xmlns:inkscape="http://www.inkscape.org/namespaces/inkscape"
   class="icon"
   width="200px"
   height="200.00px"
   viewBox="0 0 1024 1024"
   version="1.1"
   id="svg28"
   sodipodi:docname="shengdanlaoren.svg"
   inkscape:version="0.92.4 5da689c313, 2019-01-14">
  <metadata
     id="metadata34">
    <rdf:RDF>
      <cc:Work
         rdf:about="">
        <dc:format>image/svg+xml</dc:format>
        <dc:type
           rdf:resource="http://purl.org/dc/dcmitype/StillImage" />
      </cc:Work>
    </rdf:RDF>
  </metadata>
  <defs
     id="defs32" />
  <sodipodi:namedview
     pagecolor="#ffffff"
     bordercolor="#666666"
     borderopacity="1"
     objecttolerance="10"
     gridtolerance="10"
     guidetolerance="10"
     inkscape:pageopacity="0"
     inkscape:pageshadow="2"
     inkscape:window-width="1920"
     inkscape:window-height="1048"
     id="namedview30"
     showgrid="false"
     inkscape:zoom="3.337544"
     inkscape:cx="36.05145"
     inkscape:cy="110.8966"
     inkscape:window-x="0"
     inkscape:window-y="0"
     inkscape:window-maximized="1"
     inkscape:current-layer="svg28" />
  <path
     style="stroke-width:0.1953125;fill:#ffffff"
     d="M 101.42188 10.498047 C 98.818677 10.568542 96.210938 11.220703 93.808594 12.480469 C 93.691406 12.539062 93.59375 12.597656 93.496094 12.65625 L 47.207031 42.695312 C 41.660156 45.683594 38.222656 51.308594 38.222656 57.441406 L 38.222656 71.757812 L 45.996094 71.757812 L 45.996094 57.460938 C 45.996094 54.160156 47.910156 51.113281 50.996094 49.492188 C 51.113281 49.433594 51.210938 49.375 51.308594 49.316406 L 97.558594 19.296875 C 98.86963 18.64502 100.30479 18.31794 101.73633 18.298828 C 104.12223 18.266975 106.49903 19.091797 108.28125 20.703125 C 108.32031 20.742188 108.35937 20.761719 108.39844 20.800781 L 153.96875 58.9375 C 151.10862 62.43499 149.38625 66.89679 149.37695 71.757812 L 157.13086 71.757812 C 157.14161 64.833254 162.78007 59.179688 169.72656 59.179688 C 176.67969 59.179688 182.32422 64.84375 182.34375 71.777344 C 182.34375 78.730469 176.66016 84.394531 169.72656 84.394531 C 168.51295 84.394531 167.34272 84.212266 166.23047 83.888672 L 166.23047 86.914062 C 166.22214 88.637414 165.61674 90.219292 164.61523 91.470703 C 166.25112 91.897605 167.95771 92.148438 169.72656 92.148438 C 180.95703 92.148438 190.07812 83.007812 190.07812 71.796875 C 190.07812 60.585938 180.95703 51.445312 169.72656 51.445312 C 166.22314 51.445312 162.92235 52.336814 160.03906 53.904297 L 113.41797 14.882812 C 110.08545 11.879885 105.76051 10.380554 101.42188 10.498047 z "
     transform="scale(5.12)"
     id="path4" />
  <path
     d="M478.3 992.9c-20.2 0-40-5.7-55.7-16L187.2 822c-5.6-3.7-8.9-9.9-8.9-16.6V482.5c0-11 8.9-19.8 19.8-19.8h560.3c11 0 19.8 8.9 19.8 19.8v322.8c0 3.8-1 7.3-2.8 10.3-1.5 2.5-3.6 4.7-6.1 6.3L534 976.9c-15.7 10.3-35.5 16-55.7 16zM218 794.7l226.4 149c19.3 12.7 48.5 12.7 67.8 0l226.4-149V502.4H218v292.3z"
     id="path6"
     style="fill:#ffffff" />
  <path
     d="M813.4 502.4H140.2c-31.7 0-57.4-25.7-57.4-57.4v-39.9c0-31.7 25.7-57.4 57.4-57.4h673.3c31.7 0 57.4 25.8 57.4 57.4V445c-0.1 31.6-25.8 57.4-57.5 57.4z m-673.2-115c-9.8 0-17.7 7.9-17.7 17.7V445c0 9.8 7.9 17.7 17.7 17.7h673.3c9.8 0 17.7-7.9 17.7-17.7v-39.9c0-9.8-7.9-17.7-17.7-17.7H140.2z"
     id="path14"
     style="fill:#ffffff" />
  <path
     style="stroke-width:0.1953125;fill:#ffffff"
     d="M 52.207031 90.371094 C 50.078125 90.371094 48.339844 92.089844 48.339844 94.238281 L 48.339844 146.05469 C 48.4375 147.42188 49.238281 148.63281 50.449219 149.25781 L 84.84375 166.83594 C 87.363281 168.49609 90.390625 169.31641 93.417969 169.31641 C 96.445313 169.31641 99.472656 168.47656 101.99219 166.81641 L 122.11328 156.5332 C 120.7072 156.66609 119.24735 156.46501 117.85156 155.87891 L 111.55469 153.22852 L 98.261719 160.01953 C 98.105469 160.09766 97.949219 160.19531 97.8125 160.29297 C 95.351562 161.99219 91.503906 161.99219 89.042969 160.29297 C 88.886719 160.19531 88.75 160.09766 88.59375 160.01953 L 75.859375 153.51367 L 70.117188 155.85938 C 65.605469 157.71484 60.449219 155.52734 58.59375 151.01562 C 57.722144 148.89625 57.7485 146.63413 58.480469 144.63672 L 56.09375 143.41797 L 56.09375 98.125 L 130.76172 98.125 L 130.76172 143.41797 L 129.35938 144.13477 C 130.31365 146.28488 130.4185 148.80685 129.43359 151.15234 C 129.05212 152.0608 128.5333 152.86582 127.91797 153.56641 L 136.38672 149.23828 C 136.99219 148.92578 137.48047 148.45703 137.85156 147.91016 C 138.26172 147.30469 138.49609 146.5625 138.49609 145.78125 L 138.49609 94.238281 C 138.49609 92.109375 136.77734 90.371094 134.62891 90.371094 L 52.207031 90.371094 z "
     transform="scale(5.12)"
     id="path16" />
  <path
     d="M620.9 821.5c-8.4 0-16.9-1.6-25.2-5.1l-113-47.5-116.3 47.5c-33.3 13.6-71.3-2.4-84.9-35.7-6.6-16.1-6.5-33.8 0.3-49.8s19.3-28.5 35.4-35.1l90.9-37.1c10.1-4.1 21.7 0.7 25.9 10.9 4.1 10.1-0.7 21.7-10.9 25.9l-90.9 37.1c-6.3 2.6-11.2 7.4-13.8 13.7-2.6 6.3-2.7 13.2-0.1 19.5 5.3 13 20.2 19.2 33.2 13.9l123.9-50.6c4.9-2 10.3-2 15.2 0.1l120.5 50.7c12.9 5.4 27.9-0.7 33.3-13.6 5.4-12.9-0.7-27.9-13.6-33.3l-93-39.1c-10.1-4.2-14.8-15.9-10.6-26s15.9-14.9 26-10.6l93 39.1c33.1 13.9 48.7 52.2 34.8 85.3-10.4 24.8-34.6 39.8-60.1 39.8z"
     id="path20"
     style="fill:#ffffff" />
  <path
     d="M378.2 581.4m-31.1 0a31.1 31.1 0 1 0 62.2 0 31.1 31.1 0 1 0-62.2 0Z"
     id="path22"
     style="fill:#ffffff" />
  <path
     d="M573 581.4m-31.1 0a31.1 31.1 0 1 0 62.2 0 31.1 31.1 0 1 0-62.2 0Z"
     id="path24"
     style="fill:#ffffff" />
  <path
     d="M697.4 383c-11 0-19.8-8.9-19.8-19.8v-45.4c0-11 8.9-19.8 19.8-19.8s19.8 8.9 19.8 19.8v45.4c0 10.9-8.8 19.8-19.8 19.8z"
     id="path26"
     style="fill:#ffffff" />
</svg>
