<?xml version="1.0" encoding="UTF-8" standalone="no"?>
<svg
   xmlns:dc="http://purl.org/dc/elements/1.1/"
   xmlns:cc="http://creativecommons.org/ns#"
   xmlns:rdf="http://www.w3.org/1999/02/22-rdf-syntax-ns#"
   xmlns:svg="http://www.w3.org/2000/svg"
   xmlns="http://www.w3.org/2000/svg"
   xmlns:sodipodi="http://sodipodi.sourceforge.net/DTD/sodipodi-0.dtd"
   xmlns:inkscape="http://www.inkscape.org/namespaces/inkscape"
   class="icon"
   width="200px"
   height="200.00px"
   viewBox="0 0 1024 1024"
   version="1.1"
   id="svg28"
   sodipodi:docname="shengdanlu.svg"
   inkscape:version="0.92.4 5da689c313, 2019-01-14">
  <metadata
     id="metadata34">
    <rdf:RDF>
      <cc:Work
         rdf:about="">
        <dc:format>image/svg+xml</dc:format>
        <dc:type
           rdf:resource="http://purl.org/dc/dcmitype/StillImage" />
      </cc:Work>
    </rdf:RDF>
  </metadata>
  <defs
     id="defs32" />
  <sodipodi:namedview
     pagecolor="#ffffff"
     bordercolor="#666666"
     borderopacity="1"
     objecttolerance="10"
     gridtolerance="10"
     guidetolerance="10"
     inkscape:pageopacity="0"
     inkscape:pageshadow="2"
     inkscape:window-width="1920"
     inkscape:window-height="1048"
     id="namedview30"
     showgrid="false"
     inkscape:zoom="4.72"
     inkscape:cx="101.62203"
     inkscape:cy="76.833658"
     inkscape:window-x="0"
     inkscape:window-y="0"
     inkscape:window-maximized="1"
     inkscape:current-layer="svg28" />
  <path
     style="stroke-width:0.1953125;fill:#ffffff"
     d="M 179.56445 11.630859 C 178.81269 11.5868 178.03955 11.757812 177.34375 12.167969 C 175.48828 13.261719 174.88281 15.664063 175.97656 17.519531 C 176.01562 17.578125 180.01953 24.414062 181.58203 32.949219 C 183.55469 43.710938 180.74219 51.894531 173.20312 57.304688 C 170.12279 59.512194 166.76041 61.36918 163.22266 62.951172 C 165.81496 55.097574 165.74294 46.566857 162.92969 37.851562 C 160.11719 29.179688 155.58594 23.339844 155.39062 23.105469 C 154.0625 21.425781 151.60156 21.132812 149.90234 22.460938 C 148.22266 23.789062 147.92969 26.25 149.25781 27.949219 C 149.39885 28.125516 161.70206 44.072472 155.55078 61.238281 C 150.94368 59.937994 146.26502 59.84633 141.85938 60.783203 C 141.80036 57.114235 140.99448 53.322699 139.41406 49.492188 C 136.91406 43.398438 133.32031 39.316406 133.16406 39.140625 C 132.45117 38.339844 131.4751 37.900879 130.47656 37.839844 C 129.47803 37.778809 128.45703 38.095703 127.65625 38.808594 C 126.05469 40.234375 125.89844 42.695312 127.32422 44.316406 C 127.36328 44.355469 130.3125 47.753906 132.30469 52.675781 C 133.88636 56.580537 134.42455 60.281572 133.93164 63.740234 C 130.7166 65.512888 127.83884 67.898002 125.48633 70.794922 C 122.87226 70.91525 120.30656 70.976564 117.83203 70.976562 C 115.96751 70.976562 114.17216 70.94178 112.41797 70.890625 C 118.27106 72.797849 123.77945 76.039916 128.79102 80.197266 C 132.27299 72.532642 140.0032 67.791071 148.21875 67.960938 C 150.15666 68.001006 152.12158 68.314209 154.0625 68.925781 L 179.35547 76.914062 C 177.48047 81.386719 174.1211 85.039062 169.76562 87.304688 C 164.82422 89.882812 159.16016 90.371094 153.84766 88.691406 L 129.89648 81.126953 C 133.77581 84.498146 137.3362 88.414663 140.50586 92.671875 L 151.48438 96.132812 C 154.33594 97.03125 157.24609 97.480469 160.15625 97.480469 C 164.70703 97.480469 169.21875 96.386719 173.35938 94.21875 C 180.15625 90.683594 185.17578 84.707031 187.48047 77.402344 L 189.23828 71.835938 L 172.99023 66.712891 C 174.64827 65.748085 176.23261 64.729618 177.73438 63.652344 C 187.79297 56.425781 191.77734 45.332031 189.25781 31.542969 C 187.44141 21.660156 182.89062 13.867188 182.69531 13.535156 C 182.01172 12.375488 180.81739 11.704292 179.56445 11.630859 z M 21.744141 11.662109 C 20.491203 11.736496 19.296875 12.414551 18.613281 13.574219 C 18.417969 13.90625 13.867187 21.699219 12.050781 31.582031 C 9.531251 45.371094 13.515625 56.484375 23.574219 63.691406 C 25.234882 64.880129 27.000251 65.993823 28.849609 67.044922 L 13.59375 71.855469 L 15.351562 77.421875 C 19.21875 89.648438 30.546875 97.480469 42.734375 97.480469 C 45.585938 97.480469 48.496094 97.050781 51.347656 96.152344 L 60.347656 93.314453 C 63.410927 89.1151 66.853285 85.237497 70.605469 81.863281 L 48.984375 88.691406 C 38.652344 91.953125 27.617188 86.71875 23.476562 76.914062 L 48.769531 68.925781 C 50.761719 68.295898 52.803474 67.971527 54.837891 67.947266 C 58.228584 67.90683 61.599121 68.701172 64.6875 70.3125 C 68.579766 72.337176 71.668286 75.475206 73.621094 79.310547 C 78.318222 75.592827 83.431204 72.686051 88.837891 70.914062 C 85.240428 71.011761 81.412295 71.024511 77.419922 70.880859 C 74.962742 67.825762 71.881783 65.280501 68.300781 63.417969 C 67.97401 63.24801 67.643625 63.090355 67.3125 62.933594 C 67.010044 59.713678 67.578058 56.291688 69.023438 52.695312 C 70.996094 47.792969 73.925781 44.394531 73.984375 44.335938 C 75.410156 42.714844 75.273438 40.253906 73.652344 38.828125 C 72.851562 38.115234 71.830566 37.792969 70.832031 37.851562 C 69.833496 37.910156 68.857422 38.349609 68.144531 39.160156 C 68.007813 39.335938 64.414062 43.417969 61.894531 49.511719 C 60.355834 53.241104 59.549727 56.93338 59.453125 60.511719 C 55.142937 59.838407 50.704794 60.153843 46.425781 61.503906 L 45.935547 61.658203 C 43.473216 55.130478 43.400511 48.053551 45.78125 40.527344 C 48.105469 33.144531 52.011719 28.085938 52.089844 27.96875 C 53.417969 26.269531 53.125 23.808594 51.425781 22.480469 C 49.726562 21.132812 47.265625 21.425781 45.9375 23.125 C 45.742188 23.359375 41.191406 29.179688 38.398438 37.871094 C 35.57985 46.6029 35.511783 55.149726 38.119141 63.015625 C 34.567447 61.42986 31.196381 59.559001 28.105469 57.34375 C 20.625 51.972656 17.792969 43.847656 19.6875 33.183594 C 21.210937 24.648438 25.273438 17.65625 25.332031 17.558594 C 26.445312 15.703125 25.820312 13.300781 23.964844 12.207031 C 23.269043 11.789551 22.495903 11.617477 21.744141 11.662109 z "
     transform="scale(5.12)"
     id="path2" />
  <path
     d="M515.4 972.5c-81.1 0-157.5-28.5-215-80.4-28.2-25.4-50.3-55-65.8-88-16.1-34.3-24.3-70.8-24.3-108.5 0-37.1 8.2-78.8 23.7-120.3 15.3-41.2 37.4-81.3 63.9-116.2 28.7-37.7 61-67.8 96.1-89.4 39.3-24.2 80.2-36.5 121.5-36.5s82.1 12.3 121.5 36.5c35.1 21.6 67.4 51.7 96.1 89.4 26.5 34.9 48.6 75.1 63.9 116.2 15.5 41.6 23.7 83.2 23.7 120.3 0 37.6-8.2 74.1-24.3 108.5-15.5 33-37.6 62.6-65.8 88-57.7 51.8-134.1 80.4-215.2 80.4z m0-599.4c-88.7 0-154.4 69-185.7 110.2-49 64.5-79.4 145.8-79.4 212.3 0 130.6 118.9 236.9 265.1 236.9s265.1-106.3 265.1-236.9c0-66.5-30.4-147.9-79.4-212.3-31.3-41.2-97-110.2-185.7-110.2z"
     id="path18"
     style="fill:#ffffff" />
  <path
     d="M521.6 838.2c-50 0-90.6-40.7-90.6-90.6 0-50 40.7-90.6 90.6-90.6 50 0 90.6 40.7 90.6 90.6 0.1 49.9-40.6 90.6-90.6 90.6z m0-141.3c-27.9 0-50.6 22.7-50.6 50.6 0 27.9 22.7 50.6 50.6 50.6 27.9 0 50.6-22.7 50.6-50.6 0.1-27.8-22.7-50.6-50.6-50.6z"
     id="path22"
     style="fill:#ffffff" />
  <path
     d="M421.5 591.3m-31.3 0a31.3 31.3 0 1 0 62.6 0 31.3 31.3 0 1 0-62.6 0Z"
     id="path24"
     style="fill:#ffffff" />
  <path
     d="M617.8 591.3m-31.3 0a31.3 31.3 0 1 0 62.6 0 31.3 31.3 0 1 0-62.6 0Z"
     id="path26"
     style="fill:#ffffff" />
</svg>
