<?xml version="1.0" encoding="UTF-8" standalone="no"?>
<svg
   xmlns:dc="http://purl.org/dc/elements/1.1/"
   xmlns:cc="http://creativecommons.org/ns#"
   xmlns:rdf="http://www.w3.org/1999/02/22-rdf-syntax-ns#"
   xmlns:svg="http://www.w3.org/2000/svg"
   xmlns="http://www.w3.org/2000/svg"
   xmlns:sodipodi="http://sodipodi.sourceforge.net/DTD/sodipodi-0.dtd"
   xmlns:inkscape="http://www.inkscape.org/namespaces/inkscape"
   class="icon"
   width="200px"
   height="200.00px"
   viewBox="0 0 1024 1024"
   version="1.1"
   id="svg16"
   sodipodi:docname="shoutao.svg"
   inkscape:version="0.92.4 5da689c313, 2019-01-14">
  <metadata
     id="metadata22">
    <rdf:RDF>
      <cc:Work
         rdf:about="">
        <dc:format>image/svg+xml</dc:format>
        <dc:type
           rdf:resource="http://purl.org/dc/dcmitype/StillImage" />
      </cc:Work>
    </rdf:RDF>
  </metadata>
  <defs
     id="defs20" />
  <sodipodi:namedview
     pagecolor="#ffffff"
     bordercolor="#666666"
     borderopacity="1"
     objecttolerance="10"
     gridtolerance="10"
     guidetolerance="10"
     inkscape:pageopacity="0"
     inkscape:pageshadow="2"
     inkscape:window-width="919"
     inkscape:window-height="480"
     id="namedview18"
     showgrid="false"
     inkscape:zoom="6.675088"
     inkscape:cx="98.290319"
     inkscape:cy="80.652492"
     inkscape:window-x="242"
     inkscape:window-y="165"
     inkscape:window-maximized="0"
     inkscape:current-layer="svg16" />
  <path
     d="M524.8 897.4c-32 0-63.8-11.6-94.1-34.4-34.5-26.1-54.8-57.9-55.6-59.2-5.4-8.5-2.8-19.8 5.7-25.2 8.5-5.4 19.8-2.8 25.2 5.7 0.2 0.3 18.1 28.2 47.5 50.2 36.9 27.6 74.5 33.6 111.9 17.9 33.6-15.8 52.6-42.1 56.6-78.1 2.9-26.6-3.6-49.4-4.1-51.3-2.8-8.2-21.9-68.2 5-106 9-12.7 27-27.8 61.5-27.9 10.1 0 18.3 8.2 18.3 18.2 0 10.1-8.1 18.3-18.2 18.3-22.9 0.1-29.6 9.4-31.8 12.5-14 19.6-4.5 60.5-0.1 73.2 0 0.1 0.1 0.3 0.1 0.4 0.4 1.2 9.6 30.8 5.7 66.5-3.8 34.1-20.3 80.4-77.7 107.3l-0.6 0.3c-18.4 7.8-36.9 11.6-55.3 11.6z"
     id="path2"
     style="fill:#ffffff" />
  <path
     d="M789.5 666.8c-5.1 0-10.3-1-15.2-3l-204.6-83.3c-10-4.1-17.8-11.8-22-21.7-4.2-10-4.3-20.9-0.2-30.9l41.7-102.4c-0.1-0.1-0.1-0.2-0.2-0.3l-57.7-81.5c-20.8-29.3-13.8-70 15.5-90.8 14.2-10 31.4-13.9 48.6-11 17.2 2.9 32.2 12.4 42.2 26.5l9.9 14 14.2-34.9c15.1-37.2 44-66.3 81.2-82 37.2-15.7 78.2-16 115.4-0.8 77 31.4 114.2 119.6 82.8 196.6L827 641.7c-4.1 10-11.8 17.8-21.7 22-5.1 2.1-10.4 3.1-15.8 3.1zM584.4 277.5c-5.9 0-11.5 1.8-16.4 5.2-12.9 9.1-15.9 27-6.8 39.8l57.7 81.5c1.1 1.5 2.4 3 3.9 4.4 5.6 5.2 7.4 13.3 4.5 20.3l-46 112.8c-0.8 1.9 0.2 4.2 2.1 5L788.1 630c1.2 0.5 2.2 0.2 2.9 0s1.6-0.9 2.1-2l114.2-280.4c23.8-58.4-4.4-125.2-62.7-148.9-28.1-11.5-59.2-11.2-87.4 0.7-28.2 11.9-50.1 33.9-61.5 62.1l-26.8 65.8c-2.5 6.2-8.2 10.5-14.8 11.3-6.6 0.8-13.2-2.1-17-7.6L608 289.8c-4.4-6.2-11-10.3-18.5-11.6-1.8-0.5-3.4-0.7-5.1-0.7z"
     id="path6"
     style="fill:#ffffff" />
  <path
     d="M783.2 587.8c-7 0-13.6-4-16.6-10.7l-19.4-42.6-42.5 17.2c-4.7 1.9-9.9 1.8-14.5-0.3s-8.1-6-9.7-10.7L668 503.8l-40 16.6c-4.6 1.9-9.8 1.9-14.3-0.1-4.6-2-8.1-5.8-9.8-10.4L583 453.6c-3.5-9.5 1.3-20 10.8-23.5s20 1.3 23.5 10.8l14.2 38.3 40.5-16.8c4.7-1.9 9.9-1.9 14.5 0.2s8.1 6 9.8 10.8l12.6 37 40.8-16.5c9.1-3.7 19.4 0.5 23.5 9.4l19.7 43.3 46.7-16.6c9.5-3.4 20 1.6 23.4 11.1 3.4 9.5-1.6 20-11.1 23.4l-62.5 22.3c-2.1 0.7-4.2 1-6.2 1z"
     id="path8"
     style="fill:#ffffff" />
  <path
     d="M294.5 842.9c-2.8 0-5.6-0.3-8.5-0.9-10.6-2.2-19.6-8.4-25.5-17.4L95.4 570.8c-21.9-33.6-29.4-73.9-21-113.5 8.4-39.5 31.5-73.4 65.1-95.3 33.6-21.9 73.9-29.4 113.5-21 39.5 8.4 73.3 31.5 95.3 65.1l20.5 31.5 7.1-15.6c14.8-32.7 53.5-47.3 86.2-32.4 32.7 14.8 47.3 53.5 32.4 86.2l-41.2 90.9c-0.1 0.1-0.1 0.2-0.2 0.4l60.3 92.7c12.1 18.7 6.9 43.7-11.8 55.9L316.4 836.3c-6.6 4.3-14.1 6.6-21.9 6.6z m-73.2-468.6c-21.9 0-43.2 6.3-61.9 18.4-25.5 16.6-43 42.2-49.3 72.2-6.3 30-0.7 60.5 15.9 85.9l165.2 253.7c0.7 1.1 1.7 1.5 2.4 1.6 0.7 0.2 1.8 0.2 2.9-0.5l185.1-120.5c1.7-1.1 2.2-3.5 1.1-5.3l-66.5-102.1c-4.2-6.4-3.9-14.7 0.6-20.8 1.2-1.7 2.3-3.4 3-5.1l41.2-90.9c6.5-14.3 0.1-31.3-14.2-37.8-14.3-6.5-31.3-0.1-37.8 14.2l-20.8 45.9c-2.8 6.1-8.6 10.2-15.3 10.7-6.7 0.5-13.1-2.7-16.7-8.3l-38.7-59.5c-16.6-25.5-42.2-43-72.2-49.3-7.9-1.6-16-2.5-24-2.5z"
     id="path12"
     style="fill:#ffffff" />
  <path
     d="M289.9 763.7c-0.9 0-1.8-0.1-2.8-0.2l-65.6-10c-10-1.5-16.8-10.9-15.3-20.8 1.5-10 10.9-16.8 20.8-15.3l49 7.5 11.2-46.3c2.3-9.5 11.7-15.5 21.3-13.6l43.1 8.5 5.3-38.7c0.7-5 3.4-9.5 7.6-12.4s9.3-4 14.2-3l42.9 8.8 6.7-40.3c1.6-10 11.1-16.7 21-15.1 10 1.6 16.7 11.1 15.1 21l-9.8 59.1c-0.8 4.9-3.6 9.3-7.7 12.1-4.1 2.8-9.2 3.8-14 2.8l-42.4-8.7-5.3 38.6c-0.7 5-3.4 9.5-7.5 12.4-4.1 2.9-9.2 4-14.2 3.1l-45-8.9-11 45.5c-1.8 8.2-9.3 13.9-17.6 13.9z"
     id="path14"
     style="fill:#ffffff" />
</svg>
