<?xml version="1.0" encoding="UTF-8" standalone="no"?>
<svg
   xmlns:dc="http://purl.org/dc/elements/1.1/"
   xmlns:cc="http://creativecommons.org/ns#"
   xmlns:rdf="http://www.w3.org/1999/02/22-rdf-syntax-ns#"
   xmlns:svg="http://www.w3.org/2000/svg"
   xmlns="http://www.w3.org/2000/svg"
   xmlns:sodipodi="http://sodipodi.sourceforge.net/DTD/sodipodi-0.dtd"
   xmlns:inkscape="http://www.inkscape.org/namespaces/inkscape"
   class="icon"
   width="200px"
   height="200.00px"
   viewBox="0 0 1024 1024"
   version="1.1"
   id="svg30"
   sodipodi:docname="xueren.svg"
   inkscape:version="0.92.4 5da689c313, 2019-01-14">
  <metadata
     id="metadata36">
    <rdf:RDF>
      <cc:Work
         rdf:about="">
        <dc:format>image/svg+xml</dc:format>
        <dc:type
           rdf:resource="http://purl.org/dc/dcmitype/StillImage" />
      </cc:Work>
    </rdf:RDF>
  </metadata>
  <defs
     id="defs34" />
  <sodipodi:namedview
     pagecolor="#ffffff"
     bordercolor="#666666"
     borderopacity="1"
     objecttolerance="10"
     gridtolerance="10"
     guidetolerance="10"
     inkscape:pageopacity="0"
     inkscape:pageshadow="2"
     inkscape:window-width="1920"
     inkscape:window-height="1048"
     id="namedview32"
     showgrid="false"
     inkscape:zoom="3.337544"
     inkscape:cx="110.93668"
     inkscape:cy="124.87073"
     inkscape:window-x="0"
     inkscape:window-y="0"
     inkscape:window-maximized="1"
     inkscape:current-layer="svg30" />
  <path
     style="stroke-width:0.1953125;fill:#ffffff"
     d="M 63.142578 79.394531 C 59.98305 81.508146 57.025719 83.931312 54.296875 86.660156 C 48.925781 92.03125 44.726562 98.28125 41.777344 105.23438 C 38.730469 112.44141 37.1875 120.09766 37.1875 127.98828 C 37.1875 135.87891 38.730469 143.53516 41.777344 150.74219 C 44.726562 157.69531 48.925781 163.94531 54.296875 169.31641 C 59.667969 174.6875 65.917969 178.88672 72.871094 181.83594 C 80.078125 184.88281 87.734375 186.42578 95.625 186.42578 C 103.51562 186.42578 111.17188 184.88281 118.37891 181.83594 C 125.33203 178.88672 131.58203 174.6875 136.95312 169.31641 C 142.32422 163.94531 146.52344 157.69531 149.47266 150.74219 C 152.51953 143.53516 154.0625 135.87891 154.0625 127.98828 C 154.0625 120.09766 152.51953 112.44141 149.47266 105.23438 C 146.52344 98.28125 142.32422 92.03125 136.95312 86.660156 C 134.57864 84.285667 132.02316 82.153816 129.32031 80.244141 A 33.183594 33.183594 0 0 1 129.39453 81.71875 A 33.183594 33.183594 0 0 1 128.5918 88.832031 C 139.74371 98.226355 146.83594 112.28633 146.83594 128.00781 C 146.83594 156.28906 123.90625 179.21875 95.625 179.21875 C 67.34375 179.21875 44.414063 156.28906 44.414062 128.00781 C 44.414062 111.8275 51.927482 97.40854 63.646484 88.023438 A 33.183594 33.183594 0 0 1 63.027344 81.71875 A 33.183594 33.183594 0 0 1 63.142578 79.394531 z "
     transform="scale(5.12)"
     id="path4" />
  <path
     style="stroke-width:0.1953125;fill:#ffffff"
     d="M 156.28906 66.25 C 154.29688 66.25 152.67578 67.871094 152.67578 69.863281 L 152.67578 91.445312 L 133.22266 103.39844 C 131.52344 104.45312 130.97656 106.67969 132.03125 108.37891 C 132.71484 109.49219 133.90625 110.09766 135.11719 110.09766 C 135.76172 110.09766 136.42578 109.92187 137.01172 109.57031 L 158.18359 96.5625 C 159.25781 95.898438 159.90234 94.726562 159.90234 93.476562 L 159.90234 69.863281 C 159.90234 67.871094 158.28125 66.25 156.28906 66.25 z M 116.84961 107.65039 A 33.183594 33.183594 0 0 1 109.66406 112.0332 C 110.82922 112.32422 112.07367 113.01843 113.41797 114.14062 C 121.36719 120.74219 123.78906 137.38281 124.70703 143.65234 C 124.82422 144.53125 124.25781 145.52734 123.32031 146.05469 C 117.75391 149.23828 114.84375 148.90625 112.51953 147.12891 C 112.48047 146.79688 112.42187 146.40625 112.36328 146.03516 C 111.93359 143.06641 111.23047 138.08594 109.39453 133.33984 L 108.82812 131.89453 C 105.99609 124.55078 105.85938 124.19922 101.58203 117.30469 C 102.22822 116.22417 103.15707 114.94055 104.26758 113.88672 A 33.183594 33.183594 0 0 1 94.662109 114.83594 C 94.374178 115.39307 94.154949 115.84896 94.082031 116.01562 C 93.613281 117.10938 93.710938 118.35938 94.335938 119.35547 L 95.039062 120.48828 C 99.375 127.48047 99.375 127.48047 102.07031 134.49219 L 102.63672 135.9375 C 104.16016 139.92188 104.80469 144.39453 105.19531 147.07031 C 105.56641 149.66797 105.72266 150.74219 106.81641 151.75781 C 109.98047 154.70703 113.30078 155.68359 116.34766 155.68359 C 121.03516 155.68359 125.09766 153.37891 126.89453 152.32422 C 130.41016 150.3125 132.40234 146.40625 131.85547 142.59766 C 130.74219 134.94141 128.125 116.95312 118.04688 108.57422 C 117.64329 108.23738 117.24457 107.93638 116.84961 107.65039 z "
     transform="scale(5.12)"
     id="path8" />
  <path
     d="M804.4 496.1c-9.4 0-17.5-7.2-18.4-16.7-1-10.2 6.5-19.2 16.6-20.2l107.5-10.4c10.2-1 19.2 6.5 20.2 16.6 1 10.2-6.5 19.2-16.6 20.2L806.3 496c-0.7 0-1.3 0.1-1.9 0.1zM326.2 610.4c-3.4 0-6.8-0.9-9.9-2.9L216.9 545c-5.4-3.4-8.7-9.3-8.7-15.7V415.6c0-10.2 8.3-18.5 18.5-18.5s18.5 8.3 18.5 18.5V519l90.8 57.2c8.7 5.5 11.3 16.9 5.8 25.5-3.4 5.7-9.4 8.7-15.6 8.7z"
     id="path10"
     style="fill:#ffffff" />
  <path
     d="M223 546.8c-0.6 0-1.2 0-1.9-0.1l-98.6-9.8c-10.2-1-17.6-10.1-16.6-20.3 1-10.2 10.1-17.6 20.3-16.6l98.6 9.8c10.2 1 17.6 10.1 16.6 20.3-1 9.6-9 16.7-18.4 16.7z"
     id="path12"
     style="fill:#ffffff" />
  <path
     d="M492.9 606.8c-60.7 0-120.4-29.2-156.7-83.3-58-86.2-35-203.6 51.3-261.6 41.8-28.1 92-38.2 141.4-28.5 49.4 9.7 92.1 38 120.2 79.8 28.1 41.8 38.2 92 28.5 141.4s-38 92.1-79.8 120.2c-32.3 21.6-68.8 32-104.9 32z m-0.6-339.9c-29.8 0-58.9 8.8-84.2 25.8-69.3 46.6-87.8 140.8-41.2 210.1 29.2 43.4 77.1 66.9 125.9 66.9 29 0 58.4-8.3 84.2-25.7 33.6-22.6 56.3-56.9 64.1-96.5 7.8-39.7-0.4-80-22.9-113.6-22.6-33.6-56.8-56.3-96.5-64.1-9.8-1.9-19.7-2.9-29.4-2.9z"
     id="path16"
     style="fill:#ffffff" />
  <path
     d="M369.5 301.3c-7.6 0-14.7-4.7-17.4-12.3l-39.5-110.8c-11.8-33 5.5-69.4 38.5-81.2l55.5-19.8c33-11.8 69.4 5.5 81.2 38.5l39.5 110.8c1.7 4.6 1.4 9.7-0.7 14.2-2.1 4.4-5.9 7.9-10.5 9.5l-140.3 50.1c-2.1 0.6-4.2 1-6.3 1z m58.3-190.8c-2.9 0-5.9 0.5-8.9 1.5l-55.5 19.8c-6.6 2.4-11.9 7.2-15 13.6-3 6.4-3.4 13.6-1.1 20.2l33.3 93.3L486 221.3 452.7 128c-3.8-10.7-14-17.5-24.9-17.5z"
     id="path20"
     style="fill:#ffffff" />
  <path
     d="M313.8 303.2l257.7-91.9"
     fill="#FFFFFF"
     id="path22"
     style="fill:#ffffff" />
  <path
     d="M313.8 321.7c-7.6 0-14.7-4.7-17.4-12.3-3.4-9.6 1.6-20.2 11.2-23.7l257.7-92c9.6-3.4 20.2 1.6 23.7 11.2 3.4 9.6-1.6 20.2-11.2 23.7l-257.7 92c-2.1 0.8-4.2 1.1-6.3 1.1z"
     id="path24"
     style="fill:#ffffff" />
  <path
     d="M525.7 498.6c-28.4 0-53.5-19-59.7-46.1-4.9-21.6 3.2-40.7 22.2-52.5 22.2-13.7 51.3-13 74.2 2l81.3 53.1c6.6 4.3 9.8 12.3 7.8 20-1.9 7.7-8.5 13.3-16.3 14l-103.7 9.3c-2 0.1-3.9 0.2-5.8 0.2z m-2.6-71.4c-5.5 0-10.8 1.4-15.4 4.3-5.6 3.5-7 6.6-5.6 12.8 2.4 10.7 13.9 18.3 26 17.2l50.6-4.5-36.6-24c-5.9-3.9-12.5-5.8-19-5.8z"
     id="path28"
     style="fill:#ffffff" />
</svg>
