<?xml version="1.0" encoding="iso-8859-1"?>
<!-- Generator: Adobe Illustrator 19.0.0, SVG Export Plug-In . SVG Version: 6.00 Build 0)  -->
<svg version="1.1" id="Layer_1" xmlns="http://www.w3.org/2000/svg" xmlns:xlink="http://www.w3.org/1999/xlink" x="0px" y="0px"
	 viewBox="0 0 511.863 511.863" style="enable-background:new 0 0 511.863 511.863;" xml:space="preserve">
<g>
	<g>
		<path style="fill:#CCD0D2;" d="M117.695,474.627h220.542c98.257-40.225,112.305-139.273,113.105-232.671
			c0.047-5.167-4.171-9.365-9.337-9.365H227.962H13.927c-5.167,0-9.384,4.198-9.337,9.365
			C5.391,335.354,19.438,434.403,117.695,474.627L117.695,474.627z"/>
		<path style="fill:#CCD0D2;" d="M227.964,167.563c-2.402,0-4.813-0.931-6.628-2.783c-14.373-14.587-21.532-29.752-21.29-45.093
			c0.233-14.922,7.466-29.268,21.495-42.645c10.491-9.765,15.835-19.745,15.946-29.715c0.13-10.296-5.26-20.843-16.03-31.353
			c-3.677-3.603-3.742-9.495-0.149-13.163c3.593-3.696,9.495-3.742,13.163-0.168c14.541,14.215,21.821,29.324,21.634,44.907
			c-0.177,15.267-7.512,29.752-21.802,43.036c-10.203,9.728-15.49,19.651-15.649,29.407c-0.158,10.147,5.204,20.824,15.937,31.735
			c3.612,3.658,3.565,9.551-0.093,13.163C232.683,166.669,230.319,167.563,227.964,167.563"/>
		<path style="fill:#CCD0D2;" d="M330.146,167.563c-2.402,0-4.813-0.931-6.628-2.783c-14.373-14.587-21.532-29.752-21.29-45.093
			c0.233-14.922,7.466-29.268,21.495-42.645c10.566-9.83,15.937-19.856,16.058-29.882c0.121-10.259-5.232-20.75-15.919-31.185
			c-3.677-3.603-3.752-9.495-0.158-13.163c3.593-3.696,9.495-3.742,13.163-0.168c14.476,14.141,21.718,29.193,21.532,44.749
			c-0.177,15.295-7.55,29.836-21.914,43.194c-10.203,9.728-15.49,19.651-15.649,29.407c-0.158,10.147,5.204,20.824,15.937,31.735
			c3.612,3.658,3.565,9.551-0.093,13.163C334.865,166.669,332.501,167.563,330.146,167.563"/>
		<path style="fill:#CCD0D2;" d="M134.655,167.563c-2.402,0-4.813-0.931-6.628-2.783c-14.373-14.587-21.532-29.752-21.29-45.093
			c0.233-14.922,7.466-29.268,21.495-42.645c10.566-9.83,15.937-19.856,16.058-29.882c0.121-10.259-5.232-20.75-15.919-31.185
			c-3.677-3.603-3.752-9.495-0.158-13.163c3.593-3.696,9.495-3.742,13.163-0.168c14.476,14.141,21.718,29.193,21.532,44.749
			c-0.177,15.295-7.55,29.836-21.914,43.194c-10.203,9.728-15.49,19.651-15.649,29.407c-0.158,10.147,5.204,20.824,15.937,31.735
			c3.612,3.658,3.565,9.551-0.093,13.163C139.374,166.669,137.01,167.563,134.655,167.563"/>
	</g>
	<path style="fill:#A1ABAF;" d="M172.118,456.009c-0.512,0-1.043-0.047-1.564-0.13c-73.877-12.53-113.552-55.045-128.624-137.84
		c-0.912-5.055,2.43-9.905,7.494-10.817c5.101-0.977,9.905,2.43,10.826,7.485c13.638,74.91,47.56,111.635,113.422,122.815
		c5.064,0.856,8.471,5.669,7.615,10.733C180.515,452.797,176.577,456.009,172.118,456.009"/>
	<g>
		<path style="fill:#CC4B4C;" d="M358.254,297.754c-5.139,0-9.309-4.161-9.309-9.309v-55.668c0-5.148,4.171-9.309,9.309-9.309
			s9.309,4.161,9.309,9.309v55.668C367.564,293.593,363.393,297.754,358.254,297.754"/>
		<polygon style="fill:#CC4B4C;" points="386.102,363.29 330.247,363.29 330.247,288.818 358.258,270.013 386.176,288.818 		"/>
	</g>
	<g>
		<path style="fill:#A1ABAF;" d="M451.209,251.263c-1.117,59.587-8.574,120.562-40.522,166.428
			c54.561-7.391,96.591-53.965,96.591-110.573v-23.943c0-17.622-14.289-31.912-31.912-31.912H451.209z"/>
		<path style="fill:#A1ABAF;" d="M144.223,511.863H23.204c-10.287,0-18.618-8.332-18.618-18.618l0,0
			c0-10.287,8.332-18.618,18.618-18.618h390.982c10.287,0,18.618,8.332,18.618,18.618l0,0c0,10.287-8.332,18.618-18.618,18.618
			H302.477l-27.927-9.309h-102.4L144.223,511.863z"/>
	</g>
</g>
<g>
</g>
<g>
</g>
<g>
</g>
<g>
</g>
<g>
</g>
<g>
</g>
<g>
</g>
<g>
</g>
<g>
</g>
<g>
</g>
<g>
</g>
<g>
</g>
<g>
</g>
<g>
</g>
<g>
</g>
</svg>
