<?xml version="1.0" encoding="utf-8"?>
<!-- Generator: Adobe Illustrator 21.0.0, SVG Export Plug-In . SVG Version: 6.00 Build 0)  -->
<svg version="1.1" id="图层_1" xmlns="http://www.w3.org/2000/svg" xmlns:xlink="http://www.w3.org/1999/xlink" x="0px" y="0px"
	 viewBox="0 0 256 256" style="enable-background:new 0 0 256 256;" xml:space="preserve">
<style type="text/css">
	.st0{fill:#F42534;}
</style>
<g>
	<path class="st0" d="M250.3,116.8L139.6,6.2c-6.4-6.4-16.7-6.4-23.1,0l-23,23l29.1,29.1c6.8-2.3,14.5-0.8,19.9,4.6
		c5.4,5.4,7,13.3,4.6,20.1l28.1,28.1c6.8-2.3,14.6-0.8,20.1,4.6c7.6,7.6,7.6,19.9,0,27.5c-7.6,7.6-19.9,7.6-27.5,0
		c-5.7-5.7-7.1-14.1-4.2-21.1l-26.2-26.2v68.9c1.8,0.9,3.6,2.1,5.1,3.7c7.6,7.6,7.6,19.9,0,27.5c-7.6,7.6-19.9,7.6-27.5,0
		c-7.6-7.6-7.6-19.9,0-27.5c1.9-1.9,4-3.3,6.4-4.2V94.6c-2.3-0.9-4.5-2.4-6.4-4.2c-5.7-5.7-7.1-14.2-4.2-21.2L82.3,40.4L6.4,116.3
		C0,122.7,0,133,6.4,139.4L117.1,250c6.4,6.4,16.7,6.4,23.1,0l110.1-110.1C256.6,133.5,256.6,123.2,250.3,116.8z"/>
</g>
</svg>
