<?xml version="1.0" encoding="UTF-8" standalone="no"?>
<!DOCTYPE svg PUBLIC "-//W3C//DTD SVG 1.1//EN"
 "http://www.w3.org/Graphics/SVG/1.1/DTD/svg11.dtd">
<!-- Generated by graphviz version 2.38.0 (20140413.2041)
 -->
<!-- Title: G Pages: 1 -->
<svg width="401pt" height="301pt"
 viewBox="0.00 0.00 401.00 301.00" xmlns="http://www.w3.org/2000/svg" xmlns:xlink="http://www.w3.org/1999/xlink">
<g id="graph0" class="graph" transform="scale(1 1) rotate(0) translate(4 297)">
<title>G</title>
<polygon fill="white" stroke="none" points="-4,4 -4,-297 397,-297 397,4 -4,4"/>
<g id="clust1" class="cluster"><title>cluster_肺部</title>
<polygon fill="none" stroke="#e0e0e0" points="27,-174 27,-249 347,-249 347,-174 27,-174"/>
<text text-anchor="middle" x="187" y="-233.8" font-family="Times,serif" font-size="14.00">肺部</text>
</g>
<g id="clust3" class="cluster"><title>cluster_心脏</title>
<polygon fill="none" stroke="#e0e0e0" points="8,-91 8,-166 385,-166 385,-91 8,-91"/>
<text text-anchor="middle" x="196.5" y="-150.8" font-family="Times,serif" font-size="14.00">心脏</text>
</g>
<g id="clust5" class="cluster"><title>cluster_血管</title>
<polygon fill="none" stroke="#e0e0e0" points="42,-8 42,-83 342,-83 342,-8 42,-8"/>
<text text-anchor="middle" x="192" y="-67.8" font-family="Times,serif" font-size="14.00">血管</text>
</g>
<!-- 肺动脉 -->
<g id="node1" class="node"><title>肺动脉</title>
<ellipse fill="none" stroke="#009688" cx="168" cy="-200" rx="38.1938" ry="18"/>
<text text-anchor="middle" x="168" y="-196.3" font-family="Source Han Sans CN" font-size="14.00">肺动脉</text>
</g>
<!-- 肺毛细血管 -->
<g id="node2" class="node"><title>肺毛细血管</title>
<ellipse fill="none" stroke="#009688" cx="282" cy="-200" rx="57.3905" ry="18"/>
<text text-anchor="middle" x="282" y="-196.3" font-family="Source Han Sans CN" font-size="14.00">肺毛细血管</text>
</g>
<!-- 肺动脉&#45;&gt;肺毛细血管 -->
<g id="edge5" class="edge"><title>肺动脉&#45;&gt;肺毛细血管</title>
<path fill="none" stroke="#9c27b0" d="M206.742,-200C209.357,-200 211.973,-200 214.588,-200"/>
<polygon fill="#9c27b0" stroke="#9c27b0" points="214.675,-203.5 224.675,-200 214.675,-196.5 214.675,-203.5"/>
</g>
<!-- 肺静脉 -->
<g id="node3" class="node"><title>肺静脉</title>
<ellipse fill="none" stroke="#009688" cx="73" cy="-200" rx="38.1938" ry="18"/>
<text text-anchor="middle" x="73" y="-196.3" font-family="Source Han Sans CN" font-size="14.00">肺静脉</text>
</g>
<!-- 肺毛细血管&#45;&gt;肺静脉 -->
<g id="edge6" class="edge"><title>肺毛细血管&#45;&gt;肺静脉</title>
<path fill="none" stroke="#9c27b0" d="M265.556,-217.429C251.345,-230.886 229.446,-248.024 206,-253 189.479,-256.506 146.521,-256.506 130,-253 125.718,-252.091 124.595,-251.497 121,-249 111.115,-242.135 101.554,-233.054 93.6014,-224.576"/>
<polygon fill="#9c27b0" stroke="#9c27b0" points="96.0907,-222.111 86.7875,-217.041 90.8986,-226.806 96.0907,-222.111"/>
</g>
<!-- 左心房 -->
<g id="node6" class="node"><title>左心房</title>
<ellipse fill="none" stroke="#f44336" cx="54" cy="-117" rx="38.1938" ry="18"/>
<text text-anchor="middle" x="54" y="-113.3" font-family="Source Han Sans CN" font-size="14.00">左心房</text>
</g>
<!-- 肺静脉&#45;&gt;左心房 -->
<g id="edge7" class="edge"><title>肺静脉&#45;&gt;左心房</title>
<path fill="none" stroke="#9c27b0" d="M68.9706,-181.822C66.4767,-171.19 63.2199,-157.306 60.3811,-145.204"/>
<polygon fill="#9c27b0" stroke="#9c27b0" points="63.7149,-144.09 58.0236,-135.153 56.8999,-145.688 63.7149,-144.09"/>
</g>
<!-- 右心房 -->
<g id="node4" class="node"><title>右心房</title>
<ellipse fill="none" stroke="#f44336" cx="244" cy="-117" rx="38.1938" ry="18"/>
<text text-anchor="middle" x="244" y="-113.3" font-family="Source Han Sans CN" font-size="14.00">右心房</text>
</g>
<!-- 右心室 -->
<g id="node5" class="node"><title>右心室</title>
<ellipse fill="none" stroke="#f44336" cx="339" cy="-117" rx="38.1938" ry="18"/>
<text text-anchor="middle" x="339" y="-113.3" font-family="Source Han Sans CN" font-size="14.00">右心室</text>
</g>
<!-- 右心房&#45;&gt;右心室 -->
<g id="edge3" class="edge"><title>右心房&#45;&gt;右心室</title>
<path fill="none" stroke="#9c27b0" d="M282.594,-117C285.073,-117 287.551,-117 290.03,-117"/>
<polygon fill="#9c27b0" stroke="#9c27b0" points="290.221,-120.5 300.221,-117 290.221,-113.5 290.221,-120.5"/>
</g>
<!-- 右心室&#45;&gt;肺动脉 -->
<g id="edge4" class="edge"><title>右心室&#45;&gt;肺动脉</title>
<path fill="none" stroke="#9c27b0" d="M327.535,-134.253C318.846,-145.197 305.886,-158.885 291,-166 260.754,-180.455 248.092,-164.311 216,-174 210.491,-175.663 204.87,-177.962 199.506,-180.496"/>
<polygon fill="#9c27b0" stroke="#9c27b0" points="197.535,-177.573 190.21,-185.227 200.709,-183.811 197.535,-177.573"/>
</g>
<!-- 左心室 -->
<g id="node7" class="node"><title>左心室</title>
<ellipse fill="none" stroke="#f44336" cx="149" cy="-117" rx="38.1938" ry="18"/>
<text text-anchor="middle" x="149" y="-113.3" font-family="Source Han Sans CN" font-size="14.00">左心室</text>
</g>
<!-- 左心房&#45;&gt;左心室 -->
<g id="edge8" class="edge"><title>左心房&#45;&gt;左心室</title>
<path fill="none" stroke="#9c27b0" d="M92.5938,-117C95.0725,-117 97.5513,-117 100.03,-117"/>
<polygon fill="#9c27b0" stroke="#9c27b0" points="100.221,-120.5 110.221,-117 100.221,-113.5 100.221,-120.5"/>
</g>
<!-- 主动脉 -->
<g id="node10" class="node"><title>主动脉</title>
<ellipse fill="none" stroke="#9627b0" cx="88" cy="-34" rx="38.1938" ry="18"/>
<text text-anchor="middle" x="88" y="-30.3" font-family="Source Han Sans CN" font-size="14.00">主动脉</text>
</g>
<!-- 左心室&#45;&gt;主动脉 -->
<g id="edge9" class="edge"><title>左心室&#45;&gt;主动脉</title>
<path fill="none" stroke="#f44336" d="M136.656,-99.6084C127.917,-88.0046 116.052,-72.2494 106.227,-59.2025"/>
<polygon fill="#f44336" stroke="#f44336" points="108.929,-56.9734 100.118,-51.0908 103.338,-61.1845 108.929,-56.9734"/>
</g>
<!-- 毛细血管 -->
<g id="node8" class="node"><title>毛细血管</title>
<ellipse fill="none" stroke="#9627b0" cx="192" cy="-34" rx="48.1917" ry="18"/>
<text text-anchor="middle" x="192" y="-30.3" font-family="Source Han Sans CN" font-size="14.00">毛细血管</text>
</g>
<!-- 主静脉 -->
<g id="node9" class="node"><title>主静脉</title>
<ellipse fill="none" stroke="#9627b0" cx="296" cy="-34" rx="38.1938" ry="18"/>
<text text-anchor="middle" x="296" y="-30.3" font-family="Source Han Sans CN" font-size="14.00">主静脉</text>
</g>
<!-- 毛细血管&#45;&gt;主静脉 -->
<g id="edge1" class="edge"><title>毛细血管&#45;&gt;主静脉</title>
<path fill="none" stroke="#9c27b0" d="M240.344,-34C242.64,-34 244.936,-34 247.233,-34"/>
<polygon fill="#9c27b0" stroke="#9c27b0" points="247.302,-37.5001 257.302,-34 247.301,-30.5001 247.302,-37.5001"/>
</g>
<!-- 主静脉&#45;&gt;右心房 -->
<g id="edge2" class="edge"><title>主静脉&#45;&gt;右心房</title>
<path fill="none" stroke="#9c27b0" d="M285.493,-51.3672C278.166,-62.7796 268.256,-78.2164 259.958,-91.1417"/>
<polygon fill="#9c27b0" stroke="#9c27b0" points="256.98,-89.3024 254.523,-99.6084 262.871,-93.0841 256.98,-89.3024"/>
</g>
<!-- 主动脉&#45;&gt;毛细血管 -->
<g id="edge10" class="edge"><title>主动脉&#45;&gt;毛细血管</title>
<path fill="none" stroke="#f44336" d="M126.594,-34C128.912,-34 131.23,-34 133.548,-34"/>
<polygon fill="#f44336" stroke="#f44336" points="133.712,-37.5001 143.712,-34 133.712,-30.5001 133.712,-37.5001"/>
</g>
<!-- note1 -->
<g id="node11" class="node"><title>note1</title>
<text text-anchor="middle" x="168" y="-271.3" font-family="Source Han Sans CN" font-size="14.00">!这里是静脉血!</text>
</g>
<!-- note1&#45;&gt;肺动脉 -->
<g id="edge11" class="edge"><title>note1&#45;&gt;肺动脉</title>
<path fill="none" stroke="black" d="M168,-256.7C168,-248.245 168,-237.869 168,-228.373"/>
<polygon fill="black" stroke="black" points="171.5,-228.176 168,-218.176 164.5,-228.176 171.5,-228.176"/>
</g>
</g>
</svg>
