<?xml version="1.0" encoding="UTF-8" standalone="no"?>
<!DOCTYPE svg PUBLIC "-//W3C//DTD SVG 1.1//EN"
 "http://www.w3.org/Graphics/SVG/1.1/DTD/svg11.dtd">
<!-- Generated by graphviz version 2.38.0 (20140413.2041)
 -->
<!-- Title: high Pages: 1 -->
<svg width="807pt" height="189pt"
 viewBox="0.00 0.00 807.35 188.50" xmlns="http://www.w3.org/2000/svg" xmlns:xlink="http://www.w3.org/1999/xlink">
<g id="graph0" class="graph" transform="scale(1 1) rotate(0) translate(4 184.5)">
<title>high</title>
<polygon fill="white" stroke="none" points="-4,4 -4,-184.5 803.354,-184.5 803.354,4 -4,4"/>
<!-- 心脏 -->
<g id="node1" class="node"><title>心脏</title>
<polygon fill="none" stroke="black" points="660.163,-180.5 572.163,-180.5 572.163,-127.5 660.163,-127.5 660.163,-180.5"/>
<text text-anchor="middle" x="616.163" y="-165.3" font-family="Times,serif" font-size="14.00">心脏</text>
<text text-anchor="middle" x="616.163" y="-150.3" font-family="Times,serif" font-size="14.00">心率上升</text>
<text text-anchor="middle" x="616.163" y="-135.3" font-family="Times,serif" font-size="14.00">排血量升高</text>
</g>
<!-- 血压升高 -->
<g id="node8" class="node"><title>血压升高</title>
<ellipse fill="none" stroke="black" cx="751.258" cy="-83" rx="48.1917" ry="18"/>
<text text-anchor="middle" x="751.258" y="-79.3" font-family="Times,serif" font-size="14.00">血压升高</text>
</g>
<!-- 心脏&#45;&gt;血压升高 -->
<g id="edge7" class="edge"><title>心脏&#45;&gt;血压升高</title>
<path fill="none" stroke="black" d="M660.375,-130.948C677.667,-121.724 697.366,-111.216 713.906,-102.392"/>
<polygon fill="black" stroke="black" points="715.559,-105.477 722.735,-97.6823 712.265,-99.301 715.559,-105.477"/>
</g>
<!-- 血管 -->
<g id="node2" class="node"><title>血管</title>
<polygon fill="none" stroke="black" points="667.163,-109.5 565.163,-109.5 565.163,-56.5 667.163,-56.5 667.163,-109.5"/>
<text text-anchor="middle" x="616.163" y="-94.3" font-family="Times,serif" font-size="14.00">血管</text>
<text text-anchor="middle" x="616.163" y="-79.3" font-family="Times,serif" font-size="14.00">收缩</text>
<text text-anchor="middle" x="616.163" y="-64.3" font-family="Times,serif" font-size="14.00">外周阻力上升</text>
</g>
<!-- 血管&#45;&gt;血压升高 -->
<g id="edge8" class="edge"><title>血管&#45;&gt;血压升高</title>
<path fill="none" stroke="black" d="M667.48,-83C675.749,-83 684.374,-83 692.801,-83"/>
<polygon fill="black" stroke="black" points="692.944,-86.5001 702.944,-83 692.944,-79.5001 692.944,-86.5001"/>
</g>
<!-- 肾上腺 -->
<g id="node3" class="node"><title>肾上腺</title>
<polygon fill="none" stroke="black" points="653.163,-38 579.163,-38 579.163,-0 653.163,-0 653.163,-38"/>
<text text-anchor="middle" x="616.163" y="-22.8" font-family="Times,serif" font-size="14.00">肾上腺</text>
<text text-anchor="middle" x="616.163" y="-7.8" font-family="Times,serif" font-size="14.00">肾上腺素</text>
</g>
<!-- 肾上腺&#45;&gt;血压升高 -->
<g id="edge9" class="edge"><title>肾上腺&#45;&gt;血压升高</title>
<path fill="none" stroke="black" d="M653.18,-36.3193C671.357,-45.0599 693.414,-55.6662 711.907,-64.5586"/>
<polygon fill="black" stroke="black" points="710.41,-67.7223 720.939,-68.9017 713.444,-61.4138 710.41,-67.7223"/>
</g>
<!-- 血压降低 -->
<g id="node4" class="node"><title>血压降低</title>
<ellipse fill="none" stroke="black" cx="48.0957" cy="-83" rx="48.1917" ry="18"/>
<text text-anchor="middle" x="48.0957" y="-79.3" font-family="Times,serif" font-size="14.00">血压降低</text>
</g>
<!-- 压力感受器 -->
<g id="node5" class="node"><title>压力感受器</title>
<ellipse fill="none" stroke="black" cx="189.386" cy="-83" rx="57.3905" ry="18"/>
<text text-anchor="middle" x="189.386" y="-79.3" font-family="Times,serif" font-size="14.00">压力感受器</text>
</g>
<!-- 血压降低&#45;&gt;压力感受器 -->
<g id="edge1" class="edge"><title>血压降低&#45;&gt;压力感受器</title>
<path fill="none" stroke="black" d="M96.2532,-83C104.535,-83 113.293,-83 121.983,-83"/>
<polygon fill="black" stroke="black" points="122.121,-86.5001 132.121,-83 122.12,-79.5001 122.121,-86.5001"/>
</g>
<!-- 心血管中枢 -->
<g id="node6" class="node"><title>心血管中枢</title>
<ellipse fill="none" stroke="black" cx="339.776" cy="-83" rx="57.3905" ry="18"/>
<text text-anchor="middle" x="339.776" y="-79.3" font-family="Times,serif" font-size="14.00">心血管中枢</text>
</g>
<!-- 压力感受器&#45;&gt;心血管中枢 -->
<g id="edge2" class="edge"><title>压力感受器&#45;&gt;心血管中枢</title>
<path fill="none" stroke="black" d="M246.91,-83C255.178,-83 263.757,-83 272.204,-83"/>
<polygon fill="black" stroke="black" points="272.41,-86.5001 282.41,-83 272.41,-79.5001 272.41,-86.5001"/>
</g>
<!-- 交感神经 -->
<g id="node7" class="node"><title>交感神经</title>
<ellipse fill="none" stroke="black" cx="481.067" cy="-83" rx="48.1917" ry="18"/>
<text text-anchor="middle" x="481.067" y="-79.3" font-family="Times,serif" font-size="14.00">交感神经</text>
</g>
<!-- 心血管中枢&#45;&gt;交感神经 -->
<g id="edge3" class="edge"><title>心血管中枢&#45;&gt;交感神经</title>
<path fill="none" stroke="black" d="M397.03,-83C405.404,-83 414.046,-83 422.447,-83"/>
<polygon fill="black" stroke="black" points="422.542,-86.5001 432.542,-83 422.542,-79.5001 422.542,-86.5001"/>
</g>
<!-- 交感神经&#45;&gt;心脏 -->
<g id="edge4" class="edge"><title>交感神经&#45;&gt;心脏</title>
<path fill="none" stroke="black" d="M509.644,-97.7112C525.152,-105.984 545.02,-116.582 563.324,-126.347"/>
<polygon fill="black" stroke="black" points="561.688,-129.441 572.158,-131.059 564.983,-123.265 561.688,-129.441"/>
</g>
<!-- 交感神经&#45;&gt;血管 -->
<g id="edge5" class="edge"><title>交感神经&#45;&gt;血管</title>
<path fill="none" stroke="black" d="M529.366,-83C537.547,-83 546.152,-83 554.626,-83"/>
<polygon fill="black" stroke="black" points="554.86,-86.5001 564.86,-83 554.86,-79.5001 554.86,-86.5001"/>
</g>
<!-- 交感神经&#45;&gt;肾上腺 -->
<g id="edge6" class="edge"><title>交感神经&#45;&gt;肾上腺</title>
<path fill="none" stroke="black" d="M511.275,-68.9549C528.373,-60.7334 550.333,-50.1739 569.655,-40.8828"/>
<polygon fill="black" stroke="black" points="571.4,-43.9273 578.895,-36.4394 568.366,-37.6188 571.4,-43.9273"/>
</g>
</g>
</svg>
