<?xml version="1.0" encoding="UTF-8" standalone="no"?>
<!DOCTYPE svg PUBLIC "-//W3C//DTD SVG 1.1//EN"
 "http://www.w3.org/Graphics/SVG/1.1/DTD/svg11.dtd">
<!-- Generated by graphviz version 2.38.0 (20140413.2041)
 -->
<!-- Title: low Pages: 1 -->
<svg width="826pt" height="132pt"
 viewBox="0.00 0.00 825.55 132.00" xmlns="http://www.w3.org/2000/svg" xmlns:xlink="http://www.w3.org/1999/xlink">
<g id="graph0" class="graph" transform="scale(1 1) rotate(0) translate(4 128)">
<title>low</title>
<polygon fill="white" stroke="none" points="-4,4 -4,-128 821.552,-128 821.552,4 -4,4"/>
<!-- 心脏 -->
<g id="node1" class="node"><title>心脏</title>
<polygon fill="none" stroke="black" points="678.361,-124 590.361,-124 590.361,-71 678.361,-71 678.361,-124"/>
<text text-anchor="middle" x="634.361" y="-108.8" font-family="Times,serif" font-size="14.00">心脏</text>
<text text-anchor="middle" x="634.361" y="-93.8" font-family="Times,serif" font-size="14.00">心率下降</text>
<text text-anchor="middle" x="634.361" y="-78.8" font-family="Times,serif" font-size="14.00">排血量下降</text>
</g>
<!-- 血压降低 -->
<g id="node7" class="node"><title>血压降低</title>
<ellipse fill="none" stroke="black" cx="769.457" cy="-61.5" rx="48.1917" ry="18"/>
<text text-anchor="middle" x="769.457" y="-57.8" font-family="Times,serif" font-size="14.00">血压降低</text>
</g>
<!-- 心脏&#45;&gt;血压降低 -->
<g id="edge6" class="edge"><title>心脏&#45;&gt;血压降低</title>
<path fill="none" stroke="black" d="M678.573,-85.8118C691.889,-82.2103 706.631,-78.2227 720.26,-74.5364"/>
<polygon fill="black" stroke="black" points="721.211,-77.905 729.95,-71.9153 719.383,-71.1478 721.211,-77.905"/>
</g>
<!-- 血管 -->
<g id="node2" class="node"><title>血管</title>
<polygon fill="none" stroke="black" points="685.361,-53 583.361,-53 583.361,-3.55271e-15 685.361,-3.55271e-15 685.361,-53"/>
<text text-anchor="middle" x="634.361" y="-37.8" font-family="Times,serif" font-size="14.00">血管</text>
<text text-anchor="middle" x="634.361" y="-22.8" font-family="Times,serif" font-size="14.00">舒张</text>
<text text-anchor="middle" x="634.361" y="-7.8" font-family="Times,serif" font-size="14.00">外周阻力下降</text>
</g>
<!-- 血管&#45;&gt;血压降低 -->
<g id="edge7" class="edge"><title>血管&#45;&gt;血压降低</title>
<path fill="none" stroke="black" d="M685.679,-39.732C696.838,-42.6666 708.646,-45.7717 719.74,-48.6891"/>
<polygon fill="black" stroke="black" points="719.128,-52.1469 729.689,-51.3053 720.908,-45.3771 719.128,-52.1469"/>
</g>
<!-- 血压升高 -->
<g id="node3" class="node"><title>血压升高</title>
<ellipse fill="none" stroke="black" cx="48.0957" cy="-61.5" rx="48.1917" ry="18"/>
<text text-anchor="middle" x="48.0957" y="-57.8" font-family="Times,serif" font-size="14.00">血压升高</text>
</g>
<!-- 压力感受器 -->
<g id="node4" class="node"><title>压力感受器</title>
<ellipse fill="none" stroke="black" cx="189.386" cy="-61.5" rx="57.3905" ry="18"/>
<text text-anchor="middle" x="189.386" y="-57.8" font-family="Times,serif" font-size="14.00">压力感受器</text>
</g>
<!-- 血压升高&#45;&gt;压力感受器 -->
<g id="edge1" class="edge"><title>血压升高&#45;&gt;压力感受器</title>
<path fill="none" stroke="black" d="M96.2532,-61.5C104.535,-61.5 113.293,-61.5 121.983,-61.5"/>
<polygon fill="black" stroke="black" points="122.121,-65.0001 132.121,-61.5 122.12,-58.0001 122.121,-65.0001"/>
</g>
<!-- 心血管中枢 -->
<g id="node5" class="node"><title>心血管中枢</title>
<ellipse fill="none" stroke="black" cx="339.776" cy="-61.5" rx="57.3905" ry="18"/>
<text text-anchor="middle" x="339.776" y="-57.8" font-family="Times,serif" font-size="14.00">心血管中枢</text>
</g>
<!-- 压力感受器&#45;&gt;心血管中枢 -->
<g id="edge2" class="edge"><title>压力感受器&#45;&gt;心血管中枢</title>
<path fill="none" stroke="black" d="M246.91,-61.5C255.178,-61.5 263.757,-61.5 272.204,-61.5"/>
<polygon fill="black" stroke="black" points="272.41,-65.0001 282.41,-61.5 272.41,-58.0001 272.41,-65.0001"/>
</g>
<!-- 副交感神经 -->
<g id="node6" class="node"><title>副交感神经</title>
<ellipse fill="none" stroke="black" cx="490.166" cy="-61.5" rx="57.3905" ry="18"/>
<text text-anchor="middle" x="490.166" y="-57.8" font-family="Times,serif" font-size="14.00">副交感神经</text>
</g>
<!-- 心血管中枢&#45;&gt;副交感神经 -->
<g id="edge3" class="edge"><title>心血管中枢&#45;&gt;副交感神经</title>
<path fill="none" stroke="black" d="M397.299,-61.5C405.568,-61.5 414.147,-61.5 422.593,-61.5"/>
<polygon fill="black" stroke="black" points="422.8,-65.0001 432.8,-61.5 422.8,-58.0001 422.8,-65.0001"/>
</g>
<!-- 副交感神经&#45;&gt;心脏 -->
<g id="edge4" class="edge"><title>副交感神经&#45;&gt;心脏</title>
<path fill="none" stroke="black" d="M535.378,-72.6933C549.553,-76.2821 565.401,-80.2943 580.15,-84.0285"/>
<polygon fill="black" stroke="black" points="579.599,-87.4992 590.152,-86.5606 581.317,-80.7133 579.599,-87.4992"/>
</g>
<!-- 副交感神经&#45;&gt;血管 -->
<g id="edge5" class="edge"><title>副交感神经&#45;&gt;血管</title>
<path fill="none" stroke="black" d="M535.767,-50.5218C547.657,-47.5953 560.7,-44.3849 573.272,-41.2903"/>
<polygon fill="black" stroke="black" points="574.349,-44.6297 583.223,-38.841 572.676,-37.8326 574.349,-44.6297"/>
</g>
</g>
</svg>
