<?xml version="1.0" encoding="UTF-8" standalone="no"?>
<!DOCTYPE svg PUBLIC "-//W3C//DTD SVG 1.1//EN"
 "http://www.w3.org/Graphics/SVG/1.1/DTD/svg11.dtd">
<!-- Generated by graphviz version 2.38.0 (20140413.2041)
 -->
<!-- Title: factor Pages: 1 -->
<svg width="518pt" height="228pt"
 viewBox="0.00 0.00 517.66 228.00" xmlns="http://www.w3.org/2000/svg" xmlns:xlink="http://www.w3.org/1999/xlink">
<g id="graph0" class="graph" transform="scale(1 1) rotate(0) translate(4 224)">
<title>factor</title>
<polygon fill="white" stroke="none" points="-4,4 -4,-224 513.664,-224 513.664,4 -4,4"/>
<!-- 心脏射血 -->
<g id="node1" class="node"><title>心脏射血</title>
<ellipse fill="none" stroke="black" cx="424.522" cy="-202" rx="48.1917" ry="18"/>
<text text-anchor="middle" x="424.522" y="-198.3" font-family="Times,serif" font-size="14.00">心脏射血</text>
</g>
<!-- 收缩压 -->
<g id="node2" class="node"><title>收缩压</title>
<ellipse fill="none" stroke="black" cx="132.841" cy="-164" rx="38.1938" ry="18"/>
<text text-anchor="middle" x="132.841" y="-160.3" font-family="Times,serif" font-size="14.00">收缩压</text>
</g>
<!-- 心脏射血&#45;&gt;收缩压 -->
<g id="edge1" class="edge"><title>心脏射血&#45;&gt;收缩压</title>
<path fill="none" stroke="black" stroke-dasharray="5,2" d="M376.275,-201.9C332.175,-201.059 264.715,-197.858 207.188,-187 195.943,-184.878 184.002,-181.596 173.093,-178.171"/>
<polygon fill="black" stroke="black" points="174.006,-174.788 163.414,-175.014 171.835,-181.442 174.006,-174.788"/>
</g>
<!-- 动力 -->
<g id="node8" class="node"><title>动力</title>
<ellipse fill="none" stroke="black" cx="255.284" cy="-160" rx="29.4969" ry="18"/>
<text text-anchor="middle" x="255.284" y="-156.3" font-family="Times,serif" font-size="14.00">动力</text>
</g>
<!-- 心脏射血&#45;&gt;动力 -->
<g id="edge5" class="edge"><title>心脏射血&#45;&gt;动力</title>
<path fill="none" stroke="black" d="M383.889,-192.047C352.593,-184.187 309.807,-173.442 282.604,-166.61"/>
</g>
<!-- 血压 -->
<g id="node9" class="node"><title>血压</title>
<ellipse fill="none" stroke="black" cx="29.2474" cy="-137" rx="29.4969" ry="18"/>
<text text-anchor="middle" x="29.2474" y="-133.3" font-family="Times,serif" font-size="14.00">血压</text>
</g>
<!-- 收缩压&#45;&gt;血压 -->
<g id="edge7" class="edge"><title>收缩压&#45;&gt;血压</title>
<path fill="none" stroke="black" d="M99.1372,-155.308C85.3317,-151.639 69.4754,-147.425 56.4578,-143.966"/>
</g>
<!-- 大动脉弹性回缩力 -->
<g id="node3" class="node"><title>大动脉弹性回缩力</title>
<ellipse fill="none" stroke="black" cx="424.522" cy="-141" rx="85.2851" ry="18"/>
<text text-anchor="middle" x="424.522" y="-137.3" font-family="Times,serif" font-size="14.00">大动脉弹性回缩力</text>
</g>
<!-- 舒张压 -->
<g id="node4" class="node"><title>舒张压</title>
<ellipse fill="none" stroke="black" cx="132.841" cy="-110" rx="38.1938" ry="18"/>
<text text-anchor="middle" x="132.841" y="-106.3" font-family="Times,serif" font-size="14.00">舒张压</text>
</g>
<!-- 大动脉弹性回缩力&#45;&gt;舒张压 -->
<g id="edge2" class="edge"><title>大动脉弹性回缩力&#45;&gt;舒张压</title>
<path fill="none" stroke="black" stroke-dasharray="5,2" d="M348.168,-132.936C295.134,-127.261 225.812,-119.842 180.577,-115.001"/>
<polygon fill="black" stroke="black" points="180.78,-111.503 170.464,-113.919 180.035,-118.463 180.78,-111.503"/>
</g>
<!-- 大动脉弹性回缩力&#45;&gt;动力 -->
<g id="edge6" class="edge"><title>大动脉弹性回缩力&#45;&gt;动力</title>
<path fill="none" stroke="black" d="M349.195,-149.444C326.164,-152.061 302.182,-154.785 284.352,-156.811"/>
</g>
<!-- 舒张压&#45;&gt;血压 -->
<g id="edge8" class="edge"><title>舒张压&#45;&gt;血压</title>
<path fill="none" stroke="black" d="M99.1372,-118.692C85.3317,-122.361 69.4754,-126.575 56.4578,-130.034"/>
</g>
<!-- 血管管径 -->
<g id="node5" class="node"><title>血管管径</title>
<ellipse fill="none" stroke="black" cx="424.522" cy="-72" rx="48.1917" ry="18"/>
<text text-anchor="middle" x="424.522" y="-68.3" font-family="Times,serif" font-size="14.00">血管管径</text>
</g>
<!-- 外周阻力 -->
<g id="node6" class="node"><title>外周阻力</title>
<ellipse fill="none" stroke="black" cx="255.284" cy="-68" rx="48.1917" ry="18"/>
<text text-anchor="middle" x="255.284" y="-64.3" font-family="Times,serif" font-size="14.00">外周阻力</text>
</g>
<!-- 血管管径&#45;&gt;外周阻力 -->
<g id="edge3" class="edge"><title>血管管径&#45;&gt;外周阻力</title>
<path fill="none" stroke="black" d="M376.492,-70.8751C353.691,-70.3298 326.37,-69.6763 303.54,-69.1303"/>
</g>
<!-- 外周阻力&#45;&gt;收缩压 -->
<g id="edge9" class="edge"><title>外周阻力&#45;&gt;收缩压</title>
<path fill="none" stroke="black" d="M235.107,-84.5457C218.455,-98.7626 193.566,-119.651 171.188,-137 168.596,-139.01 165.876,-141.068 163.135,-143.109"/>
<polygon fill="black" stroke="black" points="160.953,-140.369 154.961,-149.107 165.094,-146.012 160.953,-140.369"/>
</g>
<!-- 外周阻力&#45;&gt;舒张压 -->
<g id="edge10" class="edge"><title>外周阻力&#45;&gt;舒张压</title>
<path fill="none" stroke="black" d="M219.447,-80.1481C205.222,-85.1086 188.684,-90.8756 173.958,-96.0108"/>
<polygon fill="black" stroke="black" points="172.393,-92.8498 164.103,-99.4474 174.698,-99.4594 172.393,-92.8498"/>
</g>
<!-- 血液黏滞性 -->
<g id="node7" class="node"><title>血液黏滞性</title>
<ellipse fill="none" stroke="black" cx="424.522" cy="-18" rx="57.3905" ry="18"/>
<text text-anchor="middle" x="424.522" y="-14.3" font-family="Times,serif" font-size="14.00">血液黏滞性</text>
</g>
<!-- 血液黏滞性&#45;&gt;外周阻力 -->
<g id="edge4" class="edge"><title>血液黏滞性&#45;&gt;外周阻力</title>
<path fill="none" stroke="black" d="M382.182,-30.3596C355.002,-38.4857 319.734,-49.0299 293.443,-56.8903"/>
</g>
<!-- 动力&#45;&gt;收缩压 -->
<g id="edge11" class="edge"><title>动力&#45;&gt;收缩压</title>
<path fill="none" stroke="black" d="M226.045,-160.938C212.826,-161.377 196.71,-161.912 181.672,-162.412"/>
<polygon fill="black" stroke="black" points="181.36,-158.92 171.482,-162.75 181.592,-165.916 181.36,-158.92"/>
</g>
<!-- 动力&#45;&gt;舒张压 -->
<g id="edge12" class="edge"><title>动力&#45;&gt;舒张压</title>
<path fill="none" stroke="black" d="M230.488,-150.122C213.715,-143.158 190.903,-133.688 171.654,-125.697"/>
<polygon fill="black" stroke="black" points="172.826,-122.395 162.249,-121.793 170.143,-128.86 172.826,-122.395"/>
</g>
</g>
</svg>
