<?xml version="1.0" encoding="UTF-8" standalone="no"?>
<!DOCTYPE svg PUBLIC "-//W3C//DTD SVG 1.1//EN"
 "http://www.w3.org/Graphics/SVG/1.1/DTD/svg11.dtd">
<!-- Generated by graphviz version 2.38.0 (20140413.2041)
 -->
<!-- Title: factor Pages: 1 -->
<svg width="524pt" height="240pt"
 viewBox="0.00 0.00 524.47 240.00" xmlns="http://www.w3.org/2000/svg" xmlns:xlink="http://www.w3.org/1999/xlink">
<g id="graph0" class="graph" transform="scale(1 1) rotate(0) translate(4 236)">
<title>factor</title>
<polygon fill="white" stroke="none" points="-4,4 -4,-236 520.473,-236 520.473,4 -4,4"/>
<!-- 心脏射血 -->
<g id="node1" class="node"><title>心脏射血</title>
<ellipse fill="none" stroke="black" cx="431.33" cy="-214" rx="48.1917" ry="18"/>
<text text-anchor="middle" x="431.33" y="-210.3" font-family="Times,serif" font-size="14.00">心脏射血</text>
</g>
<!-- 收缩压 -->
<g id="node2" class="node"><title>收缩压</title>
<ellipse fill="none" stroke="black" cx="133.841" cy="-169" rx="38.1938" ry="18"/>
<text text-anchor="middle" x="133.841" y="-165.3" font-family="Times,serif" font-size="14.00">收缩压</text>
</g>
<!-- 心脏射血&#45;&gt;收缩压 -->
<g id="edge1" class="edge"><title>心脏射血&#45;&gt;收缩压</title>
<path fill="none" stroke="black" stroke-dasharray="5,2" d="M383.834,-217.138C338.555,-218.977 268.133,-218.587 209.188,-204 194.952,-200.477 180.161,-194.14 167.557,-187.817"/>
<polygon fill="black" stroke="black" points="168.874,-184.556 158.389,-183.031 165.634,-190.761 168.874,-184.556"/>
<text text-anchor="middle" x="369.334" y="-205.938" font-family="Times,serif" font-size="14.00">主要</text>
</g>
<!-- 动力 -->
<g id="node8" class="node"><title>动力</title>
<ellipse fill="none" stroke="black" cx="259.188" cy="-177" rx="29.4969" ry="18"/>
<text text-anchor="middle" x="259.188" y="-173.3" font-family="Times,serif" font-size="14.00">动力</text>
</g>
<!-- 心脏射血&#45;&gt;动力 -->
<g id="edge5" class="edge"><title>心脏射血&#45;&gt;动力</title>
<path fill="none" stroke="black" d="M389.144,-205.043C357.377,-198.135 314.369,-188.782 286.945,-182.819"/>
</g>
<!-- 血压 -->
<g id="node9" class="node"><title>血压</title>
<ellipse fill="none" stroke="black" cx="29.2474" cy="-144" rx="29.4969" ry="18"/>
<text text-anchor="middle" x="29.2474" y="-140.3" font-family="Times,serif" font-size="14.00">血压</text>
</g>
<!-- 收缩压&#45;&gt;血压 -->
<g id="edge7" class="edge"><title>收缩压&#45;&gt;血压</title>
<path fill="none" stroke="black" d="M99.5321,-160.883C85.7239,-157.518 69.9246,-153.669 56.9036,-150.496"/>
</g>
<!-- 大动脉弹性回缩力 -->
<g id="node3" class="node"><title>大动脉弹性回缩力</title>
<ellipse fill="none" stroke="black" cx="431.33" cy="-146" rx="85.2851" ry="18"/>
<text text-anchor="middle" x="431.33" y="-142.3" font-family="Times,serif" font-size="14.00">大动脉弹性回缩力</text>
</g>
<!-- 舒张压 -->
<g id="node4" class="node"><title>舒张压</title>
<ellipse fill="none" stroke="black" cx="133.841" cy="-112" rx="38.1938" ry="18"/>
<text text-anchor="middle" x="133.841" y="-108.3" font-family="Times,serif" font-size="14.00">舒张压</text>
</g>
<!-- 大动脉弹性回缩力&#45;&gt;舒张压 -->
<g id="edge2" class="edge"><title>大动脉弹性回缩力&#45;&gt;舒张压</title>
<path fill="none" stroke="black" stroke-dasharray="5,2" d="M375.785,-132.285C355.063,-127.606 331.161,-122.842 309.188,-120 266.705,-114.505 217.972,-112.639 182.849,-112.07"/>
<polygon fill="black" stroke="black" points="182.453,-108.565 172.408,-111.933 182.361,-115.564 182.453,-108.565"/>
<text text-anchor="middle" x="259.188" y="-138.8" font-family="Times,serif" font-size="14.00">动脉粥样硬化</text>
<text text-anchor="middle" x="259.188" y="-123.8" font-family="Times,serif" font-size="14.00">可使舒张压升高</text>
<text text-anchor="middle" x="390.285" y="-121.085" font-family="Times,serif" font-size="14.00">主要</text>
</g>
<!-- 大动脉弹性回缩力&#45;&gt;动力 -->
<g id="edge6" class="edge"><title>大动脉弹性回缩力&#45;&gt;动力</title>
<path fill="none" stroke="black" d="M366.007,-157.72C338.905,-162.658 308.811,-168.141 287.666,-171.993"/>
</g>
<!-- 舒张压&#45;&gt;血压 -->
<g id="edge8" class="edge"><title>舒张压&#45;&gt;血压</title>
<path fill="none" stroke="black" d="M101.502,-121.775C86.7704,-126.37 69.4366,-131.777 55.5542,-136.107"/>
</g>
<!-- 血管管径 -->
<g id="node5" class="node"><title>血管管径</title>
<ellipse fill="none" stroke="black" cx="431.33" cy="-72" rx="48.1917" ry="18"/>
<text text-anchor="middle" x="431.33" y="-68.3" font-family="Times,serif" font-size="14.00">血管管径</text>
</g>
<!-- 外周阻力 -->
<g id="node6" class="node"><title>外周阻力</title>
<ellipse fill="none" stroke="black" cx="259.188" cy="-57" rx="48.1917" ry="18"/>
<text text-anchor="middle" x="259.188" y="-53.3" font-family="Times,serif" font-size="14.00">外周阻力</text>
</g>
<!-- 血管管径&#45;&gt;外周阻力 -->
<g id="edge3" class="edge"><title>血管管径&#45;&gt;外周阻力</title>
<path fill="none" stroke="black" d="M384.287,-67.9408C360.077,-65.8064 330.483,-63.1973 306.268,-61.0625"/>
</g>
<!-- 外周阻力&#45;&gt;收缩压 -->
<g id="edge12" class="edge"><title>外周阻力&#45;&gt;收缩压</title>
<path fill="none" stroke="black" d="M231.744,-71.8384C224.05,-76.7791 215.914,-82.6563 209.188,-89 189.076,-107.967 191.344,-119.068 172.188,-139 169.415,-141.886 166.364,-144.747 163.239,-147.49"/>
<polygon fill="black" stroke="black" points="160.86,-144.917 155.431,-154.015 165.348,-150.288 160.86,-144.917"/>
<text text-anchor="middle" x="210.244" y="-75.6384" font-family="Times,serif" font-size="14.00">正作用</text>
</g>
<!-- 外周阻力&#45;&gt;舒张压 -->
<g id="edge11" class="edge"><title>外周阻力&#45;&gt;舒张压</title>
<path fill="none" stroke="black" stroke-width="2" d="M214.53,-63.8557C206.248,-65.9248 197.8,-68.5875 190.188,-72 179.858,-76.631 169.535,-83.3722 160.649,-90.0051"/>
<polygon fill="black" stroke="black" stroke-width="2" points="158.358,-87.3535 152.618,-96.2589 162.659,-92.8766 158.358,-87.3535"/>
<text text-anchor="middle" x="193.03" y="-52.6557" font-family="Times,serif" font-size="14.00">正作用</text>
</g>
<!-- 血液黏滞性 -->
<g id="node7" class="node"><title>血液黏滞性</title>
<ellipse fill="none" stroke="black" cx="431.33" cy="-18" rx="57.3905" ry="18"/>
<text text-anchor="middle" x="431.33" y="-14.3" font-family="Times,serif" font-size="14.00">血液黏滞性</text>
</g>
<!-- 血液黏滞性&#45;&gt;外周阻力 -->
<g id="edge4" class="edge"><title>血液黏滞性&#45;&gt;外周阻力</title>
<path fill="none" stroke="black" d="M384.735,-28.4513C358.552,-34.4531 325.958,-41.9243 300.681,-47.7181"/>
</g>
<!-- 动力&#45;&gt;收缩压 -->
<g id="edge9" class="edge"><title>动力&#45;&gt;收缩压</title>
<path fill="none" stroke="black" d="M229.89,-175.165C215.77,-174.249 198.311,-173.117 182.224,-172.073"/>
<polygon fill="black" stroke="black" points="182.106,-168.558 171.9,-171.404 181.653,-175.544 182.106,-168.558"/>
</g>
<!-- 动力&#45;&gt;舒张压 -->
<g id="edge10" class="edge"><title>动力&#45;&gt;舒张压</title>
<path fill="none" stroke="black" d="M236.42,-165.529C217.781,-155.707 190.62,-141.394 169.073,-130.039"/>
<polygon fill="black" stroke="black" points="170.702,-126.941 160.224,-125.376 167.439,-133.134 170.702,-126.941"/>
</g>
</g>
</svg>
