<?xml version="1.0" encoding="UTF-8" standalone="no"?>
<!DOCTYPE svg PUBLIC "-//W3C//DTD SVG 1.1//EN"
 "http://www.w3.org/Graphics/SVG/1.1/DTD/svg11.dtd">
<!-- Generated by graphviz version 2.38.0 (20140413.2041)
 -->
<!-- Title: low Pages: 1 -->
<svg width="826pt" height="118pt"
 viewBox="0.00 0.00 825.55 117.50" xmlns="http://www.w3.org/2000/svg" xmlns:xlink="http://www.w3.org/1999/xlink">
<g id="graph0" class="graph" transform="scale(1 1) rotate(0) translate(4 113.5)">
<title>low</title>
<polygon fill="white" stroke="none" points="-4,4 -4,-113.5 821.552,-113.5 821.552,4 -4,4"/>
<!-- 心脏 -->
<g id="node1" class="node"><title>心脏</title>
<polygon fill="none" stroke="black" points="678.361,-109.5 590.361,-109.5 590.361,-56.5 678.361,-56.5 678.361,-109.5"/>
<text text-anchor="middle" x="634.361" y="-94.3" font-family="Times,serif" font-size="14.00">心脏</text>
<text text-anchor="middle" x="634.361" y="-79.3" font-family="Times,serif" font-size="14.00">心率下降</text>
<text text-anchor="middle" x="634.361" y="-64.3" font-family="Times,serif" font-size="14.00">排血量下降</text>
</g>
<!-- 血压降低 -->
<g id="node7" class="node"><title>血压降低</title>
<ellipse fill="none" stroke="black" cx="769.457" cy="-51" rx="48.1917" ry="18"/>
<text text-anchor="middle" x="769.457" y="-47.3" font-family="Times,serif" font-size="14.00">血压降低</text>
</g>
<!-- 心脏&#45;&gt;血压降低 -->
<g id="edge6" class="edge"><title>心脏&#45;&gt;血压降低</title>
<path fill="none" stroke="black" d="M678.573,-72.6105C691.396,-69.5275 705.543,-66.1262 718.744,-62.9524"/>
<polygon fill="black" stroke="black" points="719.712,-66.3195 728.617,-60.5787 718.075,-59.5134 719.712,-66.3195"/>
</g>
<!-- 血管 -->
<g id="node2" class="node"><title>血管</title>
<polygon fill="none" stroke="black" points="685.361,-38 583.361,-38 583.361,-0 685.361,-0 685.361,-38"/>
<text text-anchor="middle" x="634.361" y="-22.8" font-family="Times,serif" font-size="14.00">舒张</text>
<text text-anchor="middle" x="634.361" y="-7.8" font-family="Times,serif" font-size="14.00">外周阻力下降</text>
</g>
<!-- 血管&#45;&gt;血压降低 -->
<g id="edge7" class="edge"><title>血管&#45;&gt;血压降低</title>
<path fill="none" stroke="black" d="M685.679,-31.0978C696.39,-33.673 707.698,-36.3918 718.399,-38.9647"/>
<polygon fill="black" stroke="black" points="717.892,-42.4425 728.433,-41.3773 719.529,-35.6365 717.892,-42.4425"/>
</g>
<!-- 血压升高 -->
<g id="node3" class="node"><title>血压升高</title>
<ellipse fill="none" stroke="black" cx="48.0957" cy="-51" rx="48.1917" ry="18"/>
<text text-anchor="middle" x="48.0957" y="-47.3" font-family="Times,serif" font-size="14.00">血压升高</text>
</g>
<!-- 压力感受器 -->
<g id="node4" class="node"><title>压力感受器</title>
<ellipse fill="none" stroke="black" cx="189.386" cy="-51" rx="57.3905" ry="18"/>
<text text-anchor="middle" x="189.386" y="-47.3" font-family="Times,serif" font-size="14.00">压力感受器</text>
</g>
<!-- 血压升高&#45;&gt;压力感受器 -->
<g id="edge1" class="edge"><title>血压升高&#45;&gt;压力感受器</title>
<path fill="none" stroke="black" d="M96.2532,-51C104.535,-51 113.293,-51 121.983,-51"/>
<polygon fill="black" stroke="black" points="122.121,-54.5001 132.121,-51 122.12,-47.5001 122.121,-54.5001"/>
</g>
<!-- 心血管中枢 -->
<g id="node5" class="node"><title>心血管中枢</title>
<ellipse fill="none" stroke="black" cx="339.776" cy="-51" rx="57.3905" ry="18"/>
<text text-anchor="middle" x="339.776" y="-47.3" font-family="Times,serif" font-size="14.00">心血管中枢</text>
</g>
<!-- 压力感受器&#45;&gt;心血管中枢 -->
<g id="edge2" class="edge"><title>压力感受器&#45;&gt;心血管中枢</title>
<path fill="none" stroke="black" d="M246.91,-51C255.178,-51 263.757,-51 272.204,-51"/>
<polygon fill="black" stroke="black" points="272.41,-54.5001 282.41,-51 272.41,-47.5001 272.41,-54.5001"/>
</g>
<!-- 副交感神经 -->
<g id="node6" class="node"><title>副交感神经</title>
<ellipse fill="none" stroke="black" cx="490.166" cy="-51" rx="57.3905" ry="18"/>
<text text-anchor="middle" x="490.166" y="-47.3" font-family="Times,serif" font-size="14.00">副交感神经</text>
</g>
<!-- 心血管中枢&#45;&gt;副交感神经 -->
<g id="edge3" class="edge"><title>心血管中枢&#45;&gt;副交感神经</title>
<path fill="none" stroke="black" d="M397.299,-51C405.568,-51 414.147,-51 422.593,-51"/>
<polygon fill="black" stroke="black" points="422.8,-54.5001 432.8,-51 422.8,-47.5001 422.8,-54.5001"/>
</g>
<!-- 副交感神经&#45;&gt;心脏 -->
<g id="edge4" class="edge"><title>副交感神经&#45;&gt;心脏</title>
<path fill="none" stroke="black" d="M537.333,-61.3895C551.036,-64.4734 566.155,-67.8757 580.261,-71.0503"/>
<polygon fill="black" stroke="black" points="579.795,-74.5328 590.32,-73.3138 581.332,-67.7036 579.795,-74.5328"/>
</g>
<!-- 副交感神经&#45;&gt;血管 -->
<g id="edge5" class="edge"><title>副交感神经&#45;&gt;血管</title>
<path fill="none" stroke="black" d="M537.333,-40.6105C548.737,-38.0442 561.12,-35.2573 573.085,-32.5647"/>
<polygon fill="black" stroke="black" points="574.019,-35.9422 583.006,-30.332 572.482,-29.113 574.019,-35.9422"/>
</g>
</g>
</svg>
